M48
; DRILL file {KiCad (5.1.4)-1} date 10/31/2019 11:38:11 AM
; FORMAT={-:-/ absolute / inch / decimal}
; #@! TF.CreationDate,2019-10-31T11:38:11-04:00
; #@! TF.GenerationSoftware,Kicad,Pcbnew,(5.1.4)-1
; #@! TF.FileFunction,Plated,1,2,PTH
FMAT,2
INCH
T1C0.0157
T2C0.0300
T3C0.0315
%
G90
G05
T1
X3.66Y-3.45
X3.67Y-3.71
X3.7625Y-4.0425
X3.765Y-2.97
X3.865Y-3.885
X3.9274Y-4.1574
X3.945Y-3.76
X3.9964Y-3.7564
X4.005Y-3.955
X4.005Y-4.225
X4.025Y-3.685
X4.205Y-4.2
X4.24Y-3.615
X4.28Y-3.5896
X4.33Y-3.3788
X4.375Y-3.945
X4.43Y-4.185
X4.48Y-4.23
X4.64Y-3.25
X4.6429Y-3.9029
X4.7971Y-3.0029
X4.815Y-3.755
X4.895Y-3.815
X4.965Y-3.26
X5.005Y-2.865
X5.125Y-3.765
X5.44Y-3.67
X5.5Y-3.23
X5.505Y-3.915
X5.545Y-3.325
X5.675Y-3.145
X5.8157Y-4.2107
X5.8243Y-3.1393
X5.84Y-3.04
X5.86Y-3.525
X5.95Y-3.435
X5.955Y-3.325
X6.02Y-2.875
X6.025Y-4.195
X6.035Y-3.29
X6.07Y-3.445
X6.075Y-3.37
X6.115Y-3.63
X6.155Y-3.34
X6.195Y-4.18
X6.195Y-4.305
X6.595Y-3.97
T2
X3.685Y-4.105
X3.785Y-4.105
X3.885Y-4.105
X4.095Y-4.105
X4.195Y-4.105
X4.295Y-4.105
X5.25Y-4.27
X5.25Y-4.37
X5.25Y-4.47
X5.25Y-4.57
X6.525Y-4.045
X6.525Y-4.145
X6.525Y-4.245
X6.525Y-4.345
X6.525Y-4.445
X6.525Y-4.545
X6.525Y-4.645
X6.525Y-4.745
X5.47Y-4.755
X5.57Y-4.755
X5.67Y-4.755
X5.77Y-4.755
X6.04Y-3.52
X6.04Y-3.62
X6.04Y-3.72
X6.04Y-3.82
X3.625Y-4.8
X3.725Y-4.8
X3.825Y-4.8
X3.925Y-4.8
X6.22Y-2.56
X6.22Y-2.66
X6.22Y-2.76
X6.22Y-2.86
X6.22Y-2.96
X6.22Y-3.06
X6.22Y-3.16
X6.22Y-3.26
X6.22Y-3.36
X6.22Y-3.46
X6.22Y-3.56
X6.22Y-3.66
X6.22Y-3.76
X6.22Y-3.86
X6.22Y-3.96
X7.12Y-2.56
X7.12Y-2.66
X7.12Y-2.76
X7.12Y-2.86
X7.12Y-2.96
X7.12Y-3.06
X7.12Y-3.16
X7.12Y-3.26
X7.12Y-3.36
X7.12Y-3.46
X7.12Y-3.56
X7.12Y-3.66
X7.12Y-3.76
X7.12Y-3.86
X7.12Y-3.96
X6.04Y-2.585
X6.04Y-2.685
X6.04Y-2.785
X6.295Y-4.135
X6.295Y-4.235
X6.295Y-4.335
X6.295Y-4.435
X3.585Y-2.56
X3.585Y-2.66
X3.585Y-2.76
X3.585Y-2.86
X3.585Y-2.96
X3.585Y-3.06
X3.585Y-3.16
X3.585Y-3.26
X3.585Y-3.36
X3.585Y-3.46
X3.585Y-3.56
X3.585Y-3.66
X3.585Y-3.76
X3.585Y-3.86
X3.585Y-3.96
X4.485Y-2.56
X4.485Y-2.66
X4.485Y-2.76
X4.485Y-2.86
X4.485Y-2.96
X4.485Y-3.06
X4.485Y-3.16
X4.485Y-3.26
X4.485Y-3.36
X4.485Y-3.46
X4.485Y-3.56
X4.485Y-3.66
X4.485Y-3.76
X4.485Y-3.86
X4.485Y-3.96
X5.98Y-4.76
X6.08Y-4.76
X6.18Y-4.76
X6.28Y-4.76
X5.995Y-2.985
X5.995Y-3.085
X5.995Y-3.185
X4.1Y-4.8
X4.2Y-4.8
X4.3Y-4.8
X4.4Y-4.8
T3
X3.6Y-4.325
X3.6Y-4.625
X6.68Y-3.585
X6.68Y-3.885
X4.055Y-4.33
X4.055Y-4.63
X3.72Y-4.325
X3.72Y-4.625
X4.18Y-4.33
X4.18Y-4.63
X4.717Y-3.355
X4.717Y-3.455
X4.717Y-3.555
X4.717Y-3.655
X4.717Y-3.755
X4.717Y-3.855
X4.717Y-3.955
X4.717Y-4.055
X5.013Y-3.355
X5.013Y-3.455
X5.013Y-3.555
X5.013Y-3.655
X5.013Y-3.755
X5.013Y-3.855
X5.013Y-3.955
X5.013Y-4.055
X4.5742Y-4.315
X4.5742Y-4.415
X4.5742Y-4.515
X4.5742Y-4.615
X4.5742Y-4.715
X4.5742Y-4.815
X4.9758Y-4.315
X4.9758Y-4.415
X4.9758Y-4.515
X4.9758Y-4.615
X4.9758Y-4.715
X4.9758Y-4.815
X5.555Y-4.0792
X5.555Y-4.4808
X5.655Y-4.0792
X5.655Y-4.4808
X5.755Y-4.0792
X5.755Y-4.4808
X5.855Y-4.0792
X5.855Y-4.4808
X5.955Y-4.0792
X5.955Y-4.4808
X6.055Y-4.0792
X6.055Y-4.4808
X5.3542Y-3.415
X5.3542Y-3.515
X5.3542Y-3.615
X5.3542Y-3.715
X5.3542Y-3.815
X5.3542Y-3.915
X5.7558Y-3.415
X5.7558Y-3.515
X5.7558Y-3.615
X5.7558Y-3.715
X5.7558Y-3.815
X5.7558Y-3.915
X4.305Y-4.33
X4.305Y-4.63
X4.935Y-2.722
X4.935Y-3.018
X5.035Y-2.722
X5.035Y-3.018
X5.135Y-2.722
X5.135Y-3.018
X5.235Y-2.722
X5.235Y-3.018
X5.335Y-2.722
X5.335Y-3.018
X5.435Y-2.722
X5.435Y-3.018
X5.535Y-2.722
X5.535Y-3.018
X5.635Y-2.722
X5.635Y-3.018
X6.84Y-3.585
X6.84Y-3.885
X3.862Y-3.035
X3.862Y-3.135
X3.862Y-3.235
X3.862Y-3.335
X3.862Y-3.435
X3.862Y-3.535
X3.862Y-3.635
X3.862Y-3.735
X4.158Y-3.035
X4.158Y-3.135
X4.158Y-3.235
X4.158Y-3.335
X4.158Y-3.435
X4.158Y-3.535
X4.158Y-3.635
X4.158Y-3.735
X3.84Y-4.325
X3.84Y-4.625
T0
M30
