G04 #@! TF.GenerationSoftware,KiCad,Pcbnew,(5.1.4)-1*
G04 #@! TF.CreationDate,2019-10-31T11:37:51-04:00*
G04 #@! TF.ProjectId,central_board,63656e74-7261-46c5-9f62-6f6172642e6b,v01*
G04 #@! TF.SameCoordinates,Original*
G04 #@! TF.FileFunction,Legend,Bot*
G04 #@! TF.FilePolarity,Positive*
%FSLAX46Y46*%
G04 Gerber Fmt 4.6, Leading zero omitted, Abs format (unit mm)*
G04 Created by KiCad (PCBNEW (5.1.4)-1) date 2019-10-31 11:37:51*
%MOMM*%
%LPD*%
G04 APERTURE LIST*
%ADD10C,0.150000*%
%ADD11C,0.120000*%
G04 APERTURE END LIST*
D10*
X181334794Y-125658571D02*
X181197889Y-125706190D01*
X181156223Y-125753809D01*
X181120508Y-125849047D01*
X181138366Y-125991904D01*
X181197889Y-126087142D01*
X181251461Y-126134761D01*
X181352651Y-126182380D01*
X181733604Y-126182380D01*
X181608604Y-125182380D01*
X181275270Y-125182380D01*
X181185985Y-125230000D01*
X181144318Y-125277619D01*
X181108604Y-125372857D01*
X181120508Y-125468095D01*
X181180032Y-125563333D01*
X181233604Y-125610952D01*
X181334794Y-125658571D01*
X181668127Y-125658571D01*
X180305032Y-126182380D02*
X180239556Y-125658571D01*
X180275270Y-125563333D01*
X180364556Y-125515714D01*
X180555032Y-125515714D01*
X180656223Y-125563333D01*
X180299080Y-126134761D02*
X180400270Y-126182380D01*
X180638366Y-126182380D01*
X180727651Y-126134761D01*
X180763366Y-126039523D01*
X180751461Y-125944285D01*
X180691937Y-125849047D01*
X180590747Y-125801428D01*
X180352651Y-125801428D01*
X180251461Y-125753809D01*
X179394318Y-126134761D02*
X179495508Y-126182380D01*
X179685985Y-126182380D01*
X179775270Y-126134761D01*
X179816937Y-126087142D01*
X179852651Y-125991904D01*
X179816937Y-125706190D01*
X179757413Y-125610952D01*
X179703842Y-125563333D01*
X179602651Y-125515714D01*
X179412175Y-125515714D01*
X179322889Y-125563333D01*
X178971699Y-126182380D02*
X178846699Y-125182380D01*
X178828842Y-125801428D02*
X178590747Y-126182380D01*
X178507413Y-125515714D02*
X178935985Y-125896666D01*
D11*
X171042000Y-98139000D02*
X170712000Y-98139000D01*
X171042000Y-91599000D02*
X171042000Y-98139000D01*
X170712000Y-91599000D02*
X171042000Y-91599000D01*
X168302000Y-98139000D02*
X168632000Y-98139000D01*
X168302000Y-91599000D02*
X168302000Y-98139000D01*
X168632000Y-91599000D02*
X168302000Y-91599000D01*
X172696000Y-91599000D02*
X172366000Y-91599000D01*
X172366000Y-91599000D02*
X172366000Y-98139000D01*
X172366000Y-98139000D02*
X172696000Y-98139000D01*
X174776000Y-91599000D02*
X175106000Y-91599000D01*
X175106000Y-91599000D02*
X175106000Y-98139000D01*
X175106000Y-98139000D02*
X174776000Y-98139000D01*
X101627000Y-110522000D02*
X101957000Y-110522000D01*
X101627000Y-117062000D02*
X101627000Y-110522000D01*
X101957000Y-117062000D02*
X101627000Y-117062000D01*
X104367000Y-110522000D02*
X104037000Y-110522000D01*
X104367000Y-117062000D02*
X104367000Y-110522000D01*
X104037000Y-117062000D02*
X104367000Y-117062000D01*
X92480000Y-116935000D02*
X92810000Y-116935000D01*
X92810000Y-116935000D02*
X92810000Y-110395000D01*
X92810000Y-110395000D02*
X92480000Y-110395000D01*
X90400000Y-116935000D02*
X90070000Y-116935000D01*
X90070000Y-116935000D02*
X90070000Y-110395000D01*
X90070000Y-110395000D02*
X90400000Y-110395000D01*
X107212000Y-117062000D02*
X107542000Y-117062000D01*
X107542000Y-117062000D02*
X107542000Y-110522000D01*
X107542000Y-110522000D02*
X107212000Y-110522000D01*
X105132000Y-117062000D02*
X104802000Y-117062000D01*
X104802000Y-117062000D02*
X104802000Y-110522000D01*
X104802000Y-110522000D02*
X105132000Y-110522000D01*
X93118000Y-110395000D02*
X93448000Y-110395000D01*
X93118000Y-116935000D02*
X93118000Y-110395000D01*
X93448000Y-116935000D02*
X93118000Y-116935000D01*
X95858000Y-110395000D02*
X95528000Y-110395000D01*
X95858000Y-116935000D02*
X95858000Y-110395000D01*
X95528000Y-116935000D02*
X95858000Y-116935000D01*
X98576000Y-116935000D02*
X98906000Y-116935000D01*
X98906000Y-116935000D02*
X98906000Y-110395000D01*
X98906000Y-110395000D02*
X98576000Y-110395000D01*
X96496000Y-116935000D02*
X96166000Y-116935000D01*
X96166000Y-116935000D02*
X96166000Y-110395000D01*
X96166000Y-110395000D02*
X96496000Y-110395000D01*
X107977000Y-110522000D02*
X108307000Y-110522000D01*
X107977000Y-117062000D02*
X107977000Y-110522000D01*
X108307000Y-117062000D02*
X107977000Y-117062000D01*
X110717000Y-110522000D02*
X110387000Y-110522000D01*
X110717000Y-117062000D02*
X110717000Y-110522000D01*
X110387000Y-117062000D02*
X110717000Y-117062000D01*
X96594001Y-95969000D02*
X96594000Y-75989000D01*
X96594000Y-75989000D02*
X107113999Y-75989000D01*
X107113999Y-75989000D02*
X107114000Y-95969000D01*
X107114000Y-95969000D02*
X103607333Y-95969000D01*
X103607333Y-95969000D02*
X103607333Y-95609000D01*
X103607333Y-95609000D02*
X100100667Y-95609000D01*
X100100667Y-95609000D02*
X100100667Y-95969000D01*
X100100667Y-95969000D02*
X96594001Y-95969000D01*
D10*
X169838666Y-97226380D02*
X170172000Y-96750190D01*
X170410095Y-97226380D02*
X170410095Y-96226380D01*
X170029142Y-96226380D01*
X169933904Y-96274000D01*
X169886285Y-96321619D01*
X169838666Y-96416857D01*
X169838666Y-96559714D01*
X169886285Y-96654952D01*
X169933904Y-96702571D01*
X170029142Y-96750190D01*
X170410095Y-96750190D01*
X168886285Y-97226380D02*
X169457714Y-97226380D01*
X169172000Y-97226380D02*
X169172000Y-96226380D01*
X169267238Y-96369238D01*
X169362476Y-96464476D01*
X169457714Y-96512095D01*
X173902666Y-97480380D02*
X174236000Y-97004190D01*
X174474095Y-97480380D02*
X174474095Y-96480380D01*
X174093142Y-96480380D01*
X173997904Y-96528000D01*
X173950285Y-96575619D01*
X173902666Y-96670857D01*
X173902666Y-96813714D01*
X173950285Y-96908952D01*
X173997904Y-96956571D01*
X174093142Y-97004190D01*
X174474095Y-97004190D01*
X173521714Y-96575619D02*
X173474095Y-96528000D01*
X173378857Y-96480380D01*
X173140761Y-96480380D01*
X173045523Y-96528000D01*
X172997904Y-96575619D01*
X172950285Y-96670857D01*
X172950285Y-96766095D01*
X172997904Y-96908952D01*
X173569333Y-97480380D01*
X172950285Y-97480380D01*
X103036666Y-116022380D02*
X103370000Y-115546190D01*
X103608095Y-116022380D02*
X103608095Y-115022380D01*
X103227142Y-115022380D01*
X103131904Y-115070000D01*
X103084285Y-115117619D01*
X103036666Y-115212857D01*
X103036666Y-115355714D01*
X103084285Y-115450952D01*
X103131904Y-115498571D01*
X103227142Y-115546190D01*
X103608095Y-115546190D01*
X102703333Y-115022380D02*
X102084285Y-115022380D01*
X102417619Y-115403333D01*
X102274761Y-115403333D01*
X102179523Y-115450952D01*
X102131904Y-115498571D01*
X102084285Y-115593809D01*
X102084285Y-115831904D01*
X102131904Y-115927142D01*
X102179523Y-115974761D01*
X102274761Y-116022380D01*
X102560476Y-116022380D01*
X102655714Y-115974761D01*
X102703333Y-115927142D01*
X91606666Y-116022380D02*
X91940000Y-115546190D01*
X92178095Y-116022380D02*
X92178095Y-115022380D01*
X91797142Y-115022380D01*
X91701904Y-115070000D01*
X91654285Y-115117619D01*
X91606666Y-115212857D01*
X91606666Y-115355714D01*
X91654285Y-115450952D01*
X91701904Y-115498571D01*
X91797142Y-115546190D01*
X92178095Y-115546190D01*
X90749523Y-115355714D02*
X90749523Y-116022380D01*
X90987619Y-114974761D02*
X91225714Y-115689047D01*
X90606666Y-115689047D01*
X106338666Y-116022380D02*
X106672000Y-115546190D01*
X106910095Y-116022380D02*
X106910095Y-115022380D01*
X106529142Y-115022380D01*
X106433904Y-115070000D01*
X106386285Y-115117619D01*
X106338666Y-115212857D01*
X106338666Y-115355714D01*
X106386285Y-115450952D01*
X106433904Y-115498571D01*
X106529142Y-115546190D01*
X106910095Y-115546190D01*
X105433904Y-115022380D02*
X105910095Y-115022380D01*
X105957714Y-115498571D01*
X105910095Y-115450952D01*
X105814857Y-115403333D01*
X105576761Y-115403333D01*
X105481523Y-115450952D01*
X105433904Y-115498571D01*
X105386285Y-115593809D01*
X105386285Y-115831904D01*
X105433904Y-115927142D01*
X105481523Y-115974761D01*
X105576761Y-116022380D01*
X105814857Y-116022380D01*
X105910095Y-115974761D01*
X105957714Y-115927142D01*
X94654666Y-116022380D02*
X94988000Y-115546190D01*
X95226095Y-116022380D02*
X95226095Y-115022380D01*
X94845142Y-115022380D01*
X94749904Y-115070000D01*
X94702285Y-115117619D01*
X94654666Y-115212857D01*
X94654666Y-115355714D01*
X94702285Y-115450952D01*
X94749904Y-115498571D01*
X94845142Y-115546190D01*
X95226095Y-115546190D01*
X93797523Y-115022380D02*
X93988000Y-115022380D01*
X94083238Y-115070000D01*
X94130857Y-115117619D01*
X94226095Y-115260476D01*
X94273714Y-115450952D01*
X94273714Y-115831904D01*
X94226095Y-115927142D01*
X94178476Y-115974761D01*
X94083238Y-116022380D01*
X93892761Y-116022380D01*
X93797523Y-115974761D01*
X93749904Y-115927142D01*
X93702285Y-115831904D01*
X93702285Y-115593809D01*
X93749904Y-115498571D01*
X93797523Y-115450952D01*
X93892761Y-115403333D01*
X94083238Y-115403333D01*
X94178476Y-115450952D01*
X94226095Y-115498571D01*
X94273714Y-115593809D01*
X97702666Y-116022380D02*
X98036000Y-115546190D01*
X98274095Y-116022380D02*
X98274095Y-115022380D01*
X97893142Y-115022380D01*
X97797904Y-115070000D01*
X97750285Y-115117619D01*
X97702666Y-115212857D01*
X97702666Y-115355714D01*
X97750285Y-115450952D01*
X97797904Y-115498571D01*
X97893142Y-115546190D01*
X98274095Y-115546190D01*
X97369333Y-115022380D02*
X96702666Y-115022380D01*
X97131238Y-116022380D01*
X109386666Y-116022380D02*
X109720000Y-115546190D01*
X109958095Y-116022380D02*
X109958095Y-115022380D01*
X109577142Y-115022380D01*
X109481904Y-115070000D01*
X109434285Y-115117619D01*
X109386666Y-115212857D01*
X109386666Y-115355714D01*
X109434285Y-115450952D01*
X109481904Y-115498571D01*
X109577142Y-115546190D01*
X109958095Y-115546190D01*
X108815238Y-115450952D02*
X108910476Y-115403333D01*
X108958095Y-115355714D01*
X109005714Y-115260476D01*
X109005714Y-115212857D01*
X108958095Y-115117619D01*
X108910476Y-115070000D01*
X108815238Y-115022380D01*
X108624761Y-115022380D01*
X108529523Y-115070000D01*
X108481904Y-115117619D01*
X108434285Y-115212857D01*
X108434285Y-115260476D01*
X108481904Y-115355714D01*
X108529523Y-115403333D01*
X108624761Y-115450952D01*
X108815238Y-115450952D01*
X108910476Y-115498571D01*
X108958095Y-115546190D01*
X109005714Y-115641428D01*
X109005714Y-115831904D01*
X108958095Y-115927142D01*
X108910476Y-115974761D01*
X108815238Y-116022380D01*
X108624761Y-116022380D01*
X108529523Y-115974761D01*
X108481904Y-115927142D01*
X108434285Y-115831904D01*
X108434285Y-115641428D01*
X108481904Y-115546190D01*
X108529523Y-115498571D01*
X108624761Y-115450952D01*
X102615904Y-96421380D02*
X102615904Y-97230904D01*
X102568285Y-97326142D01*
X102520666Y-97373761D01*
X102425428Y-97421380D01*
X102234952Y-97421380D01*
X102139714Y-97373761D01*
X102092095Y-97326142D01*
X102044476Y-97230904D01*
X102044476Y-96421380D01*
X101092095Y-96421380D02*
X101568285Y-96421380D01*
X101615904Y-96897571D01*
X101568285Y-96849952D01*
X101473047Y-96802333D01*
X101234952Y-96802333D01*
X101139714Y-96849952D01*
X101092095Y-96897571D01*
X101044476Y-96992809D01*
X101044476Y-97230904D01*
X101092095Y-97326142D01*
X101139714Y-97373761D01*
X101234952Y-97421380D01*
X101473047Y-97421380D01*
X101568285Y-97373761D01*
X101615904Y-97326142D01*
M02*
