G04 #@! TF.GenerationSoftware,KiCad,Pcbnew,(5.1.4)-1*
G04 #@! TF.CreationDate,2019-10-31T11:37:51-04:00*
G04 #@! TF.ProjectId,central_board,63656e74-7261-46c5-9f62-6f6172642e6b,v01*
G04 #@! TF.SameCoordinates,Original*
G04 #@! TF.FileFunction,Legend,Top*
G04 #@! TF.FilePolarity,Positive*
%FSLAX46Y46*%
G04 Gerber Fmt 4.6, Leading zero omitted, Abs format (unit mm)*
G04 Created by KiCad (PCBNEW (5.1.4)-1) date 2019-10-31 11:37:51*
%MOMM*%
%LPD*%
G04 APERTURE LIST*
%ADD10C,0.150000*%
%ADD11C,0.120000*%
G04 APERTURE END LIST*
D10*
X146407809Y-82764380D02*
X147026857Y-82764380D01*
X146693523Y-83145333D01*
X146836380Y-83145333D01*
X146931619Y-83192952D01*
X146979238Y-83240571D01*
X147026857Y-83335809D01*
X147026857Y-83573904D01*
X146979238Y-83669142D01*
X146931619Y-83716761D01*
X146836380Y-83764380D01*
X146550666Y-83764380D01*
X146455428Y-83716761D01*
X146407809Y-83669142D01*
X147360190Y-83097714D02*
X147598285Y-83764380D01*
X147836380Y-83097714D01*
X148122095Y-82764380D02*
X148741142Y-82764380D01*
X148407809Y-83145333D01*
X148550666Y-83145333D01*
X148645904Y-83192952D01*
X148693523Y-83240571D01*
X148741142Y-83335809D01*
X148741142Y-83573904D01*
X148693523Y-83669142D01*
X148645904Y-83716761D01*
X148550666Y-83764380D01*
X148264952Y-83764380D01*
X148169714Y-83716761D01*
X148122095Y-83669142D01*
X149931619Y-83764380D02*
X149931619Y-83097714D01*
X149931619Y-83288190D02*
X149979238Y-83192952D01*
X150026857Y-83145333D01*
X150122095Y-83097714D01*
X150217333Y-83097714D01*
X150931619Y-83716761D02*
X150836380Y-83764380D01*
X150645904Y-83764380D01*
X150550666Y-83716761D01*
X150503047Y-83621523D01*
X150503047Y-83240571D01*
X150550666Y-83145333D01*
X150645904Y-83097714D01*
X150836380Y-83097714D01*
X150931619Y-83145333D01*
X150979238Y-83240571D01*
X150979238Y-83335809D01*
X150503047Y-83431047D01*
X151836380Y-83097714D02*
X151836380Y-83907238D01*
X151788761Y-84002476D01*
X151741142Y-84050095D01*
X151645904Y-84097714D01*
X151503047Y-84097714D01*
X151407809Y-84050095D01*
X151836380Y-83716761D02*
X151741142Y-83764380D01*
X151550666Y-83764380D01*
X151455428Y-83716761D01*
X151407809Y-83669142D01*
X151360190Y-83573904D01*
X151360190Y-83288190D01*
X151407809Y-83192952D01*
X151455428Y-83145333D01*
X151550666Y-83097714D01*
X151741142Y-83097714D01*
X151836380Y-83145333D01*
X152741142Y-83097714D02*
X152741142Y-83764380D01*
X152312571Y-83097714D02*
X152312571Y-83621523D01*
X152360190Y-83716761D01*
X152455428Y-83764380D01*
X152598285Y-83764380D01*
X152693523Y-83716761D01*
X152741142Y-83669142D01*
X153360190Y-83764380D02*
X153264952Y-83716761D01*
X153217333Y-83621523D01*
X153217333Y-82764380D01*
X154169714Y-83764380D02*
X154169714Y-83240571D01*
X154122095Y-83145333D01*
X154026857Y-83097714D01*
X153836380Y-83097714D01*
X153741142Y-83145333D01*
X154169714Y-83716761D02*
X154074476Y-83764380D01*
X153836380Y-83764380D01*
X153741142Y-83716761D01*
X153693523Y-83621523D01*
X153693523Y-83526285D01*
X153741142Y-83431047D01*
X153836380Y-83383428D01*
X154074476Y-83383428D01*
X154169714Y-83335809D01*
X154503047Y-83097714D02*
X154884000Y-83097714D01*
X154645904Y-82764380D02*
X154645904Y-83621523D01*
X154693523Y-83716761D01*
X154788761Y-83764380D01*
X154884000Y-83764380D01*
X155360190Y-83764380D02*
X155264952Y-83716761D01*
X155217333Y-83669142D01*
X155169714Y-83573904D01*
X155169714Y-83288190D01*
X155217333Y-83192952D01*
X155264952Y-83145333D01*
X155360190Y-83097714D01*
X155503047Y-83097714D01*
X155598285Y-83145333D01*
X155645904Y-83192952D01*
X155693523Y-83288190D01*
X155693523Y-83573904D01*
X155645904Y-83669142D01*
X155598285Y-83716761D01*
X155503047Y-83764380D01*
X155360190Y-83764380D01*
X156122095Y-83764380D02*
X156122095Y-83097714D01*
X156122095Y-83288190D02*
X156169714Y-83192952D01*
X156217333Y-83145333D01*
X156312571Y-83097714D01*
X156407809Y-83097714D01*
X178694348Y-125658571D02*
X178361014Y-125658571D01*
X178295538Y-126182380D02*
X178420538Y-125182380D01*
X178896729Y-125182380D01*
X179152681Y-126182380D02*
X179236014Y-125515714D01*
X179212205Y-125706190D02*
X179271729Y-125610952D01*
X179325300Y-125563333D01*
X179426491Y-125515714D01*
X179521729Y-125515714D01*
X179914586Y-126182380D02*
X179825300Y-126134761D01*
X179783633Y-126087142D01*
X179747919Y-125991904D01*
X179783633Y-125706190D01*
X179843157Y-125610952D01*
X179896729Y-125563333D01*
X179997919Y-125515714D01*
X180140776Y-125515714D01*
X180230062Y-125563333D01*
X180271729Y-125610952D01*
X180307443Y-125706190D01*
X180271729Y-125991904D01*
X180212205Y-126087142D01*
X180158633Y-126134761D01*
X180057443Y-126182380D01*
X179914586Y-126182380D01*
X180759824Y-125515714D02*
X180676491Y-126182380D01*
X180747919Y-125610952D02*
X180801491Y-125563333D01*
X180902681Y-125515714D01*
X181045538Y-125515714D01*
X181134824Y-125563333D01*
X181170538Y-125658571D01*
X181105062Y-126182380D01*
X181521729Y-125515714D02*
X181902681Y-125515714D01*
X181706252Y-125182380D02*
X181599110Y-126039523D01*
X181634824Y-126134761D01*
X181724110Y-126182380D01*
X181819348Y-126182380D01*
X161506824Y-123404380D02*
X161619919Y-124404380D01*
X161899681Y-123690095D01*
X162000872Y-124404380D01*
X162363967Y-123404380D01*
X163006824Y-124356761D02*
X162905633Y-124404380D01*
X162715157Y-124404380D01*
X162625872Y-124356761D01*
X162590157Y-124261523D01*
X162637776Y-123880571D01*
X162697300Y-123785333D01*
X162798491Y-123737714D01*
X162988967Y-123737714D01*
X163078252Y-123785333D01*
X163113967Y-123880571D01*
X163102062Y-123975809D01*
X162613967Y-124071047D01*
X163905633Y-124404380D02*
X164030633Y-123404380D01*
X163911586Y-124356761D02*
X163810395Y-124404380D01*
X163619919Y-124404380D01*
X163530633Y-124356761D01*
X163488967Y-124309142D01*
X163453252Y-124213904D01*
X163488967Y-123928190D01*
X163548491Y-123832952D01*
X163602062Y-123785333D01*
X163703252Y-123737714D01*
X163893729Y-123737714D01*
X163983014Y-123785333D01*
X164893729Y-123737714D02*
X164792538Y-124547238D01*
X164733014Y-124642476D01*
X164679443Y-124690095D01*
X164578252Y-124737714D01*
X164435395Y-124737714D01*
X164346110Y-124690095D01*
X164816348Y-124356761D02*
X164715157Y-124404380D01*
X164524681Y-124404380D01*
X164435395Y-124356761D01*
X164393729Y-124309142D01*
X164358014Y-124213904D01*
X164393729Y-123928190D01*
X164453252Y-123832952D01*
X164506824Y-123785333D01*
X164608014Y-123737714D01*
X164798491Y-123737714D01*
X164887776Y-123785333D01*
X165673491Y-124356761D02*
X165572300Y-124404380D01*
X165381824Y-124404380D01*
X165292538Y-124356761D01*
X165256824Y-124261523D01*
X165304443Y-123880571D01*
X165363967Y-123785333D01*
X165465157Y-123737714D01*
X165655633Y-123737714D01*
X165744919Y-123785333D01*
X165780633Y-123880571D01*
X165768729Y-123975809D01*
X165280633Y-124071047D01*
X167304443Y-123880571D02*
X167441348Y-123928190D01*
X167483014Y-123975809D01*
X167518729Y-124071047D01*
X167500872Y-124213904D01*
X167441348Y-124309142D01*
X167387776Y-124356761D01*
X167286586Y-124404380D01*
X166905633Y-124404380D01*
X167030633Y-123404380D01*
X167363967Y-123404380D01*
X167453252Y-123452000D01*
X167494919Y-123499619D01*
X167530633Y-123594857D01*
X167518729Y-123690095D01*
X167459205Y-123785333D01*
X167405633Y-123832952D01*
X167304443Y-123880571D01*
X166971110Y-123880571D01*
X168048491Y-124404380D02*
X167959205Y-124356761D01*
X167917538Y-124309142D01*
X167881824Y-124213904D01*
X167917538Y-123928190D01*
X167977062Y-123832952D01*
X168030633Y-123785333D01*
X168131824Y-123737714D01*
X168274681Y-123737714D01*
X168363967Y-123785333D01*
X168405633Y-123832952D01*
X168441348Y-123928190D01*
X168405633Y-124213904D01*
X168346110Y-124309142D01*
X168292538Y-124356761D01*
X168191348Y-124404380D01*
X168048491Y-124404380D01*
X168750872Y-123737714D02*
X169131824Y-123737714D01*
X168935395Y-123404380D02*
X168828252Y-124261523D01*
X168863967Y-124356761D01*
X168953252Y-124404380D01*
X169048491Y-124404380D01*
X170727062Y-124309142D02*
X170673491Y-124356761D01*
X170524681Y-124404380D01*
X170429443Y-124404380D01*
X170292538Y-124356761D01*
X170209205Y-124261523D01*
X170173491Y-124166285D01*
X170149681Y-123975809D01*
X170167538Y-123832952D01*
X170238967Y-123642476D01*
X170298491Y-123547238D01*
X170405633Y-123452000D01*
X170554443Y-123404380D01*
X170649681Y-123404380D01*
X170786586Y-123452000D01*
X170828252Y-123499619D01*
X171530633Y-124356761D02*
X171429443Y-124404380D01*
X171238967Y-124404380D01*
X171149681Y-124356761D01*
X171113967Y-124261523D01*
X171161586Y-123880571D01*
X171221110Y-123785333D01*
X171322300Y-123737714D01*
X171512776Y-123737714D01*
X171602062Y-123785333D01*
X171637776Y-123880571D01*
X171625872Y-123975809D01*
X171137776Y-124071047D01*
X172084205Y-123737714D02*
X172000872Y-124404380D01*
X172072300Y-123832952D02*
X172125872Y-123785333D01*
X172227062Y-123737714D01*
X172369919Y-123737714D01*
X172459205Y-123785333D01*
X172494919Y-123880571D01*
X172429443Y-124404380D01*
X172846110Y-123737714D02*
X173227062Y-123737714D01*
X173030633Y-123404380D02*
X172923491Y-124261523D01*
X172959205Y-124356761D01*
X173048491Y-124404380D01*
X173143729Y-124404380D01*
X173477062Y-124404380D02*
X173560395Y-123737714D01*
X173536586Y-123928190D02*
X173596110Y-123832952D01*
X173649681Y-123785333D01*
X173750872Y-123737714D01*
X173846110Y-123737714D01*
X174524681Y-124404380D02*
X174590157Y-123880571D01*
X174554443Y-123785333D01*
X174465157Y-123737714D01*
X174274681Y-123737714D01*
X174173491Y-123785333D01*
X174530633Y-124356761D02*
X174429443Y-124404380D01*
X174191348Y-124404380D01*
X174102062Y-124356761D01*
X174066348Y-124261523D01*
X174078252Y-124166285D01*
X174137776Y-124071047D01*
X174238967Y-124023428D01*
X174477062Y-124023428D01*
X174578252Y-123975809D01*
X175143729Y-124404380D02*
X175054443Y-124356761D01*
X175018729Y-124261523D01*
X175125872Y-123404380D01*
X176286586Y-124404380D02*
X176411586Y-123404380D01*
X176792538Y-123404380D01*
X176881824Y-123452000D01*
X176923491Y-123499619D01*
X176959205Y-123594857D01*
X176941348Y-123737714D01*
X176881824Y-123832952D01*
X176828252Y-123880571D01*
X176727062Y-123928190D01*
X176346110Y-123928190D01*
X177869919Y-124309142D02*
X177816348Y-124356761D01*
X177667538Y-124404380D01*
X177572300Y-124404380D01*
X177435395Y-124356761D01*
X177352062Y-124261523D01*
X177316348Y-124166285D01*
X177292538Y-123975809D01*
X177310395Y-123832952D01*
X177381824Y-123642476D01*
X177441348Y-123547238D01*
X177548491Y-123452000D01*
X177697300Y-123404380D01*
X177792538Y-123404380D01*
X177929443Y-123452000D01*
X177971110Y-123499619D01*
X178685395Y-123880571D02*
X178822300Y-123928190D01*
X178863967Y-123975809D01*
X178899681Y-124071047D01*
X178881824Y-124213904D01*
X178822300Y-124309142D01*
X178768729Y-124356761D01*
X178667538Y-124404380D01*
X178286586Y-124404380D01*
X178411586Y-123404380D01*
X178744919Y-123404380D01*
X178834205Y-123452000D01*
X178875872Y-123499619D01*
X178911586Y-123594857D01*
X178899681Y-123690095D01*
X178840157Y-123785333D01*
X178786586Y-123832952D01*
X178685395Y-123880571D01*
X178352062Y-123880571D01*
X180036586Y-123737714D02*
X180191348Y-124404380D01*
X180512776Y-123737714D01*
X181125872Y-123404380D02*
X181221110Y-123404380D01*
X181310395Y-123452000D01*
X181352062Y-123499619D01*
X181387776Y-123594857D01*
X181411586Y-123785333D01*
X181381824Y-124023428D01*
X181310395Y-124213904D01*
X181250872Y-124309142D01*
X181197300Y-124356761D01*
X181096110Y-124404380D01*
X181000872Y-124404380D01*
X180911586Y-124356761D01*
X180869919Y-124309142D01*
X180834205Y-124213904D01*
X180810395Y-124023428D01*
X180840157Y-123785333D01*
X180911586Y-123594857D01*
X180971110Y-123499619D01*
X181024681Y-123452000D01*
X181125872Y-123404380D01*
X182286586Y-124404380D02*
X181715157Y-124404380D01*
X182000872Y-124404380D02*
X182125872Y-123404380D01*
X182012776Y-123547238D01*
X181905633Y-123642476D01*
X181804443Y-123690095D01*
D11*
X113284000Y-125730000D02*
X102616000Y-125730000D01*
X113284000Y-119380000D02*
X113284000Y-125730000D01*
X102616000Y-119380000D02*
X113284000Y-119380000D01*
X102616000Y-125730000D02*
X102616000Y-119380000D01*
X149606000Y-72263000D02*
X149606000Y-64135000D01*
X155956000Y-72263000D02*
X149606000Y-72263000D01*
X155956000Y-64135000D02*
X155956000Y-72263000D01*
X149606000Y-64135000D02*
X155956000Y-64135000D01*
X156083000Y-82423000D02*
X149733000Y-82423000D01*
X149733000Y-82423000D02*
X149733000Y-74295000D01*
X149733000Y-74295000D02*
X156083000Y-74295000D01*
X156083000Y-74295000D02*
X156083000Y-82423000D01*
X150368000Y-124714000D02*
X150368000Y-118364000D01*
X150368000Y-118364000D02*
X161036000Y-118364000D01*
X161036000Y-118364000D02*
X161036000Y-124714000D01*
X161036000Y-124714000D02*
X150368000Y-124714000D01*
X148082000Y-124587000D02*
X137414000Y-124587000D01*
X148082000Y-118237000D02*
X148082000Y-124587000D01*
X137414000Y-118237000D02*
X148082000Y-118237000D01*
X137414000Y-124587000D02*
X137414000Y-118237000D01*
X156083000Y-103505000D02*
X162433000Y-103505000D01*
X162433000Y-103505000D02*
X162433000Y-114173000D01*
X162433000Y-114173000D02*
X156083000Y-114173000D01*
X156083000Y-114173000D02*
X156083000Y-103505000D01*
X149606000Y-98552000D02*
X149606000Y-87884000D01*
X155956000Y-98552000D02*
X149606000Y-98552000D01*
X155956000Y-87884000D02*
X155956000Y-98552000D01*
X149606000Y-87884000D02*
X155956000Y-87884000D01*
X129540000Y-106934000D02*
X135890000Y-106934000D01*
X135890000Y-106934000D02*
X135890000Y-117602000D01*
X135890000Y-117602000D02*
X129540000Y-117602000D01*
X129540000Y-117602000D02*
X129540000Y-106934000D01*
X102489000Y-108077000D02*
X102489000Y-101727000D01*
X102489000Y-101727000D02*
X110617000Y-101727000D01*
X110617000Y-101727000D02*
X110617000Y-108077000D01*
X110617000Y-108077000D02*
X102489000Y-108077000D01*
X100203000Y-108077000D02*
X92075000Y-108077000D01*
X100203000Y-101727000D02*
X100203000Y-108077000D01*
X92075000Y-101727000D02*
X100203000Y-101727000D01*
X92075000Y-108077000D02*
X92075000Y-101727000D01*
X101219000Y-125730000D02*
X90551000Y-125730000D01*
X101219000Y-119380000D02*
X101219000Y-125730000D01*
X90551000Y-119380000D02*
X101219000Y-119380000D01*
X90551000Y-125730000D02*
X90551000Y-119380000D01*
X165735000Y-120523000D02*
X165735000Y-102743000D01*
X181229000Y-120523000D02*
X165735000Y-120523000D01*
X181229000Y-102743000D02*
X181229000Y-120523000D01*
X165735000Y-102743000D02*
X181229000Y-102743000D01*
X157988000Y-100584000D02*
X157988000Y-65024000D01*
X180848000Y-100584000D02*
X157988000Y-100584000D01*
X180848000Y-65024000D02*
X180848000Y-100584000D01*
X157988000Y-65024000D02*
X180848000Y-65024000D01*
X91059000Y-65024000D02*
X113919000Y-65024000D01*
X113919000Y-65024000D02*
X113919000Y-100584000D01*
X113919000Y-100584000D02*
X91059000Y-100584000D01*
X91059000Y-100584000D02*
X91059000Y-65024000D01*
X144229000Y-67638001D02*
X124249000Y-67638000D01*
X124249000Y-67638000D02*
X124249000Y-78157999D01*
X124249000Y-78157999D02*
X144229000Y-78158000D01*
X144229000Y-78158000D02*
X144229000Y-74651333D01*
X144229000Y-74651333D02*
X143869000Y-74651333D01*
X143869000Y-74651333D02*
X143869000Y-71144667D01*
X143869000Y-71144667D02*
X144229000Y-71144667D01*
X144229000Y-71144667D02*
X144229000Y-67638001D01*
X121817667Y-84117000D02*
X118311001Y-84117000D01*
X121817667Y-84477000D02*
X121817667Y-84117000D01*
X125324333Y-84477000D02*
X121817667Y-84477000D01*
X125324333Y-84117000D02*
X125324333Y-84477000D01*
X128831000Y-84117000D02*
X125324333Y-84117000D01*
X128830999Y-104097000D02*
X128831000Y-84117000D01*
X118311000Y-104097000D02*
X128830999Y-104097000D01*
X118311001Y-84117000D02*
X118311000Y-104097000D01*
X154897000Y-106512001D02*
X154897000Y-102112000D01*
X154537000Y-106512001D02*
X154897000Y-106512001D01*
X154537000Y-110912000D02*
X154537000Y-106512001D01*
X154897000Y-110912000D02*
X154537000Y-110912000D01*
X154897000Y-115312000D02*
X154897000Y-110912000D01*
X139997000Y-115312000D02*
X154897000Y-115312000D01*
X139997000Y-102112000D02*
X139997000Y-115312000D01*
X154897000Y-102112000D02*
X139997000Y-102112000D01*
X134497000Y-85641000D02*
X134497000Y-100541000D01*
X134497000Y-100541000D02*
X147697000Y-100541000D01*
X147697000Y-100541000D02*
X147697000Y-85641000D01*
X147697000Y-85641000D02*
X143297000Y-85641000D01*
X143297000Y-85641000D02*
X143297000Y-86001000D01*
X143297000Y-86001000D02*
X138897001Y-86001000D01*
X138897001Y-86001000D02*
X138897001Y-85641000D01*
X138897001Y-85641000D02*
X134497000Y-85641000D01*
X114685000Y-108501000D02*
X114685000Y-123401000D01*
X114685000Y-123401000D02*
X127885000Y-123401000D01*
X127885000Y-123401000D02*
X127885000Y-108501000D01*
X127885000Y-108501000D02*
X123485000Y-108501000D01*
X123485000Y-108501000D02*
X123485000Y-108861000D01*
X123485000Y-108861000D02*
X119085001Y-108861000D01*
X119085001Y-108861000D02*
X119085001Y-108501000D01*
X119085001Y-108501000D02*
X114685000Y-108501000D01*
D10*
X101560380Y-120951523D02*
X102274666Y-120951523D01*
X102417523Y-120999142D01*
X102512761Y-121094380D01*
X102560380Y-121237238D01*
X102560380Y-121332476D01*
X102560380Y-119951523D02*
X102560380Y-120522952D01*
X102560380Y-120237238D02*
X101560380Y-120237238D01*
X101703238Y-120332476D01*
X101798476Y-120427714D01*
X101846095Y-120522952D01*
X102560380Y-118999142D02*
X102560380Y-119570571D01*
X102560380Y-119284857D02*
X101560380Y-119284857D01*
X101703238Y-119380095D01*
X101798476Y-119475333D01*
X101846095Y-119570571D01*
X154352666Y-72469380D02*
X154352666Y-73183666D01*
X154305047Y-73326523D01*
X154209809Y-73421761D01*
X154066952Y-73469380D01*
X153971714Y-73469380D01*
X155352666Y-73469380D02*
X154781238Y-73469380D01*
X155066952Y-73469380D02*
X155066952Y-72469380D01*
X154971714Y-72612238D01*
X154876476Y-72707476D01*
X154781238Y-72755095D01*
X150669666Y-72993380D02*
X150669666Y-73707666D01*
X150622047Y-73850523D01*
X150526809Y-73945761D01*
X150383952Y-73993380D01*
X150288714Y-73993380D01*
X151098238Y-73088619D02*
X151145857Y-73041000D01*
X151241095Y-72993380D01*
X151479190Y-72993380D01*
X151574428Y-73041000D01*
X151622047Y-73088619D01*
X151669666Y-73183857D01*
X151669666Y-73279095D01*
X151622047Y-73421952D01*
X151050619Y-73993380D01*
X151669666Y-73993380D01*
X161242380Y-119713333D02*
X161956666Y-119713333D01*
X162099523Y-119760952D01*
X162194761Y-119856190D01*
X162242380Y-119999047D01*
X162242380Y-120094285D01*
X161242380Y-119332380D02*
X161242380Y-118713333D01*
X161623333Y-119046666D01*
X161623333Y-118903809D01*
X161670952Y-118808571D01*
X161718571Y-118760952D01*
X161813809Y-118713333D01*
X162051904Y-118713333D01*
X162147142Y-118760952D01*
X162194761Y-118808571D01*
X162242380Y-118903809D01*
X162242380Y-119189523D01*
X162194761Y-119284761D01*
X162147142Y-119332380D01*
X148288380Y-119586333D02*
X149002666Y-119586333D01*
X149145523Y-119633952D01*
X149240761Y-119729190D01*
X149288380Y-119872047D01*
X149288380Y-119967285D01*
X148621714Y-118681571D02*
X149288380Y-118681571D01*
X148240761Y-118919666D02*
X148955047Y-119157761D01*
X148955047Y-118538714D01*
X161083666Y-114379380D02*
X161083666Y-115093666D01*
X161036047Y-115236523D01*
X160940809Y-115331761D01*
X160797952Y-115379380D01*
X160702714Y-115379380D01*
X162036047Y-114379380D02*
X161559857Y-114379380D01*
X161512238Y-114855571D01*
X161559857Y-114807952D01*
X161655095Y-114760333D01*
X161893190Y-114760333D01*
X161988428Y-114807952D01*
X162036047Y-114855571D01*
X162083666Y-114950809D01*
X162083666Y-115188904D01*
X162036047Y-115284142D01*
X161988428Y-115331761D01*
X161893190Y-115379380D01*
X161655095Y-115379380D01*
X161559857Y-115331761D01*
X161512238Y-115284142D01*
X154606666Y-98758380D02*
X154606666Y-99472666D01*
X154559047Y-99615523D01*
X154463809Y-99710761D01*
X154320952Y-99758380D01*
X154225714Y-99758380D01*
X155511428Y-98758380D02*
X155320952Y-98758380D01*
X155225714Y-98806000D01*
X155178095Y-98853619D01*
X155082857Y-98996476D01*
X155035238Y-99186952D01*
X155035238Y-99567904D01*
X155082857Y-99663142D01*
X155130476Y-99710761D01*
X155225714Y-99758380D01*
X155416190Y-99758380D01*
X155511428Y-99710761D01*
X155559047Y-99663142D01*
X155606666Y-99567904D01*
X155606666Y-99329809D01*
X155559047Y-99234571D01*
X155511428Y-99186952D01*
X155416190Y-99139333D01*
X155225714Y-99139333D01*
X155130476Y-99186952D01*
X155082857Y-99234571D01*
X155035238Y-99329809D01*
X134540666Y-117808380D02*
X134540666Y-118522666D01*
X134493047Y-118665523D01*
X134397809Y-118760761D01*
X134254952Y-118808380D01*
X134159714Y-118808380D01*
X134921619Y-117808380D02*
X135588285Y-117808380D01*
X135159714Y-118808380D01*
X110823380Y-101933333D02*
X111537666Y-101933333D01*
X111680523Y-101980952D01*
X111775761Y-102076190D01*
X111823380Y-102219047D01*
X111823380Y-102314285D01*
X111251952Y-101314285D02*
X111204333Y-101409523D01*
X111156714Y-101457142D01*
X111061476Y-101504761D01*
X111013857Y-101504761D01*
X110918619Y-101457142D01*
X110871000Y-101409523D01*
X110823380Y-101314285D01*
X110823380Y-101123809D01*
X110871000Y-101028571D01*
X110918619Y-100980952D01*
X111013857Y-100933333D01*
X111061476Y-100933333D01*
X111156714Y-100980952D01*
X111204333Y-101028571D01*
X111251952Y-101123809D01*
X111251952Y-101314285D01*
X111299571Y-101409523D01*
X111347190Y-101457142D01*
X111442428Y-101504761D01*
X111632904Y-101504761D01*
X111728142Y-101457142D01*
X111775761Y-101409523D01*
X111823380Y-101314285D01*
X111823380Y-101123809D01*
X111775761Y-101028571D01*
X111728142Y-100980952D01*
X111632904Y-100933333D01*
X111442428Y-100933333D01*
X111347190Y-100980952D01*
X111299571Y-101028571D01*
X111251952Y-101123809D01*
X100798380Y-101933333D02*
X101512666Y-101933333D01*
X101655523Y-101980952D01*
X101750761Y-102076190D01*
X101798380Y-102219047D01*
X101798380Y-102314285D01*
X101798380Y-101409523D02*
X101798380Y-101219047D01*
X101750761Y-101123809D01*
X101703142Y-101076190D01*
X101560285Y-100980952D01*
X101369809Y-100933333D01*
X100988857Y-100933333D01*
X100893619Y-100980952D01*
X100846000Y-101028571D01*
X100798380Y-101123809D01*
X100798380Y-101314285D01*
X100846000Y-101409523D01*
X100893619Y-101457142D01*
X100988857Y-101504761D01*
X101226952Y-101504761D01*
X101322190Y-101457142D01*
X101369809Y-101409523D01*
X101417428Y-101314285D01*
X101417428Y-101123809D01*
X101369809Y-101028571D01*
X101322190Y-100980952D01*
X101226952Y-100933333D01*
X89368380Y-120951523D02*
X90082666Y-120951523D01*
X90225523Y-120999142D01*
X90320761Y-121094380D01*
X90368380Y-121237238D01*
X90368380Y-121332476D01*
X90368380Y-119951523D02*
X90368380Y-120522952D01*
X90368380Y-120237238D02*
X89368380Y-120237238D01*
X89511238Y-120332476D01*
X89606476Y-120427714D01*
X89654095Y-120522952D01*
X89368380Y-119332476D02*
X89368380Y-119237238D01*
X89416000Y-119142000D01*
X89463619Y-119094380D01*
X89558857Y-119046761D01*
X89749333Y-118999142D01*
X89987428Y-118999142D01*
X90177904Y-119046761D01*
X90273142Y-119094380D01*
X90320761Y-119142000D01*
X90368380Y-119237238D01*
X90368380Y-119332476D01*
X90320761Y-119427714D01*
X90273142Y-119475333D01*
X90177904Y-119522952D01*
X89987428Y-119570571D01*
X89749333Y-119570571D01*
X89558857Y-119522952D01*
X89463619Y-119475333D01*
X89416000Y-119427714D01*
X89368380Y-119332476D01*
X172593095Y-116673380D02*
X172593095Y-117482904D01*
X172640714Y-117578142D01*
X172688333Y-117625761D01*
X172783571Y-117673380D01*
X172974047Y-117673380D01*
X173069285Y-117625761D01*
X173116904Y-117578142D01*
X173164523Y-117482904D01*
X173164523Y-116673380D01*
X174164523Y-117673380D02*
X173593095Y-117673380D01*
X173878809Y-117673380D02*
X173878809Y-116673380D01*
X173783571Y-116816238D01*
X173688333Y-116911476D01*
X173593095Y-116959095D01*
X160528095Y-98512380D02*
X160528095Y-99321904D01*
X160575714Y-99417142D01*
X160623333Y-99464761D01*
X160718571Y-99512380D01*
X160909047Y-99512380D01*
X161004285Y-99464761D01*
X161051904Y-99417142D01*
X161099523Y-99321904D01*
X161099523Y-98512380D01*
X161528095Y-98607619D02*
X161575714Y-98560000D01*
X161670952Y-98512380D01*
X161909047Y-98512380D01*
X162004285Y-98560000D01*
X162051904Y-98607619D01*
X162099523Y-98702857D01*
X162099523Y-98798095D01*
X162051904Y-98940952D01*
X161480476Y-99512380D01*
X162099523Y-99512380D01*
X101981095Y-67524380D02*
X101981095Y-68333904D01*
X102028714Y-68429142D01*
X102076333Y-68476761D01*
X102171571Y-68524380D01*
X102362047Y-68524380D01*
X102457285Y-68476761D01*
X102504904Y-68429142D01*
X102552523Y-68333904D01*
X102552523Y-67524380D01*
X102933476Y-67524380D02*
X103552523Y-67524380D01*
X103219190Y-67905333D01*
X103362047Y-67905333D01*
X103457285Y-67952952D01*
X103504904Y-68000571D01*
X103552523Y-68095809D01*
X103552523Y-68333904D01*
X103504904Y-68429142D01*
X103457285Y-68476761D01*
X103362047Y-68524380D01*
X103076333Y-68524380D01*
X102981095Y-68476761D01*
X102933476Y-68429142D01*
X144681380Y-73659904D02*
X145490904Y-73659904D01*
X145586142Y-73612285D01*
X145633761Y-73564666D01*
X145681380Y-73469428D01*
X145681380Y-73278952D01*
X145633761Y-73183714D01*
X145586142Y-73136095D01*
X145490904Y-73088476D01*
X144681380Y-73088476D01*
X145014714Y-72183714D02*
X145681380Y-72183714D01*
X144633761Y-72421809D02*
X145348047Y-72659904D01*
X145348047Y-72040857D01*
X122809095Y-82569380D02*
X122809095Y-83378904D01*
X122856714Y-83474142D01*
X122904333Y-83521761D01*
X122999571Y-83569380D01*
X123190047Y-83569380D01*
X123285285Y-83521761D01*
X123332904Y-83474142D01*
X123380523Y-83378904D01*
X123380523Y-82569380D01*
X124285285Y-82569380D02*
X124094809Y-82569380D01*
X123999571Y-82617000D01*
X123951952Y-82664619D01*
X123856714Y-82807476D01*
X123809095Y-82997952D01*
X123809095Y-83378904D01*
X123856714Y-83474142D01*
X123904333Y-83521761D01*
X123999571Y-83569380D01*
X124190047Y-83569380D01*
X124285285Y-83521761D01*
X124332904Y-83474142D01*
X124380523Y-83378904D01*
X124380523Y-83140809D01*
X124332904Y-83045571D01*
X124285285Y-82997952D01*
X124190047Y-82950333D01*
X123999571Y-82950333D01*
X123904333Y-82997952D01*
X123856714Y-83045571D01*
X123809095Y-83140809D01*
X155349380Y-109473904D02*
X156158904Y-109473904D01*
X156254142Y-109426285D01*
X156301761Y-109378666D01*
X156349380Y-109283428D01*
X156349380Y-109092952D01*
X156301761Y-108997714D01*
X156254142Y-108950095D01*
X156158904Y-108902476D01*
X155349380Y-108902476D01*
X155349380Y-108521523D02*
X155349380Y-107854857D01*
X156349380Y-108283428D01*
X140335095Y-84093380D02*
X140335095Y-84902904D01*
X140382714Y-84998142D01*
X140430333Y-85045761D01*
X140525571Y-85093380D01*
X140716047Y-85093380D01*
X140811285Y-85045761D01*
X140858904Y-84998142D01*
X140906523Y-84902904D01*
X140906523Y-84093380D01*
X141525571Y-84521952D02*
X141430333Y-84474333D01*
X141382714Y-84426714D01*
X141335095Y-84331476D01*
X141335095Y-84283857D01*
X141382714Y-84188619D01*
X141430333Y-84141000D01*
X141525571Y-84093380D01*
X141716047Y-84093380D01*
X141811285Y-84141000D01*
X141858904Y-84188619D01*
X141906523Y-84283857D01*
X141906523Y-84331476D01*
X141858904Y-84426714D01*
X141811285Y-84474333D01*
X141716047Y-84521952D01*
X141525571Y-84521952D01*
X141430333Y-84569571D01*
X141382714Y-84617190D01*
X141335095Y-84712428D01*
X141335095Y-84902904D01*
X141382714Y-84998142D01*
X141430333Y-85045761D01*
X141525571Y-85093380D01*
X141716047Y-85093380D01*
X141811285Y-85045761D01*
X141858904Y-84998142D01*
X141906523Y-84902904D01*
X141906523Y-84712428D01*
X141858904Y-84617190D01*
X141811285Y-84569571D01*
X141716047Y-84521952D01*
X120523095Y-106953380D02*
X120523095Y-107762904D01*
X120570714Y-107858142D01*
X120618333Y-107905761D01*
X120713571Y-107953380D01*
X120904047Y-107953380D01*
X120999285Y-107905761D01*
X121046904Y-107858142D01*
X121094523Y-107762904D01*
X121094523Y-106953380D01*
X121618333Y-107953380D02*
X121808809Y-107953380D01*
X121904047Y-107905761D01*
X121951666Y-107858142D01*
X122046904Y-107715285D01*
X122094523Y-107524809D01*
X122094523Y-107143857D01*
X122046904Y-107048619D01*
X121999285Y-107001000D01*
X121904047Y-106953380D01*
X121713571Y-106953380D01*
X121618333Y-107001000D01*
X121570714Y-107048619D01*
X121523095Y-107143857D01*
X121523095Y-107381952D01*
X121570714Y-107477190D01*
X121618333Y-107524809D01*
X121713571Y-107572428D01*
X121904047Y-107572428D01*
X121999285Y-107524809D01*
X122046904Y-107477190D01*
X122094523Y-107381952D01*
M02*
