*
*
G04 PADS 9.5 Build Number: 522968 generated Gerber (RS-274-X) file*
G04 PC Version=2.1*
*
%IN "ESP32-WROVER-V4.pcb"*%
*
%MOMM*%
*
%FSLAX35Y35*%
*
*
*
*
G04 PC Standard Apertures*
*
*
G04 Thermal Relief Aperture macro.*
%AMTER*
1,1,$1,0,0*
1,0,$1-$2,0,0*
21,0,$3,$4,0,0,45*
21,0,$3,$4,0,0,135*
%
*
*
G04 Annular Aperture macro.*
%AMANN*
1,1,$1,0,0*
1,0,$2,0,0*
%
*
*
G04 Odd Aperture macro.*
%AMODD*
1,1,$1,0,0*
1,0,$1-0.005,0,0*
%
*
*
G04 PC Custom Aperture Macros*
*
*
*
*
*
*
G04 PC Aperture Table*
*
%ADD010C,0.0254*%
%ADD044C,0.254*%
%ADD109C,0.127*%
*
*
*
*
G04 PC Circuitry*
G04 Layer Name ESP32-WROVER-V4.pcb - circuitry*
%LPD*%
*
G54D10*
G01X52397708Y38421989D02*
X52396616Y38429633D01*
X52393472Y38435922*
X52388339Y38439001*
X52380871Y38440068*
X52375444Y38438983*
X52371187Y38437918*
X52371187D02*
X52367055Y38434820D01*
X52363781Y38429364*
X52363781D02*
X52361556Y38429449D01*
X52359381Y38433800*
X52356309Y38436872*
X52350990Y38439000*
X52345714Y38440055*
X52341539Y38439011*
X52336192Y38436872*
X52329572Y38430253*
X52329572D02*
X52327404Y38431151D01*
X52327404D02*
Y38438952D01*
X52327404D02*
X52319739D01*
Y38382528*
X52327404*
X52327404D02*
Y38418678D01*
X52327404D02*
X52327442Y38418986D01*
X52328576Y38423521*
X52328833Y38424026*
X52334502Y38430830*
X52335129Y38431238*
X52343067Y38433506*
X52343724Y38433517*
X52343724D02*
X52348259Y38432383D01*
X52348656Y38432208*
X52352058Y38429940*
X52352058D02*
X52352489Y38429451D01*
X52354757Y38424915*
X52354891Y38424347*
Y38382528*
X52362556*
Y38415276*
X52362569Y38415455*
X52362569D02*
X52363703Y38423393D01*
X52363944Y38423975*
X52367346Y38428511*
X52367600Y38428765*
X52372136Y38432167*
X52372649Y38432396*
X52378318Y38433530*
X52378816*
X52384486Y38432396*
X52385253Y38431913*
X52388655Y38427377*
X52388844Y38427017*
X52388844D02*
X52389977Y38423615D01*
X52389977D02*
X52390043Y38423213D01*
Y38382528*
X52397708*
Y38421989*
X52302458D02*
X52301366Y38429633D01*
X52298222Y38435922*
X52293089Y38439001*
X52285621Y38440068*
X52280194Y38438983*
X52275937Y38437918*
X52275937D02*
X52271805Y38434820D01*
X52268531Y38429364*
X52268531D02*
X52266306Y38429449D01*
X52264131Y38433800*
X52261059Y38436872*
X52255740Y38439000*
X52250464Y38440055*
X52246289Y38439011*
X52240942Y38436872*
X52234322Y38430253*
X52234322D02*
X52232154Y38431151D01*
X52232154D02*
Y38438952D01*
X52232154D02*
X52224489D01*
Y38382528*
X52232154*
X52232154D02*
Y38418678D01*
X52232154D02*
X52232192Y38418986D01*
X52233326Y38423521*
X52233583Y38424026*
X52239252Y38430830*
X52239879Y38431238*
X52247817Y38433506*
X52248474Y38433517*
X52248474D02*
X52253009Y38432383D01*
X52253406Y38432208*
X52256808Y38429940*
X52256808D02*
X52257239Y38429451D01*
X52259507Y38424915*
X52259641Y38424347*
Y38382528*
X52267306*
Y38415276*
X52267319Y38415455*
X52267319D02*
X52268453Y38423393D01*
X52268694Y38423975*
X52272096Y38428511*
X52272350Y38428765*
X52276886Y38432167*
X52277399Y38432396*
X52283068Y38433530*
X52283566*
X52289236Y38432396*
X52290003Y38431913*
X52293405Y38427377*
X52293594Y38427017*
X52293594D02*
X52294727Y38423615D01*
X52294727D02*
X52294793Y38423213D01*
Y38382528*
X52302458*
Y38421989*
X52209476Y38409470D02*
X52200541D01*
X52200541D02*
X52199271Y38410740D01*
X52199271D02*
Y38460497D01*
X52199271D02*
X52193235D01*
X52155319Y38410314*
X52155319D02*
Y38401805D01*
X52155319D02*
X52190335D01*
X52191605Y38400535*
Y38382528*
X52199271*
X52199271D02*
Y38400535D01*
X52199271D02*
X52200541Y38401805D01*
X52200541D02*
X52209476D01*
Y38409470*
X52191605Y38442490D02*
Y38410740D01*
X52190335Y38409470*
X52166523*
X52165507Y38411502*
X52189319Y38443252*
X52191605Y38442490*
X52140306Y38390193D02*
X52132641D01*
Y38382528*
X52140306*
Y38390193*
X52099485Y38461631D02*
X52094670D01*
X52091638Y38456578*
X52091638D02*
X52091447Y38456333D01*
X52091447D02*
X52085778Y38450664D01*
X52085584Y38450505*
X52078781Y38445969*
X52078706Y38445923*
X52071409Y38441753*
Y38434340*
X52080808Y38439039*
X52089787Y38445774*
X52089787D02*
X52091819Y38444758D01*
X52091819D02*
Y38382528D01*
X52091819D02*
X52099485D01*
Y38461631*
X52050703Y38405137D02*
X52049641Y38412575D01*
X52046452Y38417890*
X52042238Y38422103*
X52042238D02*
X52035719Y38424276D01*
X52035359Y38426497*
X52044070Y38433030*
X52046159Y38441387*
X52044042Y38451971*
X52035493Y38458382*
X52030088Y38460544*
X52030088D02*
X52024735Y38461615D01*
X52016165Y38460544*
X52009822Y38456315*
X52005509Y38449845*
X52002731Y38442438*
X52010354Y38441591*
X52012263Y38446364*
X52012306Y38446460*
X52014574Y38450996*
X52015142Y38451564*
X52019678Y38453831*
X52019678D02*
X52019938Y38453928D01*
X52024474Y38455061*
X52024474D02*
X52025031Y38455075D01*
X52030700Y38453941*
X52031156Y38453752*
X52034558Y38451484*
X52034558D02*
X52034989Y38450996D01*
X52037257Y38446460*
X52037353Y38446200*
X52038487Y38441664*
X52038500Y38441107*
X52037366Y38435438*
X52037366D02*
X52037019Y38434789D01*
X52033617Y38431387*
X52033481Y38431269*
X52028945Y38427867*
X52028183Y38427613*
X52021367*
X52020583Y38421344*
X52025707Y38422198*
X52026124*
X52032928Y38421064*
X52033481Y38420828*
X52038017Y38417426*
X52038271Y38417172*
X52041673Y38412636*
X52041909Y38412083*
X52043043Y38405279*
X52043061Y38405071*
X52043061D02*
X52043036Y38404821D01*
X52043036D02*
X52041902Y38399152D01*
X52041746Y38398747*
X52041746D02*
X52038344Y38393078D01*
X52038017Y38392715*
X52033481Y38389313*
X52032928Y38389077*
X52026124Y38387943*
X52025666Y38387950*
X52025666D02*
X52019997Y38389084D01*
X52019678Y38389193*
X52019678D02*
X52015142Y38391461D01*
X52014694Y38391835*
X52011292Y38396371*
X52011104Y38396731*
X52009160Y38402561*
X52001420Y38401701*
X52003277Y38394273*
X52008644Y38386758*
X52008644D02*
X52016120Y38382487D01*
X52024735Y38381410*
X52035670Y38383597*
X52043151Y38387872*
X52048545Y38396502*
X52050703Y38405137*
X51118813Y40269204D02*
X51117721Y40276848D01*
X51114577Y40283137*
X51109444Y40286216*
X51109444D02*
X51101976Y40287283D01*
X51096549Y40286198*
X51092292Y40285133*
X51092292D02*
X51088160Y40282035D01*
X51084887Y40276579*
X51084887D02*
X51082662Y40276664D01*
X51080486Y40281015*
X51077414Y40284087*
X51072095Y40286215*
X51066820Y40287270*
X51066820D02*
X51062644Y40286226D01*
X51057297Y40284087*
X51050678Y40277468*
X51048510Y40278366*
Y40286167*
X51040844*
Y40229743*
X51048510*
Y40265893*
X51048548Y40266201*
X51049682Y40270736*
X51049682D02*
X51049938Y40271241D01*
X51055608Y40278045*
X51056234Y40278453*
X51064172Y40280721*
X51064829Y40280732*
X51069364Y40279598*
X51069364D02*
X51069761Y40279423D01*
X51073163Y40277155*
X51073594Y40276666*
X51075862Y40272130*
X51075996Y40271562*
Y40229743*
X51083661*
X51083661D02*
Y40262491D01*
X51083661D02*
X51083674Y40262670D01*
X51083674D02*
X51084808Y40270608D01*
X51085049Y40271190*
X51088451Y40275726*
X51088705Y40275980*
X51093241Y40279382*
X51093754Y40279611*
X51099423Y40280745*
X51099423D02*
X51099922D01*
X51105591Y40279611*
X51106358Y40279128*
X51109760Y40274592*
X51109949Y40274232*
X51111083Y40270830*
X51111148Y40270428*
Y40229743*
X51118813*
Y40269204*
X51023563D02*
X51022471Y40276848D01*
X51019327Y40283137*
X51014194Y40286216*
X51014194D02*
X51006726Y40287283D01*
X51001299Y40286198*
X50997042Y40285133*
X50997042D02*
X50992910Y40282035D01*
X50989637Y40276579*
X50989637D02*
X50987412Y40276664D01*
X50985236Y40281015*
X50982164Y40284087*
X50976845Y40286215*
X50971570Y40287270*
X50971570D02*
X50967394Y40286226D01*
X50962047Y40284087*
X50955428Y40277468*
X50953260Y40278366*
Y40286167*
X50945594*
Y40229743*
X50953260*
Y40265893*
X50953298Y40266201*
X50954432Y40270736*
X50954432D02*
X50954688Y40271241D01*
X50960358Y40278045*
X50960984Y40278453*
X50968922Y40280721*
X50969579Y40280732*
X50974114Y40279598*
X50974114D02*
X50974511Y40279423D01*
X50977913Y40277155*
X50978344Y40276666*
X50980612Y40272130*
X50980746Y40271562*
Y40229743*
X50988411*
X50988411D02*
Y40262491D01*
X50988411D02*
X50988424Y40262670D01*
X50988424D02*
X50989558Y40270608D01*
X50989799Y40271190*
X50993201Y40275726*
X50993455Y40275980*
X50997991Y40279382*
X50998504Y40279611*
X51004173Y40280745*
X51004173D02*
X51004672D01*
X51010341Y40279611*
X51011108Y40279128*
X51014510Y40274592*
X51014699Y40274232*
X51015833Y40270830*
X51015898Y40270428*
Y40229743*
X51023563*
Y40269204*
X50930581Y40279322D02*
X50928374Y40287045D01*
X50928374D02*
X50923918Y40299299D01*
X50923918D02*
X50920739Y40303539D01*
X50916578Y40306659*
X50916578D02*
X50905735Y40308828D01*
X50898217Y40307754*
X50891847Y40304569*
X50887593Y40299252*
X50884306Y40291582*
X50884306D02*
X50882083Y40281576D01*
X50882083D02*
X50880960Y40268108D01*
Y40258111*
X50883185Y40249213*
X50883185D02*
X50885401Y40241456D01*
X50888581Y40236157*
X50896093Y40230791*
X50905820Y40228629*
X50913325Y40229701*
X50919694Y40232886*
X50923948Y40238203*
X50927235Y40245873*
X50929460Y40255883*
X50930581Y40268218*
Y40279322*
X50922916Y40277232D02*
Y40259089D01*
X50922898Y40258880*
X50922898D02*
X50921765Y40252077D01*
X50921765D02*
X50921757Y40252036D01*
X50921757D02*
X50920623Y40246367D01*
X50920514Y40246048*
X50918246Y40241512*
X50917903Y40241088*
X50917903D02*
X50912234Y40236553D01*
X50911689Y40236299*
X50911689D02*
X50906020Y40235165D01*
X50905522*
X50899852Y40236299*
X50899308Y40236553*
X50893638Y40241088*
X50893638D02*
X50893296Y40241512D01*
X50893296D02*
X50891028Y40246048D01*
X50890918Y40246367*
X50889784Y40252036*
X50889784D02*
X50889777Y40252077D01*
X50888643Y40258880*
X50888626Y40259089*
Y40277232*
X50888638Y40277412*
X50888638D02*
X50889772Y40285349D01*
X50889784Y40285418*
X50889784D02*
X50890918Y40291088D01*
X50891028Y40291407*
X50893296Y40295943*
X50893296D02*
X50893638Y40296366D01*
X50893638D02*
X50899308Y40300902D01*
X50899852Y40301156*
X50905522Y40302290*
X50905980Y40302297*
X50905980D02*
X50912783Y40301163D01*
X50913566Y40300704*
X50918102Y40295034*
X50918167Y40294945*
X50920435Y40291544*
X50920435D02*
X50920623Y40291088D01*
X50921757Y40285418*
X50921757D02*
X50921769Y40285349D01*
X50922903Y40277412*
X50922903D02*
X50922916Y40277232D01*
X50861411Y40237408D02*
X50853746D01*
Y40229743*
X50861411*
X50861411D02*
Y40237408D01*
X50835308Y40252320D02*
X50834237Y40258745D01*
X50832117Y40264045*
X50827911Y40268251*
X50821292Y40271560*
X50821207Y40273785*
X50826742Y40277107*
X50829888Y40280252*
X50832001Y40284479*
X50833044Y40288649*
X50831985Y40297116*
X50826672Y40303492*
X50820279Y40307754*
X50810521Y40308838*
X50800763Y40307754*
X50794370Y40303492*
X50789048Y40297106*
X50789048D02*
X50787996Y40289741D01*
X50789054Y40284451*
X50791154Y40280252*
X50794299Y40277107*
X50799835Y40273785*
X50799583Y40271491*
X50793064Y40269318*
X50788952Y40265207*
X50786811Y40258782*
X50785734Y40252320*
X50787906Y40242543*
X50792188Y40235050*
X50800743Y40229703*
X50810521Y40228617*
X50820298Y40229703*
X50828853Y40235050*
X50833135Y40242543*
X50833135D02*
X50835308Y40252320D01*
X50825360Y40288263D02*
X50824226Y40283728D01*
X50824226D02*
X50824051Y40283331D01*
X50821783Y40279929*
X50821294Y40279498*
X50816758Y40277230*
X50816439Y40277121*
X50816439D02*
X50810770Y40275987D01*
X50810272*
X50804602Y40277121*
X50804602D02*
X50804283Y40277230D01*
X50799747Y40279498*
X50799259Y40279929*
X50796991Y40283331*
X50796802Y40283786*
X50796802D02*
X50795668Y40289456D01*
X50795682Y40290013*
X50795682D02*
X50796815Y40294549D01*
X50796815D02*
X50796991Y40294945D01*
X50799259Y40298347*
X50799747Y40298779*
X50804283Y40301046*
X50804283D02*
X50804602Y40301156D01*
X50810272Y40302290*
X50810770*
X50816439Y40301156*
X50816439D02*
X50816758Y40301046D01*
X50816758D02*
X50821294Y40298779D01*
X50821862Y40298211*
X50824130Y40293675*
X50824226Y40293415*
X50825360Y40288879*
Y40288263*
X50827666Y40252286D02*
X50827648Y40252077D01*
X50827648D02*
X50826515Y40245273D01*
X50826515D02*
X50826278Y40244720D01*
X50822876Y40240184*
X50822622Y40239930*
X50818086Y40236528*
X50817533Y40236292*
X50810730Y40235158*
X50810730D02*
X50810521Y40235141D01*
X50810521D02*
X50805985D01*
X50805985D02*
X50805281Y40235354D01*
X50805281D02*
X50801944Y40237578D01*
X50797480Y40239810*
X50796991Y40240242*
X50794723Y40243644*
X50794723D02*
X50794522Y40244168D01*
X50793388Y40252106*
X50793388D02*
X50793376Y40252286D01*
X50793376D02*
X50793400Y40252535D01*
X50794534Y40258204*
X50794691Y40258609*
X50794691D02*
X50798092Y40264278D01*
X50798092D02*
X50798419Y40264641D01*
X50798419D02*
X50802955Y40268043D01*
X50803508Y40268279*
X50810312Y40269413*
X50810730*
X50810730D02*
X50817533Y40268279D01*
X50818086Y40268043*
X50822622Y40264641*
X50822949Y40264278*
X50826351Y40258609*
X50826351D02*
X50826507Y40258204D01*
X50827641Y40252535*
X50827666Y40252286*
X50757090Y40308846D02*
X50752276D01*
X50752276D02*
X50749244Y40303793D01*
X50749053Y40303548*
X50743383Y40297879*
X50743189Y40297720*
X50743189D02*
X50736386Y40293184D01*
X50736312Y40293138*
X50736312D02*
X50729014Y40288968D01*
Y40281555*
X50738413Y40286254*
X50747393Y40292989*
X50749425Y40291973*
Y40229743*
X50757090*
Y40308846*
X50731420Y40282758D02*
Y40290343D01*
X50733960Y40284028D02*
Y40291794D01*
X50736500Y40285298D02*
Y40293260D01*
X50739040Y40286724D02*
Y40294954D01*
X50741580Y40288629D02*
Y40296647D01*
X50744120Y40290534D02*
Y40298616D01*
X50746660Y40292439D02*
Y40301156D01*
X50749200Y40292694D02*
Y40303725D01*
X50751740Y40229743D02*
Y40307953D01*
X50754280Y40229743D02*
Y40308846D01*
X50756820Y40229743D02*
Y40308846D01*
X50787300Y40245272D02*
Y40260250D01*
X50789840Y40239159D02*
Y40266095D01*
Y40282880D02*
Y40298056D01*
X50792380Y40234930D02*
Y40268634D01*
Y40279026D02*
Y40301104D01*
X50794920Y40233343D02*
Y40243348D01*
Y40258991D02*
Y40269937D01*
Y40276734D02*
Y40303859D01*
X50797460Y40231755D02*
Y40239820D01*
Y40263224D02*
Y40270784D01*
Y40275210D02*
Y40282627D01*
Y40295649D02*
Y40305552D01*
X50800000Y40230168D02*
Y40238550D01*
Y40265826D02*
Y40271725D01*
Y40273667D02*
Y40279371D01*
Y40298905D02*
Y40307245D01*
X50802540Y40229504D02*
Y40237181D01*
Y40267731D02*
Y40278101D01*
Y40300175D02*
Y40307951D01*
X50805080Y40229221D02*
Y40235487D01*
Y40268541D02*
Y40277025D01*
Y40301251D02*
Y40308234D01*
X50807620Y40228939D02*
Y40235141D01*
Y40268965D02*
Y40276517D01*
Y40301759D02*
Y40308516D01*
X50810160Y40228657D02*
Y40235141D01*
Y40269388D02*
Y40276009D01*
Y40302267D02*
Y40308798D01*
X50812700Y40228859D02*
Y40235486D01*
Y40269085D02*
Y40276373D01*
Y40301904D02*
Y40308596D01*
X50815240Y40229141D02*
Y40235910D01*
Y40268662D02*
Y40276881D01*
Y40301396D02*
Y40308314D01*
X50817780Y40229423D02*
Y40236359D01*
Y40268212D02*
Y40277741D01*
Y40300536D02*
Y40308031D01*
X50820320Y40229717D02*
Y40238204D01*
Y40266367D02*
Y40279011D01*
Y40299266D02*
Y40307726D01*
X50822860Y40231304D02*
Y40240163D01*
Y40264407D02*
Y40270776D01*
Y40274777D02*
Y40281545D01*
Y40296215D02*
Y40306033D01*
X50825400Y40232892D02*
Y40243550D01*
Y40260193D02*
Y40269506D01*
Y40276301D02*
Y40304340D01*
X50827940Y40234479D02*
Y40268222D01*
Y40278304D02*
Y40301970D01*
X50830480Y40237897D02*
Y40265682D01*
Y40281437D02*
Y40298922D01*
X50833020Y40242342D02*
Y40261787D01*
Y40288554D02*
Y40288838D01*
X50855880Y40229743D02*
Y40237408D01*
X50858420Y40229743D02*
Y40237408D01*
X50860960Y40229743D02*
Y40237408D01*
X50881280Y40256833D02*
Y40271943D01*
X50883820Y40246990D02*
Y40289394D01*
X50886360Y40239858D02*
Y40296374D01*
X50888900Y40235929D02*
Y40257338D01*
Y40279242D02*
Y40300885D01*
X50891440Y40234114D02*
Y40245223D01*
Y40292232D02*
Y40304060D01*
X50893980Y40232300D02*
Y40240815D01*
Y40296640D02*
Y40305635D01*
X50896520Y40230696D02*
Y40238783D01*
Y40298672D02*
Y40306905D01*
X50899060Y40230131D02*
Y40236751D01*
Y40300704D02*
Y40307874D01*
X50901600Y40229567D02*
Y40235949D01*
Y40301505D02*
Y40308237D01*
X50904140Y40229002D02*
Y40235442D01*
Y40302013D02*
Y40308600D01*
X50906680Y40228752D02*
Y40235297D01*
Y40302180D02*
Y40308639D01*
X50909220Y40229115D02*
Y40235805D01*
Y40301757D02*
Y40308131D01*
X50911760Y40229478D02*
Y40236315D01*
Y40301334D02*
Y40307623D01*
X50914300Y40230189D02*
Y40238206D01*
Y40299786D02*
Y40307115D01*
X50916840Y40231459D02*
Y40240238D01*
Y40296611D02*
Y40306463D01*
X50919380Y40232729D02*
Y40243780D01*
Y40293125D02*
Y40304558D01*
X50921920Y40235668D02*
Y40253010D01*
Y40284292D02*
Y40301964D01*
X50924460Y40239398D02*
Y40297810D01*
X50927000Y40245324D02*
Y40290825D01*
X50929540Y40256767D02*
Y40282966D01*
X50947320Y40229743D02*
Y40286167D01*
X50949860Y40229743D02*
Y40286167D01*
X50952400Y40229743D02*
Y40286167D01*
X50954940Y40271544D02*
Y40277164D01*
X50957480Y40274592D02*
Y40279520D01*
X50960020Y40277640D02*
Y40282060D01*
X50962560Y40278903D02*
Y40284292D01*
X50965100Y40279629D02*
Y40285308D01*
X50967640Y40280355D02*
Y40286287D01*
X50970180Y40280582D02*
Y40286922D01*
X50972720Y40279947D02*
Y40287040D01*
X50975260Y40278923D02*
Y40286532D01*
X50977800Y40277230D02*
Y40285833D01*
X50980340Y40272674D02*
Y40284817D01*
X50982880Y40229743D02*
Y40283371D01*
X50985420Y40229743D02*
Y40280647D01*
X50987960Y40229743D02*
Y40276106D01*
X50990500Y40272124D02*
Y40278018D01*
X50993040Y40275511D02*
Y40282132D01*
X50995580Y40277574D02*
Y40284037D01*
X50998120Y40279467D02*
Y40285403D01*
X51000660Y40280042D02*
Y40286038D01*
X51003200Y40280550D02*
Y40286578D01*
X51005740Y40280531D02*
Y40287086D01*
X51008280Y40280023D02*
Y40287061D01*
X51010820Y40279406D02*
Y40286698D01*
X51013360Y40276125D02*
Y40286335D01*
X51015900Y40229743D02*
Y40285193D01*
X51018440Y40229743D02*
Y40283669D01*
X51020980Y40229743D02*
Y40279831D01*
X51023520Y40229743D02*
Y40269507D01*
X51041300Y40229743D02*
Y40286167D01*
X51043840Y40229743D02*
Y40286167D01*
X51046380Y40229743D02*
Y40286167D01*
X51048920Y40267690D02*
Y40277431D01*
X51051460Y40273068D02*
Y40278250D01*
X51054000Y40276116D02*
Y40280790D01*
X51056540Y40278540D02*
Y40283330D01*
X51059080Y40279266D02*
Y40284800D01*
X51061620Y40279992D02*
Y40285816D01*
X51064160Y40280718D02*
Y40286605D01*
X51066700Y40280264D02*
Y40287240D01*
X51069240Y40279629D02*
Y40286786D01*
X51071780Y40278077D02*
Y40286278D01*
X51074320Y40275214D02*
Y40285325D01*
X51076860Y40229743D02*
Y40284309D01*
X51079400Y40229743D02*
Y40282101D01*
X51081940Y40229743D02*
Y40278107D01*
X51084480Y40268311D02*
Y40276161D01*
X51087020Y40273818D02*
Y40280134D01*
X51089560Y40276621D02*
Y40283085D01*
X51092100Y40278526D02*
Y40284990D01*
X51094640Y40279788D02*
Y40285721D01*
X51097180Y40280296D02*
Y40286324D01*
X51099720Y40280769D02*
Y40286832D01*
X51102260Y40280277D02*
Y40287243D01*
X51104800Y40279769D02*
Y40286880D01*
X51107340Y40277819D02*
Y40286517D01*
X51109880Y40274398D02*
Y40285955D01*
X51112420Y40229743D02*
Y40284431D01*
X51114960Y40229743D02*
Y40282371D01*
X51117500Y40229743D02*
Y40277291D01*
X52001420Y38401700D02*
Y38401701D01*
X52003960Y38393317D02*
Y38401983D01*
Y38442302D02*
Y38445715D01*
X52006500Y38389761D02*
Y38402265D01*
Y38442019D02*
Y38451332D01*
X52009040Y38386532D02*
Y38402548D01*
Y38441737D02*
Y38455142D01*
X52011580Y38385081D02*
Y38395988D01*
Y38444656D02*
Y38457487D01*
X52014120Y38383629D02*
Y38392601D01*
Y38450087D02*
Y38459180D01*
X52016660Y38382419D02*
Y38390702D01*
Y38452323D02*
Y38460606D01*
X52019200Y38382102D02*
Y38389432D01*
Y38453593D02*
Y38460923D01*
X52021740Y38381784D02*
Y38388735D01*
Y38421537D02*
Y38427613D01*
Y38454378D02*
Y38461241D01*
X52024280Y38381467D02*
Y38388227D01*
Y38421960D02*
Y38427613D01*
Y38455013D02*
Y38461558D01*
X52026820Y38381827D02*
Y38388059D01*
Y38422082D02*
Y38427613D01*
Y38454717D02*
Y38461198D01*
X52029360Y38382335D02*
Y38388482D01*
Y38421659D02*
Y38428178D01*
Y38454209D02*
Y38460690D01*
X52031900Y38382843D02*
Y38388905D01*
Y38421236D02*
Y38430083D01*
Y38453256D02*
Y38459820D01*
X52034440Y38383351D02*
Y38390033D01*
Y38420108D02*
Y38432210D01*
Y38451563D02*
Y38458804D01*
X52036980Y38384346D02*
Y38391938D01*
Y38418203D02*
Y38423856D01*
Y38427713D02*
Y38434750D01*
Y38447013D02*
Y38457267D01*
X52039520Y38385797D02*
Y38395038D01*
Y38415506D02*
Y38423009D01*
Y38429618D02*
Y38455362D01*
X52042060Y38387248D02*
Y38399942D01*
Y38411179D02*
Y38422163D01*
Y38431523D02*
Y38453457D01*
X52044600Y38390190D02*
Y38419742D01*
Y38435152D02*
Y38449181D01*
X52047140Y38394254D02*
Y38416743D01*
X52049680Y38401043D02*
Y38412301D01*
X52072540Y38434905D02*
Y38442400D01*
X52075080Y38436175D02*
Y38443851D01*
X52077620Y38437445D02*
Y38445302D01*
X52080160Y38438715D02*
Y38446889D01*
X52082700Y38440458D02*
Y38448582D01*
X52085240Y38442363D02*
Y38450275D01*
X52087780Y38444268D02*
Y38452666D01*
X52090320Y38446007D02*
Y38455206D01*
X52092860Y38382528D02*
Y38458614D01*
X52095400Y38382528D02*
Y38461631D01*
X52097940Y38382528D02*
Y38461631D01*
X52133500Y38382528D02*
Y38390193D01*
X52136040Y38382528D02*
Y38390193D01*
X52138580Y38382528D02*
Y38390193D01*
X52156360Y38401805D02*
Y38411692D01*
X52158900Y38401805D02*
Y38415053D01*
X52161440Y38401805D02*
Y38418415D01*
X52163980Y38401805D02*
Y38421777D01*
X52166520Y38401805D02*
Y38409470D01*
Y38412853D02*
Y38425139D01*
X52169060Y38401805D02*
Y38409470D01*
Y38416240D02*
Y38428500D01*
X52171600Y38401805D02*
Y38409470D01*
Y38419627D02*
Y38431862D01*
X52174140Y38401805D02*
Y38409470D01*
Y38423013D02*
Y38435224D01*
X52176680Y38401805D02*
Y38409470D01*
Y38426400D02*
Y38438586D01*
X52179220Y38401805D02*
Y38409470D01*
Y38429787D02*
Y38441947D01*
X52181760Y38401805D02*
Y38409470D01*
Y38433173D02*
Y38445309D01*
X52184300Y38401805D02*
Y38409470D01*
Y38436560D02*
Y38448671D01*
X52186840Y38401805D02*
Y38409470D01*
Y38439947D02*
Y38452033D01*
X52189380Y38401805D02*
Y38409470D01*
Y38443327D02*
Y38455394D01*
X52191920Y38382528D02*
Y38458756D01*
X52194460Y38382528D02*
Y38460497D01*
X52197000Y38382528D02*
Y38460497D01*
X52199540Y38401317D02*
Y38409958D01*
X52202080Y38401805D02*
Y38409470D01*
X52204620Y38401805D02*
Y38409470D01*
X52207160Y38401805D02*
Y38409470D01*
X52224940Y38382528D02*
Y38438952D01*
X52227480Y38382528D02*
Y38438952D01*
X52230020Y38382528D02*
Y38438952D01*
X52232560Y38420456D02*
Y38430221D01*
X52235100Y38425847D02*
Y38431030D01*
X52237640Y38428895D02*
Y38433570D01*
X52240180Y38431324D02*
Y38436110D01*
X52242720Y38432050D02*
Y38437583D01*
X52245260Y38432775D02*
Y38438599D01*
X52247800Y38433501D02*
Y38439389D01*
X52250340Y38433050D02*
Y38440024D01*
X52252880Y38432415D02*
Y38439572D01*
X52255420Y38430865D02*
Y38439064D01*
X52257960Y38428009D02*
Y38438112D01*
X52260500Y38382528D02*
Y38437096D01*
X52263040Y38382528D02*
Y38434891D01*
X52265580Y38382528D02*
Y38430902D01*
X52268120Y38421062D02*
Y38428943D01*
X52270660Y38426596D02*
Y38432911D01*
X52273200Y38429403D02*
Y38435866D01*
X52275740Y38431308D02*
Y38437771D01*
X52278280Y38432572D02*
Y38438504D01*
X52280820Y38433080D02*
Y38439108D01*
X52283360Y38433554D02*
Y38439616D01*
X52285900Y38433063D02*
Y38440028D01*
X52288440Y38432555D02*
Y38439665D01*
X52290980Y38430610D02*
Y38439303D01*
X52293520Y38427192D02*
Y38438743D01*
X52296060Y38382528D02*
Y38437219D01*
X52298600Y38382528D02*
Y38435165D01*
X52301140Y38382528D02*
Y38430085D01*
X52321460Y38382528D02*
Y38438952D01*
X52324000Y38382528D02*
Y38438952D01*
X52326540Y38382528D02*
Y38438952D01*
X52329080Y38424323D02*
Y38429947D01*
X52331620Y38427371D02*
Y38432300D01*
X52334160Y38430419D02*
Y38434840D01*
X52336700Y38431687D02*
Y38437075D01*
X52339240Y38432413D02*
Y38438091D01*
X52341780Y38433138D02*
Y38439071D01*
X52344320Y38433368D02*
Y38439706D01*
X52346860Y38432733D02*
Y38439826D01*
X52349400Y38431711D02*
Y38439318D01*
X52351940Y38430018D02*
Y38438620D01*
X52354480Y38425469D02*
Y38437604D01*
X52357020Y38382528D02*
Y38436161D01*
X52359560Y38382528D02*
Y38433442D01*
X52362100Y38382528D02*
Y38428894D01*
X52364640Y38424903D02*
Y38430795D01*
X52367180Y38428290D02*
Y38434914D01*
X52369720Y38430355D02*
Y38436818D01*
X52372260Y38432249D02*
Y38438187D01*
X52374800Y38432826D02*
Y38438822D01*
X52377340Y38433334D02*
Y38439362D01*
X52379880Y38433317D02*
Y38439870D01*
X52382420Y38432809D02*
Y38439847D01*
X52384960Y38432195D02*
Y38439484D01*
X52387500Y38428917D02*
Y38439121D01*
X52390040Y38423294D02*
Y38437981D01*
X52392580Y38382528D02*
Y38436457D01*
X52395120Y38382528D02*
Y38432625D01*
X52397660Y38382528D02*
Y38422325D01*
*
G04 PC Custom Flashes*
G04 Layer Name ESP32-WROVER-V4.pcb - flashes*
%LPD*%
*
*
G04 PC Circuitry*
G04 Layer Name ESP32-WROVER-V4.pcb - circuitry*
%LPD*%
*
G54D10*
X50000000Y40000000D02*
X50000067D01*
X51799996D02*
X51800063D01*
X51808988Y36857766D02*
X51809055D01*
X51799996Y40000000D02*
X51800063D01*
G54D44*
X50000000D02*
X51799996D01*
Y36859290*
X50000000*
Y40000000*
G54D109*
X50195488Y39268988D02*
X50197797Y39274544D01*
X50202415Y39280101*
X50202415D02*
X50207033Y39282879D01*
X50216269*
X50216269D02*
X50220888Y39280101D01*
X50220888D02*
X50225506Y39274544D01*
X50227815Y39268988*
X50230124Y39260654*
Y39246763*
X50227815Y39238429*
X50225506Y39232872*
X50220888Y39227316*
X50216269Y39224538*
X50216269D02*
X50207033D01*
X50202415Y39227316*
X50197797Y39232872*
X50195488Y39238429*
Y39246763*
X50207033D02*
X50195488D01*
X50174706Y39282879D02*
Y39224538D01*
Y39282879D02*
X50142379Y39224538D01*
Y39282879D02*
Y39224538D01*
X50121597Y39282879D02*
Y39224538D01*
Y39282879D02*
X50105433D01*
X50098506Y39280101*
X50098506D02*
X50093888Y39274544D01*
X50091579Y39268988*
X50091579D02*
X50089269Y39260654D01*
X50089269D02*
Y39246763D01*
X50089269D02*
X50091579Y39238429D01*
X50091579D02*
X50093888Y39232872D01*
X50098506Y39227316*
X50105433Y39224538*
X50121597*
X50348234Y39155371D02*
X50329761Y39097030D01*
X50311289Y39155371D02*
X50329761Y39097030D01*
X50290507Y39155371D02*
Y39097030D01*
Y39155371D02*
X50274343D01*
X50267416Y39152593*
X50267416D02*
X50262798Y39147036D01*
X50260489Y39141480*
X50260489D02*
X50258179Y39133146D01*
X50258179D02*
Y39119255D01*
X50258179D02*
X50260489Y39110921D01*
X50260489D02*
X50262798Y39105364D01*
X50267416Y39099808*
X50274343Y39097030*
X50290507*
X50237398Y39155371D02*
Y39097030D01*
Y39155371D02*
X50221234D01*
X50214307Y39152593*
X50214307D02*
X50209689Y39147036D01*
X50209689D02*
X50207379Y39141480D01*
X50207379D02*
X50205070Y39133146D01*
Y39119255*
X50207379Y39110921*
X50207379D02*
X50209689Y39105364D01*
X50209689D02*
X50214307Y39099808D01*
X50221234Y39097030*
X50237398*
X50179670Y39155371D02*
X50154270D01*
X50168125Y39133146*
X50161198*
X50156579Y39130368*
X50156579D02*
X50154270Y39127589D01*
X50151961Y39119255*
Y39113699*
X50154270Y39105364*
X50158889Y39099808*
X50158889D02*
X50165816Y39097030D01*
X50172743*
X50179670Y39099808*
X50181979Y39102586*
X50181979D02*
X50184289Y39108143D01*
X50126561Y39155371D02*
X50101161D01*
X50115016Y39133146*
X50108089*
X50108089D02*
X50103470Y39130368D01*
X50103470D02*
X50101161Y39127589D01*
X50098852Y39119255*
Y39113699*
X50101161Y39105364*
X50105779Y39099808*
X50105779D02*
X50112707Y39097030D01*
X50119634*
X50126561Y39099808*
X50128870Y39102586*
X50131179Y39108143*
X50196850Y39028117D02*
Y38969776D01*
Y39028117D02*
X50166832D01*
X50196850Y39000335D02*
X50178377D01*
X50196850Y38969776D02*
X50166832D01*
X50146050Y39028117D02*
Y38969776D01*
Y39028117D02*
X50113723Y38969776D01*
Y39028117D02*
Y38969776D01*
X50540443Y38892782D02*
X50545061Y38898339D01*
X50545061D02*
X50551988Y38901117D01*
X50561225*
X50561225D02*
X50568152Y38898339D01*
X50568152D02*
X50572770Y38892782D01*
Y38887226*
X50570461Y38881670*
X50568152Y38878892*
X50563534Y38876114*
X50563534D02*
X50549679Y38870557D01*
X50545061Y38867779*
X50542752Y38865001*
X50540443Y38859445*
Y38851110*
X50545061Y38845554*
X50551988Y38842776*
X50561225*
X50561225D02*
X50568152Y38845554D01*
X50572770Y38851110*
X50519661Y38901117D02*
Y38842776D01*
Y38901117D02*
X50489643D01*
X50519661Y38873335D02*
X50501188D01*
X50519661Y38842776D02*
X50489643D01*
X50468861Y38901117D02*
Y38842776D01*
Y38901117D02*
X50436534Y38842776D01*
Y38901117D02*
Y38842776D01*
X50383425Y38892782D02*
X50388043Y38898339D01*
X50388043D02*
X50394970Y38901117D01*
X50404206*
X50411134Y38898339*
X50411134D02*
X50415752Y38892782D01*
Y38887226*
X50413443Y38881670*
X50411134Y38878892*
X50406515Y38876114*
X50406515D02*
X50392661Y38870557D01*
X50388043Y38867779*
X50385734Y38865001*
X50383425Y38859445*
X50383425D02*
Y38851110D01*
X50383425D02*
X50388043Y38845554D01*
X50394970Y38842776*
X50404206*
X50411134Y38845554*
X50415752Y38851110*
X50348788Y38901117D02*
X50353406Y38898339D01*
X50353406D02*
X50358025Y38892782D01*
X50358025D02*
X50360334Y38887226D01*
X50362643Y38878892*
Y38865001*
X50360334Y38856667*
X50358025Y38851110*
X50358025D02*
X50353406Y38845554D01*
X50348788Y38842776*
X50339552*
X50334934Y38845554*
X50330315Y38851110*
X50330315D02*
X50328006Y38856667D01*
X50325697Y38865001*
Y38878892*
X50328006Y38887226*
X50330315Y38892782*
X50330315D02*
X50334934Y38898339D01*
X50334934D02*
X50339552Y38901117D01*
X50348788*
X50304915D02*
Y38842776D01*
Y38901117D02*
X50284134D01*
X50277206Y38898339*
X50277206D02*
X50274897Y38895560D01*
X50272588Y38890004*
Y38884448*
X50274897Y38878892*
X50277206Y38876114*
X50277206D02*
X50284134Y38873335D01*
X50304915*
X50288752D02*
X50272588Y38842776D01*
X50251806Y38831663D02*
X50203315D01*
X50189461Y38901117D02*
X50170988Y38842776D01*
X50152515Y38901117D02*
X50170988Y38842776D01*
X50131734Y38901117D02*
Y38842776D01*
Y38901117D02*
X50110952D01*
X50104025Y38898339*
X50104025D02*
X50101715Y38895560D01*
X50101715D02*
X50099406Y38890004D01*
Y38881670*
X50101715Y38876114*
X50101715D02*
X50104025Y38873335D01*
X50104025D02*
X50110952Y38870557D01*
X50131734*
X50267970Y38647117D02*
Y38588776D01*
X50233334Y38647117D02*
X50237952Y38644339D01*
X50237952D02*
X50242570Y38638782D01*
X50244879Y38633226*
X50247188Y38624892*
Y38611001*
X50244879Y38602667*
X50242570Y38597110*
X50237952Y38591554*
X50233334Y38588776*
X50224097*
X50219479Y38591554*
X50214861Y38597110*
X50212552Y38602667*
X50210243Y38611001*
Y38624892*
X50212552Y38633226*
X50214861Y38638782*
X50219479Y38644339*
X50219479D02*
X50224097Y38647117D01*
X50233334*
X50184843D02*
X50159443D01*
X50173297Y38624892*
X50166370*
X50161752Y38622114*
X50161752D02*
X50159443Y38619335D01*
X50157134Y38611001*
Y38605445*
X50159443Y38597110*
X50164061Y38591554*
X50170988Y38588776*
X50177915*
X50177915D02*
X50184843Y38591554D01*
X50187152Y38594332*
X50189461Y38599889*
X50113261Y38647117D02*
X50136352Y38608223D01*
X50101715*
X50113261Y38647117D02*
Y38588776D01*
X50267970Y38520117D02*
Y38461776D01*
X50233334Y38520117D02*
X50237952Y38517339D01*
X50237952D02*
X50242570Y38511782D01*
X50244879Y38506226*
X50247188Y38497892*
Y38484001*
X50244879Y38475667*
X50242570Y38470110*
X50237952Y38464554*
X50233334Y38461776*
X50224097*
X50219479Y38464554*
X50214861Y38470110*
X50212552Y38475667*
X50210243Y38484001*
Y38497892*
X50212552Y38506226*
X50214861Y38511782*
X50219479Y38517339*
X50219479D02*
X50224097Y38520117D01*
X50233334*
X50184843D02*
X50159443D01*
X50173297Y38497892*
X50166370*
X50161752Y38495114*
X50161752D02*
X50159443Y38492335D01*
X50157134Y38484001*
Y38478445*
X50159443Y38470110*
X50164061Y38464554*
X50170988Y38461776*
X50177915*
X50177915D02*
X50184843Y38464554D01*
X50187152Y38467332*
X50189461Y38472889*
X50106334Y38520117D02*
X50129425D01*
X50129425D02*
X50131734Y38495114D01*
X50131734D02*
X50129425Y38497892D01*
X50129425D02*
X50122497Y38500670D01*
X50115570*
X50108643Y38497892*
X50104025Y38492335*
X50104025D02*
X50101715Y38484001D01*
X50101715D02*
X50104025Y38478445D01*
X50104025D02*
X50106334Y38470110D01*
X50110952Y38464554*
X50117879Y38461776*
X50124806*
X50131734Y38464554*
X50134043Y38467332*
X50136352Y38472889*
X50267970Y38393117D02*
Y38334776D01*
X50233334Y38393117D02*
X50237952Y38390339D01*
X50237952D02*
X50242570Y38384782D01*
X50244879Y38379226*
X50247188Y38370892*
Y38357001*
X50244879Y38348667*
X50242570Y38343110*
X50237952Y38337554*
X50233334Y38334776*
X50224097*
X50219479Y38337554*
X50214861Y38343110*
X50212552Y38348667*
X50210243Y38357001*
Y38370892*
X50212552Y38379226*
X50214861Y38384782*
X50219479Y38390339*
X50219479D02*
X50224097Y38393117D01*
X50233334*
X50184843D02*
X50159443D01*
X50173297Y38370892*
X50166370*
X50161752Y38368114*
X50161752D02*
X50159443Y38365335D01*
X50157134Y38357001*
Y38351445*
X50159443Y38343110*
X50164061Y38337554*
X50170988Y38334776*
X50177915*
X50177915D02*
X50184843Y38337554D01*
X50187152Y38340332*
X50189461Y38345889*
X50134043Y38379226D02*
Y38382004D01*
X50131734Y38387560*
X50129425Y38390339*
X50129425D02*
X50124806Y38393117D01*
X50115570*
X50110952Y38390339*
X50110952D02*
X50108643Y38387560D01*
X50106334Y38382004*
Y38376448*
X50108643Y38370892*
X50113261Y38362557*
X50136352Y38334776*
X50104025*
X50267970Y38266117D02*
Y38207776D01*
X50233334Y38266117D02*
X50237952Y38263339D01*
X50237952D02*
X50242570Y38257782D01*
X50244879Y38252226*
X50247188Y38243892*
Y38230001*
X50244879Y38221667*
X50242570Y38216110*
X50237952Y38210554*
X50233334Y38207776*
X50224097*
X50219479Y38210554*
X50214861Y38216110*
X50212552Y38221667*
X50210243Y38230001*
Y38243892*
X50212552Y38252226*
X50214861Y38257782*
X50219479Y38263339*
X50219479D02*
X50224097Y38266117D01*
X50233334*
X50184843D02*
X50159443D01*
X50173297Y38243892*
X50166370*
X50161752Y38241114*
X50161752D02*
X50159443Y38238335D01*
X50157134Y38230001*
Y38224445*
X50159443Y38216110*
X50164061Y38210554*
X50170988Y38207776*
X50177915*
X50177915D02*
X50184843Y38210554D01*
X50187152Y38213332*
X50189461Y38218889*
X50131734Y38266117D02*
X50106334D01*
X50120188Y38243892*
X50113261*
X50108643Y38241114*
X50108643D02*
X50106334Y38238335D01*
X50104025Y38230001*
X50104025D02*
Y38224445D01*
X50104025D02*
X50106334Y38216110D01*
X50110952Y38210554*
X50117879Y38207776*
X50124806*
X50131734Y38210554*
X50134043Y38213332*
X50136352Y38218889*
X50267970Y38139117D02*
Y38080776D01*
X50233334Y38139117D02*
X50237952Y38136339D01*
X50237952D02*
X50242570Y38130782D01*
X50244879Y38125226*
X50247188Y38116892*
Y38103001*
X50244879Y38094667*
X50242570Y38089110*
X50237952Y38083554*
X50233334Y38080776*
X50224097*
X50219479Y38083554*
X50214861Y38089110*
X50212552Y38094667*
X50210243Y38103001*
Y38116892*
X50212552Y38125226*
X50214861Y38130782*
X50219479Y38136339*
X50219479D02*
X50224097Y38139117D01*
X50233334*
X50187152Y38125226D02*
Y38128004D01*
X50184843Y38133560*
X50182534Y38136339*
X50182534D02*
X50177915Y38139117D01*
X50177915D02*
X50168679D01*
X50164061Y38136339*
X50164061D02*
X50161752Y38133560D01*
X50159443Y38128004*
Y38122448*
X50161752Y38116892*
X50166370Y38108557*
X50189461Y38080776*
X50157134*
X50106334Y38139117D02*
X50129425D01*
X50129425D02*
X50131734Y38114114D01*
X50131734D02*
X50129425Y38116892D01*
X50129425D02*
X50122497Y38119670D01*
X50115570*
X50108643Y38116892*
X50104025Y38111335*
X50104025D02*
X50101715Y38103001D01*
X50101715D02*
X50104025Y38097445D01*
X50104025D02*
X50106334Y38089110D01*
X50110952Y38083554*
X50117879Y38080776*
X50124806*
X50131734Y38083554*
X50134043Y38086332*
X50136352Y38091889*
X50267970Y38012117D02*
Y37953776D01*
X50233334Y38012117D02*
X50237952Y38009339D01*
X50237952D02*
X50242570Y38003782D01*
X50244879Y37998226*
X50247188Y37989892*
Y37976001*
X50244879Y37967667*
X50242570Y37962110*
X50237952Y37956554*
X50233334Y37953776*
X50224097*
X50219479Y37956554*
X50214861Y37962110*
X50212552Y37967667*
X50210243Y37976001*
Y37989892*
X50212552Y37998226*
X50214861Y38003782*
X50219479Y38009339*
X50219479D02*
X50224097Y38012117D01*
X50233334*
X50187152Y37998226D02*
Y38001004D01*
X50184843Y38006560*
X50182534Y38009339*
X50182534D02*
X50177915Y38012117D01*
X50177915D02*
X50168679D01*
X50164061Y38009339*
X50164061D02*
X50161752Y38006560D01*
X50159443Y38001004*
Y37995448*
X50161752Y37989892*
X50166370Y37981557*
X50189461Y37953776*
X50157134*
X50108643Y38003782D02*
X50110952Y38009339D01*
X50110952D02*
X50117879Y38012117D01*
X50122497*
X50129425Y38009339*
X50129425D02*
X50134043Y38001004D01*
X50136352Y37987114*
X50136352D02*
Y37973223D01*
X50134043Y37962110*
X50129425Y37956554*
X50129425D02*
X50122497Y37953776D01*
X50120188*
X50113261Y37956554*
X50108643Y37962110*
X50106334Y37970445*
Y37973223*
X50108643Y37981557*
X50113261Y37987114*
X50113261D02*
X50120188Y37989892D01*
X50122497*
X50129425Y37987114*
X50129425D02*
X50134043Y37981557D01*
X50136352Y37973223*
X50267970Y37885117D02*
Y37826776D01*
X50233334Y37885117D02*
X50237952Y37882339D01*
X50237952D02*
X50242570Y37876782D01*
X50244879Y37871226*
X50247188Y37862892*
Y37849001*
X50244879Y37840667*
X50242570Y37835110*
X50237952Y37829554*
X50233334Y37826776*
X50224097*
X50219479Y37829554*
X50214861Y37835110*
X50212552Y37840667*
X50210243Y37849001*
Y37862892*
X50212552Y37871226*
X50214861Y37876782*
X50219479Y37882339*
X50219479D02*
X50224097Y37885117D01*
X50233334*
X50187152Y37871226D02*
Y37874004D01*
X50184843Y37879560*
X50182534Y37882339*
X50182534D02*
X50177915Y37885117D01*
X50177915D02*
X50168679D01*
X50164061Y37882339*
X50164061D02*
X50161752Y37879560D01*
X50159443Y37874004*
Y37868448*
X50161752Y37862892*
X50166370Y37854557*
X50189461Y37826776*
X50157134*
X50104025Y37885117D02*
X50127115Y37826776D01*
X50136352Y37885117D02*
X50104025D01*
X50247650Y37758117D02*
Y37699776D01*
X50213014Y37758117D02*
X50217632Y37755339D01*
X50217632D02*
X50222250Y37749782D01*
X50224559Y37744226*
X50226868Y37735892*
Y37722001*
X50224559Y37713667*
X50222250Y37708110*
X50217632Y37702554*
X50213014Y37699776*
X50203777*
X50199159Y37702554*
X50194541Y37708110*
X50192232Y37713667*
X50189923Y37722001*
Y37735892*
X50192232Y37744226*
X50194541Y37749782*
X50199159Y37755339*
X50199159D02*
X50203777Y37758117D01*
X50213014*
X50169141Y37747004D02*
X50164523Y37749782D01*
X50157595Y37758117*
X50157595D02*
Y37699776D01*
X50113723Y37758117D02*
X50136814Y37719223D01*
X50102177*
X50113723Y37758117D02*
Y37699776D01*
X50247650Y37631117D02*
Y37572776D01*
X50213014Y37631117D02*
X50217632Y37628339D01*
X50217632D02*
X50222250Y37622782D01*
X50224559Y37617226*
X50226868Y37608892*
Y37595001*
X50224559Y37586667*
X50222250Y37581110*
X50217632Y37575554*
X50213014Y37572776*
X50203777*
X50199159Y37575554*
X50194541Y37581110*
X50192232Y37586667*
X50189923Y37595001*
Y37608892*
X50192232Y37617226*
X50194541Y37622782*
X50199159Y37628339*
X50199159D02*
X50203777Y37631117D01*
X50213014*
X50169141Y37620004D02*
X50164523Y37622782D01*
X50157595Y37631117*
X50157595D02*
Y37572776D01*
X50134505Y37617226D02*
Y37620004D01*
X50134505D02*
X50132195Y37625560D01*
X50132195D02*
X50129886Y37628339D01*
X50129886D02*
X50125268Y37631117D01*
X50116032*
X50111414Y37628339*
X50111414D02*
X50109105Y37625560D01*
X50109105D02*
X50106795Y37620004D01*
X50106795D02*
Y37614448D01*
X50106795D02*
X50109105Y37608892D01*
X50109105D02*
X50113723Y37600557D01*
X50136814Y37572776*
X50104486*
X50237744Y37385245D02*
Y37326904D01*
X50203108Y37385245D02*
X50207726Y37382467D01*
X50207726D02*
X50212344Y37376910D01*
X50214653Y37371354*
X50216962Y37363020*
Y37349129*
X50214653Y37340795*
X50212344Y37335238*
X50207726Y37329682*
X50203108Y37326904*
X50193871*
X50189253Y37329682*
X50184635Y37335238*
X50182326Y37340795*
X50180017Y37349129*
Y37363020*
X50182326Y37371354*
X50184635Y37376910*
X50189253Y37382467*
X50189253D02*
X50193871Y37385245D01*
X50203108*
X50159235Y37374132D02*
X50154617Y37376910D01*
X50147689Y37385245*
X50147689D02*
Y37326904D01*
X50122289Y37385245D02*
X50096889D01*
X50096889D02*
X50110744Y37363020D01*
X50103817*
X50099199Y37360242*
X50099199D02*
X50096889Y37357463D01*
X50096889D02*
X50094580Y37349129D01*
Y37343573*
X50096889Y37335238*
X50096889D02*
X50101508Y37329682D01*
X50108435Y37326904*
X50115362*
X50122289Y37329682*
X50122289D02*
X50124599Y37332460D01*
X50124599D02*
X50126908Y37338017D01*
X50202877Y37258038D02*
X50207495Y37263595D01*
X50207495D02*
X50214422Y37266373D01*
X50223659*
X50223659D02*
X50230586Y37263595D01*
X50230586D02*
X50235204Y37258038D01*
Y37252482*
X50232895Y37246926*
X50230586Y37244148*
X50225968Y37241370*
X50225968D02*
X50212113Y37235813D01*
X50207495Y37233035*
X50205186Y37230257*
X50202877Y37224701*
Y37216366*
X50207495Y37210810*
X50214422Y37208032*
X50223659*
X50223659D02*
X50230586Y37210810D01*
X50235204Y37216366*
X50182095Y37266373D02*
Y37208032D01*
Y37266373D02*
X50165931D01*
X50159004Y37263595*
X50159004D02*
X50154386Y37258038D01*
X50152077Y37252482*
X50149768Y37244148*
Y37230257*
X50152077Y37221923*
X50154386Y37216366*
X50159004Y37210810*
X50165931Y37208032*
X50182095*
X50126677Y37252482D02*
Y37255260D01*
X50124368Y37260816*
X50122059Y37263595*
X50122059D02*
X50117440Y37266373D01*
X50108204*
X50103586Y37263595*
X50103586D02*
X50101277Y37260816D01*
X50098968Y37255260*
Y37249704*
X50101277Y37244148*
X50105895Y37235813*
X50128986Y37208032*
X50096659*
X50206941Y37131546D02*
X50211559Y37137103D01*
X50211559D02*
X50218486Y37139881D01*
X50227723*
X50227723D02*
X50234650Y37137103D01*
X50234650D02*
X50239268Y37131546D01*
Y37125990*
X50236959Y37120434*
X50234650Y37117656*
X50230032Y37114878*
X50230032D02*
X50216177Y37109321D01*
X50211559Y37106543*
X50209250Y37103765*
X50206941Y37098209*
Y37089874*
X50211559Y37084318*
X50218486Y37081540*
X50227723*
X50227723D02*
X50234650Y37084318D01*
X50239268Y37089874*
X50186159Y37139881D02*
Y37081540D01*
Y37139881D02*
X50169995D01*
X50163068Y37137103*
X50163068D02*
X50158450Y37131546D01*
X50156141Y37125990*
X50153832Y37117656*
Y37103765*
X50156141Y37095431*
X50158450Y37089874*
X50163068Y37084318*
X50169995Y37081540*
X50186159*
X50128432Y37139881D02*
X50103032D01*
X50116886Y37117656*
X50109959*
X50105341Y37114878*
X50105341D02*
X50103032Y37112099D01*
X50100723Y37103765*
X50100723D02*
Y37098209D01*
X50100723D02*
X50103032Y37089874D01*
X50107650Y37084318*
X50114577Y37081540*
X50121504*
X50128432Y37084318*
X50130741Y37087096*
X50133050Y37092653*
X50205902Y36997466D02*
X50208211Y37003022D01*
X50212829Y37008579*
X50212829D02*
X50217447Y37011357D01*
X50226683*
X50226683D02*
X50231302Y37008579D01*
X50231302D02*
X50235920Y37003022D01*
X50238229Y36997466*
X50240538Y36989132*
Y36975241*
X50238229Y36966907*
X50235920Y36961350*
X50231302Y36955794*
X50226683Y36953016*
X50226683D02*
X50217447D01*
X50212829Y36955794*
X50208211Y36961350*
X50205902Y36966907*
X50185120Y37011357D02*
Y36953016D01*
Y37011357D02*
X50166647Y36953016D01*
X50148174Y37011357D02*
X50166647Y36953016D01*
X50148174Y37011357D02*
Y36953016D01*
X50127393Y37011357D02*
Y36953016D01*
Y37011357D02*
X50111229D01*
X50104302Y37008579*
X50104302D02*
X50099683Y37003022D01*
X50099683D02*
X50097374Y36997466D01*
X50095065Y36989132*
Y36975241*
X50097374Y36966907*
X50099683Y36961350*
X50099683D02*
X50104302Y36955794D01*
X50111229Y36953016*
X50127393*
X51649130Y36993473D02*
X51651439Y36999030D01*
X51656057Y37004586*
X51660675Y37007364*
X51669911*
X51669911D02*
X51674530Y37004586D01*
X51679148Y36999030*
X51681457Y36993473*
X51681457D02*
X51683766Y36985139D01*
Y36971248*
X51681457Y36962914*
X51679148Y36957358*
X51674530Y36951802*
X51674530D02*
X51669911Y36949023D01*
X51669911D02*
X51660675D01*
X51656057Y36951802*
X51656057D02*
X51651439Y36957358D01*
X51649130Y36962914*
X51628348Y37007364D02*
Y36949023D01*
X51600639*
X51579857Y37007364D02*
Y36949023D01*
X51547530Y37007364D02*
X51579857Y36968470D01*
X51568311Y36982361D02*
X51547530Y36949023D01*
X51651439Y37125268D02*
X51656057Y37130824D01*
X51662984Y37133602*
X51672221*
X51672221D02*
X51679148Y37130824D01*
X51683766Y37125268*
Y37119711*
X51683766D02*
X51681457Y37114155D01*
X51679148Y37111377*
X51674530Y37108599*
X51660675Y37103043*
X51656057Y37100265*
X51656057D02*
X51653748Y37097486D01*
X51651439Y37091930*
Y37083596*
X51656057Y37078040*
X51656057D02*
X51662984Y37075261D01*
X51672221*
X51672221D02*
X51679148Y37078040D01*
X51679148D02*
X51683766Y37083596D01*
X51630657Y37133602D02*
Y37075261D01*
Y37133602D02*
X51614493D01*
X51607566Y37130824*
X51602948Y37125268*
X51600639Y37119711*
X51600639D02*
X51598330Y37111377D01*
Y37097486*
X51600639Y37089152*
X51602948Y37083596*
X51607566Y37078040*
X51607566D02*
X51614493Y37075261D01*
X51630657*
X51563693Y37133602D02*
X51570621Y37130824D01*
X51570621D02*
X51575239Y37122490D01*
X51575239D02*
X51577548Y37108599D01*
Y37100265*
X51577548D02*
X51575239Y37086374D01*
X51570621Y37078040*
X51570621D02*
X51563693Y37075261D01*
X51559075*
X51552148Y37078040*
X51552148D02*
X51547530Y37086374D01*
X51545221Y37100265*
X51545221D02*
Y37108599D01*
X51545221D02*
X51547530Y37122490D01*
X51547530D02*
X51552148Y37130824D01*
X51559075Y37133602*
X51563693*
X51651439Y37250490D02*
X51656057Y37256046D01*
X51662984Y37258824*
X51672221*
X51672221D02*
X51679148Y37256046D01*
X51683766Y37250490*
Y37244933*
X51683766D02*
X51681457Y37239377D01*
X51679148Y37236599*
X51674530Y37233821*
X51660675Y37228265*
X51656057Y37225487*
X51656057D02*
X51653748Y37222708D01*
X51651439Y37217152*
Y37208818*
X51656057Y37203262*
X51656057D02*
X51662984Y37200483D01*
X51672221*
X51672221D02*
X51679148Y37203262D01*
X51679148D02*
X51683766Y37208818D01*
X51630657Y37258824D02*
Y37200483D01*
Y37258824D02*
X51614493D01*
X51607566Y37256046*
X51602948Y37250490*
X51600639Y37244933*
X51600639D02*
X51598330Y37236599D01*
Y37222708*
X51600639Y37214374*
X51602948Y37208818*
X51607566Y37203262*
X51607566D02*
X51614493Y37200483D01*
X51630657*
X51577548Y37247712D02*
X51572930Y37250490D01*
X51566002Y37258824*
Y37200483*
X51683766Y37386078D02*
Y37327737D01*
X51649130Y37386078D02*
X51653748Y37383300D01*
X51658366Y37377744*
X51660675Y37372187*
X51660675D02*
X51662984Y37363853D01*
Y37349962*
X51660675Y37341628*
X51658366Y37336072*
X51653748Y37330516*
X51653748D02*
X51649130Y37327737D01*
X51639893*
X51635275Y37330516*
X51635275D02*
X51630657Y37336072D01*
X51628348Y37341628*
X51626039Y37349962*
Y37363853*
X51628348Y37372187*
X51628348D02*
X51630657Y37377744D01*
X51635275Y37383300*
X51639893Y37386078*
X51649130*
X51605257Y37374966D02*
X51600639Y37377744D01*
X51593711Y37386078*
X51593711D02*
Y37327737D01*
X51542911Y37386078D02*
X51566002D01*
X51568311Y37361075*
X51568311D02*
X51566002Y37363853D01*
X51559075Y37366631*
X51552148*
X51545221Y37363853*
X51545221D02*
X51540602Y37358297D01*
X51538293Y37349962*
X51540602Y37344406*
X51542911Y37336072*
X51542911D02*
X51547530Y37330516D01*
X51547530D02*
X51554457Y37327737D01*
X51561384*
X51568311Y37330516*
X51568311D02*
X51570621Y37333294D01*
X51570621D02*
X51572930Y37338850D01*
X51683766Y37507236D02*
Y37448895D01*
X51649130Y37507236D02*
X51653748Y37504458D01*
X51658366Y37498902*
X51660675Y37493345*
X51660675D02*
X51662984Y37485011D01*
Y37471120*
X51660675Y37462786*
X51658366Y37457230*
X51653748Y37451674*
X51653748D02*
X51649130Y37448895D01*
X51639893*
X51635275Y37451674*
X51635275D02*
X51630657Y37457230D01*
X51628348Y37462786*
X51626039Y37471120*
Y37485011*
X51628348Y37493345*
X51628348D02*
X51630657Y37498902D01*
X51635275Y37504458*
X51639893Y37507236*
X51649130*
X51602948Y37493345D02*
Y37496124D01*
X51602948D02*
X51600639Y37501680D01*
X51598330Y37504458*
X51593711Y37507236*
X51593711D02*
X51584475D01*
X51579857Y37504458*
X51577548Y37501680*
X51575239Y37496124*
X51575239D02*
Y37490567D01*
X51577548Y37485011*
X51582166Y37476677*
X51605257Y37448895*
X51572930*
X51683766Y37638300D02*
Y37579959D01*
X51649130Y37638300D02*
X51653748Y37635522D01*
X51658366Y37629966*
X51660675Y37624409*
X51660675D02*
X51662984Y37616075D01*
Y37602184*
X51660675Y37593850*
X51658366Y37588294*
X51653748Y37582738*
X51653748D02*
X51649130Y37579959D01*
X51639893*
X51635275Y37582738*
X51635275D02*
X51630657Y37588294D01*
X51628348Y37593850*
X51626039Y37602184*
Y37616075*
X51628348Y37624409*
X51628348D02*
X51630657Y37629966D01*
X51635275Y37635522*
X51639893Y37638300*
X51649130*
X51591402D02*
X51598330Y37635522D01*
X51602948Y37627188*
X51602948D02*
X51605257Y37613297D01*
Y37604963*
X51605257D02*
X51602948Y37591072D01*
X51598330Y37582738*
X51598330D02*
X51591402Y37579959D01*
X51586784*
X51579857Y37582738*
X51579857D02*
X51575239Y37591072D01*
X51572930Y37604963*
X51572930D02*
Y37613297D01*
X51575239Y37627188*
X51575239D02*
X51579857Y37635522D01*
X51586784Y37638300*
X51591402*
X51683766Y37765300D02*
Y37706959D01*
X51649130Y37765300D02*
X51653748Y37762522D01*
X51658366Y37756966*
X51660675Y37751409*
X51660675D02*
X51662984Y37743075D01*
Y37729184*
X51660675Y37720850*
X51658366Y37715294*
X51653748Y37709738*
X51653748D02*
X51649130Y37706959D01*
X51639893*
X51635275Y37709738*
X51635275D02*
X51630657Y37715294D01*
X51628348Y37720850*
X51626039Y37729184*
Y37743075*
X51628348Y37751409*
X51628348D02*
X51630657Y37756966D01*
X51635275Y37762522*
X51639893Y37765300*
X51649130*
X51582166D02*
X51605257Y37726406D01*
X51570621*
X51582166Y37765300D02*
Y37706959D01*
X51689585Y38142998D02*
Y38084657D01*
X51654949Y38142998D02*
X51659567Y38140220D01*
X51664185Y38134664*
X51666494Y38129107*
X51666494D02*
X51668803Y38120773D01*
Y38106882*
X51666494Y38098548*
X51664185Y38092992*
X51659567Y38087436*
X51659567D02*
X51654949Y38084657D01*
X51654949D02*
X51645712D01*
X51641094Y38087436*
X51641094D02*
X51636476Y38092992D01*
X51634167Y38098548*
X51631858Y38106882*
Y38120773*
X51634167Y38129107*
X51634167D02*
X51636476Y38134664D01*
X51641094Y38140220*
X51645712Y38142998*
X51654949*
X51581058D02*
X51604149D01*
X51604149D02*
X51606458Y38117995D01*
X51604149Y38120773*
X51604149D02*
X51597221Y38123551D01*
X51590294*
X51583367Y38120773*
X51578749Y38115217*
X51578749D02*
X51576439Y38106882D01*
X51578749Y38101326*
X51578749D02*
X51581058Y38092992D01*
X51585676Y38087436*
X51585676D02*
X51592603Y38084657D01*
X51599530*
X51606458Y38087436*
X51606458D02*
X51608767Y38090214D01*
X51611076Y38095770*
X51683766Y37892300D02*
Y37833959D01*
Y37892300D02*
X51651439Y37833959D01*
Y37892300D02*
Y37833959D01*
X51596021Y37878409D02*
X51598330Y37883966D01*
X51602948Y37889522*
X51607566Y37892300*
X51616802*
X51621421Y37889522*
X51621421D02*
X51626039Y37883966D01*
X51628348Y37878409*
X51628348D02*
X51630657Y37870075D01*
Y37856184*
X51628348Y37847850*
X51626039Y37842294*
X51621421Y37836738*
X51621421D02*
X51616802Y37833959D01*
X51607566*
X51602948Y37836738*
X51602948D02*
X51598330Y37842294D01*
X51596021Y37847850*
X51689585Y38015998D02*
Y37957657D01*
Y38015998D02*
X51657258Y37957657D01*
Y38015998D02*
Y37957657D01*
X51601839Y38002107D02*
X51604149Y38007664D01*
X51604149D02*
X51608767Y38013220D01*
X51613385Y38015998*
X51622621*
X51627239Y38013220*
X51631858Y38007664*
X51634167Y38002107*
X51634167D02*
X51636476Y37993773D01*
Y37979882*
X51634167Y37971548*
X51631858Y37965992*
X51627239Y37960436*
X51627239D02*
X51622621Y37957657D01*
X51613385*
X51608767Y37960436*
X51608767D02*
X51604149Y37965992D01*
X51604149D02*
X51601839Y37971548D01*
X51689100Y38263140D02*
Y38204799D01*
X51654464Y38263140D02*
X51659082Y38260362D01*
X51663700Y38254806*
X51666009Y38249249*
X51666009D02*
X51668318Y38240915D01*
Y38227024*
X51666009Y38218690*
X51663700Y38213134*
X51659082Y38207578*
X51659082D02*
X51654464Y38204799D01*
X51645227*
X51640609Y38207578*
X51640609D02*
X51635991Y38213134D01*
X51633682Y38218690*
X51631373Y38227024*
Y38240915*
X51633682Y38249249*
X51633682D02*
X51635991Y38254806D01*
X51640609Y38260362*
X51645227Y38263140*
X51654464*
X51610591Y38252028D02*
X51605973Y38254806D01*
X51599045Y38263140*
X51599045D02*
Y38204799D01*
X51566718Y38263140D02*
X51573645Y38260362D01*
X51573645D02*
X51575955Y38254806D01*
X51575955D02*
Y38249249D01*
X51575955D02*
X51573645Y38243693D01*
X51573645D02*
X51569027Y38240915D01*
X51559791Y38238137*
X51552864Y38235359*
X51548245Y38229803*
X51548245D02*
X51545936Y38224246D01*
Y38215912*
X51548245Y38210356*
X51548245D02*
X51550555Y38207578D01*
X51550555D02*
X51557482Y38204799D01*
X51566718*
X51573645Y38207578*
X51573645D02*
X51575955Y38210356D01*
X51575955D02*
X51578264Y38215912D01*
Y38224246*
X51575955Y38229803*
X51575955D02*
X51571336Y38235359D01*
X51564409Y38238137*
X51555173Y38240915*
X51550555Y38243693*
X51550555D02*
X51548245Y38249249D01*
X51548245D02*
Y38254806D01*
X51548245D02*
X51550555Y38260362D01*
X51550555D02*
X51557482Y38263140D01*
X51566718*
X51684482Y38898140D02*
Y38839799D01*
X51700645Y38898140D02*
X51668318D01*
X51647536D02*
X51615209Y38839799D01*
Y38898140D02*
X51647536Y38839799D01*
X51594427Y38898140D02*
Y38839799D01*
Y38898140D02*
X51578264D01*
X51571336Y38895362*
X51566718Y38889806*
X51564409Y38884249*
X51564409D02*
X51562100Y38875915D01*
Y38862024*
X51564409Y38853690*
X51566718Y38848134*
X51571336Y38842578*
X51571336D02*
X51578264Y38839799D01*
X51594427*
X51527464Y38898140D02*
X51534391Y38895362D01*
X51539009Y38887028*
X51539009D02*
X51541318Y38873137D01*
Y38864803*
X51541318D02*
X51539009Y38850912D01*
X51534391Y38842578*
X51534391D02*
X51527464Y38839799D01*
X51522845*
X51522845D02*
X51515918Y38842578D01*
X51515918D02*
X51511300Y38850912D01*
X51508991Y38864803*
X51508991D02*
Y38873137D01*
X51511300Y38887028*
X51511300D02*
X51515918Y38895362D01*
X51522845Y38898140*
X51522845D02*
X51527464D01*
X51695565Y38771140D02*
Y38712799D01*
Y38771140D02*
X51674784D01*
X51667856Y38768362*
X51665547Y38765584*
X51663238Y38760028*
X51663238D02*
Y38754471D01*
X51665547Y38748915*
X51667856Y38746137*
X51674784Y38743359*
X51695565*
X51679402D02*
X51663238Y38712799D01*
X51642456Y38771140D02*
X51610129Y38712799D01*
Y38771140D02*
X51642456Y38712799D01*
X51589347Y38771140D02*
Y38712799D01*
Y38771140D02*
X51573184D01*
X51566256Y38768362*
X51561638Y38762806*
X51559329Y38757249*
X51559329D02*
X51557020Y38748915D01*
Y38735024*
X51559329Y38726690*
X51561638Y38721134*
X51566256Y38715578*
X51566256D02*
X51573184Y38712799D01*
X51589347*
X51522384Y38771140D02*
X51529311Y38768362D01*
X51533929Y38760028*
X51533929D02*
X51536238Y38746137D01*
Y38737803*
X51536238D02*
X51533929Y38723912D01*
X51529311Y38715578*
X51529311D02*
X51522384Y38712799D01*
X51517765*
X51517765D02*
X51510838Y38715578D01*
X51510838D02*
X51506220Y38723912D01*
X51503911Y38737803*
X51503911D02*
Y38746137D01*
X51506220Y38760028*
X51506220D02*
X51510838Y38768362D01*
X51517765Y38771140*
X51517765D02*
X51522384D01*
X51686791Y39025140D02*
Y38966799D01*
X51652155Y39025140D02*
X51656773Y39022362D01*
X51661391Y39016806*
X51663700Y39011249*
X51663700D02*
X51666009Y39002915D01*
Y38989024*
X51663700Y38980690*
X51661391Y38975134*
X51656773Y38969578*
X51656773D02*
X51652155Y38966799D01*
X51652155D02*
X51642918D01*
X51638300Y38969578*
X51638300D02*
X51633682Y38975134D01*
X51631373Y38980690*
X51629064Y38989024*
Y39002915*
X51631373Y39011249*
X51631373D02*
X51633682Y39016806D01*
X51638300Y39022362*
X51642918Y39025140*
X51652155*
X51605973Y39011249D02*
Y39014028D01*
X51605973D02*
X51603664Y39019584D01*
X51601355Y39022362*
X51601355D02*
X51596736Y39025140D01*
X51587500*
X51582882Y39022362*
X51580573Y39019584*
X51578264Y39014028*
X51578264D02*
Y39008471D01*
X51580573Y39002915*
X51585191Y38994581*
X51608282Y38966799*
X51575955*
X51552864Y39011249D02*
Y39014028D01*
X51552864D02*
X51550555Y39019584D01*
X51550555D02*
X51548245Y39022362D01*
X51543627Y39025140*
X51534391*
X51529773Y39022362*
X51527464Y39019584*
X51525155Y39014028*
X51525155D02*
Y39008471D01*
X51525155D02*
X51527464Y39002915D01*
X51532082Y38994581*
X51555173Y38966799*
X51522845*
X51696720Y38644140D02*
Y38585799D01*
X51662084Y38644140D02*
X51666702Y38641362D01*
X51671320Y38635806*
X51673629Y38630249*
X51673629D02*
X51675938Y38621915D01*
Y38608024*
X51673629Y38599690*
X51671320Y38594134*
X51666702Y38588578*
X51666702D02*
X51662084Y38585799D01*
X51652847*
X51648229Y38588578*
X51648229D02*
X51643611Y38594134D01*
X51641302Y38599690*
X51638993Y38608024*
Y38621915*
X51641302Y38630249*
X51641302D02*
X51643611Y38635806D01*
X51648229Y38641362*
X51652847Y38644140*
X51662084*
X51615902Y38630249D02*
Y38633028D01*
X51615902D02*
X51613593Y38638584D01*
X51611284Y38641362*
X51606665Y38644140*
X51606665D02*
X51597429D01*
X51592811Y38641362*
X51590502Y38638584*
X51588193Y38633028*
X51588193D02*
Y38627471D01*
X51590502Y38621915*
X51595120Y38613581*
X51618211Y38585799*
X51585884*
X51565102Y38633028D02*
X51560484Y38635806D01*
X51553556Y38644140*
Y38585799*
X51687045Y38518410D02*
Y38460069D01*
Y38518410D02*
X51654718Y38460069D01*
Y38518410D02*
Y38460069D01*
X51599299Y38504519D02*
X51601609Y38510076D01*
X51601609D02*
X51606227Y38515632D01*
X51610845Y38518410*
X51620081*
X51624699Y38515632*
X51629318Y38510076*
X51631627Y38504519*
X51631627D02*
X51633936Y38496185D01*
Y38482294*
X51631627Y38473960*
X51629318Y38468404*
X51624699Y38462848*
X51624699D02*
X51620081Y38460069D01*
X51610845*
X51606227Y38462848*
X51606227D02*
X51601609Y38468404D01*
X51601609D02*
X51599299Y38473960D01*
X51687945Y38390140D02*
Y38331799D01*
X51653309Y38390140D02*
X51657927Y38387362D01*
X51662545Y38381806*
X51662545D02*
X51664855Y38376249D01*
X51664855D02*
X51667164Y38367915D01*
Y38354024*
X51664855Y38345690*
X51664855D02*
X51662545Y38340134D01*
X51662545D02*
X51657927Y38334578D01*
X51657927D02*
X51653309Y38331799D01*
X51644073*
X51639455Y38334578*
X51639455D02*
X51634836Y38340134D01*
X51632527Y38345690*
X51630218Y38354024*
Y38367915*
X51632527Y38376249*
X51632527D02*
X51634836Y38381806D01*
X51639455Y38387362*
X51639455D02*
X51644073Y38390140D01*
X51653309*
X51609436Y38379028D02*
X51604818Y38381806D01*
X51597891Y38390140*
Y38331799*
X51547091Y38370693D02*
X51549400Y38362359D01*
X51554018Y38356803*
X51554018D02*
X51560945Y38354024D01*
X51560945D02*
X51563255D01*
X51563255D02*
X51570182Y38356803D01*
X51570182D02*
X51574800Y38362359D01*
X51577109Y38370693*
Y38373471*
X51574800Y38381806*
X51570182Y38387362*
X51563255Y38390140*
X51563255D02*
X51560945D01*
X51560945D02*
X51554018Y38387362D01*
X51549400Y38381806*
X51547091Y38370693*
Y38356803*
X51547091D02*
X51549400Y38342912D01*
X51554018Y38334578*
X51554018D02*
X51560945Y38331799D01*
X51560945D02*
X51565564D01*
X51572491Y38334578*
X51572491D02*
X51574800Y38340134D01*
X51653309Y39266773D02*
X51655618Y39272330D01*
X51660236Y39277886*
X51664855Y39280664*
X51664855D02*
X51674091D01*
X51678709Y39277886*
X51683327Y39272330*
X51685636Y39266773*
X51685636D02*
X51687945Y39258439D01*
X51687945D02*
Y39244548D01*
X51687945D02*
X51685636Y39236214D01*
X51683327Y39230658*
X51678709Y39225102*
X51678709D02*
X51674091Y39222323D01*
X51664855*
X51664855D02*
X51660236Y39225102D01*
X51660236D02*
X51655618Y39230658D01*
X51653309Y39236214*
Y39244548*
X51664855D02*
X51653309D01*
X51632527Y39280664D02*
Y39222323D01*
Y39280664D02*
X51600200Y39222323D01*
Y39280664D02*
Y39222323D01*
X51579418Y39280664D02*
Y39222323D01*
Y39280664D02*
X51563255D01*
X51563255D02*
X51556327Y39277886D01*
X51551709Y39272330*
X51549400Y39266773*
X51549400D02*
X51547091Y39258439D01*
Y39244548*
X51549400Y39236214*
X51551709Y39230658*
X51556327Y39225102*
X51556327D02*
X51563255Y39222323D01*
X51563255D02*
X51579418D01*
X50540443Y38765782D02*
X50545061Y38771339D01*
X50545061D02*
X50551988Y38774117D01*
X50561225*
X50561225D02*
X50568152Y38771339D01*
X50568152D02*
X50572770Y38765782D01*
Y38760226*
X50570461Y38754670*
X50568152Y38751892*
X50563534Y38749114*
X50563534D02*
X50549679Y38743557D01*
X50545061Y38740779*
X50542752Y38738001*
X50540443Y38732445*
Y38724110*
X50545061Y38718554*
X50551988Y38715776*
X50561225*
X50561225D02*
X50568152Y38718554D01*
X50572770Y38724110*
X50519661Y38774117D02*
Y38715776D01*
Y38774117D02*
X50489643D01*
X50519661Y38746335D02*
X50501188D01*
X50519661Y38715776D02*
X50489643D01*
X50468861Y38774117D02*
Y38715776D01*
Y38774117D02*
X50436534Y38715776D01*
Y38774117D02*
Y38715776D01*
X50383425Y38765782D02*
X50388043Y38771339D01*
X50388043D02*
X50394970Y38774117D01*
X50404206*
X50411134Y38771339*
X50411134D02*
X50415752Y38765782D01*
Y38760226*
X50413443Y38754670*
X50411134Y38751892*
X50406515Y38749114*
X50406515D02*
X50392661Y38743557D01*
X50388043Y38740779*
X50385734Y38738001*
X50383425Y38732445*
X50383425D02*
Y38724110D01*
X50383425D02*
X50388043Y38718554D01*
X50394970Y38715776*
X50404206*
X50411134Y38718554*
X50415752Y38724110*
X50348788Y38774117D02*
X50353406Y38771339D01*
X50353406D02*
X50358025Y38765782D01*
X50358025D02*
X50360334Y38760226D01*
X50362643Y38751892*
Y38738001*
X50360334Y38729667*
X50358025Y38724110*
X50358025D02*
X50353406Y38718554D01*
X50348788Y38715776*
X50339552*
X50334934Y38718554*
X50330315Y38724110*
X50330315D02*
X50328006Y38729667D01*
X50325697Y38738001*
Y38751892*
X50328006Y38760226*
X50330315Y38765782*
X50330315D02*
X50334934Y38771339D01*
X50334934D02*
X50339552Y38774117D01*
X50348788*
X50304915D02*
Y38715776D01*
Y38774117D02*
X50284134D01*
X50277206Y38771339*
X50277206D02*
X50274897Y38768560D01*
X50272588Y38763004*
Y38757448*
X50274897Y38751892*
X50277206Y38749114*
X50277206D02*
X50284134Y38746335D01*
X50304915*
X50288752D02*
X50272588Y38715776D01*
X50251806Y38704663D02*
X50203315D01*
X50189461Y38774117D02*
X50170988Y38715776D01*
X50152515Y38774117D02*
X50170988Y38715776D01*
X50131734Y38774117D02*
Y38715776D01*
Y38774117D02*
X50099406Y38715776D01*
Y38774117D02*
Y38715776D01*
X51686791Y39152140D02*
Y39093799D01*
X51652155Y39152140D02*
X51656773Y39149362D01*
X51661391Y39143806*
X51663700Y39138249*
X51663700D02*
X51666009Y39129915D01*
Y39116024*
X51663700Y39107690*
X51661391Y39102134*
X51656773Y39096578*
X51656773D02*
X51652155Y39093799D01*
X51652155D02*
X51642918D01*
X51638300Y39096578*
X51638300D02*
X51633682Y39102134D01*
X51631373Y39107690*
X51629064Y39116024*
Y39129915*
X51631373Y39138249*
X51631373D02*
X51633682Y39143806D01*
X51638300Y39149362*
X51642918Y39152140*
X51652155*
X51605973Y39138249D02*
Y39141028D01*
X51605973D02*
X51603664Y39146584D01*
X51601355Y39149362*
X51601355D02*
X51596736Y39152140D01*
X51587500*
X51582882Y39149362*
X51580573Y39146584*
X51578264Y39141028*
X51578264D02*
Y39135471D01*
X51580573Y39129915*
X51585191Y39121581*
X51608282Y39093799*
X51575955*
X51550555Y39152140D02*
X51525155D01*
X51525155D02*
X51539009Y39129915D01*
X51532082*
X51527464Y39127137*
X51525155Y39124359*
X51525155D02*
X51522845Y39116024D01*
Y39110468*
X51525155Y39102134*
X51525155D02*
X51529773Y39096578D01*
X51529773D02*
X51536700Y39093799D01*
X51543627*
X51550555Y39096578*
X51550555D02*
X51552864Y39099356D01*
X51555173Y39104912*
X50197266Y37493782D02*
X50199575Y37499338D01*
X50204193Y37504895*
X50204193D02*
X50208811Y37507673D01*
X50218047*
X50218047D02*
X50222666Y37504895D01*
X50222666D02*
X50227284Y37499338D01*
X50229593Y37493782*
X50231902Y37485448*
Y37471557*
X50229593Y37463223*
X50227284Y37457666*
X50222666Y37452110*
X50218047Y37449332*
X50218047D02*
X50208811D01*
X50204193Y37452110*
X50199575Y37457666*
X50197266Y37463223*
Y37471557*
X50208811D02*
X50197266D01*
X50176484Y37507673D02*
Y37449332D01*
Y37507673D02*
X50144157Y37449332D01*
Y37507673D02*
Y37449332D01*
X50123375Y37507673D02*
Y37449332D01*
Y37507673D02*
X50107211D01*
X50100284Y37504895*
X50100284D02*
X50095666Y37499338D01*
X50093357Y37493782*
X50093357D02*
X50091047Y37485448D01*
X50091047D02*
Y37471557D01*
X50091047D02*
X50093357Y37463223D01*
X50093357D02*
X50095666Y37457666D01*
X50100284Y37452110*
X50107211Y37449332*
X50123375*
X51287780Y39056057D02*
Y38997716D01*
Y39056057D02*
X51257762D01*
X51287780Y39028275D02*
X51269307D01*
X51287780Y38997716D02*
X51257762D01*
X51204653Y39047722D02*
X51209271Y39053279D01*
X51209271D02*
X51216198Y39056057D01*
X51225435*
X51225435D02*
X51232362Y39053279D01*
X51232362D02*
X51236980Y39047722D01*
Y39042166*
X51234671Y39036610*
X51232362Y39033832*
X51227744Y39031054*
X51227744D02*
X51213889Y39025497D01*
X51209271Y39022719*
X51206962Y39019941*
X51204653Y39014385*
Y39006050*
X51209271Y39000494*
X51216198Y38997716*
X51225435*
X51225435D02*
X51232362Y39000494D01*
X51236980Y39006050*
X51183871Y39056057D02*
Y38997716D01*
Y39056057D02*
X51163089D01*
X51156162Y39053279*
X51156162D02*
X51153853Y39050500D01*
X51151544Y39044944*
Y39036610*
X51153853Y39031054*
X51153853D02*
X51156162Y39028275D01*
X51163089Y39025497*
X51183871*
X51126144Y39056057D02*
X51100744D01*
X51114598Y39033832*
X51107671*
X51103053Y39031054*
X51103053D02*
X51100744Y39028275D01*
X51098435Y39019941*
X51098435D02*
Y39014385D01*
X51098435D02*
X51100744Y39006050D01*
X51105362Y39000494*
X51112289Y38997716*
X51119216*
X51126144Y39000494*
X51128453Y39003272*
X51130762Y39008829*
X51075344Y39042166D02*
Y39044944D01*
X51073035Y39050500*
X51073035D02*
X51070725Y39053279D01*
X51070725D02*
X51066107Y39056057D01*
X51056871*
X51052253Y39053279*
X51052253D02*
X51049944Y39050500D01*
X51047635Y39044944*
X51047635D02*
Y39039388D01*
X51047635D02*
X51049944Y39033832D01*
X51054562Y39025497*
X51077653Y38997716*
X51045325*
X51024544Y39022719D02*
X50982980D01*
X50962198Y39056057D02*
X50950653Y38997716D01*
X50939107Y39056057D02*
X50950653Y38997716D01*
X50939107Y39056057D02*
X50927562Y38997716D01*
X50916016Y39056057D02*
X50927562Y38997716D01*
X50895235Y39056057D02*
Y38997716D01*
Y39056057D02*
X50874453D01*
X50867525Y39053279*
X50867525D02*
X50865216Y39050500D01*
X50862907Y39044944*
Y39039388*
X50865216Y39033832*
X50867525Y39031054*
X50867525D02*
X50874453Y39028275D01*
X50895235*
X50879071D02*
X50862907Y38997716D01*
X50828271Y39056057D02*
X50832889Y39053279D01*
X50832889D02*
X50837507Y39047722D01*
X50839816Y39042166*
X50842125Y39033832*
X50842125D02*
Y39019941D01*
X50842125D02*
X50839816Y39011607D01*
X50837507Y39006050*
X50832889Y39000494*
X50828271Y38997716*
X50819035*
X50819035D02*
X50814416Y39000494D01*
X50809798Y39006050*
X50807489Y39011607*
X50805180Y39019941*
Y39033832*
X50807489Y39042166*
X50809798Y39047722*
X50814416Y39053279*
X50814416D02*
X50819035Y39056057D01*
X50819035D02*
X50828271D01*
X50784398D02*
X50765925Y38997716D01*
X50747453Y39056057D02*
X50765925Y38997716D01*
X50726671Y39056057D02*
Y38997716D01*
Y39056057D02*
X50696653D01*
X50726671Y39028275D02*
X50708198D01*
X50726671Y38997716D02*
X50696653D01*
X50675871Y39056057D02*
Y38997716D01*
Y39056057D02*
X50655089D01*
X50648162Y39053279*
X50648162D02*
X50645853Y39050500D01*
X50643544Y39044944*
Y39039388*
X50645853Y39033832*
X50648162Y39031054*
X50648162D02*
X50655089Y39028275D01*
X50675871*
X50659707D02*
X50643544Y38997716D01*
X50622762Y39022719D02*
X50581198D01*
X50560416Y39056057D02*
X50541944Y38997716D01*
X50523471Y39056057D02*
X50541944Y38997716D01*
X50479598Y39056057D02*
X50502689Y39017163D01*
X50468053*
X50479598Y39056057D02*
Y38997716D01*
X50000000Y40276098D02*
X50639071D01*
X50000000D02*
X50127000Y40301498D01*
Y40250698*
X50000000Y40276098*
X51799996D02*
X51160925D01*
X51799996D02*
X51672996Y40250698D01*
Y40301498*
X51799996Y40276098*
X50000000Y40050800D02*
Y40326898D01*
X51799996Y40050800D02*
Y40326898D01*
X52180336Y36857766D02*
Y38305058D01*
Y36857766D02*
X52154936Y36984766D01*
X52205736*
X52180336Y36857766*
Y40000000D02*
Y38552708D01*
Y40000000D02*
X52205736Y39873000D01*
X52154936*
X52180336Y40000000*
X51859788Y36857766D02*
X52231136D01*
X51850796Y40000000D02*
X52231136D01*
X0Y0D02*
M02*
