*
*
G04 PADS 9.5 Build Number: 522968 generated Gerber (RS-274-X) file*
G04 PC Version=2.1*
*
%IN "ESP32-WROVER-V4.pcb"*%
*
%MOMM*%
*
%FSLAX35Y35*%
*
*
*
*
G04 PC Standard Apertures*
*
*
G04 Thermal Relief Aperture macro.*
%AMTER*
1,1,$1,0,0*
1,0,$1-$2,0,0*
21,0,$3,$4,0,0,45*
21,0,$3,$4,0,0,135*
%
*
*
G04 Annular Aperture macro.*
%AMANN*
1,1,$1,0,0*
1,0,$2,0,0*
%
*
*
G04 Odd Aperture macro.*
%AMODD*
1,1,$1,0,0*
1,0,$1-0.005,0,0*
%
*
*
G04 PC Custom Aperture Macros*
*
*
*
*
*
*
G04 PC Aperture Table*
*
%ADD010C,0.0254*%
%ADD044C,0.254*%
%ADD045C,0.508*%
%ADD046C,0.381*%
%ADD047C,0.3048*%
%ADD048C,0.1524*%
%ADD051C,0.635*%
%ADD109C,0.127*%
%ADD117R,4X4*%
%ADD120C,0.4*%
%ADD121R,1.7X0.9*%
%ADD164C,0.889*%
%ADD182C,0.762*%
*
*
*
*
G04 PC Circuitry*
G04 Layer Name ESP32-WROVER-V4.pcb - circuitry*
%LPD*%
*
G54D10*
G01X52397708Y38421989D02*
X52396616Y38429633D01*
X52393472Y38435922*
X52388339Y38439001*
X52380871Y38440068*
X52375444Y38438983*
X52371187Y38437918*
X52371187D02*
X52367055Y38434820D01*
X52363781Y38429364*
X52363781D02*
X52361556Y38429449D01*
X52359381Y38433800*
X52356309Y38436872*
X52350990Y38439000*
X52345714Y38440055*
X52341539Y38439011*
X52336192Y38436872*
X52329572Y38430253*
X52329572D02*
X52327404Y38431151D01*
X52327404D02*
Y38438952D01*
X52327404D02*
X52319739D01*
Y38382528*
X52327404*
X52327404D02*
Y38418678D01*
X52327404D02*
X52327442Y38418986D01*
X52328576Y38423521*
X52328833Y38424026*
X52334502Y38430830*
X52335129Y38431238*
X52343067Y38433506*
X52343724Y38433517*
X52343724D02*
X52348259Y38432383D01*
X52348656Y38432208*
X52352058Y38429940*
X52352058D02*
X52352489Y38429451D01*
X52354757Y38424915*
X52354891Y38424347*
Y38382528*
X52362556*
Y38415276*
X52362569Y38415455*
X52362569D02*
X52363703Y38423393D01*
X52363944Y38423975*
X52367346Y38428511*
X52367600Y38428765*
X52372136Y38432167*
X52372649Y38432396*
X52378318Y38433530*
X52378816*
X52384486Y38432396*
X52385253Y38431913*
X52388655Y38427377*
X52388844Y38427017*
X52388844D02*
X52389977Y38423615D01*
X52389977D02*
X52390043Y38423213D01*
Y38382528*
X52397708*
Y38421989*
X52302458D02*
X52301366Y38429633D01*
X52298222Y38435922*
X52293089Y38439001*
X52285621Y38440068*
X52280194Y38438983*
X52275937Y38437918*
X52275937D02*
X52271805Y38434820D01*
X52268531Y38429364*
X52268531D02*
X52266306Y38429449D01*
X52264131Y38433800*
X52261059Y38436872*
X52255740Y38439000*
X52250464Y38440055*
X52246289Y38439011*
X52240942Y38436872*
X52234322Y38430253*
X52234322D02*
X52232154Y38431151D01*
X52232154D02*
Y38438952D01*
X52232154D02*
X52224489D01*
Y38382528*
X52232154*
X52232154D02*
Y38418678D01*
X52232154D02*
X52232192Y38418986D01*
X52233326Y38423521*
X52233583Y38424026*
X52239252Y38430830*
X52239879Y38431238*
X52247817Y38433506*
X52248474Y38433517*
X52248474D02*
X52253009Y38432383D01*
X52253406Y38432208*
X52256808Y38429940*
X52256808D02*
X52257239Y38429451D01*
X52259507Y38424915*
X52259641Y38424347*
Y38382528*
X52267306*
Y38415276*
X52267319Y38415455*
X52267319D02*
X52268453Y38423393D01*
X52268694Y38423975*
X52272096Y38428511*
X52272350Y38428765*
X52276886Y38432167*
X52277399Y38432396*
X52283068Y38433530*
X52283566*
X52289236Y38432396*
X52290003Y38431913*
X52293405Y38427377*
X52293594Y38427017*
X52293594D02*
X52294727Y38423615D01*
X52294727D02*
X52294793Y38423213D01*
Y38382528*
X52302458*
Y38421989*
X52209476Y38409470D02*
X52200541D01*
X52200541D02*
X52199271Y38410740D01*
X52199271D02*
Y38460497D01*
X52199271D02*
X52193235D01*
X52155319Y38410314*
X52155319D02*
Y38401805D01*
X52155319D02*
X52190335D01*
X52191605Y38400535*
Y38382528*
X52199271*
X52199271D02*
Y38400535D01*
X52199271D02*
X52200541Y38401805D01*
X52200541D02*
X52209476D01*
Y38409470*
X52191605Y38442490D02*
Y38410740D01*
X52190335Y38409470*
X52166523*
X52165507Y38411502*
X52189319Y38443252*
X52191605Y38442490*
X52140306Y38390193D02*
X52132641D01*
Y38382528*
X52140306*
Y38390193*
X52099485Y38461631D02*
X52094670D01*
X52091638Y38456578*
X52091638D02*
X52091447Y38456333D01*
X52091447D02*
X52085778Y38450664D01*
X52085584Y38450505*
X52078781Y38445969*
X52078706Y38445923*
X52071409Y38441753*
Y38434340*
X52080808Y38439039*
X52089787Y38445774*
X52089787D02*
X52091819Y38444758D01*
X52091819D02*
Y38382528D01*
X52091819D02*
X52099485D01*
Y38461631*
X52050703Y38405137D02*
X52049641Y38412575D01*
X52046452Y38417890*
X52042238Y38422103*
X52042238D02*
X52035719Y38424276D01*
X52035359Y38426497*
X52044070Y38433030*
X52046159Y38441387*
X52044042Y38451971*
X52035493Y38458382*
X52030088Y38460544*
X52030088D02*
X52024735Y38461615D01*
X52016165Y38460544*
X52009822Y38456315*
X52005509Y38449845*
X52002731Y38442438*
X52010354Y38441591*
X52012263Y38446364*
X52012306Y38446460*
X52014574Y38450996*
X52015142Y38451564*
X52019678Y38453831*
X52019678D02*
X52019938Y38453928D01*
X52024474Y38455061*
X52024474D02*
X52025031Y38455075D01*
X52030700Y38453941*
X52031156Y38453752*
X52034558Y38451484*
X52034558D02*
X52034989Y38450996D01*
X52037257Y38446460*
X52037353Y38446200*
X52038487Y38441664*
X52038500Y38441107*
X52037366Y38435438*
X52037366D02*
X52037019Y38434789D01*
X52033617Y38431387*
X52033481Y38431269*
X52028945Y38427867*
X52028183Y38427613*
X52021367*
X52020583Y38421344*
X52025707Y38422198*
X52026124*
X52032928Y38421064*
X52033481Y38420828*
X52038017Y38417426*
X52038271Y38417172*
X52041673Y38412636*
X52041909Y38412083*
X52043043Y38405279*
X52043061Y38405071*
X52043061D02*
X52043036Y38404821D01*
X52043036D02*
X52041902Y38399152D01*
X52041746Y38398747*
X52041746D02*
X52038344Y38393078D01*
X52038017Y38392715*
X52033481Y38389313*
X52032928Y38389077*
X52026124Y38387943*
X52025666Y38387950*
X52025666D02*
X52019997Y38389084D01*
X52019678Y38389193*
X52019678D02*
X52015142Y38391461D01*
X52014694Y38391835*
X52011292Y38396371*
X52011104Y38396731*
X52009160Y38402561*
X52001420Y38401701*
X52003277Y38394273*
X52008644Y38386758*
X52008644D02*
X52016120Y38382487D01*
X52024735Y38381410*
X52035670Y38383597*
X52043151Y38387872*
X52048545Y38396502*
X52050703Y38405137*
X51118813Y40269204D02*
X51117721Y40276848D01*
X51114577Y40283137*
X51109444Y40286216*
X51109444D02*
X51101976Y40287283D01*
X51096549Y40286198*
X51092292Y40285133*
X51092292D02*
X51088160Y40282035D01*
X51084887Y40276579*
X51084887D02*
X51082662Y40276664D01*
X51080486Y40281015*
X51077414Y40284087*
X51072095Y40286215*
X51066820Y40287270*
X51066820D02*
X51062644Y40286226D01*
X51057297Y40284087*
X51050678Y40277468*
X51048510Y40278366*
Y40286167*
X51040844*
Y40229743*
X51048510*
Y40265893*
X51048548Y40266201*
X51049682Y40270736*
X51049682D02*
X51049938Y40271241D01*
X51055608Y40278045*
X51056234Y40278453*
X51064172Y40280721*
X51064829Y40280732*
X51069364Y40279598*
X51069364D02*
X51069761Y40279423D01*
X51073163Y40277155*
X51073594Y40276666*
X51075862Y40272130*
X51075996Y40271562*
Y40229743*
X51083661*
X51083661D02*
Y40262491D01*
X51083661D02*
X51083674Y40262670D01*
X51083674D02*
X51084808Y40270608D01*
X51085049Y40271190*
X51088451Y40275726*
X51088705Y40275980*
X51093241Y40279382*
X51093754Y40279611*
X51099423Y40280745*
X51099423D02*
X51099922D01*
X51105591Y40279611*
X51106358Y40279128*
X51109760Y40274592*
X51109949Y40274232*
X51111083Y40270830*
X51111148Y40270428*
Y40229743*
X51118813*
Y40269204*
X51023563D02*
X51022471Y40276848D01*
X51019327Y40283137*
X51014194Y40286216*
X51014194D02*
X51006726Y40287283D01*
X51001299Y40286198*
X50997042Y40285133*
X50997042D02*
X50992910Y40282035D01*
X50989637Y40276579*
X50989637D02*
X50987412Y40276664D01*
X50985236Y40281015*
X50982164Y40284087*
X50976845Y40286215*
X50971570Y40287270*
X50971570D02*
X50967394Y40286226D01*
X50962047Y40284087*
X50955428Y40277468*
X50953260Y40278366*
Y40286167*
X50945594*
Y40229743*
X50953260*
Y40265893*
X50953298Y40266201*
X50954432Y40270736*
X50954432D02*
X50954688Y40271241D01*
X50960358Y40278045*
X50960984Y40278453*
X50968922Y40280721*
X50969579Y40280732*
X50974114Y40279598*
X50974114D02*
X50974511Y40279423D01*
X50977913Y40277155*
X50978344Y40276666*
X50980612Y40272130*
X50980746Y40271562*
Y40229743*
X50988411*
X50988411D02*
Y40262491D01*
X50988411D02*
X50988424Y40262670D01*
X50988424D02*
X50989558Y40270608D01*
X50989799Y40271190*
X50993201Y40275726*
X50993455Y40275980*
X50997991Y40279382*
X50998504Y40279611*
X51004173Y40280745*
X51004173D02*
X51004672D01*
X51010341Y40279611*
X51011108Y40279128*
X51014510Y40274592*
X51014699Y40274232*
X51015833Y40270830*
X51015898Y40270428*
Y40229743*
X51023563*
Y40269204*
X50930581Y40279322D02*
X50928374Y40287045D01*
X50928374D02*
X50923918Y40299299D01*
X50923918D02*
X50920739Y40303539D01*
X50916578Y40306659*
X50916578D02*
X50905735Y40308828D01*
X50898217Y40307754*
X50891847Y40304569*
X50887593Y40299252*
X50884306Y40291582*
X50884306D02*
X50882083Y40281576D01*
X50882083D02*
X50880960Y40268108D01*
Y40258111*
X50883185Y40249213*
X50883185D02*
X50885401Y40241456D01*
X50888581Y40236157*
X50896093Y40230791*
X50905820Y40228629*
X50913325Y40229701*
X50919694Y40232886*
X50923948Y40238203*
X50927235Y40245873*
X50929460Y40255883*
X50930581Y40268218*
Y40279322*
X50922916Y40277232D02*
Y40259089D01*
X50922898Y40258880*
X50922898D02*
X50921765Y40252077D01*
X50921765D02*
X50921757Y40252036D01*
X50921757D02*
X50920623Y40246367D01*
X50920514Y40246048*
X50918246Y40241512*
X50917903Y40241088*
X50917903D02*
X50912234Y40236553D01*
X50911689Y40236299*
X50911689D02*
X50906020Y40235165D01*
X50905522*
X50899852Y40236299*
X50899308Y40236553*
X50893638Y40241088*
X50893638D02*
X50893296Y40241512D01*
X50893296D02*
X50891028Y40246048D01*
X50890918Y40246367*
X50889784Y40252036*
X50889784D02*
X50889777Y40252077D01*
X50888643Y40258880*
X50888626Y40259089*
Y40277232*
X50888638Y40277412*
X50888638D02*
X50889772Y40285349D01*
X50889784Y40285418*
X50889784D02*
X50890918Y40291088D01*
X50891028Y40291407*
X50893296Y40295943*
X50893296D02*
X50893638Y40296366D01*
X50893638D02*
X50899308Y40300902D01*
X50899852Y40301156*
X50905522Y40302290*
X50905980Y40302297*
X50905980D02*
X50912783Y40301163D01*
X50913566Y40300704*
X50918102Y40295034*
X50918167Y40294945*
X50920435Y40291544*
X50920435D02*
X50920623Y40291088D01*
X50921757Y40285418*
X50921757D02*
X50921769Y40285349D01*
X50922903Y40277412*
X50922903D02*
X50922916Y40277232D01*
X50861411Y40237408D02*
X50853746D01*
Y40229743*
X50861411*
X50861411D02*
Y40237408D01*
X50835308Y40252320D02*
X50834237Y40258745D01*
X50832117Y40264045*
X50827911Y40268251*
X50821292Y40271560*
X50821207Y40273785*
X50826742Y40277107*
X50829888Y40280252*
X50832001Y40284479*
X50833044Y40288649*
X50831985Y40297116*
X50826672Y40303492*
X50820279Y40307754*
X50810521Y40308838*
X50800763Y40307754*
X50794370Y40303492*
X50789048Y40297106*
X50789048D02*
X50787996Y40289741D01*
X50789054Y40284451*
X50791154Y40280252*
X50794299Y40277107*
X50799835Y40273785*
X50799583Y40271491*
X50793064Y40269318*
X50788952Y40265207*
X50786811Y40258782*
X50785734Y40252320*
X50787906Y40242543*
X50792188Y40235050*
X50800743Y40229703*
X50810521Y40228617*
X50820298Y40229703*
X50828853Y40235050*
X50833135Y40242543*
X50833135D02*
X50835308Y40252320D01*
X50825360Y40288263D02*
X50824226Y40283728D01*
X50824226D02*
X50824051Y40283331D01*
X50821783Y40279929*
X50821294Y40279498*
X50816758Y40277230*
X50816439Y40277121*
X50816439D02*
X50810770Y40275987D01*
X50810272*
X50804602Y40277121*
X50804602D02*
X50804283Y40277230D01*
X50799747Y40279498*
X50799259Y40279929*
X50796991Y40283331*
X50796802Y40283786*
X50796802D02*
X50795668Y40289456D01*
X50795682Y40290013*
X50795682D02*
X50796815Y40294549D01*
X50796815D02*
X50796991Y40294945D01*
X50799259Y40298347*
X50799747Y40298779*
X50804283Y40301046*
X50804283D02*
X50804602Y40301156D01*
X50810272Y40302290*
X50810770*
X50816439Y40301156*
X50816439D02*
X50816758Y40301046D01*
X50816758D02*
X50821294Y40298779D01*
X50821862Y40298211*
X50824130Y40293675*
X50824226Y40293415*
X50825360Y40288879*
Y40288263*
X50827666Y40252286D02*
X50827648Y40252077D01*
X50827648D02*
X50826515Y40245273D01*
X50826515D02*
X50826278Y40244720D01*
X50822876Y40240184*
X50822622Y40239930*
X50818086Y40236528*
X50817533Y40236292*
X50810730Y40235158*
X50810730D02*
X50810521Y40235141D01*
X50810521D02*
X50805985D01*
X50805985D02*
X50805281Y40235354D01*
X50805281D02*
X50801944Y40237578D01*
X50797480Y40239810*
X50796991Y40240242*
X50794723Y40243644*
X50794723D02*
X50794522Y40244168D01*
X50793388Y40252106*
X50793388D02*
X50793376Y40252286D01*
X50793376D02*
X50793400Y40252535D01*
X50794534Y40258204*
X50794691Y40258609*
X50794691D02*
X50798092Y40264278D01*
X50798092D02*
X50798419Y40264641D01*
X50798419D02*
X50802955Y40268043D01*
X50803508Y40268279*
X50810312Y40269413*
X50810730*
X50810730D02*
X50817533Y40268279D01*
X50818086Y40268043*
X50822622Y40264641*
X50822949Y40264278*
X50826351Y40258609*
X50826351D02*
X50826507Y40258204D01*
X50827641Y40252535*
X50827666Y40252286*
X50757090Y40308846D02*
X50752276D01*
X50752276D02*
X50749244Y40303793D01*
X50749053Y40303548*
X50743383Y40297879*
X50743189Y40297720*
X50743189D02*
X50736386Y40293184D01*
X50736312Y40293138*
X50736312D02*
X50729014Y40288968D01*
Y40281555*
X50738413Y40286254*
X50747393Y40292989*
X50749425Y40291973*
Y40229743*
X50757090*
Y40308846*
X50731420Y40282758D02*
Y40290343D01*
X50733960Y40284028D02*
Y40291794D01*
X50736500Y40285298D02*
Y40293260D01*
X50739040Y40286724D02*
Y40294954D01*
X50741580Y40288629D02*
Y40296647D01*
X50744120Y40290534D02*
Y40298616D01*
X50746660Y40292439D02*
Y40301156D01*
X50749200Y40292694D02*
Y40303725D01*
X50751740Y40229743D02*
Y40307953D01*
X50754280Y40229743D02*
Y40308846D01*
X50756820Y40229743D02*
Y40308846D01*
X50787300Y40245272D02*
Y40260250D01*
X50789840Y40239159D02*
Y40266095D01*
Y40282880D02*
Y40298056D01*
X50792380Y40234930D02*
Y40268634D01*
Y40279026D02*
Y40301104D01*
X50794920Y40233343D02*
Y40243348D01*
Y40258991D02*
Y40269937D01*
Y40276734D02*
Y40303859D01*
X50797460Y40231755D02*
Y40239820D01*
Y40263224D02*
Y40270784D01*
Y40275210D02*
Y40282627D01*
Y40295649D02*
Y40305552D01*
X50800000Y40230168D02*
Y40238550D01*
Y40265826D02*
Y40271725D01*
Y40273667D02*
Y40279371D01*
Y40298905D02*
Y40307245D01*
X50802540Y40229504D02*
Y40237181D01*
Y40267731D02*
Y40278101D01*
Y40300175D02*
Y40307951D01*
X50805080Y40229221D02*
Y40235487D01*
Y40268541D02*
Y40277025D01*
Y40301251D02*
Y40308234D01*
X50807620Y40228939D02*
Y40235141D01*
Y40268965D02*
Y40276517D01*
Y40301759D02*
Y40308516D01*
X50810160Y40228657D02*
Y40235141D01*
Y40269388D02*
Y40276009D01*
Y40302267D02*
Y40308798D01*
X50812700Y40228859D02*
Y40235486D01*
Y40269085D02*
Y40276373D01*
Y40301904D02*
Y40308596D01*
X50815240Y40229141D02*
Y40235910D01*
Y40268662D02*
Y40276881D01*
Y40301396D02*
Y40308314D01*
X50817780Y40229423D02*
Y40236359D01*
Y40268212D02*
Y40277741D01*
Y40300536D02*
Y40308031D01*
X50820320Y40229717D02*
Y40238204D01*
Y40266367D02*
Y40279011D01*
Y40299266D02*
Y40307726D01*
X50822860Y40231304D02*
Y40240163D01*
Y40264407D02*
Y40270776D01*
Y40274777D02*
Y40281545D01*
Y40296215D02*
Y40306033D01*
X50825400Y40232892D02*
Y40243550D01*
Y40260193D02*
Y40269506D01*
Y40276301D02*
Y40304340D01*
X50827940Y40234479D02*
Y40268222D01*
Y40278304D02*
Y40301970D01*
X50830480Y40237897D02*
Y40265682D01*
Y40281437D02*
Y40298922D01*
X50833020Y40242342D02*
Y40261787D01*
Y40288554D02*
Y40288838D01*
X50855880Y40229743D02*
Y40237408D01*
X50858420Y40229743D02*
Y40237408D01*
X50860960Y40229743D02*
Y40237408D01*
X50881280Y40256833D02*
Y40271943D01*
X50883820Y40246990D02*
Y40289394D01*
X50886360Y40239858D02*
Y40296374D01*
X50888900Y40235929D02*
Y40257338D01*
Y40279242D02*
Y40300885D01*
X50891440Y40234114D02*
Y40245223D01*
Y40292232D02*
Y40304060D01*
X50893980Y40232300D02*
Y40240815D01*
Y40296640D02*
Y40305635D01*
X50896520Y40230696D02*
Y40238783D01*
Y40298672D02*
Y40306905D01*
X50899060Y40230131D02*
Y40236751D01*
Y40300704D02*
Y40307874D01*
X50901600Y40229567D02*
Y40235949D01*
Y40301505D02*
Y40308237D01*
X50904140Y40229002D02*
Y40235442D01*
Y40302013D02*
Y40308600D01*
X50906680Y40228752D02*
Y40235297D01*
Y40302180D02*
Y40308639D01*
X50909220Y40229115D02*
Y40235805D01*
Y40301757D02*
Y40308131D01*
X50911760Y40229478D02*
Y40236315D01*
Y40301334D02*
Y40307623D01*
X50914300Y40230189D02*
Y40238206D01*
Y40299786D02*
Y40307115D01*
X50916840Y40231459D02*
Y40240238D01*
Y40296611D02*
Y40306463D01*
X50919380Y40232729D02*
Y40243780D01*
Y40293125D02*
Y40304558D01*
X50921920Y40235668D02*
Y40253010D01*
Y40284292D02*
Y40301964D01*
X50924460Y40239398D02*
Y40297810D01*
X50927000Y40245324D02*
Y40290825D01*
X50929540Y40256767D02*
Y40282966D01*
X50947320Y40229743D02*
Y40286167D01*
X50949860Y40229743D02*
Y40286167D01*
X50952400Y40229743D02*
Y40286167D01*
X50954940Y40271544D02*
Y40277164D01*
X50957480Y40274592D02*
Y40279520D01*
X50960020Y40277640D02*
Y40282060D01*
X50962560Y40278903D02*
Y40284292D01*
X50965100Y40279629D02*
Y40285308D01*
X50967640Y40280355D02*
Y40286287D01*
X50970180Y40280582D02*
Y40286922D01*
X50972720Y40279947D02*
Y40287040D01*
X50975260Y40278923D02*
Y40286532D01*
X50977800Y40277230D02*
Y40285833D01*
X50980340Y40272674D02*
Y40284817D01*
X50982880Y40229743D02*
Y40283371D01*
X50985420Y40229743D02*
Y40280647D01*
X50987960Y40229743D02*
Y40276106D01*
X50990500Y40272124D02*
Y40278018D01*
X50993040Y40275511D02*
Y40282132D01*
X50995580Y40277574D02*
Y40284037D01*
X50998120Y40279467D02*
Y40285403D01*
X51000660Y40280042D02*
Y40286038D01*
X51003200Y40280550D02*
Y40286578D01*
X51005740Y40280531D02*
Y40287086D01*
X51008280Y40280023D02*
Y40287061D01*
X51010820Y40279406D02*
Y40286698D01*
X51013360Y40276125D02*
Y40286335D01*
X51015900Y40229743D02*
Y40285193D01*
X51018440Y40229743D02*
Y40283669D01*
X51020980Y40229743D02*
Y40279831D01*
X51023520Y40229743D02*
Y40269507D01*
X51041300Y40229743D02*
Y40286167D01*
X51043840Y40229743D02*
Y40286167D01*
X51046380Y40229743D02*
Y40286167D01*
X51048920Y40267690D02*
Y40277431D01*
X51051460Y40273068D02*
Y40278250D01*
X51054000Y40276116D02*
Y40280790D01*
X51056540Y40278540D02*
Y40283330D01*
X51059080Y40279266D02*
Y40284800D01*
X51061620Y40279992D02*
Y40285816D01*
X51064160Y40280718D02*
Y40286605D01*
X51066700Y40280264D02*
Y40287240D01*
X51069240Y40279629D02*
Y40286786D01*
X51071780Y40278077D02*
Y40286278D01*
X51074320Y40275214D02*
Y40285325D01*
X51076860Y40229743D02*
Y40284309D01*
X51079400Y40229743D02*
Y40282101D01*
X51081940Y40229743D02*
Y40278107D01*
X51084480Y40268311D02*
Y40276161D01*
X51087020Y40273818D02*
Y40280134D01*
X51089560Y40276621D02*
Y40283085D01*
X51092100Y40278526D02*
Y40284990D01*
X51094640Y40279788D02*
Y40285721D01*
X51097180Y40280296D02*
Y40286324D01*
X51099720Y40280769D02*
Y40286832D01*
X51102260Y40280277D02*
Y40287243D01*
X51104800Y40279769D02*
Y40286880D01*
X51107340Y40277819D02*
Y40286517D01*
X51109880Y40274398D02*
Y40285955D01*
X51112420Y40229743D02*
Y40284431D01*
X51114960Y40229743D02*
Y40282371D01*
X51117500Y40229743D02*
Y40277291D01*
X52001420Y38401700D02*
Y38401701D01*
X52003960Y38393317D02*
Y38401983D01*
Y38442302D02*
Y38445715D01*
X52006500Y38389761D02*
Y38402265D01*
Y38442019D02*
Y38451332D01*
X52009040Y38386532D02*
Y38402548D01*
Y38441737D02*
Y38455142D01*
X52011580Y38385081D02*
Y38395988D01*
Y38444656D02*
Y38457487D01*
X52014120Y38383629D02*
Y38392601D01*
Y38450087D02*
Y38459180D01*
X52016660Y38382419D02*
Y38390702D01*
Y38452323D02*
Y38460606D01*
X52019200Y38382102D02*
Y38389432D01*
Y38453593D02*
Y38460923D01*
X52021740Y38381784D02*
Y38388735D01*
Y38421537D02*
Y38427613D01*
Y38454378D02*
Y38461241D01*
X52024280Y38381467D02*
Y38388227D01*
Y38421960D02*
Y38427613D01*
Y38455013D02*
Y38461558D01*
X52026820Y38381827D02*
Y38388059D01*
Y38422082D02*
Y38427613D01*
Y38454717D02*
Y38461198D01*
X52029360Y38382335D02*
Y38388482D01*
Y38421659D02*
Y38428178D01*
Y38454209D02*
Y38460690D01*
X52031900Y38382843D02*
Y38388905D01*
Y38421236D02*
Y38430083D01*
Y38453256D02*
Y38459820D01*
X52034440Y38383351D02*
Y38390033D01*
Y38420108D02*
Y38432210D01*
Y38451563D02*
Y38458804D01*
X52036980Y38384346D02*
Y38391938D01*
Y38418203D02*
Y38423856D01*
Y38427713D02*
Y38434750D01*
Y38447013D02*
Y38457267D01*
X52039520Y38385797D02*
Y38395038D01*
Y38415506D02*
Y38423009D01*
Y38429618D02*
Y38455362D01*
X52042060Y38387248D02*
Y38399942D01*
Y38411179D02*
Y38422163D01*
Y38431523D02*
Y38453457D01*
X52044600Y38390190D02*
Y38419742D01*
Y38435152D02*
Y38449181D01*
X52047140Y38394254D02*
Y38416743D01*
X52049680Y38401043D02*
Y38412301D01*
X52072540Y38434905D02*
Y38442400D01*
X52075080Y38436175D02*
Y38443851D01*
X52077620Y38437445D02*
Y38445302D01*
X52080160Y38438715D02*
Y38446889D01*
X52082700Y38440458D02*
Y38448582D01*
X52085240Y38442363D02*
Y38450275D01*
X52087780Y38444268D02*
Y38452666D01*
X52090320Y38446007D02*
Y38455206D01*
X52092860Y38382528D02*
Y38458614D01*
X52095400Y38382528D02*
Y38461631D01*
X52097940Y38382528D02*
Y38461631D01*
X52133500Y38382528D02*
Y38390193D01*
X52136040Y38382528D02*
Y38390193D01*
X52138580Y38382528D02*
Y38390193D01*
X52156360Y38401805D02*
Y38411692D01*
X52158900Y38401805D02*
Y38415053D01*
X52161440Y38401805D02*
Y38418415D01*
X52163980Y38401805D02*
Y38421777D01*
X52166520Y38401805D02*
Y38409470D01*
Y38412853D02*
Y38425139D01*
X52169060Y38401805D02*
Y38409470D01*
Y38416240D02*
Y38428500D01*
X52171600Y38401805D02*
Y38409470D01*
Y38419627D02*
Y38431862D01*
X52174140Y38401805D02*
Y38409470D01*
Y38423013D02*
Y38435224D01*
X52176680Y38401805D02*
Y38409470D01*
Y38426400D02*
Y38438586D01*
X52179220Y38401805D02*
Y38409470D01*
Y38429787D02*
Y38441947D01*
X52181760Y38401805D02*
Y38409470D01*
Y38433173D02*
Y38445309D01*
X52184300Y38401805D02*
Y38409470D01*
Y38436560D02*
Y38448671D01*
X52186840Y38401805D02*
Y38409470D01*
Y38439947D02*
Y38452033D01*
X52189380Y38401805D02*
Y38409470D01*
Y38443327D02*
Y38455394D01*
X52191920Y38382528D02*
Y38458756D01*
X52194460Y38382528D02*
Y38460497D01*
X52197000Y38382528D02*
Y38460497D01*
X52199540Y38401317D02*
Y38409958D01*
X52202080Y38401805D02*
Y38409470D01*
X52204620Y38401805D02*
Y38409470D01*
X52207160Y38401805D02*
Y38409470D01*
X52224940Y38382528D02*
Y38438952D01*
X52227480Y38382528D02*
Y38438952D01*
X52230020Y38382528D02*
Y38438952D01*
X52232560Y38420456D02*
Y38430221D01*
X52235100Y38425847D02*
Y38431030D01*
X52237640Y38428895D02*
Y38433570D01*
X52240180Y38431324D02*
Y38436110D01*
X52242720Y38432050D02*
Y38437583D01*
X52245260Y38432775D02*
Y38438599D01*
X52247800Y38433501D02*
Y38439389D01*
X52250340Y38433050D02*
Y38440024D01*
X52252880Y38432415D02*
Y38439572D01*
X52255420Y38430865D02*
Y38439064D01*
X52257960Y38428009D02*
Y38438112D01*
X52260500Y38382528D02*
Y38437096D01*
X52263040Y38382528D02*
Y38434891D01*
X52265580Y38382528D02*
Y38430902D01*
X52268120Y38421062D02*
Y38428943D01*
X52270660Y38426596D02*
Y38432911D01*
X52273200Y38429403D02*
Y38435866D01*
X52275740Y38431308D02*
Y38437771D01*
X52278280Y38432572D02*
Y38438504D01*
X52280820Y38433080D02*
Y38439108D01*
X52283360Y38433554D02*
Y38439616D01*
X52285900Y38433063D02*
Y38440028D01*
X52288440Y38432555D02*
Y38439665D01*
X52290980Y38430610D02*
Y38439303D01*
X52293520Y38427192D02*
Y38438743D01*
X52296060Y38382528D02*
Y38437219D01*
X52298600Y38382528D02*
Y38435165D01*
X52301140Y38382528D02*
Y38430085D01*
X52321460Y38382528D02*
Y38438952D01*
X52324000Y38382528D02*
Y38438952D01*
X52326540Y38382528D02*
Y38438952D01*
X52329080Y38424323D02*
Y38429947D01*
X52331620Y38427371D02*
Y38432300D01*
X52334160Y38430419D02*
Y38434840D01*
X52336700Y38431687D02*
Y38437075D01*
X52339240Y38432413D02*
Y38438091D01*
X52341780Y38433138D02*
Y38439071D01*
X52344320Y38433368D02*
Y38439706D01*
X52346860Y38432733D02*
Y38439826D01*
X52349400Y38431711D02*
Y38439318D01*
X52351940Y38430018D02*
Y38438620D01*
X52354480Y38425469D02*
Y38437604D01*
X52357020Y38382528D02*
Y38436161D01*
X52359560Y38382528D02*
Y38433442D01*
X52362100Y38382528D02*
Y38428894D01*
X52364640Y38424903D02*
Y38430795D01*
X52367180Y38428290D02*
Y38434914D01*
X52369720Y38430355D02*
Y38436818D01*
X52372260Y38432249D02*
Y38438187D01*
X52374800Y38432826D02*
Y38438822D01*
X52377340Y38433334D02*
Y38439362D01*
X52379880Y38433317D02*
Y38439870D01*
X52382420Y38432809D02*
Y38439847D01*
X52384960Y38432195D02*
Y38439484D01*
X52387500Y38428917D02*
Y38439121D01*
X52390040Y38423294D02*
Y38437981D01*
X52392580Y38382528D02*
Y38436457D01*
X52395120Y38382528D02*
Y38432625D01*
X52397660Y38382528D02*
Y38422325D01*
*
G04 PC Custom Flashes*
G04 Layer Name ESP32-WROVER-V4.pcb - flashes*
%LPD*%
*
*
G04 PC Circuitry*
G04 Layer Name ESP32-WROVER-V4.pcb - circuitry*
%LPD*%
*
G54D10*
X50000000Y40000000D02*
X50000067D01*
X51799996D02*
X51800063D01*
X51808988Y36857766D02*
X51809055D01*
X51799996Y40000000D02*
X51800063D01*
G54D44*
X50000000D02*
X51799996D01*
Y36859290*
X50000000*
Y40000000*
G54D45*
X50876300Y37764800D02*
X50526898D01*
X50383286*
X50390982Y38456010D02*
X50406396D01*
X51025560Y38495990D02*
X51143000D01*
X51114510Y38256011D02*
X51133018D01*
X51025560Y38616005D02*
X51143000D01*
X50526898Y37764800D03*
X50383286D03*
X50876300D03*
X50242316Y38936248D03*
X50317500D03*
X50390652D03*
X51025906Y38787150D03*
X50876300Y38836680D03*
G54D46*
X50390982Y38456010D03*
X51143000Y38495990D03*
X51133018Y38256011D03*
X51143000Y38616005D03*
G54D47*
X50133191Y37161563D03*
X50132233Y37042877D03*
X50131276Y36921319D03*
X50649094Y36906961D03*
X50545722D03*
X50204977Y36918447D03*
X50450007Y36904090D03*
X50301812Y37162258D03*
X50280592Y36917490D03*
X50367692Y36912704D03*
X51176117Y36911404D03*
X50987657Y37111998D03*
X50945580Y37057900D03*
X50888477Y37002299D03*
X50951591Y36973747D03*
X50725495Y36911404D03*
X51004187Y37023337D03*
X51025123Y36901967D03*
X50892985Y37152571D03*
X51095902Y36911404D03*
X50711103Y37158502D03*
X50819866Y36911404D03*
X50899746Y36927795D03*
X50971133Y37163261D03*
X50828888Y37097580D03*
X50835319Y37155810D03*
X51535168Y36984875D03*
X51480464Y36909044D03*
X51577194D03*
X51652691Y36911404D03*
X51282285D03*
X51403510Y36975139D03*
X51364859Y36913763D03*
X50134148Y37338636D03*
X50133191Y37279292D03*
X50131984Y37419676D03*
X50129545Y37536729D03*
X50132919Y37590322D03*
X50131962Y37666894D03*
X50637286Y37206000D03*
X50510286Y37459078D03*
X50212634Y37394150D03*
X50269106Y37433393D03*
X50305477Y37502308D03*
Y37571223D03*
X50302606Y37644923D03*
X50236234Y37518439D03*
X50511293Y37380985D03*
X50443670Y37191642D03*
X50452687Y37256259D03*
X50191120Y37466619D03*
X50494763Y37203664D03*
X50614981Y37460630D03*
X50494763Y37307352D03*
X50583424Y37344920D03*
X50548861Y37274292D03*
X50645035Y37298335D03*
X50646538Y37364455D03*
X50184605Y37595107D03*
X50199919Y37654451D03*
X50764286Y37474910D03*
X51056464Y37419336D03*
X51129208Y37418379D03*
X51035038Y37305468D03*
X50843395Y37528252D03*
X51095339Y37305468D03*
X50832491Y37616509D03*
X51157553Y37304511D03*
X50885135Y37576308D03*
X51156596Y37367683D03*
X50885135Y37410721D03*
X51087681Y37365769D03*
X51023552Y37369598D03*
X50920034Y37302844D03*
X50918531Y37365958D03*
X50958466Y37661528D03*
X50873450Y37331395D03*
X51051310Y37568685D03*
X50813341Y37368963D03*
X51049395Y37520827D03*
X50813341Y37293827D03*
X51118310Y37524656D03*
X50775773Y37331395D03*
X51147025Y37562942D03*
X51108739Y37606971D03*
X51333500Y37206000D03*
X51206500Y37255450D03*
X51460500Y37474898D03*
X51416874Y37209908D03*
X51670952Y37364150D03*
X51630639Y37410152D03*
X51450423Y37406071D03*
X51578953Y37448438D03*
X51505901Y37347545D03*
X51669038Y37545052D03*
X51533967Y37488639D03*
X51561380Y37294505D03*
X51668080Y37175592D03*
X51496786Y37194003D03*
X51624173Y37231711D03*
X51288257Y37406681D03*
X51363244Y37342667D03*
X51405485Y37300748D03*
X51318430Y37299823D03*
X51273348Y37343402D03*
X51327446Y37374959D03*
X51254225Y37561027D03*
X51287726Y37521784D03*
X50127176Y37791323D03*
X50126219Y37919581D03*
X50662000Y38056900D03*
X50305663Y38056935D03*
X50306435Y37712881D03*
X50392233Y38049009D03*
X50302606Y37777967D03*
X50344071Y38012430D03*
X50303224Y37854531D03*
X50395891Y37851483D03*
X50341632Y37813685D03*
X50201834Y37721451D03*
X50406400Y38141990D03*
X50355600Y38101985D03*
X50702000Y38031500D03*
X50822000Y38056900D03*
X50862000Y38031500D03*
X50808069Y37902021D03*
X51008607Y37687338D03*
X50742000Y38056900D03*
X50812946Y37831911D03*
X50870253Y37848981D03*
X51059086Y38174547D03*
X51557032Y38122876D03*
X51616069Y37883708D03*
X51503182Y38126232D03*
X51615856Y37973339D03*
X51601813Y38175547D03*
X51612240Y37812879D03*
X51527798Y37981953D03*
X51553854Y37851165D03*
X51452702Y38125455D03*
X51561511Y37921994D03*
X51667889Y37914090D03*
X51547154Y37787993D03*
X51665209Y37856125D03*
X51664252Y37788168D03*
X51398113Y38177173D03*
X51672327Y37977168D03*
X51397625Y37982911D03*
X51346200Y38049839D03*
X51320800Y38092638D03*
X50176378Y38603635D03*
X50262731Y38305328D03*
X50211430Y38651717D03*
X50686738Y38398702D03*
Y38627302D03*
Y38551102D03*
Y38474902D03*
Y38322502D03*
X50610538Y38474902D03*
Y38398702D03*
Y38627302D03*
Y38551102D03*
Y38322502D03*
X50406400Y38222000D03*
X50355600Y38181995D03*
X50363550Y38390707D03*
X50350520Y38501400D03*
X50366903Y38577600D03*
X50393700Y38616000D03*
X50368300Y38656000D03*
X50393700Y38536000D03*
X51194546Y38212347D03*
X50762938Y38474902D03*
X50839138Y38551102D03*
X50762938D03*
Y38398702D03*
X50839138Y38322502D03*
X50762938D03*
X50915338Y38551102D03*
X50839138Y38474902D03*
X50915338D03*
Y38322502D03*
X50839138Y38398702D03*
Y38627302D03*
X50915338D03*
X50762938D03*
X50915338Y38398702D03*
X51186180Y38456000D03*
X51112520Y38416000D03*
X51176122Y38295990D03*
X51168400Y38376000D03*
X51133018Y38335995D03*
X51014832Y38210951D03*
X51228810Y38426081D03*
X51600482Y38277968D03*
X51292881Y38355020D03*
X51273429Y38604281D03*
X51293269Y38307646D03*
X51589508Y38232245D03*
X51371667Y38586613D03*
X51327441Y38243963D03*
X51380202Y38633556D03*
X51391512Y38235808D03*
X51362000Y38207850D03*
X51601193Y38322241D03*
X51597535Y38369184D03*
Y38413688D03*
X51516936Y38410769D03*
X51596316Y38463679D03*
X51549373Y38590486D03*
X51276289Y38557170D03*
X51493285Y38581951D03*
X51596316Y38514890D03*
X51598145Y38561833D03*
X51422268Y38656113D03*
X51319041Y38589889D03*
X50123086Y38802169D03*
X50173579Y38913407D03*
X50166879Y38854064D03*
X50539087Y39185082D03*
X50593645Y39146796D03*
X50649159Y39164981D03*
X50390993Y38696000D03*
X50368300Y38735994D03*
X50515874Y38964696D03*
X50390982Y38775999D03*
X50368300Y38816004D03*
X50578866Y38907800D03*
X50515874Y39053596D03*
X51000796Y38864545D03*
X50840057Y39136873D03*
X51153452Y38862216D03*
X51173553Y38926345D03*
X51151538Y38996217D03*
X51074966Y39006745D03*
X51147710Y39063217D03*
X51066352Y39076617D03*
X51141010Y39135003D03*
X50711374Y39163067D03*
X51066352Y39137875D03*
X51095932Y38863380D03*
X51091660Y38938324D03*
X51016328Y38964729D03*
X51012445Y39010938D03*
X51008950Y39061419D03*
X51012057Y39109958D03*
X51011280Y39160438D03*
X51040403Y39195386D03*
X50768649Y39177713D03*
X50778483Y39117973D03*
X50823597Y39083223D03*
X50872369Y39100294D03*
X50871192Y39052089D03*
X50869639Y38990347D03*
Y38934818D03*
X51308482Y38714286D03*
X51213282Y39183544D03*
X51255348Y39141478D03*
X51302901Y39103070D03*
X51369962Y39092096D03*
X51438852Y39090267D03*
X51229667Y38863561D03*
X51223324Y39003874D03*
X51616572Y38882202D03*
X51251082Y38935916D03*
X51208010Y39096717D03*
X51669070Y38930564D03*
X51285539Y38877530D03*
X51257782Y39053646D03*
X51683427Y38811878D03*
X51312339Y39044074D03*
X51289368Y38994302D03*
X51353497Y38991431D03*
X51374554Y39041203D03*
X51437726Y39012488D03*
X51336268Y38930173D03*
X51411883Y38938788D03*
X51474098Y38932088D03*
X51536312Y38936873D03*
X51603631Y38704491D03*
X51384980Y38696423D03*
X50128566Y39293575D03*
X50134891Y39224639D03*
X50156373Y39361817D03*
X50665277Y39298314D03*
X50265314Y39298083D03*
X50202199D03*
X50326925Y39301088D03*
X50390040Y39299585D03*
X50450149Y39298083D03*
X50515158Y39302811D03*
X50588859Y39299940D03*
X50252697Y39358768D03*
X50509415Y39242511D03*
X50336219Y39359988D03*
X50416693Y39356939D03*
X50561102Y39244425D03*
X50484974Y39356939D03*
X50597473Y39202310D03*
X50634802Y39245382D03*
X50567277Y39358159D03*
X50686488Y39209010D03*
X50652018Y39361207D03*
X50753335Y39299271D03*
X51096320Y39197328D03*
X51151849Y39198104D03*
X51190115Y39306083D03*
X51124273Y39306693D03*
X50733388Y39242511D03*
X51169869Y39359376D03*
X50970782Y39365118D03*
X51091383Y39363204D03*
X50728224Y39354501D03*
X51033954Y39365118D03*
X50889781Y39362426D03*
X50808088D03*
X51053554Y39309131D03*
X50985883Y39305473D03*
X50902650Y39303100D03*
X50816507Y39304057D03*
X50848093Y39252371D03*
X50779178Y39237056D03*
X51352282Y39242070D03*
X51427792Y39247383D03*
X51408980Y39294500D03*
X51399835Y39363390D03*
X51251080Y39346930D03*
X51684670Y39375248D03*
X51441554Y39329305D03*
G54D48*
X50218398Y38978895D02*
X50420193D01*
Y38902601*
X50218398*
Y38978895*
Y38971148D02*
X50420193D01*
X50218398Y38957432D02*
X50420193D01*
X50218398Y38943716D02*
X50420193D01*
X50218398Y38930000D02*
X50420193D01*
X50218398Y38916284D02*
X50420193D01*
G54D51*
X50406396Y38456010D02*
X50481801Y38531415D01*
Y38836680*
X51025560Y38495990D02*
Y38344960D01*
X51025560D02*
X51114510Y38256011D01*
X51025560Y38495990D02*
Y38616005D01*
X50876300Y38836680D02*
X50925484Y38787496D01*
X51025560*
Y38616005*
X50876300Y38836680D02*
X50925484Y38787496D01*
X51025560*
X51025906Y38787150*
G54D109*
X50000000Y36969526D02*
X50024043Y36993569D01*
X50801441*
X50971133Y37163261*
X50000000Y37096526D02*
X50527812D01*
X50637286Y37206000*
X50000000Y37223526D02*
X50274734D01*
X50510286Y37459078*
X50637286Y37206000D02*
X51333500D01*
X50764286Y37474910D02*
X51460488D01*
X51460500Y37474898*
X51206500Y37255450D02*
X51499122D01*
X51658046Y37096526*
X51800352*
X51460500Y37474898D02*
X51675258Y37260140D01*
X51675258D02*
X51763738D01*
X51763738D02*
X51800352Y37223526D01*
X51112520Y38416000D02*
X51184090D01*
X51249832Y38350258*
Y38263313*
X51427297Y38085847*
X51427297D02*
X51586669D01*
X51586669D02*
X51643816Y38142994D01*
Y38829099*
X51689243Y38874526*
X51689243D02*
X51799996D01*
X51168400Y38376000D02*
X51215815Y38328585D01*
Y38252122*
X51411990Y38055947*
X51616958*
X51680990Y38119980*
Y38672019*
X51756497Y38747526*
X51799996*
X51050392Y38210951D02*
G75*
G03X51050392I-35560J0D01*
G01X50551435Y38964696D02*
G03X50551435I-35561J0D01*
G01Y39053596D02*
G03X50551435I-35561J0D01*
G01X51778405Y36884691D02*
Y36899125D01*
X51778405D02*
G03X51774595Y36902935I-3810J0D01*
G01X51774595D02*
X51715352D01*
X51693761Y36924526D02*
G03X51715352Y36902935I21591J0D01*
G01X51693761Y36924526D02*
Y37014526D01*
X51700558Y37030251D02*
G03X51693761Y37014526I14794J-15725D01*
G01X51700558Y37030251D02*
G03Y37035801I-2611J2775D01*
G01X51693762Y37051526D02*
G03X51700558Y37035801I21590J0D01*
G01X51693761Y37051526D02*
Y37064775D01*
X51693761D02*
G03X51689951Y37068585I-3810J0D01*
G01X51689951D02*
X51658046D01*
X51638289Y37076769D02*
G03X51658046Y37068585I19757J19757D01*
G01X51638289Y37076769D02*
X51488665Y37226393D01*
G03X51485971Y37227509I-2694J-2694*
G01X51368668*
G03X51365264Y37221987I-0J-3810*
G01X51312473Y37177322D02*
G03X51365264Y37221987I21027J28678D01*
G01X51312473Y37177322D02*
G03X51310220Y37178059I-2253J-3073D01*
G01X51310220D02*
X51008939D01*
X51008939D02*
G03X51005280Y37173186I-0J-3810D01*
G01X50976543Y37128114D02*
G03X51005280Y37173186I-5410J35147D01*
G01X50976543Y37128114D02*
G03X50974428Y37127043I579J-3765D01*
G01X50821198Y36973812*
X50801441Y36965628D02*
G03X50821198Y36973812I-0J27941D01*
G01X50801441Y36965628D02*
X50110401D01*
X50110401D02*
G03X50106591Y36961818I-0J-3810D01*
G01X50106591D02*
Y36924526D01*
X50085000Y36902935D02*
G03X50106591Y36924526I0J21591D01*
G01X50085000Y36902935D02*
X50025401D01*
X50025401D02*
G03X50021591Y36899125I-0J-3810D01*
G01X50021591D02*
Y36884691D01*
X50021591D02*
G03X50025401Y36880881I3810J-0D01*
G01X50025401D02*
X51774595D01*
X51774595D02*
G03X51778405Y36884691I0J3810D01*
G01X50936985Y37173186D02*
G03X50933327Y37178059I-3658J1063D01*
G01X50933327D02*
X50660566D01*
X50660566D02*
G03X50658313Y37177322I-0J-3810D01*
G01X50642696Y37170854D02*
G03X50658313Y37177322I-5410J35146D01*
G01X50642696Y37170853D02*
G03X50640582Y37169782I580J-3765D01*
G01X50547569Y37076769*
X50527812Y37068586D02*
G03X50547569Y37076769I0J27940D01*
G01X50527812Y37068585D02*
X50110401D01*
X50110401D02*
G03X50106591Y37064775I-0J-3810D01*
G01X50106591D02*
Y37051526D01*
X50099794Y37035801D02*
G03X50106591Y37051526I-14794J15725D01*
G01X50099794Y37035801D02*
G03Y37030251I2611J-2775D01*
G01X50104544Y37023700D02*
G03X50099794Y37030251I-19544J-9174D01*
G01X50104544Y37023700D02*
G03X50107993Y37021509I3449J1619D01*
G01X50788289*
G03X50790983Y37022625I0J3810*
G01X50934915Y37166556*
X50934914Y37166557D02*
G03X50935986Y37168671I-2694J2694D01*
G01X50936985Y37173186D02*
G03X50935986Y37168671I34148J-9925D01*
G01X51700558Y37538251D02*
G03Y37543801I-2611J2775D01*
G01X51693762Y37559526D02*
G03X51700558Y37543801I21590J0D01*
G01X51693761Y37559526D02*
Y37649526D01*
X51700408Y37665109D02*
G03X51693761Y37649526I14944J-15583D01*
G01X51700408Y37665109D02*
G03X51700355Y37670659I-2637J2750D01*
G01X51693406Y37686526D02*
G03X51700355Y37670659I21590J0D01*
G01X51693406Y37686526D02*
Y37776526D01*
X51700202Y37792251D02*
G03X51693406Y37776526I14794J-15725D01*
G01X51700202Y37792251D02*
G03Y37797801I-2611J2775D01*
G01X51693406Y37813526D02*
G03X51700202Y37797801I21590J0D01*
G01X51693405Y37813526D02*
Y37903526D01*
X51700202Y37919251D02*
G03X51693405Y37903526I14794J-15725D01*
G01X51700202Y37919251D02*
G03Y37924801I-2611J2775D01*
G01X51693406Y37940526D02*
G03X51700202Y37924801I21590J0D01*
G01X51693405Y37940526D02*
Y38030526D01*
X51700202Y38046251D02*
G03X51693405Y38030526I14794J-15725D01*
G01X51700202Y38046251D02*
G03Y38051801I-2611J2775D01*
G01X51693406Y38067526D02*
G03X51700202Y38051801I21590J0D01*
G01X51693405Y38067526D02*
Y38083683D01*
X51693405D02*
G03X51686901Y38086377I-3810J0D01*
G01X51636715Y38036190*
X51616958Y38028007D02*
G03X51636714Y38036191I-0J27940D01*
G01X51616958Y38028007D02*
X51411990D01*
X51392233Y38036190D02*
G03X51411990Y38028007I19757J19757D01*
G01X51392233Y38036190D02*
X51386740Y38041683D01*
G03X51380384Y38040039I-2694J-2694*
G01X51311031Y38055103D02*
G03X51380384Y38040039I35169J-5264D01*
G01X51311031Y38055104D02*
G03X51308573Y38059245I-3768J564D01*
G01X51300366Y38121741D02*
G03X51308573Y38059245I20434J-29103D01*
G01X51300366Y38121741D02*
G03X51300870Y38127553I-2190J3118D01*
G01X51300870D02*
X51196058Y38232365D01*
X51187875Y38252122D02*
G03X51196059Y38232365I27940J0D01*
G01X51187875Y38252122D02*
Y38257429D01*
G03X51183296Y38261161I-3810J0*
G01X51183057Y38261113D02*
G03X51183296Y38261161I-6935J34877D01*
G01X51183057Y38261112D02*
G03X51179991Y38257273I743J-3736D01*
G01X51141588Y38209808D02*
G03X51179991Y38257273I-8570J46203D01*
G01X51141588Y38209808D02*
G03X51140432Y38209392I695J-3746D01*
G01X51076793Y38218293D02*
G03X51140432Y38209392I37717J37718D01*
G01X51076793Y38218293D02*
X50987843Y38307243D01*
X50972220Y38344960D02*
G03X50987843Y38307243I53340J0D01*
G01X50972220Y38344960D02*
Y38495990D01*
Y38616005*
Y38730345*
G03X50968410Y38734155I-3810J0*
G01X50925484*
X50887767Y38749778D02*
G03X50925484Y38734155I37717J37718D01*
G01X50887767Y38749778D02*
X50861672Y38775874D01*
X50861671Y38775873D02*
G03X50858977Y38776989I-2694J-2694D01*
G01X50858977D02*
X50538952D01*
X50538952D02*
G03X50535142Y38773179I-0J-3810D01*
G01X50535142D02*
Y38531415D01*
X50519518Y38493698D02*
G03X50535142Y38531415I-37717J37717D01*
G01X50519519Y38493698D02*
X50444114Y38418293D01*
X50402323Y38402825D02*
G03X50444114Y38418293I4073J53185D01*
G01X50402322Y38402825D02*
G03X50398308Y38398221I-290J-3798D01*
G01X50350465Y38423772D02*
G03X50398308Y38398221I13085J-33065D01*
G01X50350464Y38423772D02*
G03X50352206Y38429467I-1402J3543D01*
G01X50344474Y38462728D02*
G03X50352206Y38429467I46508J-6718D01*
G01X50344474Y38462728D02*
G03X50341653Y38466962I-3770J545D01*
G01X50352976Y38536876D02*
G03X50341654Y38466963I-2456J-35476D01*
G01X50352976Y38536876D02*
G03X50354562Y38544250I263J3801D01*
G01X50355560Y38611303D02*
G03X50354562Y38544250I11343J-33703D01*
G01X50355560Y38611303D02*
G03X50358153Y38615019I-1216J3611D01*
G01X50358253Y38618840D02*
G03X50358153Y38615019I35447J-2840D01*
G01X50358253Y38618840D02*
G03X50355795Y38622711I-3798J304D01*
G01X50353442Y38688308D02*
G03X50355795Y38622711I14858J-32308D01*
G01X50353442Y38688308D02*
G03X50355638Y38692179I-1592J3461D01*
G01Y38699816D02*
G03Y38692179I35355J-3816D01*
G01Y38699817D02*
G03X50353442Y38703687I-3788J408D01*
G01X50353434Y38768298D02*
G03X50353442Y38703687I14866J-32304D01*
G01X50353433Y38768298D02*
G03X50355628Y38772170I-1592J3461D01*
G01X50355629Y38779829D02*
G03Y38772170I35353J-3830D01*
G01X50355628Y38779829D02*
G03X50353433Y38783701I-3787J410D01*
G01X50384151Y38847837D02*
G03X50353434Y38783701I-15851J-31833D01*
G01X50384151Y38847837D02*
G03X50388543Y38853941I1698J3410D01*
G01X50388544D02*
X50370210Y38872275D01*
X50370210D02*
G03X50367516Y38873390I-2694J-2694D01*
G01Y38873391D02*
X50338346D01*
X50338346D02*
G03X50337209Y38873217I-0J-3810D01*
G01X50297791D02*
G03X50337209I19709J63031D01*
G01X50297791D02*
G03X50296654Y38873391I-1137J-3636D01*
G01X50296654D02*
X50218398D01*
X50189187Y38902601D02*
G03X50218398Y38873391I29211J0D01*
G01X50189187Y38902601D02*
Y38978895D01*
X50218398Y39008106D02*
G03X50189187Y38978895I-0J-29211D01*
G01X50218398Y39008106D02*
X50230114D01*
G03X50232808Y39014610I-0J3810*
G01X50186048Y39061370*
Y39061369D02*
G03X50183354Y39062485I-2694J-2694D01*
G01X50183354D02*
X50107306D01*
X50107306D02*
G03X50103961Y39056853I0J-3810D01*
G01X50106591Y39046526D02*
G03X50103961Y39056853I-21591J0D01*
G01X50106591Y39046526D02*
Y38956526D01*
X50099794Y38940801D02*
G03X50106591Y38956526I-14794J15725D01*
G01X50099794Y38940801D02*
G03Y38935251I2611J-2775D01*
G01X50106590Y38919526D02*
G03X50099794Y38935251I-21590J0D01*
G01X50106591Y38919526D02*
Y38829526D01*
X50099794Y38813801D02*
G03X50106591Y38829526I-14794J15725D01*
G01X50099794Y38813801D02*
G03Y38808251I2611J-2775D01*
G01X50106590Y38792526D02*
G03X50099794Y38808251I-21590J0D01*
G01X50106591Y38792526D02*
Y38702526D01*
X50099794Y38686801D02*
G03X50106591Y38702526I-14794J15725D01*
G01X50099794Y38686801D02*
G03Y38681251I2611J-2775D01*
G01X50106590Y38665526D02*
G03X50099794Y38681251I-21590J0D01*
G01X50106591Y38665526D02*
Y38575526D01*
X50099794Y38559801D02*
G03X50106591Y38575526I-14794J15725D01*
G01X50099794Y38559801D02*
G03Y38554251I2611J-2775D01*
G01X50106590Y38538526D02*
G03X50099794Y38554251I-21590J0D01*
G01X50106591Y38538526D02*
Y38448526D01*
X50099794Y38432801D02*
G03X50106591Y38448526I-14794J15725D01*
G01X50099794Y38432801D02*
G03Y38427251I2611J-2775D01*
G01X50106590Y38411526D02*
G03X50099794Y38427251I-21590J0D01*
G01X50106591Y38411526D02*
Y38321526D01*
X50099794Y38305801D02*
G03X50106591Y38321526I-14794J15725D01*
G01X50099794Y38305801D02*
G03Y38300251I2611J-2775D01*
G01X50106590Y38284526D02*
G03X50099794Y38300251I-21590J0D01*
G01X50106591Y38284526D02*
Y38194526D01*
X50099794Y38178801D02*
G03X50106591Y38194526I-14794J15725D01*
G01X50099794Y38178801D02*
G03Y38173251I2611J-2775D01*
G01X50106590Y38157526D02*
G03X50099794Y38173251I-21590J0D01*
G01X50106591Y38157526D02*
Y38067526D01*
X50099794Y38051801D02*
G03X50106591Y38067526I-14794J15725D01*
G01X50099794Y38051801D02*
G03Y38046251I2611J-2775D01*
G01X50106590Y38030526D02*
G03X50099794Y38046251I-21590J0D01*
G01X50106591Y38030526D02*
Y37940526D01*
X50099794Y37924801D02*
G03X50106591Y37940526I-14794J15725D01*
G01X50099794Y37924801D02*
G03Y37919251I2611J-2775D01*
G01X50106590Y37903526D02*
G03X50099794Y37919251I-21590J0D01*
G01X50106591Y37903526D02*
Y37813526D01*
X50099794Y37797801D02*
G03X50106591Y37813526I-14794J15725D01*
G01X50099794Y37797801D02*
G03Y37792251I2611J-2775D01*
G01X50106590Y37776526D02*
G03X50099794Y37792251I-21590J0D01*
G01X50106591Y37776526D02*
Y37686526D01*
X50099794Y37670801D02*
G03X50106591Y37686526I-14794J15725D01*
G01X50099794Y37670801D02*
G03Y37665251I2611J-2775D01*
G01X50106590Y37649526D02*
G03X50099794Y37665251I-21590J0D01*
G01X50106591Y37649526D02*
Y37559526D01*
X50085000Y37537935D02*
G03X50106591Y37559526I0J21591D01*
G01X50085000Y37537935D02*
X50025401D01*
X50025401D02*
G03X50021591Y37534125I-0J-3810D01*
G01X50021591D02*
Y37420927D01*
X50021591D02*
G03X50025401Y37417117I3810J-0D01*
G01X50025401D02*
X50085000D01*
X50106591Y37395526D02*
G03X50085000Y37417117I-21591J0D01*
G01X50106591Y37395526D02*
Y37305526D01*
X50099794Y37289801D02*
G03X50106591Y37305526I-14794J15725D01*
G01X50099794Y37289801D02*
G03Y37284251I2611J-2775D01*
G01X50106590Y37268526D02*
G03X50099794Y37284251I-21590J0D01*
G01X50106591Y37268526D02*
Y37255277D01*
X50106591D02*
G03X50110401Y37251467I3810J-0D01*
G01X50110401D02*
X50261582D01*
X50261582D02*
G03X50264276Y37252582I0J3810D01*
G01X50264276D02*
X50474068Y37462374D01*
G03X50475139Y37464489I-2694J2694*
G01X50515696Y37423932D02*
G03X50475140Y37464488I-5410J35146D01*
G01X50515696Y37423932D02*
G03X50513582Y37422860I580J-3766D01*
G01X50294491Y37203769*
X50274734Y37195586D02*
G03X50294490Y37203769I-0J27940D01*
G01X50274734Y37195585D02*
X50110401D01*
X50110401D02*
G03X50106591Y37191775I-0J-3810D01*
G01X50106591D02*
Y37178526D01*
X50099794Y37162801D02*
G03X50106591Y37178526I-14794J15725D01*
G01X50099794Y37162801D02*
G03Y37157251I2611J-2775D01*
G01X50106590Y37141526D02*
G03X50099794Y37157251I-21590J0D01*
G01X50106591Y37141526D02*
Y37128277D01*
X50106591D02*
G03X50110401Y37124467I3810J-0D01*
G01X50110401D02*
X50514661D01*
X50514661D02*
G03X50517355Y37125582I-0J3810D01*
G01X50517355D02*
X50601068Y37209296D01*
G03X50602139Y37211410I-2694J2694*
G01X50658313Y37234678D02*
G03X50602140Y37211410I-21027J-28678D01*
G01X50658313Y37234678D02*
G03X50660566Y37233941I2253J3073D01*
G01X50660566D02*
X51171332D01*
X51171332D02*
G03X51174736Y37239463I0J3810D01*
G01X51227527Y37284128D02*
G03X51174736Y37239463I-21027J-28678D01*
G01X51227527Y37284128D02*
G03X51229780Y37283390I2253J3072D01*
G01X51229780D02*
X51499122D01*
X51518879Y37275207D02*
G03X51499122Y37283390I-19757J-19757D01*
G01X51518879Y37275207D02*
X51668504Y37125582D01*
Y37125583D02*
G03X51671198Y37124467I2694J2694D01*
G01X51671198D02*
X51689951D01*
X51689951D02*
G03X51693761Y37128277I0J3810D01*
G01X51693761D02*
Y37141526D01*
X51700558Y37157251D02*
G03X51693761Y37141526I14794J-15725D01*
G01X51700558Y37157251D02*
G03Y37162801I-2611J2775D01*
G01X51693762Y37178526D02*
G03X51700558Y37162801I21590J0D01*
G01X51693761Y37178526D02*
Y37228389D01*
X51693761D02*
G03X51689951Y37232199I-3810J0D01*
G01X51689951D02*
X51675258D01*
X51655501Y37240383D02*
G03X51675258Y37232199I19757J19757D01*
G01X51655501Y37240383D02*
X51457204Y37438679D01*
G03X51455090Y37439751I-2694J-2694*
G01X51439458Y37446231D02*
G03X51455090Y37439751I21042J28667D01*
G01X51439458Y37446231D02*
G03X51437204Y37446969I-2254J-3072D01*
G01X50787566*
G03X50785313Y37446232I-0J-3810*
G01Y37503588D02*
G03Y37446232I-21027J-28678D01*
G01Y37503588D02*
G03X50787566Y37502850I2253J3072D01*
G01X51437237*
G03X51439488Y37503587I0J3810*
G01X51495646Y37480308D02*
G03X51439488Y37503586I-35146J-5410D01*
G01X51495647Y37480308D02*
G03X51496718Y37478193I3765J579D01*
G01X51685715Y37289196*
X51685716D02*
G03X51688410Y37288080I2694J2694D01*
G01X51688410D02*
X51693922D01*
G03X51697136Y37293935I-0J3810*
G01X51693762Y37305526D02*
G03X51697136Y37293935I21590J0D01*
G01X51693761Y37305526D02*
Y37395526D01*
X51700558Y37411251D02*
G03X51693761Y37395526I14794J-15725D01*
G01X51700558Y37411251D02*
G03Y37416801I-2611J2775D01*
G01X51693762Y37432526D02*
G03X51700558Y37416801I21590J0D01*
G01X51693761Y37432526D02*
Y37522526D01*
X51700558Y37538251D02*
G03X51693761Y37522526I14794J-15725D01*
G01X51700202Y38808251D02*
G03Y38813801I-2611J2775D01*
G01X51693406Y38829526D02*
G03X51700202Y38813801I21590J0D01*
G01X51693406Y38829526D02*
Y38829976D01*
G03X51686902Y38832670I-3810J0*
G01X51686902D02*
X51672873Y38818641D01*
G03X51671757Y38815947I2694J-2694*
G01Y38711497*
G03X51678261Y38708803I3810J0*
G01X51692290Y38722832*
X51692290D02*
G03X51693406Y38725526I-2694J2694D01*
G01X51693406D02*
Y38792526D01*
X51700202Y38808251D02*
G03X51693406Y38792526I14794J-15725D01*
G01X51778405Y39200155D02*
Y39399874D01*
X51778405D02*
G03X51774595Y39403684I-3810J0D01*
G01X51774595D02*
X50025401D01*
X50025401D02*
G03X50021591Y39399874I-0J-3810D01*
G01X50021591D02*
Y39198927D01*
X50021591D02*
G03X50025401Y39195117I3810J-0D01*
G01X50025401D02*
X50085000D01*
X50089469Y39194649D02*
G03X50085000Y39195117I-4469J-21123D01*
G01X50089469Y39194649D02*
G03X50090257Y39194567I788J3728D01*
G01X50090257D02*
X50212287D01*
X50258985Y39175224D02*
G03X50212287Y39194567I-46698J-46698D01*
G01X50258985Y39175224D02*
X50364198Y39070011D01*
X50383541Y39023313D02*
G03X50364198Y39070011I-66041J0D01*
G01X50383541Y39023313D02*
Y39011916D01*
X50383541D02*
G03X50387351Y39008106I3810J-0D01*
G01X50387351D02*
X50420193D01*
X50449403Y38978895D02*
G03X50420193Y39008106I-29210J0D01*
G01X50449403Y38978895D02*
Y38963490D01*
X50449403D02*
G03X50450519Y38960796I3810J-0D01*
G01X50513829Y38897486*
Y38897487D02*
G03X50516523Y38896371I2694J2694D01*
G01X50516523D02*
X50540240D01*
X50540240D02*
G03X50543978Y38900918I-0J3810D01*
G01X50613754D02*
G03X50543978I-34888J6882D01*
G01X50613754D02*
G03X50617492Y38896371I3738J-737D01*
G01X50617492D02*
X50876300D01*
X50932685Y38856269D02*
G03X50876300Y38896371I-56385J-19589D01*
G01X50932685Y38856269D02*
G03X50933590Y38854825I3599J1250D01*
G01X50933590D02*
X50946463Y38841952D01*
G03X50949157Y38840836I2694J2694*
G01X51025560*
X51063278Y38825213D02*
G03X51025560Y38840836I-37718J-37717D01*
G01X51063278Y38825213D02*
X51063623Y38824867D01*
X51078924Y38781292D02*
G03X51063623Y38824867I-53018J5858D01*
G01X51078924Y38781292D02*
G03X51078901Y38780874I3787J-418D01*
G01Y38666805*
G03X51082711Y38662995I3810J0*
G01X51143000*
Y38569014D02*
G03Y38662995I0J46991D01*
G01Y38569014D02*
X51082711D01*
G03X51078901Y38565204I-0J-3810*
G01Y38546790*
G03X51082711Y38542980I3810J0*
G01X51143000*
X51189974Y38494732D02*
G03X51143000Y38542980I-46974J1258D01*
G01X51189974Y38494732D02*
G03X51193047Y38490891I3808J-102D01*
G01X51212563Y38432157D02*
G03X51193047Y38490891I-26383J23843D01*
G01X51212563Y38432157D02*
G03X51212696Y38426908I2827J-2555D01*
G01X51269589Y38370015*
X51277772Y38350258D02*
G03X51269589Y38370015I-27940J0D01*
G01X51277772Y38350258D02*
Y38276464D01*
G03X51278888Y38273770I3810J0*
G01X51437754Y38114904*
X51437755D02*
G03X51440449Y38113788I2694J2694D01*
G01X51440449D02*
X51573518D01*
G03X51576212Y38114904I-0J3810*
G01X51614760Y38153452*
G03X51615876Y38156146I-2694J2694*
G01Y38829099*
X51624059Y38848856D02*
G03X51615876Y38829099I19757J-19757D01*
G01X51624059Y38848856D02*
X51669487Y38894283D01*
X51689243Y38902466D02*
G03X51669487Y38894283I0J-27940D01*
G01X51689243Y38902467D02*
X51689596D01*
X51689596D02*
G03X51693406Y38906277I-0J3810D01*
G01X51693406D02*
Y38919526D01*
X51700202Y38935251D02*
G03X51693406Y38919526I14794J-15725D01*
G01X51700202Y38935251D02*
G03Y38940801I-2611J2775D01*
G01X51693406Y38956526D02*
G03X51700202Y38940801I21590J0D01*
G01X51693406Y38956526D02*
Y39046526D01*
X51700202Y39062251D02*
G03X51693406Y39046526I14794J-15725D01*
G01X51700202Y39062251D02*
G03Y39067801I-2611J2775D01*
G01X51693406Y39083526D02*
G03X51700202Y39067801I21590J0D01*
G01X51693406Y39083526D02*
Y39173526D01*
X51714996Y39195117D02*
G03X51693406Y39173526I0J-21591D01*
G01X51714996Y39195117D02*
X51736836D01*
X51736836D02*
G03X51738652Y39195577I-0J3810D01*
G01X51741678Y39196344D02*
G03X51738652Y39195577I0J-6350D01*
G01X51741678Y39196345D02*
X51774595D01*
X51774595D02*
G03X51778405Y39200155I0J3810D01*
G01X51050392Y38210951D02*
G03X51050392I-35560J0D01*
G01X50876300Y37717809D02*
G03Y37811791I0J46991D01*
G01Y37717809D02*
X50526898D01*
X50526898D02*
X50383286D01*
Y37811791D02*
G03Y37717809I0J-46991D01*
G01Y37811791D02*
X50526898D01*
X50526898D02*
X50876300D01*
X50828711Y38018995D02*
G03X50859160Y38066947I33289J12505D01*
G01X50828711Y38018995D02*
G03X50824840Y38021453I-3567J-1340D01*
G01X50855289Y38069405D02*
G03X50824840Y38021453I-33289J-12505D01*
G01X50855289Y38069405D02*
G03X50859160Y38066947I3567J1340D01*
G01X50739160Y38021453D02*
G03X50708711Y38069405I2840J35447D01*
G01X50739160Y38021453D02*
G03X50735289Y38018995I-304J-3798D01*
G01X50668711D02*
G03X50735289I33289J12505D01*
G01X50668711D02*
G03X50664840Y38021453I-3567J-1340D01*
G01X50695289Y38069405D02*
G03X50664840Y38021453I-33289J-12505D01*
G01X50695289Y38069405D02*
G03X50699160Y38066947I3567J1340D01*
G01X50704840D02*
G03X50699160I-2840J-35447D01*
G01X50704840D02*
G03X50708711Y38069405I304J3798D01*
G01X50396013Y38187990D02*
G03X50370903Y38219876I10387J34010D01*
G01X50396013Y38187990D02*
G03X50391097Y38184119I-1113J-3644D01*
G01Y38179871D02*
G03Y38184119I-35497J2124D01*
G01Y38179871D02*
G03X50396013Y38176000I3803J-227D01*
G01Y38107980D02*
G03Y38176000I10387J34010D01*
G01Y38107980D02*
G03X50391097Y38104109I-1113J-3644D01*
G01X50365987Y38135995D02*
G03X50391097Y38104109I-10387J-34010D01*
G01X50365987Y38135995D02*
G03X50370903Y38139866I1113J3644D01*
G01Y38144114D02*
G03Y38139866I35497J-2124D01*
G01Y38144114D02*
G03X50365987Y38147985I-3803J227D01*
G01Y38216005D02*
G03Y38147985I-10387J-34010D01*
G01Y38216005D02*
G03X50370903Y38219876I1113J3644D01*
G01X50551435Y38964696D02*
G03X50551435I-35561J0D01*
G01Y39053596D02*
G03X50551435I-35561J0D01*
G01X50021591Y39388830D02*
X51778405D01*
X50021591Y39377400D02*
X51778405D01*
X50021591Y39365970D02*
X51778405D01*
X50021591Y39354540D02*
X51778405D01*
X50021591Y39343110D02*
X51778405D01*
X50021591Y39331680D02*
X51778405D01*
X50021591Y39320250D02*
X51778405D01*
X50021591Y39308820D02*
X51778405D01*
X50021591Y39297390D02*
X51778405D01*
X50021591Y39285960D02*
X51778405D01*
X50021591Y39274530D02*
X51778405D01*
X50021591Y39263100D02*
X51778405D01*
X50021591Y39251670D02*
X51778405D01*
X50021591Y39240240D02*
X51778405D01*
X50021591Y39228810D02*
X51778405D01*
X50021591Y39217380D02*
X51778405D01*
X50021591Y39205950D02*
X51778405D01*
X50021610Y39400260D02*
X51778386D01*
X50214753Y39194520D02*
X51709958D01*
X50548025Y39068790D02*
X51699216D01*
X50583476Y38943060D02*
X51698119D01*
X50605260Y38931630D02*
X51697118D01*
X50551235Y39057360D02*
X51696321D01*
X50249490Y39183090D02*
X51695640D01*
X50539447Y39080220D02*
X51693660D01*
X50549939Y38954490D02*
X51693502D01*
X50612194Y38920200D02*
X51693416D01*
X50262548Y39171660D02*
X51693406D01*
X50273978Y39160230D02*
X51693406D01*
X50285408Y39148800D02*
X51693406D01*
X50296838Y39137370D02*
X51693406D01*
X50308268Y39125940D02*
X51693406D01*
X50319698Y39114510D02*
X51693406D01*
X50331128Y39103080D02*
X51693406D01*
X50342558Y39091650D02*
X51693406D01*
X50550599Y39045930D02*
X51693406D01*
X50545873Y39034500D02*
X51693406D01*
X50534115Y39023070D02*
X51693406D01*
X50383551Y39011640D02*
X51693406D01*
X50517683Y39000210D02*
X51693406D01*
X50542037Y38988780D02*
X51693406D01*
X50549107Y38977350D02*
X51693406D01*
X50551413Y38965920D02*
X51693406D01*
X50614413Y38908770D02*
X51693406D01*
X50614952Y38897340D02*
X51673114D01*
X50910054Y38885910D02*
X51661114D01*
X50922496Y38874480D02*
X51649684D01*
X50929850Y38863050D02*
X51638254D01*
X50936794Y38851620D02*
X51626824D01*
X51033835Y38840190D02*
X51618172D01*
X51059360Y38828760D02*
X51615876D01*
X51069887Y38817330D02*
X51615876D01*
X51075842Y38805900D02*
X51615876D01*
X51078742Y38794470D02*
X51615876D01*
X51079088Y38783040D02*
X51615876D01*
X51078901Y38771610D02*
X51615876D01*
X51078901Y38760180D02*
X51615876D01*
X51078901Y38748750D02*
X51615876D01*
X51078901Y38737320D02*
X51615876D01*
X51078901Y38725890D02*
X51615876D01*
X51078901Y38714460D02*
X51615876D01*
X51078901Y38703030D02*
X51615876D01*
X51078901Y38691600D02*
X51615876D01*
X51078901Y38680170D02*
X51615876D01*
X51078901Y38668740D02*
X51615876D01*
X51165404Y38657310D02*
X51615876D01*
X51179271Y38645880D02*
X51615876D01*
X51186219Y38634450D02*
X51615876D01*
X51189464Y38623020D02*
X51615876D01*
X51189783Y38611590D02*
X51615876D01*
X51187239Y38600160D02*
X51615876D01*
X51181265Y38588730D02*
X51615876D01*
X51169647Y38577300D02*
X51615876D01*
X51078960Y38565870D02*
X51615876D01*
X51078901Y38554440D02*
X51615876D01*
X51082233Y38543010D02*
X51615876D01*
X51173682Y38531580D02*
X51615876D01*
X51183304Y38520150D02*
X51615876D01*
X51188233Y38508720D02*
X51615876D01*
X51189973Y38497290D02*
X51615876D01*
X51205491Y38485860D02*
X51615876D01*
X51216592Y38474430D02*
X51615876D01*
X51221045Y38463000D02*
X51615876D01*
X51221464Y38451570D02*
X51615876D01*
X51218008Y38440140D02*
X51615876D01*
X51211686Y38428710D02*
X51615876D01*
X51222323Y38417280D02*
X51615876D01*
X51233753Y38405850D02*
X51615876D01*
X51245183Y38394420D02*
X51615876D01*
X51256613Y38382990D02*
X51615876D01*
X51268043Y38371560D02*
X51615876D01*
X51275970Y38360130D02*
X51615876D01*
X51277772Y38348700D02*
X51615876D01*
X51277772Y38337270D02*
X51615876D01*
X51277772Y38325840D02*
X51615876D01*
X51277772Y38314410D02*
X51615876D01*
X51277772Y38302980D02*
X51615876D01*
X51277772Y38291550D02*
X51615876D01*
X51277772Y38280120D02*
X51615876D01*
X51283968Y38268690D02*
X51615876D01*
X51295398Y38257260D02*
X51615876D01*
X51306828Y38245830D02*
X51615876D01*
X51318258Y38234400D02*
X51615876D01*
X51329688Y38222970D02*
X51615876D01*
X51341118Y38211540D02*
X51615876D01*
X51352548Y38200110D02*
X51615876D01*
X51363978Y38188680D02*
X51615876D01*
X51375408Y38177250D02*
X51615876D01*
X51386838Y38165820D02*
X51615876D01*
X51398268Y38154390D02*
X51615447D01*
X51409698Y38142960D02*
X51604268D01*
X51421128Y38131530D02*
X51592838D01*
X51432558Y38120100D02*
X51581408D01*
X50544096Y38943060D02*
X50574256D01*
X50528959Y38931630D02*
X50552472D01*
X50491115Y38920200D02*
X50545538D01*
X50502545Y38908770D02*
X50543319D01*
X50513983Y38897340D02*
X50542780D01*
X50440166Y39000210D02*
X50514065D01*
X50479685Y38931630D02*
X50502789D01*
X50383541Y39023070D02*
X50497633D01*
X50353988Y39080220D02*
X50492301D01*
X50447680Y38988780D02*
X50489711D01*
X50468255Y38943060D02*
X50487652D01*
X50382586Y39034500D02*
X50485875D01*
X50365387Y39068790D02*
X50483723D01*
X50449403Y38977350D02*
X50482641D01*
X50456825Y38954490D02*
X50481809D01*
X50379547Y39045930D02*
X50481149D01*
X50374087Y39057360D02*
X50480513D01*
X50449403Y38965920D02*
X50480335D01*
X51671757Y38805900D02*
X51698047D01*
X51672017Y38817330D02*
X51697180D01*
X51671757Y38794470D02*
X51693494D01*
X51682992Y38828760D02*
X51693419D01*
X51671757Y38783040D02*
X51693406D01*
X51671757Y38771610D02*
X51693406D01*
X51671757Y38760180D02*
X51693406D01*
X51671757Y38748750D02*
X51693406D01*
X51671757Y38737320D02*
X51693406D01*
X51671757Y38725890D02*
X51693406D01*
X51671757Y38714460D02*
X51683918D01*
X51634106Y37159980D02*
X51701757D01*
X51563471Y37411440D02*
X51700745D01*
X51652045Y38051520D02*
X51700471D01*
X50023111Y37537170D02*
X51699487D01*
X50100780Y37925790D02*
X51699216D01*
X50101949Y37662900D02*
X51698403D01*
X50907361Y37800060D02*
X51698119D01*
X50102816Y37674330D02*
X51697180D01*
X50916800Y37788630D02*
X51697118D01*
X50103622Y37548600D02*
X51696730D01*
X50103675Y37914360D02*
X51696321D01*
X51552041Y37422870D02*
X51696041D01*
X51640615Y38040090D02*
X51695640D01*
X51677771Y37297140D02*
X51695456D01*
X51622676Y37171410D02*
X51694968D01*
X51645536Y37148550D02*
X51694936D01*
X51574901Y37400010D02*
X51694232D01*
X50021591Y37525740D02*
X51694002D01*
X51663475Y38062950D02*
X51693896D01*
X50106503Y37651470D02*
X51693849D01*
X50106591Y37640040D02*
X51693761D01*
X50106591Y37628610D02*
X51693761D01*
X50106591Y37617180D02*
X51693761D01*
X50106591Y37605750D02*
X51693761D01*
X50106591Y37594320D02*
X51693761D01*
X50106591Y37582890D02*
X51693761D01*
X50106591Y37571460D02*
X51693761D01*
X50106591Y37560030D02*
X51693761D01*
X50021591Y37514310D02*
X51693761D01*
X51482443Y37502880D02*
X51693761D01*
X51491973Y37491450D02*
X51693761D01*
X51495702Y37480020D02*
X51693761D01*
X51506321Y37468590D02*
X51693761D01*
X51517751Y37457160D02*
X51693761D01*
X51529181Y37445730D02*
X51693761D01*
X51540611Y37434300D02*
X51693761D01*
X51586331Y37388580D02*
X51693761D01*
X51597761Y37377150D02*
X51693761D01*
X51609191Y37365720D02*
X51693761D01*
X51620621Y37354290D02*
X51693761D01*
X51632051Y37342860D02*
X51693761D01*
X51643481Y37331430D02*
X51693761D01*
X51654911Y37320000D02*
X51693761D01*
X51666341Y37308570D02*
X51693761D01*
X51576956Y37217130D02*
X51693761D01*
X51588386Y37205700D02*
X51693761D01*
X51599816Y37194270D02*
X51693761D01*
X51611246Y37182840D02*
X51693761D01*
X51656966Y37137120D02*
X51693761D01*
X51565526Y37228560D02*
X51693758D01*
X50106336Y37937220D02*
X51693660D01*
X50881602Y37811490D02*
X51693502D01*
X50106577Y37685760D02*
X51693419D01*
X50921625Y37777200D02*
X51693416D01*
X50923281Y37765770D02*
X51693406D01*
X50922112Y37754340D02*
X51693406D01*
X50917881Y37742910D02*
X51693406D01*
X50909435Y37731480D02*
X51693406D01*
X50890638Y37720050D02*
X51693406D01*
X50106591Y37708620D02*
X51693406D01*
X50106591Y37697190D02*
X51693406D01*
X51674905Y38074380D02*
X51693405D01*
X51622966Y38028660D02*
X51693405D01*
X51360386Y38017230D02*
X51693405D01*
X50886578Y38005800D02*
X51693405D01*
X50106591Y37994370D02*
X51693405D01*
X50106591Y37982940D02*
X51693405D01*
X50106591Y37971510D02*
X51693405D01*
X50106591Y37960080D02*
X51693405D01*
X50106591Y37948650D02*
X51693405D01*
X50106591Y37902930D02*
X51693405D01*
X50106591Y37891500D02*
X51693405D01*
X50106591Y37880070D02*
X51693405D01*
X50106591Y37868640D02*
X51693405D01*
X50106591Y37857210D02*
X51693405D01*
X50106591Y37845780D02*
X51693405D01*
X50106591Y37834350D02*
X51693405D01*
X50106591Y37822920D02*
X51693405D01*
X51686335Y38085810D02*
X51692756D01*
X51668396Y37125690D02*
X51692749D01*
X51554096Y37239990D02*
X51655901D01*
X51542666Y37251420D02*
X51644463D01*
X51531236Y37262850D02*
X51633033D01*
X51519806Y37274280D02*
X51621603D01*
X51225178Y37285710D02*
X51610173D01*
X50387862Y37297140D02*
X51598743D01*
X50399292Y37308570D02*
X51587313D01*
X50410722Y37320000D02*
X51575883D01*
X50422152Y37331430D02*
X51564453D01*
X50433582Y37342860D02*
X51553023D01*
X50445012Y37354290D02*
X51541593D01*
X50456442Y37365720D02*
X51530163D01*
X50467872Y37377150D02*
X51518733D01*
X50479302Y37388580D02*
X51507303D01*
X50490732Y37400010D02*
X51495873D01*
X50502162Y37411440D02*
X51484443D01*
X50513592Y37422870D02*
X51473013D01*
X50535793Y37434300D02*
X51461583D01*
X50784611Y37445730D02*
X51440157D01*
X50787087Y37502880D02*
X51437715D01*
X51374766Y38028660D02*
X51405982D01*
X51380399Y38040090D02*
X51388333D01*
X50894572Y38017230D02*
X51332014D01*
X50897447Y38028660D02*
X51317634D01*
X50896507Y38040090D02*
X51312002D01*
X50891389Y38051520D02*
X51310679D01*
X50878596Y38062950D02*
X51301224D01*
X50434425Y38120100D02*
X51298209D01*
X50440387Y38131530D02*
X51296893D01*
X50852967Y38074380D02*
X51290284D01*
X50418824Y38108670D02*
X51289059D01*
X50842706Y38085810D02*
X51285901D01*
X50390843Y38097240D02*
X51285539D01*
X50441947Y38142960D02*
X51285463D01*
X50439728Y38154390D02*
X51274033D01*
X50432794Y38165820D02*
X51262603D01*
X51026182Y38177250D02*
X51251173D01*
X51042555Y38188680D02*
X51239743D01*
X51048699Y38200110D02*
X51228313D01*
X51148201Y38211540D02*
X51216883D01*
X51166431Y38222970D02*
X51205453D01*
X51174744Y38234400D02*
X51194214D01*
X51178892Y38245830D02*
X51188592D01*
X51179992Y38257260D02*
X51187875D01*
X50376432Y37285710D02*
X51187822D01*
X50365002Y37274280D02*
X51176334D01*
X50647736Y37239990D02*
X51174476D01*
X50353572Y37262850D02*
X51171718D01*
X50342142Y37251420D02*
X51171168D01*
X51050387Y38211540D02*
X51085055D01*
X51048299Y38222970D02*
X51072115D01*
X51041565Y38234400D02*
X51060685D01*
X51021758Y38245830D02*
X51049255D01*
X50411010Y38257260D02*
X51037825D01*
X50106591Y38268690D02*
X51026395D01*
X50106591Y38280120D02*
X51014965D01*
X50432794Y38245830D02*
X51007905D01*
X50105416Y38291550D02*
X51003535D01*
X50411010Y38177250D02*
X51003481D01*
X50098595Y38302980D02*
X50992105D01*
X50439728Y38234400D02*
X50988098D01*
X50418824Y38188680D02*
X50987108D01*
X50105384Y38314410D02*
X50981835D01*
X50441947Y38222970D02*
X50981364D01*
X50434425Y38200110D02*
X50980964D01*
X50440387Y38211540D02*
X50979276D01*
X50106591Y38325840D02*
X50975764D01*
X50106591Y38337270D02*
X50972777D01*
X50535142Y38725890D02*
X50972220D01*
X50535142Y38714460D02*
X50972220D01*
X50535142Y38703030D02*
X50972220D01*
X50535142Y38691600D02*
X50972220D01*
X50535142Y38680170D02*
X50972220D01*
X50535142Y38668740D02*
X50972220D01*
X50535142Y38657310D02*
X50972220D01*
X50535142Y38645880D02*
X50972220D01*
X50535142Y38634450D02*
X50972220D01*
X50535142Y38623020D02*
X50972220D01*
X50535142Y38611590D02*
X50972220D01*
X50535142Y38600160D02*
X50972220D01*
X50535142Y38588730D02*
X50972220D01*
X50535142Y38577300D02*
X50972220D01*
X50535142Y38565870D02*
X50972220D01*
X50535142Y38554440D02*
X50972220D01*
X50535142Y38543010D02*
X50972220D01*
X50535142Y38531580D02*
X50972220D01*
X50533939Y38520150D02*
X50972220D01*
X50530073Y38508720D02*
X50972220D01*
X50522798Y38497290D02*
X50972220D01*
X50511681Y38485860D02*
X50972220D01*
X50500251Y38474430D02*
X50972220D01*
X50488821Y38463000D02*
X50972220D01*
X50477391Y38451570D02*
X50972220D01*
X50465961Y38440140D02*
X50972220D01*
X50454531Y38428710D02*
X50972220D01*
X50443073Y38417280D02*
X50972220D01*
X50424540Y38405850D02*
X50972220D01*
X50398916Y38394420D02*
X50972220D01*
X50398263Y38382990D02*
X50972220D01*
X50393516Y38371560D02*
X50972220D01*
X50381706Y38360130D02*
X50972220D01*
X50106591Y38348700D02*
X50972220D01*
X50535142Y38737320D02*
X50907383D01*
X50535142Y38748750D02*
X50888823D01*
X50535142Y38760180D02*
X50877365D01*
X50535142Y38771610D02*
X50865935D01*
X50726578Y38005800D02*
X50837422D01*
X50734572Y38017230D02*
X50829428D01*
X50762706Y38085810D02*
X50801294D01*
X50763612Y38028660D02*
X50800388D01*
X50772967Y38074380D02*
X50791033D01*
X50773337Y38040090D02*
X50790663D01*
X50777042Y38062950D02*
X50786958D01*
X50777151Y38051520D02*
X50786849D01*
X50543246Y37445730D02*
X50743961D01*
X50021591Y37502880D02*
X50742327D01*
X50545795Y37457160D02*
X50733472D01*
X50525003Y37491450D02*
X50732807D01*
X50544551Y37468590D02*
X50729291D01*
X50539026Y37480020D02*
X50729095D01*
X50682706Y38085810D02*
X50721294D01*
X50692967Y38074380D02*
X50711033D01*
X50106591Y38005800D02*
X50677422D01*
X50106591Y38017230D02*
X50669428D01*
X50387269Y38085810D02*
X50641294D01*
X50106591Y38028660D02*
X50640388D01*
X50378017Y38074380D02*
X50631033D01*
X50104356Y38040090D02*
X50630663D01*
X50106100Y38062950D02*
X50626958D01*
X50099525Y38051520D02*
X50626849D01*
X50330712Y37239990D02*
X50626836D01*
X50319282Y37228560D02*
X50609798D01*
X50307852Y37217130D02*
X50603512D01*
X50296422Y37205700D02*
X50597473D01*
X50107521Y37194270D02*
X50586043D01*
X50106591Y37182840D02*
X50574613D01*
X50105384Y37171410D02*
X50563183D01*
X50098595Y37159980D02*
X50551753D01*
X50105416Y37148550D02*
X50540323D01*
X50106591Y37137120D02*
X50528893D01*
X50107603Y37125690D02*
X50517463D01*
X50021591Y37491450D02*
X50495569D01*
X50021591Y37480020D02*
X50481546D01*
X50021591Y37468590D02*
X50476021D01*
X50021591Y37457160D02*
X50468854D01*
X50021591Y37445730D02*
X50457424D01*
X50021591Y37434300D02*
X50445994D01*
X50021591Y37422870D02*
X50434564D01*
X50099590Y37411440D02*
X50423134D01*
X50106120Y37400010D02*
X50411704D01*
X50106591Y38257260D02*
X50401790D01*
X50391936Y38177250D02*
X50401790D01*
X50106591Y37388580D02*
X50400274D01*
X50106591Y38851620D02*
X50389641D01*
X50106591Y37377150D02*
X50388844D01*
X50106591Y38245830D02*
X50380006D01*
X50106591Y38863050D02*
X50379434D01*
X50106494Y37811490D02*
X50377984D01*
X50106591Y37365720D02*
X50377414D01*
X50106591Y38234400D02*
X50373072D01*
X50106591Y38222970D02*
X50370853D01*
X50106591Y38142960D02*
X50370853D01*
X50106591Y37720050D02*
X50368948D01*
X50106591Y37354290D02*
X50365984D01*
X50106120Y38543010D02*
X50356251D01*
X50106591Y38611590D02*
X50356208D01*
X50103622Y38691600D02*
X50355657D01*
X50106591Y38771610D02*
X50355648D01*
X50106591Y38623020D02*
X50355000D01*
X50106591Y37342860D02*
X50354554D01*
X50106591Y38703030D02*
X50354428D01*
X50106591Y38783040D02*
X50354423D01*
X50098829Y38428710D02*
X50352608D01*
X50101877Y37800060D02*
X50352225D01*
X50106591Y37731480D02*
X50350151D01*
X50104896Y38440140D02*
X50346753D01*
X50106591Y38360130D02*
X50345394D01*
X50106591Y38463000D02*
X50344504D01*
X50106591Y38451570D02*
X50344202D01*
X50106591Y37331430D02*
X50343124D01*
X50102878Y37788630D02*
X50342786D01*
X50106591Y38840190D02*
X50342231D01*
X50106591Y38760180D02*
X50342231D01*
X50100865Y38680170D02*
X50342217D01*
X50106591Y37742910D02*
X50341705D01*
X50106591Y38634450D02*
X50340013D01*
X50106503Y38794470D02*
X50340001D01*
X50106591Y38714460D02*
X50340001D01*
X50105810Y38417280D02*
X50339920D01*
X50099607Y38554440D02*
X50339918D01*
X50106591Y38600160D02*
X50339415D01*
X50106580Y37777200D02*
X50337961D01*
X50106591Y37754340D02*
X50337474D01*
X50106591Y37765770D02*
X50336305D01*
X50106591Y38211540D02*
X50335811D01*
X50106591Y38131530D02*
X50335811D01*
X50106577Y38828760D02*
X50335106D01*
X50106591Y38748750D02*
X50335106D01*
X50106350Y38668740D02*
X50335100D01*
X50106591Y38645880D02*
X50334210D01*
X50101949Y38805900D02*
X50334205D01*
X50106591Y38725890D02*
X50334205D01*
X50106591Y38371560D02*
X50333584D01*
X50104311Y38565870D02*
X50333333D01*
X50106591Y38154390D02*
X50333183D01*
X50106591Y38074380D02*
X50333183D01*
X50106591Y38588730D02*
X50333129D01*
X50102816Y38817330D02*
X50332764D01*
X50106591Y38737320D02*
X50332764D01*
X50106591Y38657310D02*
X50332764D01*
X50106591Y38531580D02*
X50331713D01*
X50106591Y37320000D02*
X50331694D01*
X50106591Y38405850D02*
X50331375D01*
X50106591Y38577300D02*
X50331344D01*
X50106591Y38382990D02*
X50328837D01*
X50106591Y38394420D02*
X50328184D01*
X50106591Y38474430D02*
X50327343D01*
X50106591Y38200110D02*
X50325000D01*
X50106591Y38120100D02*
X50325000D01*
X50104934Y38165820D02*
X50323931D01*
X50106591Y38085810D02*
X50323931D01*
X50105784Y38188680D02*
X50320674D01*
X50106591Y38108670D02*
X50320674D01*
X50098797Y38177250D02*
X50320357D01*
X50106591Y38097240D02*
X50320357D01*
X50106591Y38520150D02*
X50320305D01*
X50106591Y37308570D02*
X50320264D01*
X50106591Y38485860D02*
X50318534D01*
X50106591Y38508720D02*
X50315721D01*
X50106591Y38497290D02*
X50315198D01*
X50104896Y37297140D02*
X50308834D01*
X50098829Y37285710D02*
X50297404D01*
X50105810Y37274280D02*
X50285974D01*
X50106591Y37262850D02*
X50274544D01*
X50106591Y39011640D02*
X50233914D01*
X50106591Y39023070D02*
X50224347D01*
X50106591Y39034500D02*
X50212917D01*
X50106591Y38874480D02*
X50210493D01*
X50106591Y39045930D02*
X50201487D01*
X50106591Y39000210D02*
X50198425D01*
X50106591Y38885910D02*
X50194425D01*
X50106591Y38988780D02*
X50190911D01*
X50103731Y39057360D02*
X50190057D01*
X50106591Y38897340D02*
X50189665D01*
X50106591Y38977350D02*
X50189187D01*
X50106591Y38965920D02*
X50189187D01*
X50106494Y38954490D02*
X50189187D01*
X50101877Y38943060D02*
X50189187D01*
X50102878Y38931630D02*
X50189187D01*
X50106580Y38920200D02*
X50189187D01*
X50106591Y38908770D02*
X50189187D01*
X50645539Y37171410D02*
X50936519D01*
X50630780Y37159980D02*
X50928339D01*
X50619350Y37148550D02*
X50916909D01*
X50607920Y37137120D02*
X50905479D01*
X50596490Y37125690D02*
X50894049D01*
X50585060Y37114260D02*
X50882619D01*
X50573630Y37102830D02*
X50871189D01*
X50562200Y37091400D02*
X50859759D01*
X50550770Y37079970D02*
X50848329D01*
X50109817Y37068540D02*
X50836899D01*
X50106591Y37057110D02*
X50825469D01*
X50105784Y37045680D02*
X50814039D01*
X50098797Y37034250D02*
X50802609D01*
X50105117Y37022820D02*
X50791179D01*
X50021591Y36897090D02*
X51778405D01*
X50021591Y36885660D02*
X51778405D01*
X50881636Y37034250D02*
X51701555D01*
X50099490Y36908520D02*
X51700862D01*
X50870206Y37022820D02*
X51695418D01*
X50893066Y37045680D02*
X51694568D01*
X50106100Y36919950D02*
X51694252D01*
X50904496Y37057110D02*
X51693761D01*
X50858776Y37011390D02*
X51693761D01*
X50847346Y36999960D02*
X51693761D01*
X50835916Y36988530D02*
X51693761D01*
X50824486Y36977100D02*
X51693761D01*
X50802975Y36965670D02*
X51693761D01*
X50106591Y36954240D02*
X51693761D01*
X50106591Y36942810D02*
X51693761D01*
X50106591Y36931380D02*
X51693761D01*
X50915926Y37068540D02*
X51690535D01*
X50927356Y37079970D02*
X51635088D01*
X50938786Y37091400D02*
X51623658D01*
X50950216Y37102830D02*
X51612228D01*
X50961646Y37114260D02*
X51600798D01*
X50973076Y37125690D02*
X51589368D01*
X50995242Y37137120D02*
X51577938D01*
X51003508Y37148550D02*
X51566508D01*
X51006542Y37159980D02*
X51555078D01*
X51341753Y37171410D02*
X51543648D01*
X51360485Y37182840D02*
X51532218D01*
X51367070Y37194270D02*
X51520788D01*
X51369059Y37205700D02*
X51509358D01*
X51367274Y37217130D02*
X51497928D01*
X51005747Y37171410D02*
X51325247D01*
X50000000Y40276098D02*
X50639071D01*
X50000000D02*
X50127000Y40301498D01*
Y40250698*
X50000000Y40276098*
X51799996D02*
X51160925D01*
X51799996D02*
X51672996Y40250698D01*
Y40301498*
X51799996Y40276098*
X50000000Y40050800D02*
Y40326898D01*
X51799996Y40050800D02*
Y40326898D01*
X52180336Y36857766D02*
Y38305058D01*
Y36857766D02*
X52154936Y36984766D01*
X52205736*
X52180336Y36857766*
Y40000000D02*
Y38552708D01*
Y40000000D02*
X52205736Y39873000D01*
X52154936*
X52180336Y40000000*
X51859788Y36857766D02*
X52231136D01*
X51850796Y40000000D02*
X52231136D01*
G54D117*
X50762000Y38476000D03*
G54D120*
X51602232Y39382272D03*
X51489964Y39385574D03*
X51544320Y39379986D03*
G54D121*
X50000000Y39255526D03*
Y37223526D03*
Y38747526D03*
X51799996Y38620526D03*
X50000000Y37096526D03*
Y38620526D03*
X51799996Y38493526D03*
X50000000Y36969526D03*
Y38493526D03*
X51799996Y38366526D03*
X51800352Y36969526D03*
X51799996Y39128526D03*
X50000000Y38366526D03*
X51799996Y38239526D03*
X51800352Y37096526D03*
X50000000Y38239526D03*
X51799996Y37858526D03*
X51800352Y37223526D03*
X50000000Y38112526D03*
X51799996D03*
Y39255526D03*
X50000000Y37985526D03*
Y39128526D03*
X51799996Y37985526D03*
X50000000Y37858526D03*
X51799996Y37731526D03*
X50000000D03*
X51800352Y37604526D03*
X50000000D03*
X51800352Y37477526D03*
X50000000Y37350526D03*
X51800352D03*
X51799996Y39001526D03*
X50000000Y37477526D03*
Y39001526D03*
X51799996Y38874526D03*
X50000000D03*
X51799996Y38747526D03*
G54D164*
X50000000Y39128526D02*
X50212287D01*
X50317500Y39023313*
Y38936248*
G54D182*
X50876300Y38836680D02*
X50486629D01*
X50486629D02*
X50481801D01*
X50486629Y38840271D02*
Y38836680D01*
X50486629D02*
X50481801D01*
X50390652Y38936248D02*
X50486629Y38840271D01*
X50486629D02*
Y38836680D01*
X50486629D02*
X50876300D01*
X50486629Y38840271D02*
X50390652Y38936248D01*
X50486629Y38840271*
X50486629D02*
Y38836680D01*
G74*
X0Y0D02*
M02*
