*
*
G04 PADS 9.5 Build Number: 522968 generated Gerber (RS-274-X) file*
G04 PC Version=2.1*
*
%IN "ESP32-WROVER-V4.pcb"*%
*
%MOMM*%
*
%FSLAX35Y35*%
*
*
*
*
G04 PC Standard Apertures*
*
*
G04 Thermal Relief Aperture macro.*
%AMTER*
1,1,$1,0,0*
1,0,$1-$2,0,0*
21,0,$3,$4,0,0,45*
21,0,$3,$4,0,0,135*
%
*
*
G04 Annular Aperture macro.*
%AMANN*
1,1,$1,0,0*
1,0,$2,0,0*
%
*
*
G04 Odd Aperture macro.*
%AMODD*
1,1,$1,0,0*
1,0,$1-0.005,0,0*
%
*
*
G04 PC Custom Aperture Macros*
*
*
*
*
*
*
G04 PC Aperture Table*
*
%ADD010C,0.0254*%
%ADD044C,0.254*%
%ADD109C,0.127*%
*
*
*
*
G04 PC Circuitry*
G04 Layer Name ESP32-WROVER-V4.pcb - circuitry*
%LPD*%
*
G54D10*
G01X52397708Y38421989D02*
X52396616Y38429633D01*
X52393472Y38435922*
X52388339Y38439001*
X52380871Y38440068*
X52375444Y38438983*
X52371187Y38437918*
X52371187D02*
X52367055Y38434820D01*
X52363781Y38429364*
X52363781D02*
X52361556Y38429449D01*
X52359381Y38433800*
X52356309Y38436872*
X52350990Y38439000*
X52345714Y38440055*
X52341539Y38439011*
X52336192Y38436872*
X52329572Y38430253*
X52329572D02*
X52327404Y38431151D01*
X52327404D02*
Y38438952D01*
X52327404D02*
X52319739D01*
Y38382528*
X52327404*
X52327404D02*
Y38418678D01*
X52327404D02*
X52327442Y38418986D01*
X52328576Y38423521*
X52328833Y38424026*
X52334502Y38430830*
X52335129Y38431238*
X52343067Y38433506*
X52343724Y38433517*
X52343724D02*
X52348259Y38432383D01*
X52348656Y38432208*
X52352058Y38429940*
X52352058D02*
X52352489Y38429451D01*
X52354757Y38424915*
X52354891Y38424347*
Y38382528*
X52362556*
Y38415276*
X52362569Y38415455*
X52362569D02*
X52363703Y38423393D01*
X52363944Y38423975*
X52367346Y38428511*
X52367600Y38428765*
X52372136Y38432167*
X52372649Y38432396*
X52378318Y38433530*
X52378816*
X52384486Y38432396*
X52385253Y38431913*
X52388655Y38427377*
X52388844Y38427017*
X52388844D02*
X52389977Y38423615D01*
X52389977D02*
X52390043Y38423213D01*
Y38382528*
X52397708*
Y38421989*
X52302458D02*
X52301366Y38429633D01*
X52298222Y38435922*
X52293089Y38439001*
X52285621Y38440068*
X52280194Y38438983*
X52275937Y38437918*
X52275937D02*
X52271805Y38434820D01*
X52268531Y38429364*
X52268531D02*
X52266306Y38429449D01*
X52264131Y38433800*
X52261059Y38436872*
X52255740Y38439000*
X52250464Y38440055*
X52246289Y38439011*
X52240942Y38436872*
X52234322Y38430253*
X52234322D02*
X52232154Y38431151D01*
X52232154D02*
Y38438952D01*
X52232154D02*
X52224489D01*
Y38382528*
X52232154*
X52232154D02*
Y38418678D01*
X52232154D02*
X52232192Y38418986D01*
X52233326Y38423521*
X52233583Y38424026*
X52239252Y38430830*
X52239879Y38431238*
X52247817Y38433506*
X52248474Y38433517*
X52248474D02*
X52253009Y38432383D01*
X52253406Y38432208*
X52256808Y38429940*
X52256808D02*
X52257239Y38429451D01*
X52259507Y38424915*
X52259641Y38424347*
Y38382528*
X52267306*
Y38415276*
X52267319Y38415455*
X52267319D02*
X52268453Y38423393D01*
X52268694Y38423975*
X52272096Y38428511*
X52272350Y38428765*
X52276886Y38432167*
X52277399Y38432396*
X52283068Y38433530*
X52283566*
X52289236Y38432396*
X52290003Y38431913*
X52293405Y38427377*
X52293594Y38427017*
X52293594D02*
X52294727Y38423615D01*
X52294727D02*
X52294793Y38423213D01*
Y38382528*
X52302458*
Y38421989*
X52209476Y38409470D02*
X52200541D01*
X52200541D02*
X52199271Y38410740D01*
X52199271D02*
Y38460497D01*
X52199271D02*
X52193235D01*
X52155319Y38410314*
X52155319D02*
Y38401805D01*
X52155319D02*
X52190335D01*
X52191605Y38400535*
Y38382528*
X52199271*
X52199271D02*
Y38400535D01*
X52199271D02*
X52200541Y38401805D01*
X52200541D02*
X52209476D01*
Y38409470*
X52191605Y38442490D02*
Y38410740D01*
X52190335Y38409470*
X52166523*
X52165507Y38411502*
X52189319Y38443252*
X52191605Y38442490*
X52140306Y38390193D02*
X52132641D01*
Y38382528*
X52140306*
Y38390193*
X52099485Y38461631D02*
X52094670D01*
X52091638Y38456578*
X52091638D02*
X52091447Y38456333D01*
X52091447D02*
X52085778Y38450664D01*
X52085584Y38450505*
X52078781Y38445969*
X52078706Y38445923*
X52071409Y38441753*
Y38434340*
X52080808Y38439039*
X52089787Y38445774*
X52089787D02*
X52091819Y38444758D01*
X52091819D02*
Y38382528D01*
X52091819D02*
X52099485D01*
Y38461631*
X52050703Y38405137D02*
X52049641Y38412575D01*
X52046452Y38417890*
X52042238Y38422103*
X52042238D02*
X52035719Y38424276D01*
X52035359Y38426497*
X52044070Y38433030*
X52046159Y38441387*
X52044042Y38451971*
X52035493Y38458382*
X52030088Y38460544*
X52030088D02*
X52024735Y38461615D01*
X52016165Y38460544*
X52009822Y38456315*
X52005509Y38449845*
X52002731Y38442438*
X52010354Y38441591*
X52012263Y38446364*
X52012306Y38446460*
X52014574Y38450996*
X52015142Y38451564*
X52019678Y38453831*
X52019678D02*
X52019938Y38453928D01*
X52024474Y38455061*
X52024474D02*
X52025031Y38455075D01*
X52030700Y38453941*
X52031156Y38453752*
X52034558Y38451484*
X52034558D02*
X52034989Y38450996D01*
X52037257Y38446460*
X52037353Y38446200*
X52038487Y38441664*
X52038500Y38441107*
X52037366Y38435438*
X52037366D02*
X52037019Y38434789D01*
X52033617Y38431387*
X52033481Y38431269*
X52028945Y38427867*
X52028183Y38427613*
X52021367*
X52020583Y38421344*
X52025707Y38422198*
X52026124*
X52032928Y38421064*
X52033481Y38420828*
X52038017Y38417426*
X52038271Y38417172*
X52041673Y38412636*
X52041909Y38412083*
X52043043Y38405279*
X52043061Y38405071*
X52043061D02*
X52043036Y38404821D01*
X52043036D02*
X52041902Y38399152D01*
X52041746Y38398747*
X52041746D02*
X52038344Y38393078D01*
X52038017Y38392715*
X52033481Y38389313*
X52032928Y38389077*
X52026124Y38387943*
X52025666Y38387950*
X52025666D02*
X52019997Y38389084D01*
X52019678Y38389193*
X52019678D02*
X52015142Y38391461D01*
X52014694Y38391835*
X52011292Y38396371*
X52011104Y38396731*
X52009160Y38402561*
X52001420Y38401701*
X52003277Y38394273*
X52008644Y38386758*
X52008644D02*
X52016120Y38382487D01*
X52024735Y38381410*
X52035670Y38383597*
X52043151Y38387872*
X52048545Y38396502*
X52050703Y38405137*
X51118813Y40269204D02*
X51117721Y40276848D01*
X51114577Y40283137*
X51109444Y40286216*
X51109444D02*
X51101976Y40287283D01*
X51096549Y40286198*
X51092292Y40285133*
X51092292D02*
X51088160Y40282035D01*
X51084887Y40276579*
X51084887D02*
X51082662Y40276664D01*
X51080486Y40281015*
X51077414Y40284087*
X51072095Y40286215*
X51066820Y40287270*
X51066820D02*
X51062644Y40286226D01*
X51057297Y40284087*
X51050678Y40277468*
X51048510Y40278366*
Y40286167*
X51040844*
Y40229743*
X51048510*
Y40265893*
X51048548Y40266201*
X51049682Y40270736*
X51049682D02*
X51049938Y40271241D01*
X51055608Y40278045*
X51056234Y40278453*
X51064172Y40280721*
X51064829Y40280732*
X51069364Y40279598*
X51069364D02*
X51069761Y40279423D01*
X51073163Y40277155*
X51073594Y40276666*
X51075862Y40272130*
X51075996Y40271562*
Y40229743*
X51083661*
X51083661D02*
Y40262491D01*
X51083661D02*
X51083674Y40262670D01*
X51083674D02*
X51084808Y40270608D01*
X51085049Y40271190*
X51088451Y40275726*
X51088705Y40275980*
X51093241Y40279382*
X51093754Y40279611*
X51099423Y40280745*
X51099423D02*
X51099922D01*
X51105591Y40279611*
X51106358Y40279128*
X51109760Y40274592*
X51109949Y40274232*
X51111083Y40270830*
X51111148Y40270428*
Y40229743*
X51118813*
Y40269204*
X51023563D02*
X51022471Y40276848D01*
X51019327Y40283137*
X51014194Y40286216*
X51014194D02*
X51006726Y40287283D01*
X51001299Y40286198*
X50997042Y40285133*
X50997042D02*
X50992910Y40282035D01*
X50989637Y40276579*
X50989637D02*
X50987412Y40276664D01*
X50985236Y40281015*
X50982164Y40284087*
X50976845Y40286215*
X50971570Y40287270*
X50971570D02*
X50967394Y40286226D01*
X50962047Y40284087*
X50955428Y40277468*
X50953260Y40278366*
Y40286167*
X50945594*
Y40229743*
X50953260*
Y40265893*
X50953298Y40266201*
X50954432Y40270736*
X50954432D02*
X50954688Y40271241D01*
X50960358Y40278045*
X50960984Y40278453*
X50968922Y40280721*
X50969579Y40280732*
X50974114Y40279598*
X50974114D02*
X50974511Y40279423D01*
X50977913Y40277155*
X50978344Y40276666*
X50980612Y40272130*
X50980746Y40271562*
Y40229743*
X50988411*
X50988411D02*
Y40262491D01*
X50988411D02*
X50988424Y40262670D01*
X50988424D02*
X50989558Y40270608D01*
X50989799Y40271190*
X50993201Y40275726*
X50993455Y40275980*
X50997991Y40279382*
X50998504Y40279611*
X51004173Y40280745*
X51004173D02*
X51004672D01*
X51010341Y40279611*
X51011108Y40279128*
X51014510Y40274592*
X51014699Y40274232*
X51015833Y40270830*
X51015898Y40270428*
Y40229743*
X51023563*
Y40269204*
X50930581Y40279322D02*
X50928374Y40287045D01*
X50928374D02*
X50923918Y40299299D01*
X50923918D02*
X50920739Y40303539D01*
X50916578Y40306659*
X50916578D02*
X50905735Y40308828D01*
X50898217Y40307754*
X50891847Y40304569*
X50887593Y40299252*
X50884306Y40291582*
X50884306D02*
X50882083Y40281576D01*
X50882083D02*
X50880960Y40268108D01*
Y40258111*
X50883185Y40249213*
X50883185D02*
X50885401Y40241456D01*
X50888581Y40236157*
X50896093Y40230791*
X50905820Y40228629*
X50913325Y40229701*
X50919694Y40232886*
X50923948Y40238203*
X50927235Y40245873*
X50929460Y40255883*
X50930581Y40268218*
Y40279322*
X50922916Y40277232D02*
Y40259089D01*
X50922898Y40258880*
X50922898D02*
X50921765Y40252077D01*
X50921765D02*
X50921757Y40252036D01*
X50921757D02*
X50920623Y40246367D01*
X50920514Y40246048*
X50918246Y40241512*
X50917903Y40241088*
X50917903D02*
X50912234Y40236553D01*
X50911689Y40236299*
X50911689D02*
X50906020Y40235165D01*
X50905522*
X50899852Y40236299*
X50899308Y40236553*
X50893638Y40241088*
X50893638D02*
X50893296Y40241512D01*
X50893296D02*
X50891028Y40246048D01*
X50890918Y40246367*
X50889784Y40252036*
X50889784D02*
X50889777Y40252077D01*
X50888643Y40258880*
X50888626Y40259089*
Y40277232*
X50888638Y40277412*
X50888638D02*
X50889772Y40285349D01*
X50889784Y40285418*
X50889784D02*
X50890918Y40291088D01*
X50891028Y40291407*
X50893296Y40295943*
X50893296D02*
X50893638Y40296366D01*
X50893638D02*
X50899308Y40300902D01*
X50899852Y40301156*
X50905522Y40302290*
X50905980Y40302297*
X50905980D02*
X50912783Y40301163D01*
X50913566Y40300704*
X50918102Y40295034*
X50918167Y40294945*
X50920435Y40291544*
X50920435D02*
X50920623Y40291088D01*
X50921757Y40285418*
X50921757D02*
X50921769Y40285349D01*
X50922903Y40277412*
X50922903D02*
X50922916Y40277232D01*
X50861411Y40237408D02*
X50853746D01*
Y40229743*
X50861411*
X50861411D02*
Y40237408D01*
X50835308Y40252320D02*
X50834237Y40258745D01*
X50832117Y40264045*
X50827911Y40268251*
X50821292Y40271560*
X50821207Y40273785*
X50826742Y40277107*
X50829888Y40280252*
X50832001Y40284479*
X50833044Y40288649*
X50831985Y40297116*
X50826672Y40303492*
X50820279Y40307754*
X50810521Y40308838*
X50800763Y40307754*
X50794370Y40303492*
X50789048Y40297106*
X50789048D02*
X50787996Y40289741D01*
X50789054Y40284451*
X50791154Y40280252*
X50794299Y40277107*
X50799835Y40273785*
X50799583Y40271491*
X50793064Y40269318*
X50788952Y40265207*
X50786811Y40258782*
X50785734Y40252320*
X50787906Y40242543*
X50792188Y40235050*
X50800743Y40229703*
X50810521Y40228617*
X50820298Y40229703*
X50828853Y40235050*
X50833135Y40242543*
X50833135D02*
X50835308Y40252320D01*
X50825360Y40288263D02*
X50824226Y40283728D01*
X50824226D02*
X50824051Y40283331D01*
X50821783Y40279929*
X50821294Y40279498*
X50816758Y40277230*
X50816439Y40277121*
X50816439D02*
X50810770Y40275987D01*
X50810272*
X50804602Y40277121*
X50804602D02*
X50804283Y40277230D01*
X50799747Y40279498*
X50799259Y40279929*
X50796991Y40283331*
X50796802Y40283786*
X50796802D02*
X50795668Y40289456D01*
X50795682Y40290013*
X50795682D02*
X50796815Y40294549D01*
X50796815D02*
X50796991Y40294945D01*
X50799259Y40298347*
X50799747Y40298779*
X50804283Y40301046*
X50804283D02*
X50804602Y40301156D01*
X50810272Y40302290*
X50810770*
X50816439Y40301156*
X50816439D02*
X50816758Y40301046D01*
X50816758D02*
X50821294Y40298779D01*
X50821862Y40298211*
X50824130Y40293675*
X50824226Y40293415*
X50825360Y40288879*
Y40288263*
X50827666Y40252286D02*
X50827648Y40252077D01*
X50827648D02*
X50826515Y40245273D01*
X50826515D02*
X50826278Y40244720D01*
X50822876Y40240184*
X50822622Y40239930*
X50818086Y40236528*
X50817533Y40236292*
X50810730Y40235158*
X50810730D02*
X50810521Y40235141D01*
X50810521D02*
X50805985D01*
X50805985D02*
X50805281Y40235354D01*
X50805281D02*
X50801944Y40237578D01*
X50797480Y40239810*
X50796991Y40240242*
X50794723Y40243644*
X50794723D02*
X50794522Y40244168D01*
X50793388Y40252106*
X50793388D02*
X50793376Y40252286D01*
X50793376D02*
X50793400Y40252535D01*
X50794534Y40258204*
X50794691Y40258609*
X50794691D02*
X50798092Y40264278D01*
X50798092D02*
X50798419Y40264641D01*
X50798419D02*
X50802955Y40268043D01*
X50803508Y40268279*
X50810312Y40269413*
X50810730*
X50810730D02*
X50817533Y40268279D01*
X50818086Y40268043*
X50822622Y40264641*
X50822949Y40264278*
X50826351Y40258609*
X50826351D02*
X50826507Y40258204D01*
X50827641Y40252535*
X50827666Y40252286*
X50757090Y40308846D02*
X50752276D01*
X50752276D02*
X50749244Y40303793D01*
X50749053Y40303548*
X50743383Y40297879*
X50743189Y40297720*
X50743189D02*
X50736386Y40293184D01*
X50736312Y40293138*
X50736312D02*
X50729014Y40288968D01*
Y40281555*
X50738413Y40286254*
X50747393Y40292989*
X50749425Y40291973*
Y40229743*
X50757090*
Y40308846*
X50731420Y40282758D02*
Y40290343D01*
X50733960Y40284028D02*
Y40291794D01*
X50736500Y40285298D02*
Y40293260D01*
X50739040Y40286724D02*
Y40294954D01*
X50741580Y40288629D02*
Y40296647D01*
X50744120Y40290534D02*
Y40298616D01*
X50746660Y40292439D02*
Y40301156D01*
X50749200Y40292694D02*
Y40303725D01*
X50751740Y40229743D02*
Y40307953D01*
X50754280Y40229743D02*
Y40308846D01*
X50756820Y40229743D02*
Y40308846D01*
X50787300Y40245272D02*
Y40260250D01*
X50789840Y40239159D02*
Y40266095D01*
Y40282880D02*
Y40298056D01*
X50792380Y40234930D02*
Y40268634D01*
Y40279026D02*
Y40301104D01*
X50794920Y40233343D02*
Y40243348D01*
Y40258991D02*
Y40269937D01*
Y40276734D02*
Y40303859D01*
X50797460Y40231755D02*
Y40239820D01*
Y40263224D02*
Y40270784D01*
Y40275210D02*
Y40282627D01*
Y40295649D02*
Y40305552D01*
X50800000Y40230168D02*
Y40238550D01*
Y40265826D02*
Y40271725D01*
Y40273667D02*
Y40279371D01*
Y40298905D02*
Y40307245D01*
X50802540Y40229504D02*
Y40237181D01*
Y40267731D02*
Y40278101D01*
Y40300175D02*
Y40307951D01*
X50805080Y40229221D02*
Y40235487D01*
Y40268541D02*
Y40277025D01*
Y40301251D02*
Y40308234D01*
X50807620Y40228939D02*
Y40235141D01*
Y40268965D02*
Y40276517D01*
Y40301759D02*
Y40308516D01*
X50810160Y40228657D02*
Y40235141D01*
Y40269388D02*
Y40276009D01*
Y40302267D02*
Y40308798D01*
X50812700Y40228859D02*
Y40235486D01*
Y40269085D02*
Y40276373D01*
Y40301904D02*
Y40308596D01*
X50815240Y40229141D02*
Y40235910D01*
Y40268662D02*
Y40276881D01*
Y40301396D02*
Y40308314D01*
X50817780Y40229423D02*
Y40236359D01*
Y40268212D02*
Y40277741D01*
Y40300536D02*
Y40308031D01*
X50820320Y40229717D02*
Y40238204D01*
Y40266367D02*
Y40279011D01*
Y40299266D02*
Y40307726D01*
X50822860Y40231304D02*
Y40240163D01*
Y40264407D02*
Y40270776D01*
Y40274777D02*
Y40281545D01*
Y40296215D02*
Y40306033D01*
X50825400Y40232892D02*
Y40243550D01*
Y40260193D02*
Y40269506D01*
Y40276301D02*
Y40304340D01*
X50827940Y40234479D02*
Y40268222D01*
Y40278304D02*
Y40301970D01*
X50830480Y40237897D02*
Y40265682D01*
Y40281437D02*
Y40298922D01*
X50833020Y40242342D02*
Y40261787D01*
Y40288554D02*
Y40288838D01*
X50855880Y40229743D02*
Y40237408D01*
X50858420Y40229743D02*
Y40237408D01*
X50860960Y40229743D02*
Y40237408D01*
X50881280Y40256833D02*
Y40271943D01*
X50883820Y40246990D02*
Y40289394D01*
X50886360Y40239858D02*
Y40296374D01*
X50888900Y40235929D02*
Y40257338D01*
Y40279242D02*
Y40300885D01*
X50891440Y40234114D02*
Y40245223D01*
Y40292232D02*
Y40304060D01*
X50893980Y40232300D02*
Y40240815D01*
Y40296640D02*
Y40305635D01*
X50896520Y40230696D02*
Y40238783D01*
Y40298672D02*
Y40306905D01*
X50899060Y40230131D02*
Y40236751D01*
Y40300704D02*
Y40307874D01*
X50901600Y40229567D02*
Y40235949D01*
Y40301505D02*
Y40308237D01*
X50904140Y40229002D02*
Y40235442D01*
Y40302013D02*
Y40308600D01*
X50906680Y40228752D02*
Y40235297D01*
Y40302180D02*
Y40308639D01*
X50909220Y40229115D02*
Y40235805D01*
Y40301757D02*
Y40308131D01*
X50911760Y40229478D02*
Y40236315D01*
Y40301334D02*
Y40307623D01*
X50914300Y40230189D02*
Y40238206D01*
Y40299786D02*
Y40307115D01*
X50916840Y40231459D02*
Y40240238D01*
Y40296611D02*
Y40306463D01*
X50919380Y40232729D02*
Y40243780D01*
Y40293125D02*
Y40304558D01*
X50921920Y40235668D02*
Y40253010D01*
Y40284292D02*
Y40301964D01*
X50924460Y40239398D02*
Y40297810D01*
X50927000Y40245324D02*
Y40290825D01*
X50929540Y40256767D02*
Y40282966D01*
X50947320Y40229743D02*
Y40286167D01*
X50949860Y40229743D02*
Y40286167D01*
X50952400Y40229743D02*
Y40286167D01*
X50954940Y40271544D02*
Y40277164D01*
X50957480Y40274592D02*
Y40279520D01*
X50960020Y40277640D02*
Y40282060D01*
X50962560Y40278903D02*
Y40284292D01*
X50965100Y40279629D02*
Y40285308D01*
X50967640Y40280355D02*
Y40286287D01*
X50970180Y40280582D02*
Y40286922D01*
X50972720Y40279947D02*
Y40287040D01*
X50975260Y40278923D02*
Y40286532D01*
X50977800Y40277230D02*
Y40285833D01*
X50980340Y40272674D02*
Y40284817D01*
X50982880Y40229743D02*
Y40283371D01*
X50985420Y40229743D02*
Y40280647D01*
X50987960Y40229743D02*
Y40276106D01*
X50990500Y40272124D02*
Y40278018D01*
X50993040Y40275511D02*
Y40282132D01*
X50995580Y40277574D02*
Y40284037D01*
X50998120Y40279467D02*
Y40285403D01*
X51000660Y40280042D02*
Y40286038D01*
X51003200Y40280550D02*
Y40286578D01*
X51005740Y40280531D02*
Y40287086D01*
X51008280Y40280023D02*
Y40287061D01*
X51010820Y40279406D02*
Y40286698D01*
X51013360Y40276125D02*
Y40286335D01*
X51015900Y40229743D02*
Y40285193D01*
X51018440Y40229743D02*
Y40283669D01*
X51020980Y40229743D02*
Y40279831D01*
X51023520Y40229743D02*
Y40269507D01*
X51041300Y40229743D02*
Y40286167D01*
X51043840Y40229743D02*
Y40286167D01*
X51046380Y40229743D02*
Y40286167D01*
X51048920Y40267690D02*
Y40277431D01*
X51051460Y40273068D02*
Y40278250D01*
X51054000Y40276116D02*
Y40280790D01*
X51056540Y40278540D02*
Y40283330D01*
X51059080Y40279266D02*
Y40284800D01*
X51061620Y40279992D02*
Y40285816D01*
X51064160Y40280718D02*
Y40286605D01*
X51066700Y40280264D02*
Y40287240D01*
X51069240Y40279629D02*
Y40286786D01*
X51071780Y40278077D02*
Y40286278D01*
X51074320Y40275214D02*
Y40285325D01*
X51076860Y40229743D02*
Y40284309D01*
X51079400Y40229743D02*
Y40282101D01*
X51081940Y40229743D02*
Y40278107D01*
X51084480Y40268311D02*
Y40276161D01*
X51087020Y40273818D02*
Y40280134D01*
X51089560Y40276621D02*
Y40283085D01*
X51092100Y40278526D02*
Y40284990D01*
X51094640Y40279788D02*
Y40285721D01*
X51097180Y40280296D02*
Y40286324D01*
X51099720Y40280769D02*
Y40286832D01*
X51102260Y40280277D02*
Y40287243D01*
X51104800Y40279769D02*
Y40286880D01*
X51107340Y40277819D02*
Y40286517D01*
X51109880Y40274398D02*
Y40285955D01*
X51112420Y40229743D02*
Y40284431D01*
X51114960Y40229743D02*
Y40282371D01*
X51117500Y40229743D02*
Y40277291D01*
X52001420Y38401700D02*
Y38401701D01*
X52003960Y38393317D02*
Y38401983D01*
Y38442302D02*
Y38445715D01*
X52006500Y38389761D02*
Y38402265D01*
Y38442019D02*
Y38451332D01*
X52009040Y38386532D02*
Y38402548D01*
Y38441737D02*
Y38455142D01*
X52011580Y38385081D02*
Y38395988D01*
Y38444656D02*
Y38457487D01*
X52014120Y38383629D02*
Y38392601D01*
Y38450087D02*
Y38459180D01*
X52016660Y38382419D02*
Y38390702D01*
Y38452323D02*
Y38460606D01*
X52019200Y38382102D02*
Y38389432D01*
Y38453593D02*
Y38460923D01*
X52021740Y38381784D02*
Y38388735D01*
Y38421537D02*
Y38427613D01*
Y38454378D02*
Y38461241D01*
X52024280Y38381467D02*
Y38388227D01*
Y38421960D02*
Y38427613D01*
Y38455013D02*
Y38461558D01*
X52026820Y38381827D02*
Y38388059D01*
Y38422082D02*
Y38427613D01*
Y38454717D02*
Y38461198D01*
X52029360Y38382335D02*
Y38388482D01*
Y38421659D02*
Y38428178D01*
Y38454209D02*
Y38460690D01*
X52031900Y38382843D02*
Y38388905D01*
Y38421236D02*
Y38430083D01*
Y38453256D02*
Y38459820D01*
X52034440Y38383351D02*
Y38390033D01*
Y38420108D02*
Y38432210D01*
Y38451563D02*
Y38458804D01*
X52036980Y38384346D02*
Y38391938D01*
Y38418203D02*
Y38423856D01*
Y38427713D02*
Y38434750D01*
Y38447013D02*
Y38457267D01*
X52039520Y38385797D02*
Y38395038D01*
Y38415506D02*
Y38423009D01*
Y38429618D02*
Y38455362D01*
X52042060Y38387248D02*
Y38399942D01*
Y38411179D02*
Y38422163D01*
Y38431523D02*
Y38453457D01*
X52044600Y38390190D02*
Y38419742D01*
Y38435152D02*
Y38449181D01*
X52047140Y38394254D02*
Y38416743D01*
X52049680Y38401043D02*
Y38412301D01*
X52072540Y38434905D02*
Y38442400D01*
X52075080Y38436175D02*
Y38443851D01*
X52077620Y38437445D02*
Y38445302D01*
X52080160Y38438715D02*
Y38446889D01*
X52082700Y38440458D02*
Y38448582D01*
X52085240Y38442363D02*
Y38450275D01*
X52087780Y38444268D02*
Y38452666D01*
X52090320Y38446007D02*
Y38455206D01*
X52092860Y38382528D02*
Y38458614D01*
X52095400Y38382528D02*
Y38461631D01*
X52097940Y38382528D02*
Y38461631D01*
X52133500Y38382528D02*
Y38390193D01*
X52136040Y38382528D02*
Y38390193D01*
X52138580Y38382528D02*
Y38390193D01*
X52156360Y38401805D02*
Y38411692D01*
X52158900Y38401805D02*
Y38415053D01*
X52161440Y38401805D02*
Y38418415D01*
X52163980Y38401805D02*
Y38421777D01*
X52166520Y38401805D02*
Y38409470D01*
Y38412853D02*
Y38425139D01*
X52169060Y38401805D02*
Y38409470D01*
Y38416240D02*
Y38428500D01*
X52171600Y38401805D02*
Y38409470D01*
Y38419627D02*
Y38431862D01*
X52174140Y38401805D02*
Y38409470D01*
Y38423013D02*
Y38435224D01*
X52176680Y38401805D02*
Y38409470D01*
Y38426400D02*
Y38438586D01*
X52179220Y38401805D02*
Y38409470D01*
Y38429787D02*
Y38441947D01*
X52181760Y38401805D02*
Y38409470D01*
Y38433173D02*
Y38445309D01*
X52184300Y38401805D02*
Y38409470D01*
Y38436560D02*
Y38448671D01*
X52186840Y38401805D02*
Y38409470D01*
Y38439947D02*
Y38452033D01*
X52189380Y38401805D02*
Y38409470D01*
Y38443327D02*
Y38455394D01*
X52191920Y38382528D02*
Y38458756D01*
X52194460Y38382528D02*
Y38460497D01*
X52197000Y38382528D02*
Y38460497D01*
X52199540Y38401317D02*
Y38409958D01*
X52202080Y38401805D02*
Y38409470D01*
X52204620Y38401805D02*
Y38409470D01*
X52207160Y38401805D02*
Y38409470D01*
X52224940Y38382528D02*
Y38438952D01*
X52227480Y38382528D02*
Y38438952D01*
X52230020Y38382528D02*
Y38438952D01*
X52232560Y38420456D02*
Y38430221D01*
X52235100Y38425847D02*
Y38431030D01*
X52237640Y38428895D02*
Y38433570D01*
X52240180Y38431324D02*
Y38436110D01*
X52242720Y38432050D02*
Y38437583D01*
X52245260Y38432775D02*
Y38438599D01*
X52247800Y38433501D02*
Y38439389D01*
X52250340Y38433050D02*
Y38440024D01*
X52252880Y38432415D02*
Y38439572D01*
X52255420Y38430865D02*
Y38439064D01*
X52257960Y38428009D02*
Y38438112D01*
X52260500Y38382528D02*
Y38437096D01*
X52263040Y38382528D02*
Y38434891D01*
X52265580Y38382528D02*
Y38430902D01*
X52268120Y38421062D02*
Y38428943D01*
X52270660Y38426596D02*
Y38432911D01*
X52273200Y38429403D02*
Y38435866D01*
X52275740Y38431308D02*
Y38437771D01*
X52278280Y38432572D02*
Y38438504D01*
X52280820Y38433080D02*
Y38439108D01*
X52283360Y38433554D02*
Y38439616D01*
X52285900Y38433063D02*
Y38440028D01*
X52288440Y38432555D02*
Y38439665D01*
X52290980Y38430610D02*
Y38439303D01*
X52293520Y38427192D02*
Y38438743D01*
X52296060Y38382528D02*
Y38437219D01*
X52298600Y38382528D02*
Y38435165D01*
X52301140Y38382528D02*
Y38430085D01*
X52321460Y38382528D02*
Y38438952D01*
X52324000Y38382528D02*
Y38438952D01*
X52326540Y38382528D02*
Y38438952D01*
X52329080Y38424323D02*
Y38429947D01*
X52331620Y38427371D02*
Y38432300D01*
X52334160Y38430419D02*
Y38434840D01*
X52336700Y38431687D02*
Y38437075D01*
X52339240Y38432413D02*
Y38438091D01*
X52341780Y38433138D02*
Y38439071D01*
X52344320Y38433368D02*
Y38439706D01*
X52346860Y38432733D02*
Y38439826D01*
X52349400Y38431711D02*
Y38439318D01*
X52351940Y38430018D02*
Y38438620D01*
X52354480Y38425469D02*
Y38437604D01*
X52357020Y38382528D02*
Y38436161D01*
X52359560Y38382528D02*
Y38433442D01*
X52362100Y38382528D02*
Y38428894D01*
X52364640Y38424903D02*
Y38430795D01*
X52367180Y38428290D02*
Y38434914D01*
X52369720Y38430355D02*
Y38436818D01*
X52372260Y38432249D02*
Y38438187D01*
X52374800Y38432826D02*
Y38438822D01*
X52377340Y38433334D02*
Y38439362D01*
X52379880Y38433317D02*
Y38439870D01*
X52382420Y38432809D02*
Y38439847D01*
X52384960Y38432195D02*
Y38439484D01*
X52387500Y38428917D02*
Y38439121D01*
X52390040Y38423294D02*
Y38437981D01*
X52392580Y38382528D02*
Y38436457D01*
X52395120Y38382528D02*
Y38432625D01*
X52397660Y38382528D02*
Y38422325D01*
*
G04 PC Custom Flashes*
G04 Layer Name ESP32-WROVER-V4.pcb - flashes*
%LPD*%
*
*
G04 PC Circuitry*
G04 Layer Name ESP32-WROVER-V4.pcb - circuitry*
%LPD*%
*
G54D10*
X50000000Y40000000D02*
X50000067D01*
X51799996D02*
X51800063D01*
X51808988Y36857766D02*
X51809055D01*
X51799996Y40000000D02*
X51800063D01*
G54D44*
X49898400Y39153926D02*
X50101600Y39357126D01*
X49898400D02*
X50101600Y39153926D01*
X49898400Y37121926D02*
X50101600Y37325126D01*
X49898400D02*
X50101600Y37121926D01*
X49898400Y38645926D02*
X50101600Y38849126D01*
X49898400D02*
X50101600Y38645926D01*
X51698396Y38518926D02*
X51901596Y38722126D01*
X51698396D02*
X51901596Y38518926D01*
X49898400Y36994926D02*
X50101600Y37198126D01*
X49898400D02*
X50101600Y36994926D01*
X50000000Y38518926D02*
X50101600Y38620526D01*
X50000000Y38722126*
X49898400Y38620526*
X50000000Y38518926*
Y38620526D02*
Y38722126D01*
X51698396Y38391926D02*
X51901596Y38595126D01*
X51698396D02*
X51901596Y38391926D01*
X49898400Y36867926D02*
X50101600Y37071126D01*
X49898400D02*
X50101600Y36867926D01*
X49898400Y38391926D02*
X50101600Y38595126D01*
X49898400D02*
X50101600Y38391926D01*
X51698396Y38264926D02*
X51901596Y38468126D01*
X51698396D02*
X51901596Y38264926D01*
X51698752Y36867926D02*
X51901952Y37071126D01*
X51698752D02*
X51901952Y36867926D01*
X51698396Y39026926D02*
X51901596Y39230126D01*
X51698396D02*
X51901596Y39026926D01*
X49898400Y38264926D02*
X50101600Y38468126D01*
X49898400D02*
X50101600Y38264926D01*
X51698396Y38137926D02*
X51901596Y38341126D01*
X51698396D02*
X51901596Y38137926D01*
X51698752Y36994926D02*
X51901952Y37198126D01*
X51698752D02*
X51901952Y36994926D01*
X49898400Y38137926D02*
X50101600Y38341126D01*
X49898400D02*
X50101600Y38137926D01*
X51698396Y37756926D02*
X51901596Y37960126D01*
X51698396D02*
X51901596Y37756926D01*
X51698752Y37121926D02*
X51901952Y37325126D01*
X51698752D02*
X51901952Y37121926D01*
X49898400Y38010926D02*
X50101600Y38214126D01*
X49898400D02*
X50101600Y38010926D01*
X51698396D02*
X51901596Y38214126D01*
X51698396D02*
X51901596Y38010926D01*
X51698396Y39153926D02*
X51901596Y39357126D01*
X51698396D02*
X51901596Y39153926D01*
X49898400Y37883926D02*
X50101600Y38087126D01*
X49898400D02*
X50101600Y37883926D01*
X49898400Y39026926D02*
X50101600Y39230126D01*
Y39026926*
X49898400Y39230126*
Y39026926*
X51698396Y37883926D02*
X51901596Y38087126D01*
X51698396D02*
X51901596Y37883926D01*
X49898400Y37756926D02*
X50101600Y37960126D01*
X49898400D02*
X50101600Y37756926D01*
X51698396Y37629926D02*
X51901596Y37833126D01*
X51698396D02*
X51901596Y37629926D01*
X49898400D02*
X50101600Y37833126D01*
X49898400D02*
X50101600Y37629926D01*
X51698752Y37502926D02*
X51901952Y37706126D01*
X51698752D02*
X51901952Y37502926D01*
X49898400D02*
X50101600Y37706126D01*
X49898400D02*
X50101600Y37502926D01*
X51698752Y37375926D02*
X51901952Y37579126D01*
X51698752D02*
X51901952Y37375926D01*
X49898400Y37248926D02*
X50101600Y37452126D01*
X49898400D02*
X50101600Y37248926D01*
X51698752D02*
X51901952Y37452126D01*
X51698752D02*
X51901952Y37248926D01*
X51698396Y38899926D02*
X51901596Y39103126D01*
X51698396D02*
X51901596Y38899926D01*
X49898400Y37375926D02*
X50101600Y37579126D01*
X49898400D02*
X50101600Y37375926D01*
X49898400Y38899926D02*
X50101600Y39103126D01*
X49898400D02*
X50101600Y38899926D01*
X51698396Y38772926D02*
X51901596Y38976126D01*
X51698396D02*
X51901596Y38772926D01*
X49898400D02*
X50101600Y38976126D01*
X49898400D02*
X50101600Y38772926D01*
X51698396Y38645926D02*
X51901596Y38849126D01*
X51698396D02*
X51901596Y38645926D01*
X50031591Y37161563D02*
X50234791D01*
X50133191Y37059963D02*
Y37263163D01*
X50030633Y37042877D02*
X50233833D01*
X50132233Y36941277D02*
Y37144477D01*
X50029676Y36921319D02*
X50232876D01*
X50131276Y36819719D02*
Y37022919D01*
X50547494Y36906961D02*
X50750694D01*
X50649094Y36805361D02*
Y37008561D01*
X50444122Y36906961D02*
X50647322D01*
X50545722Y36805361D02*
Y37008561D01*
X50103377Y36918447D02*
X50306577D01*
X50204977Y36816847D02*
Y37020047D01*
X50348407Y36904090D02*
X50551607D01*
X50450007Y36802490D02*
Y37005690D01*
X50200212Y37162258D02*
X50403412D01*
X50301812Y37060658D02*
Y37263858D01*
X50178992Y36917490D02*
X50382192D01*
X50280592Y36815890D02*
Y37019090D01*
X50266092Y36912704D02*
X50469292D01*
X50367692Y36811104D02*
Y37014304D01*
X51074517Y36911404D02*
X51277717D01*
X51176117Y36809804D02*
Y37013004D01*
X50886057Y37111998D02*
X51089257D01*
X50987657Y37010398D02*
Y37213598D01*
X50843980Y37057900D02*
X51047180D01*
X50945580Y36956300D02*
Y37159500D01*
X50786877Y37002299D02*
X50990077D01*
X50888477Y36900699D02*
Y37103899D01*
X50849991Y36973747D02*
X51053191D01*
X50951591Y36872147D02*
Y37075347D01*
X50623895Y36911404D02*
X50827095D01*
X50725495Y36809804D02*
Y37013004D01*
X50902587Y37023337D02*
X51105787D01*
X51004187Y36921737D02*
Y37124937D01*
X50923523Y36901967D02*
X51126723D01*
X51025123Y36800367D02*
Y37003567D01*
X50791385Y37152571D02*
X50994585D01*
X50892985Y37050971D02*
Y37254171D01*
X50994302Y36911404D02*
X51197502D01*
X51095902Y36809804D02*
Y37013004D01*
X50609503Y37158502D02*
X50812703D01*
X50711103Y37056902D02*
Y37260102D01*
X50718266Y36911404D02*
X50921466D01*
X50819866Y36809804D02*
Y37013004D01*
X50798146Y36927795D02*
X51001346D01*
X50899746Y36826195D02*
Y37029395D01*
X50869533Y37163261D02*
X51072733D01*
X50971133Y37061661D02*
Y37264861D01*
X50727288Y37097580D02*
X50930488D01*
X50828888Y36995980D02*
Y37199180D01*
X50733719Y37155810D02*
X50936919D01*
X50835319Y37054210D02*
Y37257410D01*
X51433568Y36984875D02*
X51636768D01*
X51535168Y36883275D02*
Y37086475D01*
X51378864Y36909044D02*
X51582064D01*
X51480464Y36807444D02*
Y37010644D01*
X51475594Y36909044D02*
X51678794D01*
X51577194Y36807444D02*
Y37010644D01*
X51551091Y36911404D02*
X51754291D01*
X51652691Y36809804D02*
Y37013004D01*
X51180685Y36911404D02*
X51383885D01*
X51282285Y36809804D02*
Y37013004D01*
X51301910Y36975139D02*
X51505110D01*
X51403510Y36873539D02*
Y37076739D01*
X51263259Y36913763D02*
X51466459D01*
X51364859Y36812163D02*
Y37015363D01*
X50032548Y37338636D02*
X50235748D01*
X50134148Y37237036D02*
Y37440236D01*
X50031591Y37279292D02*
X50234791D01*
X50133191Y37177692D02*
Y37380892D01*
X50030384Y37419676D02*
X50233584D01*
X50131984Y37318076D02*
Y37521276D01*
X50027945Y37536729D02*
X50231145D01*
X50129545Y37435129D02*
Y37638329D01*
X50031319Y37590322D02*
X50234519D01*
X50132919Y37488722D02*
Y37691922D01*
X50030362Y37666894D02*
X50233562D01*
X50131962Y37565294D02*
Y37768494D01*
X50535686Y37206000D02*
X50738886D01*
X50637286Y37104400D02*
Y37307600D01*
X50408686Y37459078D02*
X50611886D01*
X50510286Y37357478D02*
Y37560678D01*
X50111034Y37394150D02*
X50314234D01*
X50212634Y37292550D02*
Y37495750D01*
X50167506Y37433393D02*
X50370706D01*
X50269106Y37331793D02*
Y37534993D01*
X50203877Y37502308D02*
X50407077D01*
X50305477Y37400708D02*
Y37603908D01*
X50203877Y37571223D02*
X50407077D01*
X50305477Y37469623D02*
Y37672823D01*
X50201006Y37644923D02*
X50404206D01*
X50302606Y37543323D02*
Y37746523D01*
X50134634Y37518439D02*
X50337834D01*
X50236234Y37416839D02*
Y37620039D01*
X50409693Y37380985D02*
X50612893D01*
X50511293Y37279385D02*
Y37482585D01*
X50342070Y37191642D02*
X50545270D01*
X50443670Y37090042D02*
Y37293242D01*
X50351087Y37256259D02*
X50554287D01*
X50452687Y37154659D02*
Y37357859D01*
X50089520Y37466619D02*
X50292720D01*
X50191120Y37365019D02*
Y37568219D01*
X50393163Y37203664D02*
X50596363D01*
X50494763Y37102064D02*
Y37305264D01*
X50513381Y37460630D02*
X50716581D01*
X50614981Y37359030D02*
Y37562230D01*
X50393163Y37307352D02*
X50596363D01*
X50494763Y37205752D02*
Y37408952D01*
X50481824Y37344920D02*
X50685024D01*
X50583424Y37243320D02*
Y37446520D01*
X50447261Y37274292D02*
X50650461D01*
X50548861Y37172692D02*
Y37375892D01*
X50543435Y37298335D02*
X50746635D01*
X50645035Y37196735D02*
Y37399935D01*
X50544938Y37364455D02*
X50748138D01*
X50646538Y37262855D02*
Y37466055D01*
X50083005Y37595107D02*
X50286205D01*
X50184605Y37493507D02*
Y37696707D01*
X50098319Y37654451D02*
X50301519D01*
X50199919Y37552851D02*
Y37756051D01*
X50662686Y37474910D02*
X50865886D01*
X50764286Y37373310D02*
Y37576510D01*
X50954864Y37419336D02*
X51158064D01*
X51056464Y37317736D02*
Y37520936D01*
X51027608Y37418379D02*
X51230808D01*
X51129208Y37316779D02*
Y37519979D01*
X50933438Y37305468D02*
X51136638D01*
X51035038Y37203868D02*
Y37407068D01*
X50741795Y37528252D02*
X50944995D01*
X50843395Y37426652D02*
Y37629852D01*
X50993739Y37305468D02*
X51196939D01*
X51095339Y37203868D02*
Y37407068D01*
X50730891Y37616509D02*
X50934091D01*
X50832491Y37514909D02*
Y37718109D01*
X51055953Y37304511D02*
X51259153D01*
X51157553Y37202911D02*
Y37406111D01*
X50783535Y37576308D02*
X50986735D01*
X50885135Y37474708D02*
Y37677908D01*
X51054996Y37367683D02*
X51258196D01*
X51156596Y37266083D02*
Y37469283D01*
X50783535Y37410721D02*
X50986735D01*
X50885135Y37309121D02*
Y37512321D01*
X50986081Y37365769D02*
X51189281D01*
X51087681Y37264169D02*
Y37467369D01*
X50921952Y37369598D02*
X51125152D01*
X51023552Y37267998D02*
Y37471198D01*
X50818434Y37302844D02*
X51021634D01*
X50920034Y37201244D02*
Y37404444D01*
X50816931Y37365958D02*
X51020131D01*
X50918531Y37264358D02*
Y37467558D01*
X50856866Y37661528D02*
X51060066D01*
X50958466Y37559928D02*
Y37763128D01*
X50771850Y37331395D02*
X50975050D01*
X50873450Y37229795D02*
Y37432995D01*
X50949710Y37568685D02*
X51152910D01*
X51051310Y37467085D02*
Y37670285D01*
X50711741Y37368963D02*
X50914941D01*
X50813341Y37267363D02*
Y37470563D01*
X50947795Y37520827D02*
X51150995D01*
X51049395Y37419227D02*
Y37622427D01*
X50711741Y37293827D02*
X50914941D01*
X50813341Y37192227D02*
Y37395427D01*
X51016710Y37524656D02*
X51219910D01*
X51118310Y37423056D02*
Y37626256D01*
X50674173Y37331395D02*
X50877373D01*
X50775773Y37229795D02*
Y37432995D01*
X51045425Y37562942D02*
X51248625D01*
X51147025Y37461342D02*
Y37664542D01*
X51007139Y37606971D02*
X51210339D01*
X51108739Y37505371D02*
Y37708571D01*
X51231900Y37206000D02*
X51435100D01*
X51333500Y37104400D02*
Y37307600D01*
X51104900Y37255450D02*
X51308100D01*
X51206500Y37153850D02*
Y37357050D01*
X51358900Y37474898D02*
X51562100D01*
X51460500Y37373298D02*
Y37576498D01*
X51315274Y37209908D02*
X51518474D01*
X51416874Y37108308D02*
Y37311508D01*
X51569352Y37364150D02*
X51772552D01*
X51670952Y37262550D02*
Y37465750D01*
X51529039Y37410152D02*
X51732239D01*
X51630639Y37308552D02*
Y37511752D01*
X51348823Y37406071D02*
X51552023D01*
X51450423Y37304471D02*
Y37507671D01*
X51477353Y37448438D02*
X51680553D01*
X51578953Y37346838D02*
Y37550038D01*
X51404301Y37347545D02*
X51607501D01*
X51505901Y37245945D02*
Y37449145D01*
X51567438Y37545052D02*
X51770638D01*
X51669038Y37443452D02*
Y37646652D01*
X51432367Y37488639D02*
X51635567D01*
X51533967Y37387039D02*
Y37590239D01*
X51459780Y37294505D02*
X51662980D01*
X51561380Y37192905D02*
Y37396105D01*
X51566480Y37175592D02*
X51769680D01*
X51668080Y37073992D02*
Y37277192D01*
X51395186Y37194003D02*
X51598386D01*
X51496786Y37092403D02*
Y37295603D01*
X51522573Y37231711D02*
X51725773D01*
X51624173Y37130111D02*
Y37333311D01*
X51186657Y37406681D02*
X51389857D01*
X51288257Y37305081D02*
Y37508281D01*
X51261644Y37342667D02*
X51464844D01*
X51363244Y37241067D02*
Y37444267D01*
X51303885Y37300748D02*
X51507085D01*
X51405485Y37199148D02*
Y37402348D01*
X51216830Y37299823D02*
X51420030D01*
X51318430Y37198223D02*
Y37401423D01*
X51171748Y37343402D02*
X51374948D01*
X51273348Y37241802D02*
Y37445002D01*
X51225846Y37374959D02*
X51429046D01*
X51327446Y37273359D02*
Y37476559D01*
X51152625Y37561027D02*
X51355825D01*
X51254225Y37459427D02*
Y37662627D01*
X51186126Y37521784D02*
X51389326D01*
X51287726Y37420184D02*
Y37623384D01*
X50025576Y37791323D02*
X50228776D01*
X50127176Y37689723D02*
Y37892923D01*
X50024619Y37919581D02*
X50227819D01*
X50126219Y37817981D02*
Y38021181D01*
X50560400Y38056900D02*
X50763600D01*
X50662000Y37955300D02*
Y38158500D01*
X50204063Y38056935D02*
X50407263D01*
X50305663Y37955335D02*
Y38158535D01*
X50204835Y37712881D02*
X50408035D01*
X50306435Y37611281D02*
Y37814481D01*
X50290633Y38049009D02*
X50493833D01*
X50392233Y37947409D02*
Y38150609D01*
X50201006Y37777967D02*
X50404206D01*
X50302606Y37676367D02*
Y37879567D01*
X50242471Y38012430D02*
X50445671D01*
X50344071Y37910830D02*
Y38114030D01*
X50201624Y37854531D02*
X50404824D01*
X50303224Y37752931D02*
Y37956131D01*
X50294291Y37851483D02*
X50497491D01*
X50395891Y37749883D02*
Y37953083D01*
X50240032Y37813685D02*
X50443232D01*
X50341632Y37712085D02*
Y37915285D01*
X50100234Y37721451D02*
X50303434D01*
X50201834Y37619851D02*
Y37823051D01*
X50425298Y37663200D02*
X50628498D01*
Y37866400*
X50425298*
Y37663200*
X50526898Y37764800D02*
Y37866400D01*
X50281686Y37663200D02*
X50484886D01*
Y37866400*
X50281686*
Y37663200*
X50383286Y37764800D02*
Y37866400D01*
X50304800Y38141990D02*
X50508000D01*
X50406400Y38040390D02*
Y38243590D01*
X50254000Y38101985D02*
X50457200D01*
X50355600Y38000385D02*
Y38203585D01*
X50774700Y37663200D02*
X50977900D01*
Y37866400*
X50774700*
Y37663200*
X50876300Y37764800D02*
Y37866400D01*
X50600400Y38031500D02*
X50803600D01*
X50702000Y37929900D02*
Y38133100D01*
X50720400Y38056900D02*
X50923600D01*
X50822000Y37955300D02*
Y38158500D01*
X50760400Y38031500D02*
X50963600D01*
X50862000Y37929900D02*
Y38133100D01*
X50706469Y37902021D02*
X50909669D01*
X50808069Y37800421D02*
Y38003621D01*
X50907007Y37687338D02*
X51110207D01*
X51008607Y37585738D02*
Y37788938D01*
X50640400Y38056900D02*
X50843600D01*
X50742000Y37955300D02*
Y38158500D01*
X50711346Y37831911D02*
X50914546D01*
X50812946Y37730311D02*
Y37933511D01*
X50768653Y37848981D02*
X50971853D01*
X50870253Y37747381D02*
Y37950581D01*
X50957486Y38174547D02*
X51160686D01*
X51059086Y38072947D02*
Y38276147D01*
X51455432Y38122876D02*
X51658632D01*
X51557032Y38021276D02*
Y38224476D01*
X51514469Y37883708D02*
X51717669D01*
X51616069Y37782108D02*
Y37985308D01*
X51401582Y38126232D02*
X51604782D01*
X51503182Y38024632D02*
Y38227832D01*
X51514256Y37973339D02*
X51717456D01*
X51615856Y37871739D02*
Y38074939D01*
X51500213Y38175547D02*
X51703413D01*
X51601813Y38073947D02*
Y38277147D01*
X51510640Y37812879D02*
X51713840D01*
X51612240Y37711279D02*
Y37914479D01*
X51426198Y37981953D02*
X51629398D01*
X51527798Y37880353D02*
Y38083553D01*
X51452254Y37851165D02*
X51655454D01*
X51553854Y37749565D02*
Y37952765D01*
X51351102Y38125455D02*
X51554302D01*
X51452702Y38023855D02*
Y38227055D01*
X51459911Y37921994D02*
X51663111D01*
X51561511Y37820394D02*
Y38023594D01*
X51566289Y37914090D02*
X51769489D01*
X51667889Y37812490D02*
Y38015690D01*
X51445554Y37787993D02*
X51648754D01*
X51547154Y37686393D02*
Y37889593D01*
X51563609Y37856125D02*
X51766809D01*
X51665209Y37754525D02*
Y37957725D01*
X51562652Y37788168D02*
X51765852D01*
X51664252Y37686568D02*
Y37889768D01*
X51296513Y38177173D02*
X51499713D01*
X51398113Y38075573D02*
Y38278773D01*
X51570727Y37977168D02*
X51773927D01*
X51672327Y37875568D02*
Y38078768D01*
X51296025Y37982911D02*
X51499225D01*
X51397625Y37881311D02*
Y38084511D01*
X51244600Y38049839D02*
X51447800D01*
X51346200Y37948239D02*
Y38151439D01*
X51219200Y38092638D02*
X51422400D01*
X51320800Y37991038D02*
Y38194238D01*
X50074778Y38603635D02*
X50277978D01*
X50176378Y38502035D02*
Y38705235D01*
X50289382Y38354410D02*
X50492582D01*
X50289382Y38557610*
X50492582*
X50289382Y38354410*
X50161131Y38305328D02*
X50364331D01*
X50262731Y38203728D02*
Y38406928D01*
X50109830Y38651717D02*
X50313030D01*
X50211430Y38550117D02*
Y38753317D01*
X50585138Y38398702D02*
X50788338D01*
X50686738Y38297102D02*
Y38500302D01*
X50585138Y38627302D02*
X50788338D01*
X50686738Y38525702D02*
Y38728902D01*
X50585138Y38551102D02*
X50788338D01*
X50686738Y38449502D02*
Y38652702D01*
X50585138Y38474902D02*
X50788338D01*
X50686738Y38373302D02*
Y38576502D01*
X50585138Y38322502D02*
X50788338D01*
X50686738Y38220902D02*
Y38424102D01*
X50508938Y38474902D02*
X50712138D01*
X50610538Y38373302D02*
Y38576502D01*
X50508938Y38398702D02*
X50712138D01*
X50610538Y38297102D02*
Y38500302D01*
X50508938Y38627302D02*
X50712138D01*
X50610538Y38525702D02*
Y38728902D01*
X50508938Y38551102D02*
X50712138D01*
X50610538Y38449502D02*
Y38652702D01*
X50508938Y38322502D02*
X50712138D01*
X50610538Y38220902D02*
Y38424102D01*
X50304800Y38222000D02*
X50508000D01*
X50406400Y38120400D02*
Y38323600D01*
X50254000Y38181995D02*
X50457200D01*
X50355600Y38080395D02*
Y38283595D01*
X50261950Y38390707D02*
X50465150D01*
X50363550Y38289107D02*
Y38492307D01*
X50248920Y38501400D02*
X50452120D01*
X50350520Y38399800D02*
Y38603000D01*
X50265303Y38577600D02*
X50468503D01*
X50366903Y38476000D02*
Y38679200D01*
X50292100Y38616000D02*
X50495300D01*
X50393700Y38514400D02*
Y38717600D01*
X50266700Y38656000D02*
X50469900D01*
X50368300Y38554400D02*
Y38757600D01*
X50292100Y38536000D02*
X50495300D01*
X50393700Y38434400D02*
Y38637600D01*
X51041400Y38394390D02*
X51244600D01*
X51041400Y38597590*
X51244600*
X51041400Y38394390*
X51031418Y38154411D02*
X51234618D01*
X51031418Y38357611*
X51234618*
X51031418Y38154411*
X51092946Y38212347D02*
X51296146D01*
X51194546Y38110747D02*
Y38313947D01*
X50661338Y38474902D02*
X50864538D01*
X50762938Y38373302D02*
Y38576502D01*
X50737538Y38551102D02*
X50940738D01*
X50839138Y38449502D02*
Y38652702D01*
X50661338Y38551102D02*
X50864538D01*
X50762938Y38449502D02*
Y38652702D01*
X50661338Y38398702D02*
X50864538D01*
X50762938Y38297102D02*
Y38500302D01*
X50737538Y38322502D02*
X50940738D01*
X50839138Y38220902D02*
Y38424102D01*
X50661338Y38322502D02*
X50864538D01*
X50762938Y38220902D02*
Y38424102D01*
X50813738Y38551102D02*
X51016938D01*
X50915338Y38449502D02*
Y38652702D01*
X50737538Y38474902D02*
X50940738D01*
X50839138Y38373302D02*
Y38576502D01*
X50813738Y38474902D02*
X51016938D01*
X50915338Y38373302D02*
Y38576502D01*
X50813738Y38322502D02*
X51016938D01*
X50915338Y38220902D02*
Y38424102D01*
X50737538Y38398702D02*
X50940738D01*
X50839138Y38297102D02*
Y38500302D01*
X50737538Y38627302D02*
X50940738D01*
X50839138Y38525702D02*
Y38728902D01*
X50813738Y38627302D02*
X51016938D01*
X50915338Y38525702D02*
Y38728902D01*
X50661338Y38627302D02*
X50864538D01*
X50762938Y38525702D02*
Y38728902D01*
X50813738Y38398702D02*
X51016938D01*
X50915338Y38297102D02*
Y38500302D01*
X51084580Y38456000D02*
X51287780D01*
X51186180Y38354400D02*
Y38557600D01*
X51010920Y38416000D02*
X51214120D01*
X51112520Y38314400D02*
Y38517600D01*
X51074522Y38295990D02*
X51277722D01*
X51176122Y38194390D02*
Y38397590D01*
X51066800Y38376000D02*
X51270000D01*
X51168400Y38274400D02*
Y38477600D01*
X51031418Y38335995D02*
X51234618D01*
X51133018Y38234395D02*
Y38437595D01*
X50913232Y38210951D02*
X51116432D01*
X51014832Y38109351D02*
Y38312551D01*
X51041400Y38514405D02*
X51244600D01*
X51041400Y38717605*
X51244600*
X51041400Y38514405*
X51127210Y38426081D02*
X51330410D01*
X51228810Y38324481D02*
Y38527681D01*
X51498882Y38277968D02*
X51702082D01*
X51600482Y38176368D02*
Y38379568D01*
X51191281Y38355020D02*
X51394481D01*
X51292881Y38253420D02*
Y38456620D01*
X51171829Y38604281D02*
X51375029D01*
X51273429Y38502681D02*
Y38705881D01*
X51191669Y38307646D02*
X51394869D01*
X51293269Y38206046D02*
Y38409246D01*
X51487908Y38232245D02*
X51691108D01*
X51589508Y38130645D02*
Y38333845D01*
X51270067Y38586613D02*
X51473267D01*
X51371667Y38485013D02*
Y38688213D01*
X51225841Y38243963D02*
X51429041D01*
X51327441Y38142363D02*
Y38345563D01*
X51278602Y38633556D02*
X51481802D01*
X51380202Y38531956D02*
Y38735156D01*
X51289912Y38235808D02*
X51493112D01*
X51391512Y38134208D02*
Y38337408D01*
X51260400Y38207850D02*
X51463600D01*
X51362000Y38106250D02*
Y38309450D01*
X51499593Y38322241D02*
X51702793D01*
X51601193Y38220641D02*
Y38423841D01*
X51495935Y38369184D02*
X51699135D01*
X51597535Y38267584D02*
Y38470784D01*
X51495935Y38413688D02*
X51699135D01*
X51597535Y38312088D02*
Y38515288D01*
X51415336Y38410769D02*
X51618536D01*
X51516936Y38309169D02*
Y38512369D01*
X51494716Y38463679D02*
X51697916D01*
X51596316Y38362079D02*
Y38565279D01*
X51447773Y38590486D02*
X51650973D01*
X51549373Y38488886D02*
Y38692086D01*
X51174689Y38557170D02*
X51377889D01*
X51276289Y38455570D02*
Y38658770D01*
X51391685Y38581951D02*
X51594885D01*
X51493285Y38480351D02*
Y38683551D01*
X51494716Y38514890D02*
X51697916D01*
X51596316Y38413290D02*
Y38616490D01*
X51496545Y38561833D02*
X51699745D01*
X51598145Y38460233D02*
Y38663433D01*
X51320668Y38656113D02*
X51523868D01*
X51422268Y38554513D02*
Y38757713D01*
X51217441Y38589889D02*
X51420641D01*
X51319041Y38488289D02*
Y38691489D01*
X50021486Y38802169D02*
X50224686D01*
X50123086Y38700569D02*
Y38903769D01*
X50071979Y38913407D02*
X50275179D01*
X50173579Y38811807D02*
Y39015007D01*
X50065279Y38854064D02*
X50268479D01*
X50166879Y38752464D02*
Y38955664D01*
X50140716Y38834648D02*
X50343916D01*
Y39037848*
X50140716*
Y38834648*
X50242316Y38936248D02*
Y39037848D01*
X50215900Y38834648D02*
X50419100D01*
Y39037848*
X50215900*
Y38834648*
X50317500Y38936248D02*
Y39037848D01*
X50437487Y39185082D02*
X50640687D01*
X50539087Y39083482D02*
Y39286682D01*
X50492045Y39146796D02*
X50695245D01*
X50593645Y39045196D02*
Y39248396D01*
X50547559Y39164981D02*
X50750759D01*
X50649159Y39063381D02*
Y39266581D01*
X50289393Y38696000D02*
X50492593D01*
X50390993Y38594400D02*
Y38797600D01*
X50266700Y38735994D02*
X50469900D01*
X50368300Y38634394D02*
Y38837594D01*
X50289052Y38834648D02*
X50492252D01*
Y39037848*
X50289052*
Y38834648*
X50390652Y38936248D02*
Y39037848D01*
X50414274Y38964696D02*
X50617474D01*
X50515874Y38863096D02*
Y39066296D01*
X50289382Y38775999D02*
X50492582D01*
X50390982Y38674399D02*
Y38877599D01*
X50266700Y38816004D02*
X50469900D01*
X50368300Y38714404D02*
Y38917604D01*
X50477266Y38907800D02*
X50680466D01*
X50578866Y38806200D02*
Y39009400D01*
X50414274Y39053596D02*
X50617474D01*
X50515874Y38951996D02*
Y39155196D01*
X50899196Y38864545D02*
X51102396D01*
X51000796Y38762945D02*
Y38966145D01*
X50924306Y38685550D02*
X51127506D01*
Y38888750*
X50924306*
Y38685550*
X51025906Y38787150D02*
Y38888750D01*
X50738457Y39136873D02*
X50941657D01*
X50840057Y39035273D02*
Y39238473D01*
X51051852Y38862216D02*
X51255052D01*
X51153452Y38760616D02*
Y38963816D01*
X51071953Y38926345D02*
X51275153D01*
X51173553Y38824745D02*
Y39027945D01*
X51049938Y38996217D02*
X51253138D01*
X51151538Y38894617D02*
Y39097817D01*
X50973366Y39006745D02*
X51176566D01*
X51074966Y38905145D02*
Y39108345D01*
X51046110Y39063217D02*
X51249310D01*
X51147710Y38961617D02*
Y39164817D01*
X50964752Y39076617D02*
X51167952D01*
X51066352Y38975017D02*
Y39178217D01*
X51039410Y39135003D02*
X51242610D01*
X51141010Y39033403D02*
Y39236603D01*
X50609774Y39163067D02*
X50812974D01*
X50711374Y39061467D02*
Y39264667D01*
X50964752Y39137875D02*
X51167952D01*
X51066352Y39036275D02*
Y39239475D01*
X50774700Y38735080D02*
X50977900D01*
Y38938280*
X50774700*
Y38735080*
X50876300Y38836680D02*
Y38938280D01*
X50994332Y38863380D02*
X51197532D01*
X51095932Y38761780D02*
Y38964980D01*
X50990060Y38938324D02*
X51193260D01*
X51091660Y38836724D02*
Y39039924D01*
X50914728Y38964729D02*
X51117928D01*
X51016328Y38863129D02*
Y39066329D01*
X50910845Y39010938D02*
X51114045D01*
X51012445Y38909338D02*
Y39112538D01*
X50907350Y39061419D02*
X51110550D01*
X51008950Y38959819D02*
Y39163019D01*
X50910457Y39109958D02*
X51113657D01*
X51012057Y39008358D02*
Y39211558D01*
X50909680Y39160438D02*
X51112880D01*
X51011280Y39058838D02*
Y39262038D01*
X50938803Y39195386D02*
X51142003D01*
X51040403Y39093786D02*
Y39296986D01*
X50667049Y39177713D02*
X50870249D01*
X50768649Y39076113D02*
Y39279313D01*
X50676883Y39117973D02*
X50880083D01*
X50778483Y39016373D02*
Y39219573D01*
X50721997Y39083223D02*
X50925197D01*
X50823597Y38981623D02*
Y39184823D01*
X50770769Y39100294D02*
X50973969D01*
X50872369Y38998694D02*
Y39201894D01*
X50769592Y39052089D02*
X50972792D01*
X50871192Y38950489D02*
Y39153689D01*
X50768039Y38990347D02*
X50971239D01*
X50869639Y38888747D02*
Y39091947D01*
X50768039Y38934818D02*
X50971239D01*
X50869639Y38833218D02*
Y39036418D01*
X51206882Y38714286D02*
X51410082D01*
X51308482Y38612686D02*
Y38815886D01*
X51111682Y39183544D02*
X51314882D01*
X51213282Y39081944D02*
Y39285144D01*
X51153748Y39141478D02*
X51356948D01*
X51255348Y39039878D02*
Y39243078D01*
X51201301Y39103070D02*
X51404501D01*
X51302901Y39001470D02*
Y39204670D01*
X51268362Y39092096D02*
X51471562D01*
X51369962Y38990496D02*
Y39193696D01*
X51337252Y39090267D02*
X51540452D01*
X51438852Y38988667D02*
Y39191867D01*
X51128067Y38863561D02*
X51331267D01*
X51229667Y38761961D02*
Y38965161D01*
X51121724Y39003874D02*
X51324924D01*
X51223324Y38902274D02*
Y39105474D01*
X51514972Y38882202D02*
X51718172D01*
X51616572Y38780602D02*
Y38983802D01*
X51149482Y38935916D02*
X51352682D01*
X51251082Y38834316D02*
Y39037516D01*
X51106410Y39096717D02*
X51309610D01*
X51208010Y38995117D02*
Y39198317D01*
X51567470Y38930564D02*
X51770670D01*
X51669070Y38828964D02*
Y39032164D01*
X51183939Y38877530D02*
X51387139D01*
X51285539Y38775930D02*
Y38979130D01*
X51156182Y39053646D02*
X51359382D01*
X51257782Y38952046D02*
Y39155246D01*
X51581827Y38811878D02*
X51785027D01*
X51683427Y38710278D02*
Y38913478D01*
X51210739Y39044074D02*
X51413939D01*
X51312339Y38942474D02*
Y39145674D01*
X51187768Y38994302D02*
X51390968D01*
X51289368Y38892702D02*
Y39095902D01*
X51251897Y38991431D02*
X51455097D01*
X51353497Y38889831D02*
Y39093031D01*
X51272954Y39041203D02*
X51476154D01*
X51374554Y38939603D02*
Y39142803D01*
X51336126Y39012488D02*
X51539326D01*
X51437726Y38910888D02*
Y39114088D01*
X51234668Y38930173D02*
X51437868D01*
X51336268Y38828573D02*
Y39031773D01*
X51310283Y38938788D02*
X51513483D01*
X51411883Y38837188D02*
Y39040388D01*
X51372498Y38932088D02*
X51575698D01*
X51474098Y38830488D02*
Y39033688D01*
X51434712Y38936873D02*
X51637912D01*
X51536312Y38835273D02*
Y39038473D01*
X51502031Y38704491D02*
X51705231D01*
X51603631Y38602891D02*
Y38806091D01*
X51283380Y38696423D02*
X51486580D01*
X51384980Y38594823D02*
Y38798023D01*
X50026966Y39293575D02*
X50230166D01*
X50128566Y39191975D02*
Y39395175D01*
X50033291Y39224639D02*
X50236491D01*
X50134891Y39123039D02*
Y39326239D01*
X50054773Y39361817D02*
X50257973D01*
X50156373Y39260217D02*
Y39463417D01*
X50563677Y39298314D02*
X50766877D01*
X50665277Y39196714D02*
Y39399914D01*
X50163714Y39298083D02*
X50366914D01*
X50265314Y39196483D02*
Y39399683D01*
X50100599Y39298083D02*
X50303799D01*
X50202199Y39196483D02*
Y39399683D01*
X50225325Y39301088D02*
X50428525D01*
X50326925Y39199488D02*
Y39402688D01*
X50288440Y39299585D02*
X50491640D01*
X50390040Y39197985D02*
Y39401185D01*
X50348549Y39298083D02*
X50551749D01*
X50450149Y39196483D02*
Y39399683D01*
X50413558Y39302811D02*
X50616758D01*
X50515158Y39201211D02*
Y39404411D01*
X50487259Y39299940D02*
X50690459D01*
X50588859Y39198340D02*
Y39401540D01*
X50151097Y39358768D02*
X50354297D01*
X50252697Y39257168D02*
Y39460368D01*
X50407815Y39242511D02*
X50611015D01*
X50509415Y39140911D02*
Y39344111D01*
X50234619Y39359988D02*
X50437819D01*
X50336219Y39258388D02*
Y39461588D01*
X50315093Y39356939D02*
X50518293D01*
X50416693Y39255339D02*
Y39458539D01*
X50459502Y39244425D02*
X50662702D01*
X50561102Y39142825D02*
Y39346025D01*
X50383374Y39356939D02*
X50586574D01*
X50484974Y39255339D02*
Y39458539D01*
X50495873Y39202310D02*
X50699073D01*
X50597473Y39100710D02*
Y39303910D01*
X50533202Y39245382D02*
X50736402D01*
X50634802Y39143782D02*
Y39346982D01*
X50465677Y39358159D02*
X50668877D01*
X50567277Y39256559D02*
Y39459759D01*
X50584888Y39209010D02*
X50788088D01*
X50686488Y39107410D02*
Y39310610D01*
X50550418Y39361207D02*
X50753618D01*
X50652018Y39259607D02*
Y39462807D01*
X50651735Y39299271D02*
X50854935D01*
X50753335Y39197671D02*
Y39400871D01*
X50994720Y39197328D02*
X51197920D01*
X51096320Y39095728D02*
Y39298928D01*
X51050249Y39198104D02*
X51253449D01*
X51151849Y39096504D02*
Y39299704D01*
X51088515Y39306083D02*
X51291715D01*
X51190115Y39204483D02*
Y39407683D01*
X51022673Y39306693D02*
X51225873D01*
X51124273Y39205093D02*
Y39408293D01*
X50631788Y39242511D02*
X50834988D01*
X50733388Y39140911D02*
Y39344111D01*
X51068269Y39359376D02*
X51271469D01*
X51169869Y39257776D02*
Y39460976D01*
X50869182Y39365118D02*
X51072382D01*
X50970782Y39263518D02*
Y39466718D01*
X50989783Y39363204D02*
X51192983D01*
X51091383Y39261604D02*
Y39464804D01*
X50626624Y39354501D02*
X50829824D01*
X50728224Y39252901D02*
Y39456101D01*
X50932354Y39365118D02*
X51135554D01*
X51033954Y39263518D02*
Y39466718D01*
X50788181Y39362426D02*
X50991381D01*
X50889781Y39260826D02*
Y39464026D01*
X50706488Y39362426D02*
X50909688D01*
X50808088Y39260826D02*
Y39464026D01*
X50951954Y39309131D02*
X51155154D01*
X51053554Y39207531D02*
Y39410731D01*
X50884283Y39305473D02*
X51087483D01*
X50985883Y39203873D02*
Y39407073D01*
X50801050Y39303100D02*
X51004250D01*
X50902650Y39201500D02*
Y39404700D01*
X50714907Y39304057D02*
X50918107D01*
X50816507Y39202457D02*
Y39405657D01*
X50746493Y39252371D02*
X50949693D01*
X50848093Y39150771D02*
Y39353971D01*
X50677578Y39237056D02*
X50880778D01*
X50779178Y39135456D02*
Y39338656D01*
X51500632Y39382272D02*
X51703832D01*
X51602232Y39280672D02*
Y39483872D01*
X51676123Y39516416D02*
X51653032Y39433072D01*
X51676123Y39516416D02*
X51699214Y39433072D01*
X51661691Y39460853D02*
X51690555D01*
X51388364Y39385574D02*
X51591564D01*
X51489964Y39283974D02*
Y39487174D01*
X51563855Y39519718D02*
X51540764Y39436374D01*
X51563855Y39519718D02*
X51586946Y39436374D01*
X51549423Y39464155D02*
X51578287D01*
X51250682Y39242070D02*
X51453882D01*
X51352282Y39140470D02*
Y39343670D01*
X51326192Y39247383D02*
X51529392D01*
X51427792Y39145783D02*
Y39348983D01*
X51307380Y39294500D02*
X51510580D01*
X51408980Y39192900D02*
Y39396100D01*
X51298235Y39363390D02*
X51501435D01*
X51399835Y39261790D02*
Y39464990D01*
X51149480Y39346930D02*
X51352680D01*
X51251080Y39245330D02*
Y39448530D01*
X51583070Y39375248D02*
X51786270D01*
X51684670Y39273648D02*
Y39476848D01*
X51339954Y39329305D02*
X51543154D01*
X51441554Y39227705D02*
Y39430905D01*
X51442720Y39379986D02*
X51645920D01*
X51544320Y39278386D02*
Y39481586D01*
X51618211Y39514130D02*
X51595120Y39430786D01*
X51618211Y39514130D02*
X51641302Y39430786D01*
X51603779Y39458567D02*
X51632643D01*
X50000000Y40000000D02*
X51799996D01*
Y36859290*
X50000000*
Y40000000*
X56350000Y44876800D02*
X62903200D01*
X56350000Y44267200D02*
X62903200D01*
X56350000Y43657600D02*
X62903200D01*
X56350000Y43048000D02*
X62903200D01*
X56350000Y42438400D02*
X62903200D01*
X56350000Y41828800D02*
X62903200D01*
X56350000Y41219200D02*
X62903200D01*
X56350000Y40609600D02*
X62903200D01*
X56350000Y40000000D02*
X62903200D01*
X56350000Y44876800D02*
Y40000000D01*
X58483600Y44876800D02*
Y40000000D01*
X59398000Y44876800D02*
Y40000000D01*
X60312400Y44876800D02*
Y40000000D01*
X61684000Y44876800D02*
Y40000000D01*
X62903200Y44876800D02*
Y40000000D01*
X57251700Y44591050D02*
X57237845Y44610100D01*
X57237845D02*
X57217064Y44619625D01*
X57189355*
X57189355D02*
X57168573Y44610100D01*
X57154718Y44591050*
Y44572000*
X57161645Y44552950*
X57161645D02*
X57168573Y44543425D01*
X57182427Y44533900*
X57223991Y44514850*
X57237845Y44505325*
X57237845D02*
X57244773Y44495800D01*
X57251700Y44476750*
Y44448175*
X57237845Y44429125*
X57237845D02*
X57217064Y44419600D01*
X57189355*
X57189355D02*
X57168573Y44429125D01*
X57154718Y44448175*
X57314045Y44619625D02*
Y44419600D01*
X57473373Y44619625D02*
X57376391Y44419600D01*
Y44619625D02*
X57473373D01*
X57376391Y44419600D02*
X57473373D01*
X57535718Y44619625D02*
Y44419600D01*
Y44619625D02*
X57625773D01*
X57535718Y44524375D02*
X57591136D01*
X57535718Y44419600D02*
X57625773D01*
X58734136Y44619625D02*
X58720282Y44610100D01*
X58706427Y44591050*
X58699500Y44572000*
X58692573Y44543425*
Y44495800*
X58699500Y44467225*
X58706427Y44448175*
X58720282Y44429125*
X58734136Y44419600*
X58761845*
X58761845D02*
X58775700Y44429125D01*
X58789555Y44448175*
X58789555D02*
X58796482Y44467225D01*
X58803409Y44495800*
Y44543425*
X58796482Y44572000*
X58789555Y44591050*
X58789555D02*
X58775700Y44610100D01*
X58761845Y44619625*
X58761845D02*
X58734136D01*
X58754918Y44457700D02*
X58796482Y44400550D01*
X58914245Y44619625D02*
Y44419600D01*
X58865755Y44619625D02*
X58962736D01*
X59025082D02*
X59080500Y44524375D01*
Y44419600*
X59135918Y44619625D02*
X59080500Y44524375D01*
X59703955Y44591050D02*
X59690100Y44610100D01*
X59669318Y44619625*
X59641609*
X59620827Y44610100*
X59606973Y44591050*
Y44572000*
X59613900Y44552950*
X59620827Y44543425*
X59634682Y44533900*
X59676245Y44514850*
X59676245D02*
X59690100Y44505325D01*
X59697027Y44495800*
X59703955Y44476750*
X59703955D02*
Y44448175D01*
X59703955D02*
X59690100Y44429125D01*
X59669318Y44419600*
X59641609*
X59620827Y44429125*
X59606973Y44448175*
X59766300Y44619625D02*
X59821718Y44524375D01*
Y44419600*
X59877136Y44619625D02*
X59821718Y44524375D01*
X59939482Y44619625D02*
Y44419600D01*
Y44619625D02*
X59994900Y44419600D01*
X60050318Y44619625D02*
X59994900Y44419600D01*
X60050318Y44619625D02*
Y44419600D01*
X60604500Y44619625D02*
Y44419600D01*
Y44619625D02*
X60666845D01*
X60666845D02*
X60687627Y44610100D01*
X60694555Y44600575*
X60694555D02*
X60701482Y44581525D01*
Y44552950*
X60694555Y44533900*
X60694555D02*
X60687627Y44524375D01*
X60666845Y44514850*
X60666845D02*
X60604500D01*
X60763827Y44619625D02*
Y44419600D01*
X60846955*
X60964718Y44619625D02*
X60909300Y44419600D01*
X60964718Y44619625D02*
X61020136Y44419600D01*
X60930082Y44486275D02*
X60999355D01*
X61130973Y44619625D02*
Y44419600D01*
X61082482Y44619625D02*
X61179464D01*
X61241809D02*
Y44419600D01*
Y44619625D02*
X61331864D01*
X61241809Y44524375D02*
X61297227D01*
X61241809Y44419600D02*
X61331864D01*
X61394209Y44619625D02*
Y44419600D01*
Y44619625D02*
X61442700D01*
X61463482Y44610100*
X61477336Y44591050*
X61484264Y44572000*
X61491191Y44543425*
Y44495800*
X61484264Y44467225*
X61477336Y44448175*
X61463482Y44429125*
X61442700Y44419600*
X61394209*
X62107718Y44619625D02*
Y44419600D01*
X62059227Y44619625D02*
X62156209D01*
X62260118D02*
X62246264Y44610100D01*
X62232409Y44591050*
X62225482Y44572000*
X62218555Y44543425*
X62218555D02*
Y44495800D01*
X62218555D02*
X62225482Y44467225D01*
X62232409Y44448175*
X62246264Y44429125*
X62260118Y44419600*
X62287827*
X62301682Y44429125*
X62315536Y44448175*
X62322464Y44467225*
X62329391Y44495800*
Y44543425*
X62322464Y44572000*
X62315536Y44591050*
X62301682Y44610100*
X62287827Y44619625*
X62260118*
X62391736D02*
Y44419600D01*
X62474864*
X56543964Y44010025D02*
X56523182Y44000500D01*
X56509327Y43971925*
X56502400Y43924300*
Y43895725*
X56509327Y43848100*
X56523182Y43819525*
X56543964Y43810000*
X56557818*
X56578600Y43819525*
X56592455Y43848100*
X56592455D02*
X56599382Y43895725D01*
Y43924300*
X56592455Y43971925*
X56592455D02*
X56578600Y44000500D01*
X56557818Y44010025*
X56543964*
X56668655Y43829050D02*
X56661727Y43819525D01*
X56668655Y43810000*
X56668655D02*
X56675582Y43819525D01*
X56668655Y43829050*
X56737927Y43971925D02*
X56751782Y43981450D01*
X56772564Y44010025*
Y43810000*
X56931891Y44010025D02*
X56862618Y43810000D01*
X56834909Y44010025D02*
X56931891D01*
X57091218D02*
X57021945Y43810000D01*
X56994236Y44010025D02*
X57091218D01*
X57188200D02*
X57167418Y44000500D01*
X57160491Y43981450*
Y43962400*
X57167418Y43943350*
X57181273Y43933825*
X57208982Y43924300*
X57229764Y43914775*
X57243618Y43895725*
X57250545Y43876675*
X57250545D02*
Y43848100D01*
X57250545D02*
X57243618Y43829050D01*
X57236691Y43819525*
X57215909Y43810000*
X57188200*
X57167418Y43819525*
X57160491Y43829050*
X57153564Y43848100*
Y43876675*
X57160491Y43895725*
X57174345Y43914775*
X57174345D02*
X57195127Y43924300D01*
X57222836Y43933825*
X57236691Y43943350*
X57243618Y43962400*
Y43981450*
X57236691Y44000500*
X57215909Y44010025*
X57188200*
X58723745D02*
X58799945D01*
X58799945D02*
X58758382Y43933825D01*
X58779164*
X58793018Y43924300*
X58799945Y43914775*
X58799945D02*
X58806873Y43886200D01*
Y43867150*
X58799945Y43838575*
X58799945D02*
X58786091Y43819525D01*
X58765309Y43810000*
X58744527*
X58723745Y43819525*
X58723745D02*
X58716818Y43829050D01*
X58709891Y43848100*
X58876145Y43962400D02*
Y43971925D01*
X58876145D02*
X58883073Y43990975D01*
X58890000Y44000500*
X58903855Y44010025*
X58931564*
X58945418Y44000500*
X58952345Y43990975*
X58952345D02*
X58959273Y43971925D01*
Y43952875*
X58952345Y43933825*
X58952345D02*
X58938491Y43905250D01*
X58869218Y43810000*
X58966200*
X59118600Y43943350D02*
X59111673Y43914775D01*
X59097818Y43895725*
X59077036Y43886200*
X59070109*
X59049327Y43895725*
X59035473Y43914775*
X59028545Y43943350*
X59028545D02*
Y43952875D01*
X59028545D02*
X59035473Y43981450D01*
X59049327Y44000500*
X59070109Y44010025*
X59077036*
X59097818Y44000500*
X59111673Y43981450*
X59118600Y43943350*
Y43895725*
X59111673Y43848100*
X59097818Y43819525*
X59077036Y43810000*
X59063182*
X59042400Y43819525*
X59035473Y43838575*
X59702800Y43962400D02*
X60007600D01*
X59855200Y43810000D02*
Y44114800D01*
X60531764Y44010025D02*
X60587182Y43914775D01*
Y43810000*
X60642600Y44010025D02*
X60587182Y43914775D01*
X60704945Y44010025D02*
Y43810000D01*
Y44010025D02*
X60795000D01*
X60704945Y43914775D02*
X60760364D01*
X60704945Y43810000D02*
X60795000D01*
X60954327Y43981450D02*
X60940473Y44000500D01*
X60919691Y44010025*
X60891982*
X60871200Y44000500*
X60857345Y43981450*
X60857345D02*
Y43962400D01*
X60857345D02*
X60864273Y43943350D01*
X60871200Y43933825*
X60885055Y43924300*
X60926618Y43905250*
X60940473Y43895725*
X60947400Y43886200*
X60954327Y43867150*
Y43838575*
X60940473Y43819525*
X60919691Y43810000*
X60891982*
X60871200Y43819525*
X60857345Y43838575*
X61882582Y43981450D02*
Y43810000D01*
X61820236Y43895725D02*
X61944927D01*
X62131964Y44048125D02*
X62007273Y43743325D01*
X62194309Y43895725D02*
X62319000D01*
X62422909Y44010025D02*
X62402127Y44000500D01*
X62388273Y43971925*
X62381345Y43924300*
X62381345D02*
Y43895725D01*
X62381345D02*
X62388273Y43848100D01*
X62402127Y43819525*
X62422909Y43810000*
X62436764*
X62457545Y43819525*
X62457545D02*
X62471400Y43848100D01*
X62478327Y43895725*
Y43924300*
X62471400Y43971925*
X62457545Y44000500*
X62457545D02*
X62436764Y44010025D01*
X62422909*
X62547600Y43829050D02*
X62540673Y43819525D01*
X62547600Y43810000*
X62554527Y43819525*
X62547600Y43829050*
X62658436Y44010025D02*
X62637655Y44000500D01*
X62623800Y43971925*
X62616873Y43924300*
Y43895725*
X62623800Y43848100*
X62637655Y43819525*
X62658436Y43810000*
X62672291*
X62693073Y43819525*
X62706927Y43848100*
X62713855Y43895725*
Y43924300*
X62706927Y43971925*
X62693073Y44000500*
X62672291Y44010025*
X62658436*
X56543964Y43400425D02*
X56523182Y43390900D01*
X56509327Y43362325*
X56502400Y43314700*
Y43286125*
X56509327Y43238500*
X56523182Y43209925*
X56543964Y43200400*
X56557818*
X56578600Y43209925*
X56592455Y43238500*
X56592455D02*
X56599382Y43286125D01*
Y43314700*
X56592455Y43362325*
X56592455D02*
X56578600Y43390900D01*
X56557818Y43400425*
X56543964*
X56668655Y43219450D02*
X56661727Y43209925D01*
X56668655Y43200400*
X56668655D02*
X56675582Y43209925D01*
X56668655Y43219450*
X56827982Y43400425D02*
X56758709D01*
X56751782Y43314700*
X56758709Y43324225*
X56779491Y43333750*
X56800273*
X56821055Y43324225*
X56821055D02*
X56834909Y43305175D01*
X56841836Y43276600*
X56834909Y43257550*
X56827982Y43228975*
X56814127Y43209925*
X56793345Y43200400*
X56793345D02*
X56772564D01*
X56751782Y43209925*
X56744855Y43219450*
X56744855D02*
X56737927Y43238500D01*
X56994236Y43400425D02*
X56924964D01*
X56918036Y43314700*
X56924964Y43324225*
X56945745Y43333750*
X56945745D02*
X56966527D01*
X56987309Y43324225*
X57001164Y43305175*
X57008091Y43276600*
X57001164Y43257550*
X56994236Y43228975*
X56980382Y43209925*
X56959600Y43200400*
X56938818*
X56918036Y43209925*
X56911109Y43219450*
X56904182Y43238500*
X58803409Y43400425D02*
X58879609D01*
X58838045Y43324225*
X58838045D02*
X58858827D01*
X58872682Y43314700*
X58879609Y43305175*
X58886536Y43276600*
Y43257550*
X58879609Y43228975*
X58865755Y43209925*
X58865755D02*
X58844973Y43200400D01*
X58824191*
X58803409Y43209925*
X58796482Y43219450*
X58789555Y43238500*
X59032009Y43371850D02*
X59025082Y43390900D01*
X59004300Y43400425*
X58990445*
X58990445D02*
X58969664Y43390900D01*
X58955809Y43362325*
X58948882Y43314700*
Y43267075*
X58955809Y43228975*
X58969664Y43209925*
X58990445Y43200400*
X58990445D02*
X58997373D01*
X59018155Y43209925*
X59018155D02*
X59032009Y43228975D01*
X59038936Y43257550*
Y43267075*
X59032009Y43295650*
X59018155Y43314700*
X59018155D02*
X58997373Y43324225D01*
X58990445*
X58990445D02*
X58969664Y43314700D01*
X58955809Y43295650*
X58948882Y43267075*
X59702800Y43200400D02*
X60007600Y43505200D01*
X59702800D02*
X60007600Y43200400D01*
X60531764Y43400425D02*
X60587182Y43305175D01*
Y43200400*
X60642600Y43400425D02*
X60587182Y43305175D01*
X60704945Y43400425D02*
Y43200400D01*
Y43400425D02*
X60795000D01*
X60704945Y43305175D02*
X60760364D01*
X60704945Y43200400D02*
X60795000D01*
X60954327Y43371850D02*
X60940473Y43390900D01*
X60919691Y43400425*
X60891982*
X60871200Y43390900*
X60857345Y43371850*
X60857345D02*
Y43352800D01*
X60857345D02*
X60864273Y43333750D01*
X60871200Y43324225*
X60885055Y43314700*
X60926618Y43295650*
X60940473Y43286125*
X60947400Y43276600*
X60954327Y43257550*
Y43228975*
X60940473Y43209925*
X60919691Y43200400*
X60891982*
X60871200Y43209925*
X60857345Y43228975*
X61882582Y43371850D02*
Y43200400D01*
X61820236Y43286125D02*
X61944927D01*
X62131964Y43438525D02*
X62007273Y43133725D01*
X62194309Y43286125D02*
X62319000D01*
X62422909Y43400425D02*
X62402127Y43390900D01*
X62388273Y43362325*
X62381345Y43314700*
X62381345D02*
Y43286125D01*
X62381345D02*
X62388273Y43238500D01*
X62402127Y43209925*
X62422909Y43200400*
X62436764*
X62457545Y43209925*
X62457545D02*
X62471400Y43238500D01*
X62478327Y43286125*
Y43314700*
X62471400Y43362325*
X62457545Y43390900*
X62457545D02*
X62436764Y43400425D01*
X62422909*
X62547600Y43219450D02*
X62540673Y43209925D01*
X62547600Y43200400*
X62554527Y43209925*
X62547600Y43219450*
X62658436Y43400425D02*
X62637655Y43390900D01*
X62623800Y43362325*
X62616873Y43314700*
Y43286125*
X62623800Y43238500*
X62637655Y43209925*
X62658436Y43200400*
X62672291*
X62693073Y43209925*
X62706927Y43238500*
X62713855Y43286125*
Y43314700*
X62706927Y43362325*
X62693073Y43390900*
X62672291Y43400425*
X62658436*
X56543964Y42790825D02*
X56523182Y42781300D01*
X56509327Y42752725*
X56502400Y42705100*
Y42676525*
X56509327Y42628900*
X56523182Y42600325*
X56543964Y42590800*
X56557818*
X56578600Y42600325*
X56592455Y42628900*
X56592455D02*
X56599382Y42676525D01*
Y42705100*
X56592455Y42752725*
X56592455D02*
X56578600Y42781300D01*
X56557818Y42790825*
X56543964*
X56668655Y42609850D02*
X56661727Y42600325D01*
X56668655Y42590800*
X56668655D02*
X56675582Y42600325D01*
X56668655Y42609850*
X56744855Y42743200D02*
Y42752725D01*
X56744855D02*
X56751782Y42771775D01*
X56758709Y42781300*
X56772564Y42790825*
X56800273*
X56814127Y42781300*
X56821055Y42771775*
X56821055D02*
X56827982Y42752725D01*
Y42733675*
X56821055Y42714625*
X56821055D02*
X56807200Y42686050D01*
X56737927Y42590800*
X56834909*
X56987309Y42790825D02*
X56918036D01*
X56911109Y42705100*
X56918036Y42714625*
X56938818Y42724150*
X56959600*
X56980382Y42714625*
X56994236Y42695575*
X57001164Y42667000*
X56994236Y42647950*
X56987309Y42619375*
X56973455Y42600325*
X56973455D02*
X56952673Y42590800D01*
X56931891*
X56911109Y42600325*
X56904182Y42609850*
X56897255Y42628900*
X57132782Y42790825D02*
X57063509Y42657475D01*
X57167418*
X57132782Y42790825D02*
Y42590800D01*
X58900391Y42790825D02*
X58879609Y42781300D01*
X58872682Y42762250*
Y42743200*
X58879609Y42724150*
X58893464Y42714625*
X58921173Y42705100*
X58941955Y42695575*
X58941955D02*
X58955809Y42676525D01*
X58962736Y42657475*
Y42628900*
X58955809Y42609850*
X58948882Y42600325*
X58928100Y42590800*
X58900391*
X58879609Y42600325*
X58872682Y42609850*
X58865755Y42628900*
X58865755D02*
Y42657475D01*
X58865755D02*
X58872682Y42676525D01*
X58886536Y42695575*
X58907318Y42705100*
X58935027Y42714625*
X58948882Y42724150*
X58955809Y42743200*
Y42762250*
X58948882Y42781300*
X58928100Y42790825*
X58900391*
X59702800Y42590800D02*
X60007600D01*
Y42895600*
X59702800*
Y42590800*
X59855200Y42743200D02*
Y42895600D01*
X60531764Y42790825D02*
X60587182Y42695575D01*
Y42590800*
X60642600Y42790825D02*
X60587182Y42695575D01*
X60704945Y42790825D02*
Y42590800D01*
Y42790825D02*
X60795000D01*
X60704945Y42695575D02*
X60760364D01*
X60704945Y42590800D02*
X60795000D01*
X60954327Y42762250D02*
X60940473Y42781300D01*
X60919691Y42790825*
X60891982*
X60871200Y42781300*
X60857345Y42762250*
X60857345D02*
Y42743200D01*
X60857345D02*
X60864273Y42724150D01*
X60871200Y42714625*
X60885055Y42705100*
X60926618Y42686050*
X60940473Y42676525*
X60947400Y42667000*
X60954327Y42647950*
Y42619375*
X60940473Y42600325*
X60919691Y42590800*
X60891982*
X60871200Y42600325*
X60857345Y42619375*
X61882582Y42762250D02*
Y42590800D01*
X61820236Y42676525D02*
X61944927D01*
X62131964Y42828925D02*
X62007273Y42524125D01*
X62194309Y42676525D02*
X62319000D01*
X62422909Y42790825D02*
X62402127Y42781300D01*
X62388273Y42752725*
X62381345Y42705100*
X62381345D02*
Y42676525D01*
X62381345D02*
X62388273Y42628900D01*
X62402127Y42600325*
X62422909Y42590800*
X62436764*
X62457545Y42600325*
X62457545D02*
X62471400Y42628900D01*
X62478327Y42676525*
Y42705100*
X62471400Y42752725*
X62457545Y42781300*
X62457545D02*
X62436764Y42790825D01*
X62422909*
X62547600Y42609850D02*
X62540673Y42600325D01*
X62547600Y42590800*
X62554527Y42600325*
X62547600Y42609850*
X62658436Y42790825D02*
X62637655Y42781300D01*
X62623800Y42752725*
X62616873Y42705100*
Y42676525*
X62623800Y42628900*
X62637655Y42600325*
X62658436Y42590800*
X62672291*
X62693073Y42600325*
X62706927Y42628900*
X62713855Y42676525*
Y42705100*
X62706927Y42752725*
X62693073Y42781300*
X62672291Y42790825*
X62658436*
X56543964Y42181225D02*
X56523182Y42171700D01*
X56509327Y42143125*
X56502400Y42095500*
Y42066925*
X56509327Y42019300*
X56523182Y41990725*
X56543964Y41981200*
X56557818*
X56578600Y41990725*
X56592455Y42019300*
X56592455D02*
X56599382Y42066925D01*
Y42095500*
X56592455Y42143125*
X56592455D02*
X56578600Y42171700D01*
X56557818Y42181225*
X56543964*
X56668655Y42000250D02*
X56661727Y41990725D01*
X56668655Y41981200*
X56668655D02*
X56675582Y41990725D01*
X56668655Y42000250*
X56827982Y42181225D02*
X56758709D01*
X56751782Y42095500*
X56758709Y42105025*
X56779491Y42114550*
X56800273*
X56821055Y42105025*
X56821055D02*
X56834909Y42085975D01*
X56841836Y42057400*
X56834909Y42038350*
X56827982Y42009775*
X56814127Y41990725*
X56793345Y41981200*
X56793345D02*
X56772564D01*
X56751782Y41990725*
X56744855Y42000250*
X56744855D02*
X56737927Y42019300D01*
X56945745Y42181225D02*
X56924964Y42171700D01*
X56911109Y42143125*
X56904182Y42095500*
Y42066925*
X56911109Y42019300*
X56924964Y41990725*
X56945745Y41981200*
X56945745D02*
X56959600D01*
X56980382Y41990725*
X56994236Y42019300*
X57001164Y42066925*
Y42095500*
X56994236Y42143125*
X56980382Y42171700*
X56959600Y42181225*
X56945745*
X57098145D02*
X57077364Y42171700D01*
X57070436Y42152650*
Y42133600*
X57077364Y42114550*
X57091218Y42105025*
X57118927Y42095500*
X57139709Y42085975*
X57153564Y42066925*
X57160491Y42047875*
Y42019300*
X57153564Y42000250*
X57146636Y41990725*
X57125855Y41981200*
X57125855D02*
X57098145D01*
X57098145D02*
X57077364Y41990725D01*
X57070436Y42000250*
X57063509Y42019300*
Y42047875*
X57070436Y42066925*
X57084291Y42085975*
X57105073Y42095500*
X57132782Y42105025*
X57146636Y42114550*
X57153564Y42133600*
Y42152650*
X57146636Y42171700*
X57125855Y42181225*
X57125855D02*
X57098145D01*
X58896927Y42143125D02*
X58910782Y42152650D01*
X58931564Y42181225*
Y41981200*
X59855200D02*
X60007600Y42133600D01*
X59855200Y42286000*
X59702800Y42133600*
X59855200Y41981200*
Y42133600D02*
Y42286000D01*
X60531764Y42181225D02*
X60587182Y42085975D01*
Y41981200*
X60642600Y42181225D02*
X60587182Y42085975D01*
X60704945Y42181225D02*
Y41981200D01*
Y42181225D02*
X60795000D01*
X60704945Y42085975D02*
X60760364D01*
X60704945Y41981200D02*
X60795000D01*
X60954327Y42152650D02*
X60940473Y42171700D01*
X60919691Y42181225*
X60891982*
X60871200Y42171700*
X60857345Y42152650*
X60857345D02*
Y42133600D01*
X60857345D02*
X60864273Y42114550D01*
X60871200Y42105025*
X60885055Y42095500*
X60926618Y42076450*
X60940473Y42066925*
X60947400Y42057400*
X60954327Y42038350*
Y42009775*
X60940473Y41990725*
X60919691Y41981200*
X60891982*
X60871200Y41990725*
X60857345Y42009775*
X61882582Y42152650D02*
Y41981200D01*
X61820236Y42066925D02*
X61944927D01*
X62131964Y42219325D02*
X62007273Y41914525D01*
X62194309Y42066925D02*
X62319000D01*
X62422909Y42181225D02*
X62402127Y42171700D01*
X62388273Y42143125*
X62381345Y42095500*
X62381345D02*
Y42066925D01*
X62381345D02*
X62388273Y42019300D01*
X62402127Y41990725*
X62422909Y41981200*
X62436764*
X62457545Y41990725*
X62457545D02*
X62471400Y42019300D01*
X62478327Y42066925*
Y42095500*
X62471400Y42143125*
X62457545Y42171700*
X62457545D02*
X62436764Y42181225D01*
X62422909*
X62547600Y42000250D02*
X62540673Y41990725D01*
X62547600Y41981200*
X62554527Y41990725*
X62547600Y42000250*
X62658436Y42181225D02*
X62637655Y42171700D01*
X62623800Y42143125*
X62616873Y42095500*
Y42066925*
X62623800Y42019300*
X62637655Y41990725*
X62658436Y41981200*
X62672291*
X62693073Y41990725*
X62706927Y42019300*
X62713855Y42066925*
Y42095500*
X62706927Y42143125*
X62693073Y42171700*
X62672291Y42181225*
X62658436*
X56543964Y41571625D02*
X56523182Y41562100D01*
X56509327Y41533525*
X56502400Y41485900*
Y41457325*
X56509327Y41409700*
X56523182Y41381125*
X56543964Y41371600*
X56557818*
X56578600Y41381125*
X56592455Y41409700*
X56592455D02*
X56599382Y41457325D01*
Y41485900*
X56592455Y41533525*
X56592455D02*
X56578600Y41562100D01*
X56557818Y41571625*
X56543964*
X56668655Y41390650D02*
X56661727Y41381125D01*
X56668655Y41371600*
X56668655D02*
X56675582Y41381125D01*
X56668655Y41390650*
X56744855Y41524000D02*
Y41533525D01*
X56744855D02*
X56751782Y41552575D01*
X56758709Y41562100*
X56772564Y41571625*
X56800273*
X56814127Y41562100*
X56821055Y41552575*
X56821055D02*
X56827982Y41533525D01*
Y41514475*
X56821055Y41495425*
X56821055D02*
X56807200Y41466850D01*
X56737927Y41371600*
X56834909*
X56938818Y41571625D02*
X56918036Y41562100D01*
X56904182Y41533525*
X56897255Y41485900*
X56897255D02*
Y41457325D01*
X56897255D02*
X56904182Y41409700D01*
X56918036Y41381125*
X56938818Y41371600*
X56952673*
X56973455Y41381125*
X56973455D02*
X56987309Y41409700D01*
X56994236Y41457325*
Y41485900*
X56987309Y41533525*
X56973455Y41562100*
X56973455D02*
X56952673Y41571625D01*
X56938818*
X57070436D02*
X57146636D01*
X57105073Y41495425*
X57125855*
X57125855D02*
X57139709Y41485900D01*
X57146636Y41476375*
X57153564Y41447800*
Y41428750*
X57146636Y41400175*
X57132782Y41381125*
X57112000Y41371600*
X57091218*
X57070436Y41381125*
X57063509Y41390650*
X57056582Y41409700*
X57222836Y41524000D02*
Y41533525D01*
X57229764Y41552575*
X57236691Y41562100*
X57250545Y41571625*
X57250545D02*
X57278255D01*
X57278255D02*
X57292109Y41562100D01*
X57299036Y41552575*
X57305964Y41533525*
Y41514475*
X57299036Y41495425*
X57285182Y41466850*
X57215909Y41371600*
X57312891*
X58931564Y41571625D02*
X58862291Y41438275D01*
X58966200*
X58931564Y41571625D02*
Y41371600D01*
X59702800D02*
X60007600D01*
X59702800Y41676400*
X60007600*
X59702800Y41371600*
X60531764Y41571625D02*
X60587182Y41476375D01*
Y41371600*
X60642600Y41571625D02*
X60587182Y41476375D01*
X60704945Y41571625D02*
Y41371600D01*
Y41571625D02*
X60795000D01*
X60704945Y41476375D02*
X60760364D01*
X60704945Y41371600D02*
X60795000D01*
X60954327Y41543050D02*
X60940473Y41562100D01*
X60919691Y41571625*
X60891982*
X60871200Y41562100*
X60857345Y41543050*
X60857345D02*
Y41524000D01*
X60857345D02*
X60864273Y41504950D01*
X60871200Y41495425*
X60885055Y41485900*
X60926618Y41466850*
X60940473Y41457325*
X60947400Y41447800*
X60954327Y41428750*
Y41400175*
X60940473Y41381125*
X60919691Y41371600*
X60891982*
X60871200Y41381125*
X60857345Y41400175*
X61882582Y41543050D02*
Y41371600D01*
X61820236Y41457325D02*
X61944927D01*
X62131964Y41609725D02*
X62007273Y41304925D01*
X62194309Y41457325D02*
X62319000D01*
X62422909Y41571625D02*
X62402127Y41562100D01*
X62388273Y41533525*
X62381345Y41485900*
X62381345D02*
Y41457325D01*
X62381345D02*
X62388273Y41409700D01*
X62402127Y41381125*
X62422909Y41371600*
X62436764*
X62457545Y41381125*
X62457545D02*
X62471400Y41409700D01*
X62478327Y41457325*
Y41485900*
X62471400Y41533525*
X62457545Y41562100*
X62457545D02*
X62436764Y41571625D01*
X62422909*
X62547600Y41390650D02*
X62540673Y41381125D01*
X62547600Y41371600*
X62554527Y41381125*
X62547600Y41390650*
X62658436Y41571625D02*
X62637655Y41562100D01*
X62623800Y41533525*
X62616873Y41485900*
Y41457325*
X62623800Y41409700*
X62637655Y41381125*
X62658436Y41371600*
X62672291*
X62693073Y41381125*
X62706927Y41409700*
X62713855Y41457325*
Y41485900*
X62706927Y41533525*
X62693073Y41562100*
X62672291Y41571625*
X62658436*
X56543964Y40962025D02*
X56523182Y40952500D01*
X56509327Y40923925*
X56502400Y40876300*
Y40847725*
X56509327Y40800100*
X56523182Y40771525*
X56543964Y40762000*
X56557818*
X56578600Y40771525*
X56592455Y40800100*
X56592455D02*
X56599382Y40847725D01*
Y40876300*
X56592455Y40923925*
X56592455D02*
X56578600Y40952500D01*
X56557818Y40962025*
X56543964*
X56668655Y40781050D02*
X56661727Y40771525D01*
X56668655Y40762000*
X56668655D02*
X56675582Y40771525D01*
X56668655Y40781050*
X56834909Y40962025D02*
X56765636Y40762000D01*
X56737927Y40962025D02*
X56834909D01*
X58896927Y40923925D02*
X58910782Y40933450D01*
X58931564Y40962025*
Y40762000*
X59702800D02*
X60007600Y41066800D01*
Y40762000*
X59702800Y41066800*
Y40762000*
X60531764Y40962025D02*
X60587182Y40866775D01*
Y40762000*
X60642600Y40962025D02*
X60587182Y40866775D01*
X60704945Y40962025D02*
Y40762000D01*
Y40962025D02*
X60795000D01*
X60704945Y40866775D02*
X60760364D01*
X60704945Y40762000D02*
X60795000D01*
X60954327Y40933450D02*
X60940473Y40952500D01*
X60919691Y40962025*
X60891982*
X60871200Y40952500*
X60857345Y40933450*
X60857345D02*
Y40914400D01*
X60857345D02*
X60864273Y40895350D01*
X60871200Y40885825*
X60885055Y40876300*
X60926618Y40857250*
X60940473Y40847725*
X60947400Y40838200*
X60954327Y40819150*
Y40790575*
X60940473Y40771525*
X60919691Y40762000*
X60891982*
X60871200Y40771525*
X60857345Y40790575*
X61882582Y40933450D02*
Y40762000D01*
X61820236Y40847725D02*
X61944927D01*
X62131964Y41000125D02*
X62007273Y40695325D01*
X62194309Y40847725D02*
X62319000D01*
X62422909Y40962025D02*
X62402127Y40952500D01*
X62388273Y40923925*
X62381345Y40876300*
X62381345D02*
Y40847725D01*
X62381345D02*
X62388273Y40800100D01*
X62402127Y40771525*
X62422909Y40762000*
X62436764*
X62457545Y40771525*
X62457545D02*
X62471400Y40800100D01*
X62478327Y40847725*
Y40876300*
X62471400Y40923925*
X62457545Y40952500*
X62457545D02*
X62436764Y40962025D01*
X62422909*
X62547600Y40781050D02*
X62540673Y40771525D01*
X62547600Y40762000*
X62554527Y40771525*
X62547600Y40781050*
X62658436Y40962025D02*
X62637655Y40952500D01*
X62623800Y40923925*
X62616873Y40876300*
Y40847725*
X62623800Y40800100*
X62637655Y40771525*
X62658436Y40762000*
X62672291*
X62693073Y40771525*
X62706927Y40800100*
X62713855Y40847725*
Y40876300*
X62706927Y40923925*
X62693073Y40952500*
X62672291Y40962025*
X62658436*
X56543964Y40352425D02*
X56523182Y40342900D01*
X56509327Y40314325*
X56502400Y40266700*
Y40238125*
X56509327Y40190500*
X56523182Y40161925*
X56543964Y40152400*
X56557818*
X56578600Y40161925*
X56592455Y40190500*
X56592455D02*
X56599382Y40238125D01*
Y40266700*
X56592455Y40314325*
X56592455D02*
X56578600Y40342900D01*
X56557818Y40352425*
X56543964*
X56668655Y40171450D02*
X56661727Y40161925D01*
X56668655Y40152400*
X56668655D02*
X56675582Y40161925D01*
X56668655Y40171450*
X56744855Y40304800D02*
Y40314325D01*
X56744855D02*
X56751782Y40333375D01*
X56758709Y40342900*
X56772564Y40352425*
X56800273*
X56814127Y40342900*
X56821055Y40333375*
X56821055D02*
X56827982Y40314325D01*
Y40295275*
X56821055Y40276225*
X56821055D02*
X56807200Y40247650D01*
X56737927Y40152400*
X56834909*
X56987309Y40352425D02*
X56918036D01*
X56911109Y40266700*
X56918036Y40276225*
X56938818Y40285750*
X56959600*
X56980382Y40276225*
X56994236Y40257175*
X57001164Y40228600*
X56994236Y40209550*
X56987309Y40180975*
X56973455Y40161925*
X56973455D02*
X56952673Y40152400D01*
X56931891*
X56911109Y40161925*
X56904182Y40171450*
X56897255Y40190500*
X58879609Y40352425D02*
X58955809D01*
X58914245Y40276225*
X58914245D02*
X58935027D01*
X58948882Y40266700*
X58955809Y40257175*
X58962736Y40228600*
Y40209550*
X58955809Y40180975*
X58941955Y40161925*
X58941955D02*
X58921173Y40152400D01*
X58900391*
X58879609Y40161925*
X58872682Y40171450*
X58865755Y40190500*
X59702800Y40304800D02*
X60007600D01*
X59855200Y40152400D02*
Y40457200D01*
X59975735Y40541020D02*
X59931400Y40381000D01*
X59975735Y40541020D02*
X60020069Y40381000D01*
X59948025Y40434340D02*
X60003444D01*
X60531764Y40352425D02*
X60587182Y40257175D01*
Y40152400*
X60642600Y40352425D02*
X60587182Y40257175D01*
X60704945Y40352425D02*
Y40152400D01*
Y40352425D02*
X60795000D01*
X60704945Y40257175D02*
X60760364D01*
X60704945Y40152400D02*
X60795000D01*
X60954327Y40323850D02*
X60940473Y40342900D01*
X60919691Y40352425*
X60891982*
X60871200Y40342900*
X60857345Y40323850*
X60857345D02*
Y40304800D01*
X60857345D02*
X60864273Y40285750D01*
X60871200Y40276225*
X60885055Y40266700*
X60926618Y40247650*
X60940473Y40238125*
X60947400Y40228600*
X60954327Y40209550*
Y40180975*
X60940473Y40161925*
X60919691Y40152400*
X60891982*
X60871200Y40161925*
X60857345Y40180975*
X61882582Y40323850D02*
Y40152400D01*
X61820236Y40238125D02*
X61944927D01*
X62131964Y40390525D02*
X62007273Y40085725D01*
X62194309Y40238125D02*
X62319000D01*
X62422909Y40352425D02*
X62402127Y40342900D01*
X62388273Y40314325*
X62381345Y40266700*
X62381345D02*
Y40238125D01*
X62381345D02*
X62388273Y40190500D01*
X62402127Y40161925*
X62422909Y40152400*
X62436764*
X62457545Y40161925*
X62457545D02*
X62471400Y40190500D01*
X62478327Y40238125*
Y40266700*
X62471400Y40314325*
X62457545Y40342900*
X62457545D02*
X62436764Y40352425D01*
X62422909*
X62547600Y40171450D02*
X62540673Y40161925D01*
X62547600Y40152400*
X62554527Y40161925*
X62547600Y40171450*
X62658436Y40352425D02*
X62637655Y40342900D01*
X62623800Y40314325*
X62616873Y40266700*
Y40238125*
X62623800Y40190500*
X62637655Y40161925*
X62658436Y40152400*
X62672291*
X62693073Y40161925*
X62706927Y40190500*
X62713855Y40238125*
Y40266700*
X62706927Y40314325*
X62693073Y40342900*
X62672291Y40352425*
X62658436*
G54D109*
X50000000Y40276098D02*
X50639071D01*
X50000000D02*
X50127000Y40301498D01*
Y40250698*
X50000000Y40276098*
X51799996D02*
X51160925D01*
X51799996D02*
X51672996Y40250698D01*
Y40301498*
X51799996Y40276098*
X50000000Y40050800D02*
Y40326898D01*
X51799996Y40050800D02*
Y40326898D01*
X52180336Y36857766D02*
Y38305058D01*
Y36857766D02*
X52154936Y36984766D01*
X52205736*
X52180336Y36857766*
Y40000000D02*
Y38552708D01*
Y40000000D02*
X52205736Y39873000D01*
X52154936*
X52180336Y40000000*
X51859788Y36857766D02*
X52231136D01*
X51850796Y40000000D02*
X52231136D01*
X0Y0D02*
M02*
