*
*
G04 PADS 9.5 Build Number: 522968 generated Gerber (RS-274-X) file*
G04 PC Version=2.1*
*
%IN "ESP32-WROVER-V4.pcb"*%
*
%MOMM*%
*
%FSLAX35Y35*%
*
*
*
*
G04 PC Standard Apertures*
*
*
G04 Thermal Relief Aperture macro.*
%AMTER*
1,1,$1,0,0*
1,0,$1-$2,0,0*
21,0,$3,$4,0,0,45*
21,0,$3,$4,0,0,135*
%
*
*
G04 Annular Aperture macro.*
%AMANN*
1,1,$1,0,0*
1,0,$2,0,0*
%
*
*
G04 Odd Aperture macro.*
%AMODD*
1,1,$1,0,0*
1,0,$1-0.005,0,0*
%
*
*
G04 PC Custom Aperture Macros*
*
*
*
*
*
*
G04 PC Aperture Table*
*
%ADD010C,0.0254*%
%ADD044C,0.254*%
%ADD045C,0.508*%
%ADD046C,0.381*%
%ADD047C,0.3048*%
%ADD109C,0.127*%
%ADD115R,0.9X0.9*%
%ADD120C,0.4*%
*
*
*
*
G04 PC Circuitry*
G04 Layer Name ESP32-WROVER-V4.pcb - circuitry*
%LPD*%
*
G54D10*
G01X52397708Y38421989D02*
X52396616Y38429633D01*
X52393472Y38435922*
X52388339Y38439001*
X52380871Y38440068*
X52375444Y38438983*
X52371187Y38437918*
X52371187D02*
X52367055Y38434820D01*
X52363781Y38429364*
X52363781D02*
X52361556Y38429449D01*
X52359381Y38433800*
X52356309Y38436872*
X52350990Y38439000*
X52345714Y38440055*
X52341539Y38439011*
X52336192Y38436872*
X52329572Y38430253*
X52329572D02*
X52327404Y38431151D01*
X52327404D02*
Y38438952D01*
X52327404D02*
X52319739D01*
Y38382528*
X52327404*
X52327404D02*
Y38418678D01*
X52327404D02*
X52327442Y38418986D01*
X52328576Y38423521*
X52328833Y38424026*
X52334502Y38430830*
X52335129Y38431238*
X52343067Y38433506*
X52343724Y38433517*
X52343724D02*
X52348259Y38432383D01*
X52348656Y38432208*
X52352058Y38429940*
X52352058D02*
X52352489Y38429451D01*
X52354757Y38424915*
X52354891Y38424347*
Y38382528*
X52362556*
Y38415276*
X52362569Y38415455*
X52362569D02*
X52363703Y38423393D01*
X52363944Y38423975*
X52367346Y38428511*
X52367600Y38428765*
X52372136Y38432167*
X52372649Y38432396*
X52378318Y38433530*
X52378816*
X52384486Y38432396*
X52385253Y38431913*
X52388655Y38427377*
X52388844Y38427017*
X52388844D02*
X52389977Y38423615D01*
X52389977D02*
X52390043Y38423213D01*
Y38382528*
X52397708*
Y38421989*
X52302458D02*
X52301366Y38429633D01*
X52298222Y38435922*
X52293089Y38439001*
X52285621Y38440068*
X52280194Y38438983*
X52275937Y38437918*
X52275937D02*
X52271805Y38434820D01*
X52268531Y38429364*
X52268531D02*
X52266306Y38429449D01*
X52264131Y38433800*
X52261059Y38436872*
X52255740Y38439000*
X52250464Y38440055*
X52246289Y38439011*
X52240942Y38436872*
X52234322Y38430253*
X52234322D02*
X52232154Y38431151D01*
X52232154D02*
Y38438952D01*
X52232154D02*
X52224489D01*
Y38382528*
X52232154*
X52232154D02*
Y38418678D01*
X52232154D02*
X52232192Y38418986D01*
X52233326Y38423521*
X52233583Y38424026*
X52239252Y38430830*
X52239879Y38431238*
X52247817Y38433506*
X52248474Y38433517*
X52248474D02*
X52253009Y38432383D01*
X52253406Y38432208*
X52256808Y38429940*
X52256808D02*
X52257239Y38429451D01*
X52259507Y38424915*
X52259641Y38424347*
Y38382528*
X52267306*
Y38415276*
X52267319Y38415455*
X52267319D02*
X52268453Y38423393D01*
X52268694Y38423975*
X52272096Y38428511*
X52272350Y38428765*
X52276886Y38432167*
X52277399Y38432396*
X52283068Y38433530*
X52283566*
X52289236Y38432396*
X52290003Y38431913*
X52293405Y38427377*
X52293594Y38427017*
X52293594D02*
X52294727Y38423615D01*
X52294727D02*
X52294793Y38423213D01*
Y38382528*
X52302458*
Y38421989*
X52209476Y38409470D02*
X52200541D01*
X52200541D02*
X52199271Y38410740D01*
X52199271D02*
Y38460497D01*
X52199271D02*
X52193235D01*
X52155319Y38410314*
X52155319D02*
Y38401805D01*
X52155319D02*
X52190335D01*
X52191605Y38400535*
Y38382528*
X52199271*
X52199271D02*
Y38400535D01*
X52199271D02*
X52200541Y38401805D01*
X52200541D02*
X52209476D01*
Y38409470*
X52191605Y38442490D02*
Y38410740D01*
X52190335Y38409470*
X52166523*
X52165507Y38411502*
X52189319Y38443252*
X52191605Y38442490*
X52140306Y38390193D02*
X52132641D01*
Y38382528*
X52140306*
Y38390193*
X52099485Y38461631D02*
X52094670D01*
X52091638Y38456578*
X52091638D02*
X52091447Y38456333D01*
X52091447D02*
X52085778Y38450664D01*
X52085584Y38450505*
X52078781Y38445969*
X52078706Y38445923*
X52071409Y38441753*
Y38434340*
X52080808Y38439039*
X52089787Y38445774*
X52089787D02*
X52091819Y38444758D01*
X52091819D02*
Y38382528D01*
X52091819D02*
X52099485D01*
Y38461631*
X52050703Y38405137D02*
X52049641Y38412575D01*
X52046452Y38417890*
X52042238Y38422103*
X52042238D02*
X52035719Y38424276D01*
X52035359Y38426497*
X52044070Y38433030*
X52046159Y38441387*
X52044042Y38451971*
X52035493Y38458382*
X52030088Y38460544*
X52030088D02*
X52024735Y38461615D01*
X52016165Y38460544*
X52009822Y38456315*
X52005509Y38449845*
X52002731Y38442438*
X52010354Y38441591*
X52012263Y38446364*
X52012306Y38446460*
X52014574Y38450996*
X52015142Y38451564*
X52019678Y38453831*
X52019678D02*
X52019938Y38453928D01*
X52024474Y38455061*
X52024474D02*
X52025031Y38455075D01*
X52030700Y38453941*
X52031156Y38453752*
X52034558Y38451484*
X52034558D02*
X52034989Y38450996D01*
X52037257Y38446460*
X52037353Y38446200*
X52038487Y38441664*
X52038500Y38441107*
X52037366Y38435438*
X52037366D02*
X52037019Y38434789D01*
X52033617Y38431387*
X52033481Y38431269*
X52028945Y38427867*
X52028183Y38427613*
X52021367*
X52020583Y38421344*
X52025707Y38422198*
X52026124*
X52032928Y38421064*
X52033481Y38420828*
X52038017Y38417426*
X52038271Y38417172*
X52041673Y38412636*
X52041909Y38412083*
X52043043Y38405279*
X52043061Y38405071*
X52043061D02*
X52043036Y38404821D01*
X52043036D02*
X52041902Y38399152D01*
X52041746Y38398747*
X52041746D02*
X52038344Y38393078D01*
X52038017Y38392715*
X52033481Y38389313*
X52032928Y38389077*
X52026124Y38387943*
X52025666Y38387950*
X52025666D02*
X52019997Y38389084D01*
X52019678Y38389193*
X52019678D02*
X52015142Y38391461D01*
X52014694Y38391835*
X52011292Y38396371*
X52011104Y38396731*
X52009160Y38402561*
X52001420Y38401701*
X52003277Y38394273*
X52008644Y38386758*
X52008644D02*
X52016120Y38382487D01*
X52024735Y38381410*
X52035670Y38383597*
X52043151Y38387872*
X52048545Y38396502*
X52050703Y38405137*
X51118813Y40269204D02*
X51117721Y40276848D01*
X51114577Y40283137*
X51109444Y40286216*
X51109444D02*
X51101976Y40287283D01*
X51096549Y40286198*
X51092292Y40285133*
X51092292D02*
X51088160Y40282035D01*
X51084887Y40276579*
X51084887D02*
X51082662Y40276664D01*
X51080486Y40281015*
X51077414Y40284087*
X51072095Y40286215*
X51066820Y40287270*
X51066820D02*
X51062644Y40286226D01*
X51057297Y40284087*
X51050678Y40277468*
X51048510Y40278366*
Y40286167*
X51040844*
Y40229743*
X51048510*
Y40265893*
X51048548Y40266201*
X51049682Y40270736*
X51049682D02*
X51049938Y40271241D01*
X51055608Y40278045*
X51056234Y40278453*
X51064172Y40280721*
X51064829Y40280732*
X51069364Y40279598*
X51069364D02*
X51069761Y40279423D01*
X51073163Y40277155*
X51073594Y40276666*
X51075862Y40272130*
X51075996Y40271562*
Y40229743*
X51083661*
X51083661D02*
Y40262491D01*
X51083661D02*
X51083674Y40262670D01*
X51083674D02*
X51084808Y40270608D01*
X51085049Y40271190*
X51088451Y40275726*
X51088705Y40275980*
X51093241Y40279382*
X51093754Y40279611*
X51099423Y40280745*
X51099423D02*
X51099922D01*
X51105591Y40279611*
X51106358Y40279128*
X51109760Y40274592*
X51109949Y40274232*
X51111083Y40270830*
X51111148Y40270428*
Y40229743*
X51118813*
Y40269204*
X51023563D02*
X51022471Y40276848D01*
X51019327Y40283137*
X51014194Y40286216*
X51014194D02*
X51006726Y40287283D01*
X51001299Y40286198*
X50997042Y40285133*
X50997042D02*
X50992910Y40282035D01*
X50989637Y40276579*
X50989637D02*
X50987412Y40276664D01*
X50985236Y40281015*
X50982164Y40284087*
X50976845Y40286215*
X50971570Y40287270*
X50971570D02*
X50967394Y40286226D01*
X50962047Y40284087*
X50955428Y40277468*
X50953260Y40278366*
Y40286167*
X50945594*
Y40229743*
X50953260*
Y40265893*
X50953298Y40266201*
X50954432Y40270736*
X50954432D02*
X50954688Y40271241D01*
X50960358Y40278045*
X50960984Y40278453*
X50968922Y40280721*
X50969579Y40280732*
X50974114Y40279598*
X50974114D02*
X50974511Y40279423D01*
X50977913Y40277155*
X50978344Y40276666*
X50980612Y40272130*
X50980746Y40271562*
Y40229743*
X50988411*
X50988411D02*
Y40262491D01*
X50988411D02*
X50988424Y40262670D01*
X50988424D02*
X50989558Y40270608D01*
X50989799Y40271190*
X50993201Y40275726*
X50993455Y40275980*
X50997991Y40279382*
X50998504Y40279611*
X51004173Y40280745*
X51004173D02*
X51004672D01*
X51010341Y40279611*
X51011108Y40279128*
X51014510Y40274592*
X51014699Y40274232*
X51015833Y40270830*
X51015898Y40270428*
Y40229743*
X51023563*
Y40269204*
X50930581Y40279322D02*
X50928374Y40287045D01*
X50928374D02*
X50923918Y40299299D01*
X50923918D02*
X50920739Y40303539D01*
X50916578Y40306659*
X50916578D02*
X50905735Y40308828D01*
X50898217Y40307754*
X50891847Y40304569*
X50887593Y40299252*
X50884306Y40291582*
X50884306D02*
X50882083Y40281576D01*
X50882083D02*
X50880960Y40268108D01*
Y40258111*
X50883185Y40249213*
X50883185D02*
X50885401Y40241456D01*
X50888581Y40236157*
X50896093Y40230791*
X50905820Y40228629*
X50913325Y40229701*
X50919694Y40232886*
X50923948Y40238203*
X50927235Y40245873*
X50929460Y40255883*
X50930581Y40268218*
Y40279322*
X50922916Y40277232D02*
Y40259089D01*
X50922898Y40258880*
X50922898D02*
X50921765Y40252077D01*
X50921765D02*
X50921757Y40252036D01*
X50921757D02*
X50920623Y40246367D01*
X50920514Y40246048*
X50918246Y40241512*
X50917903Y40241088*
X50917903D02*
X50912234Y40236553D01*
X50911689Y40236299*
X50911689D02*
X50906020Y40235165D01*
X50905522*
X50899852Y40236299*
X50899308Y40236553*
X50893638Y40241088*
X50893638D02*
X50893296Y40241512D01*
X50893296D02*
X50891028Y40246048D01*
X50890918Y40246367*
X50889784Y40252036*
X50889784D02*
X50889777Y40252077D01*
X50888643Y40258880*
X50888626Y40259089*
Y40277232*
X50888638Y40277412*
X50888638D02*
X50889772Y40285349D01*
X50889784Y40285418*
X50889784D02*
X50890918Y40291088D01*
X50891028Y40291407*
X50893296Y40295943*
X50893296D02*
X50893638Y40296366D01*
X50893638D02*
X50899308Y40300902D01*
X50899852Y40301156*
X50905522Y40302290*
X50905980Y40302297*
X50905980D02*
X50912783Y40301163D01*
X50913566Y40300704*
X50918102Y40295034*
X50918167Y40294945*
X50920435Y40291544*
X50920435D02*
X50920623Y40291088D01*
X50921757Y40285418*
X50921757D02*
X50921769Y40285349D01*
X50922903Y40277412*
X50922903D02*
X50922916Y40277232D01*
X50861411Y40237408D02*
X50853746D01*
Y40229743*
X50861411*
X50861411D02*
Y40237408D01*
X50835308Y40252320D02*
X50834237Y40258745D01*
X50832117Y40264045*
X50827911Y40268251*
X50821292Y40271560*
X50821207Y40273785*
X50826742Y40277107*
X50829888Y40280252*
X50832001Y40284479*
X50833044Y40288649*
X50831985Y40297116*
X50826672Y40303492*
X50820279Y40307754*
X50810521Y40308838*
X50800763Y40307754*
X50794370Y40303492*
X50789048Y40297106*
X50789048D02*
X50787996Y40289741D01*
X50789054Y40284451*
X50791154Y40280252*
X50794299Y40277107*
X50799835Y40273785*
X50799583Y40271491*
X50793064Y40269318*
X50788952Y40265207*
X50786811Y40258782*
X50785734Y40252320*
X50787906Y40242543*
X50792188Y40235050*
X50800743Y40229703*
X50810521Y40228617*
X50820298Y40229703*
X50828853Y40235050*
X50833135Y40242543*
X50833135D02*
X50835308Y40252320D01*
X50825360Y40288263D02*
X50824226Y40283728D01*
X50824226D02*
X50824051Y40283331D01*
X50821783Y40279929*
X50821294Y40279498*
X50816758Y40277230*
X50816439Y40277121*
X50816439D02*
X50810770Y40275987D01*
X50810272*
X50804602Y40277121*
X50804602D02*
X50804283Y40277230D01*
X50799747Y40279498*
X50799259Y40279929*
X50796991Y40283331*
X50796802Y40283786*
X50796802D02*
X50795668Y40289456D01*
X50795682Y40290013*
X50795682D02*
X50796815Y40294549D01*
X50796815D02*
X50796991Y40294945D01*
X50799259Y40298347*
X50799747Y40298779*
X50804283Y40301046*
X50804283D02*
X50804602Y40301156D01*
X50810272Y40302290*
X50810770*
X50816439Y40301156*
X50816439D02*
X50816758Y40301046D01*
X50816758D02*
X50821294Y40298779D01*
X50821862Y40298211*
X50824130Y40293675*
X50824226Y40293415*
X50825360Y40288879*
Y40288263*
X50827666Y40252286D02*
X50827648Y40252077D01*
X50827648D02*
X50826515Y40245273D01*
X50826515D02*
X50826278Y40244720D01*
X50822876Y40240184*
X50822622Y40239930*
X50818086Y40236528*
X50817533Y40236292*
X50810730Y40235158*
X50810730D02*
X50810521Y40235141D01*
X50810521D02*
X50805985D01*
X50805985D02*
X50805281Y40235354D01*
X50805281D02*
X50801944Y40237578D01*
X50797480Y40239810*
X50796991Y40240242*
X50794723Y40243644*
X50794723D02*
X50794522Y40244168D01*
X50793388Y40252106*
X50793388D02*
X50793376Y40252286D01*
X50793376D02*
X50793400Y40252535D01*
X50794534Y40258204*
X50794691Y40258609*
X50794691D02*
X50798092Y40264278D01*
X50798092D02*
X50798419Y40264641D01*
X50798419D02*
X50802955Y40268043D01*
X50803508Y40268279*
X50810312Y40269413*
X50810730*
X50810730D02*
X50817533Y40268279D01*
X50818086Y40268043*
X50822622Y40264641*
X50822949Y40264278*
X50826351Y40258609*
X50826351D02*
X50826507Y40258204D01*
X50827641Y40252535*
X50827666Y40252286*
X50757090Y40308846D02*
X50752276D01*
X50752276D02*
X50749244Y40303793D01*
X50749053Y40303548*
X50743383Y40297879*
X50743189Y40297720*
X50743189D02*
X50736386Y40293184D01*
X50736312Y40293138*
X50736312D02*
X50729014Y40288968D01*
Y40281555*
X50738413Y40286254*
X50747393Y40292989*
X50749425Y40291973*
Y40229743*
X50757090*
Y40308846*
X50731420Y40282758D02*
Y40290343D01*
X50733960Y40284028D02*
Y40291794D01*
X50736500Y40285298D02*
Y40293260D01*
X50739040Y40286724D02*
Y40294954D01*
X50741580Y40288629D02*
Y40296647D01*
X50744120Y40290534D02*
Y40298616D01*
X50746660Y40292439D02*
Y40301156D01*
X50749200Y40292694D02*
Y40303725D01*
X50751740Y40229743D02*
Y40307953D01*
X50754280Y40229743D02*
Y40308846D01*
X50756820Y40229743D02*
Y40308846D01*
X50787300Y40245272D02*
Y40260250D01*
X50789840Y40239159D02*
Y40266095D01*
Y40282880D02*
Y40298056D01*
X50792380Y40234930D02*
Y40268634D01*
Y40279026D02*
Y40301104D01*
X50794920Y40233343D02*
Y40243348D01*
Y40258991D02*
Y40269937D01*
Y40276734D02*
Y40303859D01*
X50797460Y40231755D02*
Y40239820D01*
Y40263224D02*
Y40270784D01*
Y40275210D02*
Y40282627D01*
Y40295649D02*
Y40305552D01*
X50800000Y40230168D02*
Y40238550D01*
Y40265826D02*
Y40271725D01*
Y40273667D02*
Y40279371D01*
Y40298905D02*
Y40307245D01*
X50802540Y40229504D02*
Y40237181D01*
Y40267731D02*
Y40278101D01*
Y40300175D02*
Y40307951D01*
X50805080Y40229221D02*
Y40235487D01*
Y40268541D02*
Y40277025D01*
Y40301251D02*
Y40308234D01*
X50807620Y40228939D02*
Y40235141D01*
Y40268965D02*
Y40276517D01*
Y40301759D02*
Y40308516D01*
X50810160Y40228657D02*
Y40235141D01*
Y40269388D02*
Y40276009D01*
Y40302267D02*
Y40308798D01*
X50812700Y40228859D02*
Y40235486D01*
Y40269085D02*
Y40276373D01*
Y40301904D02*
Y40308596D01*
X50815240Y40229141D02*
Y40235910D01*
Y40268662D02*
Y40276881D01*
Y40301396D02*
Y40308314D01*
X50817780Y40229423D02*
Y40236359D01*
Y40268212D02*
Y40277741D01*
Y40300536D02*
Y40308031D01*
X50820320Y40229717D02*
Y40238204D01*
Y40266367D02*
Y40279011D01*
Y40299266D02*
Y40307726D01*
X50822860Y40231304D02*
Y40240163D01*
Y40264407D02*
Y40270776D01*
Y40274777D02*
Y40281545D01*
Y40296215D02*
Y40306033D01*
X50825400Y40232892D02*
Y40243550D01*
Y40260193D02*
Y40269506D01*
Y40276301D02*
Y40304340D01*
X50827940Y40234479D02*
Y40268222D01*
Y40278304D02*
Y40301970D01*
X50830480Y40237897D02*
Y40265682D01*
Y40281437D02*
Y40298922D01*
X50833020Y40242342D02*
Y40261787D01*
Y40288554D02*
Y40288838D01*
X50855880Y40229743D02*
Y40237408D01*
X50858420Y40229743D02*
Y40237408D01*
X50860960Y40229743D02*
Y40237408D01*
X50881280Y40256833D02*
Y40271943D01*
X50883820Y40246990D02*
Y40289394D01*
X50886360Y40239858D02*
Y40296374D01*
X50888900Y40235929D02*
Y40257338D01*
Y40279242D02*
Y40300885D01*
X50891440Y40234114D02*
Y40245223D01*
Y40292232D02*
Y40304060D01*
X50893980Y40232300D02*
Y40240815D01*
Y40296640D02*
Y40305635D01*
X50896520Y40230696D02*
Y40238783D01*
Y40298672D02*
Y40306905D01*
X50899060Y40230131D02*
Y40236751D01*
Y40300704D02*
Y40307874D01*
X50901600Y40229567D02*
Y40235949D01*
Y40301505D02*
Y40308237D01*
X50904140Y40229002D02*
Y40235442D01*
Y40302013D02*
Y40308600D01*
X50906680Y40228752D02*
Y40235297D01*
Y40302180D02*
Y40308639D01*
X50909220Y40229115D02*
Y40235805D01*
Y40301757D02*
Y40308131D01*
X50911760Y40229478D02*
Y40236315D01*
Y40301334D02*
Y40307623D01*
X50914300Y40230189D02*
Y40238206D01*
Y40299786D02*
Y40307115D01*
X50916840Y40231459D02*
Y40240238D01*
Y40296611D02*
Y40306463D01*
X50919380Y40232729D02*
Y40243780D01*
Y40293125D02*
Y40304558D01*
X50921920Y40235668D02*
Y40253010D01*
Y40284292D02*
Y40301964D01*
X50924460Y40239398D02*
Y40297810D01*
X50927000Y40245324D02*
Y40290825D01*
X50929540Y40256767D02*
Y40282966D01*
X50947320Y40229743D02*
Y40286167D01*
X50949860Y40229743D02*
Y40286167D01*
X50952400Y40229743D02*
Y40286167D01*
X50954940Y40271544D02*
Y40277164D01*
X50957480Y40274592D02*
Y40279520D01*
X50960020Y40277640D02*
Y40282060D01*
X50962560Y40278903D02*
Y40284292D01*
X50965100Y40279629D02*
Y40285308D01*
X50967640Y40280355D02*
Y40286287D01*
X50970180Y40280582D02*
Y40286922D01*
X50972720Y40279947D02*
Y40287040D01*
X50975260Y40278923D02*
Y40286532D01*
X50977800Y40277230D02*
Y40285833D01*
X50980340Y40272674D02*
Y40284817D01*
X50982880Y40229743D02*
Y40283371D01*
X50985420Y40229743D02*
Y40280647D01*
X50987960Y40229743D02*
Y40276106D01*
X50990500Y40272124D02*
Y40278018D01*
X50993040Y40275511D02*
Y40282132D01*
X50995580Y40277574D02*
Y40284037D01*
X50998120Y40279467D02*
Y40285403D01*
X51000660Y40280042D02*
Y40286038D01*
X51003200Y40280550D02*
Y40286578D01*
X51005740Y40280531D02*
Y40287086D01*
X51008280Y40280023D02*
Y40287061D01*
X51010820Y40279406D02*
Y40286698D01*
X51013360Y40276125D02*
Y40286335D01*
X51015900Y40229743D02*
Y40285193D01*
X51018440Y40229743D02*
Y40283669D01*
X51020980Y40229743D02*
Y40279831D01*
X51023520Y40229743D02*
Y40269507D01*
X51041300Y40229743D02*
Y40286167D01*
X51043840Y40229743D02*
Y40286167D01*
X51046380Y40229743D02*
Y40286167D01*
X51048920Y40267690D02*
Y40277431D01*
X51051460Y40273068D02*
Y40278250D01*
X51054000Y40276116D02*
Y40280790D01*
X51056540Y40278540D02*
Y40283330D01*
X51059080Y40279266D02*
Y40284800D01*
X51061620Y40279992D02*
Y40285816D01*
X51064160Y40280718D02*
Y40286605D01*
X51066700Y40280264D02*
Y40287240D01*
X51069240Y40279629D02*
Y40286786D01*
X51071780Y40278077D02*
Y40286278D01*
X51074320Y40275214D02*
Y40285325D01*
X51076860Y40229743D02*
Y40284309D01*
X51079400Y40229743D02*
Y40282101D01*
X51081940Y40229743D02*
Y40278107D01*
X51084480Y40268311D02*
Y40276161D01*
X51087020Y40273818D02*
Y40280134D01*
X51089560Y40276621D02*
Y40283085D01*
X51092100Y40278526D02*
Y40284990D01*
X51094640Y40279788D02*
Y40285721D01*
X51097180Y40280296D02*
Y40286324D01*
X51099720Y40280769D02*
Y40286832D01*
X51102260Y40280277D02*
Y40287243D01*
X51104800Y40279769D02*
Y40286880D01*
X51107340Y40277819D02*
Y40286517D01*
X51109880Y40274398D02*
Y40285955D01*
X51112420Y40229743D02*
Y40284431D01*
X51114960Y40229743D02*
Y40282371D01*
X51117500Y40229743D02*
Y40277291D01*
X52001420Y38401700D02*
Y38401701D01*
X52003960Y38393317D02*
Y38401983D01*
Y38442302D02*
Y38445715D01*
X52006500Y38389761D02*
Y38402265D01*
Y38442019D02*
Y38451332D01*
X52009040Y38386532D02*
Y38402548D01*
Y38441737D02*
Y38455142D01*
X52011580Y38385081D02*
Y38395988D01*
Y38444656D02*
Y38457487D01*
X52014120Y38383629D02*
Y38392601D01*
Y38450087D02*
Y38459180D01*
X52016660Y38382419D02*
Y38390702D01*
Y38452323D02*
Y38460606D01*
X52019200Y38382102D02*
Y38389432D01*
Y38453593D02*
Y38460923D01*
X52021740Y38381784D02*
Y38388735D01*
Y38421537D02*
Y38427613D01*
Y38454378D02*
Y38461241D01*
X52024280Y38381467D02*
Y38388227D01*
Y38421960D02*
Y38427613D01*
Y38455013D02*
Y38461558D01*
X52026820Y38381827D02*
Y38388059D01*
Y38422082D02*
Y38427613D01*
Y38454717D02*
Y38461198D01*
X52029360Y38382335D02*
Y38388482D01*
Y38421659D02*
Y38428178D01*
Y38454209D02*
Y38460690D01*
X52031900Y38382843D02*
Y38388905D01*
Y38421236D02*
Y38430083D01*
Y38453256D02*
Y38459820D01*
X52034440Y38383351D02*
Y38390033D01*
Y38420108D02*
Y38432210D01*
Y38451563D02*
Y38458804D01*
X52036980Y38384346D02*
Y38391938D01*
Y38418203D02*
Y38423856D01*
Y38427713D02*
Y38434750D01*
Y38447013D02*
Y38457267D01*
X52039520Y38385797D02*
Y38395038D01*
Y38415506D02*
Y38423009D01*
Y38429618D02*
Y38455362D01*
X52042060Y38387248D02*
Y38399942D01*
Y38411179D02*
Y38422163D01*
Y38431523D02*
Y38453457D01*
X52044600Y38390190D02*
Y38419742D01*
Y38435152D02*
Y38449181D01*
X52047140Y38394254D02*
Y38416743D01*
X52049680Y38401043D02*
Y38412301D01*
X52072540Y38434905D02*
Y38442400D01*
X52075080Y38436175D02*
Y38443851D01*
X52077620Y38437445D02*
Y38445302D01*
X52080160Y38438715D02*
Y38446889D01*
X52082700Y38440458D02*
Y38448582D01*
X52085240Y38442363D02*
Y38450275D01*
X52087780Y38444268D02*
Y38452666D01*
X52090320Y38446007D02*
Y38455206D01*
X52092860Y38382528D02*
Y38458614D01*
X52095400Y38382528D02*
Y38461631D01*
X52097940Y38382528D02*
Y38461631D01*
X52133500Y38382528D02*
Y38390193D01*
X52136040Y38382528D02*
Y38390193D01*
X52138580Y38382528D02*
Y38390193D01*
X52156360Y38401805D02*
Y38411692D01*
X52158900Y38401805D02*
Y38415053D01*
X52161440Y38401805D02*
Y38418415D01*
X52163980Y38401805D02*
Y38421777D01*
X52166520Y38401805D02*
Y38409470D01*
Y38412853D02*
Y38425139D01*
X52169060Y38401805D02*
Y38409470D01*
Y38416240D02*
Y38428500D01*
X52171600Y38401805D02*
Y38409470D01*
Y38419627D02*
Y38431862D01*
X52174140Y38401805D02*
Y38409470D01*
Y38423013D02*
Y38435224D01*
X52176680Y38401805D02*
Y38409470D01*
Y38426400D02*
Y38438586D01*
X52179220Y38401805D02*
Y38409470D01*
Y38429787D02*
Y38441947D01*
X52181760Y38401805D02*
Y38409470D01*
Y38433173D02*
Y38445309D01*
X52184300Y38401805D02*
Y38409470D01*
Y38436560D02*
Y38448671D01*
X52186840Y38401805D02*
Y38409470D01*
Y38439947D02*
Y38452033D01*
X52189380Y38401805D02*
Y38409470D01*
Y38443327D02*
Y38455394D01*
X52191920Y38382528D02*
Y38458756D01*
X52194460Y38382528D02*
Y38460497D01*
X52197000Y38382528D02*
Y38460497D01*
X52199540Y38401317D02*
Y38409958D01*
X52202080Y38401805D02*
Y38409470D01*
X52204620Y38401805D02*
Y38409470D01*
X52207160Y38401805D02*
Y38409470D01*
X52224940Y38382528D02*
Y38438952D01*
X52227480Y38382528D02*
Y38438952D01*
X52230020Y38382528D02*
Y38438952D01*
X52232560Y38420456D02*
Y38430221D01*
X52235100Y38425847D02*
Y38431030D01*
X52237640Y38428895D02*
Y38433570D01*
X52240180Y38431324D02*
Y38436110D01*
X52242720Y38432050D02*
Y38437583D01*
X52245260Y38432775D02*
Y38438599D01*
X52247800Y38433501D02*
Y38439389D01*
X52250340Y38433050D02*
Y38440024D01*
X52252880Y38432415D02*
Y38439572D01*
X52255420Y38430865D02*
Y38439064D01*
X52257960Y38428009D02*
Y38438112D01*
X52260500Y38382528D02*
Y38437096D01*
X52263040Y38382528D02*
Y38434891D01*
X52265580Y38382528D02*
Y38430902D01*
X52268120Y38421062D02*
Y38428943D01*
X52270660Y38426596D02*
Y38432911D01*
X52273200Y38429403D02*
Y38435866D01*
X52275740Y38431308D02*
Y38437771D01*
X52278280Y38432572D02*
Y38438504D01*
X52280820Y38433080D02*
Y38439108D01*
X52283360Y38433554D02*
Y38439616D01*
X52285900Y38433063D02*
Y38440028D01*
X52288440Y38432555D02*
Y38439665D01*
X52290980Y38430610D02*
Y38439303D01*
X52293520Y38427192D02*
Y38438743D01*
X52296060Y38382528D02*
Y38437219D01*
X52298600Y38382528D02*
Y38435165D01*
X52301140Y38382528D02*
Y38430085D01*
X52321460Y38382528D02*
Y38438952D01*
X52324000Y38382528D02*
Y38438952D01*
X52326540Y38382528D02*
Y38438952D01*
X52329080Y38424323D02*
Y38429947D01*
X52331620Y38427371D02*
Y38432300D01*
X52334160Y38430419D02*
Y38434840D01*
X52336700Y38431687D02*
Y38437075D01*
X52339240Y38432413D02*
Y38438091D01*
X52341780Y38433138D02*
Y38439071D01*
X52344320Y38433368D02*
Y38439706D01*
X52346860Y38432733D02*
Y38439826D01*
X52349400Y38431711D02*
Y38439318D01*
X52351940Y38430018D02*
Y38438620D01*
X52354480Y38425469D02*
Y38437604D01*
X52357020Y38382528D02*
Y38436161D01*
X52359560Y38382528D02*
Y38433442D01*
X52362100Y38382528D02*
Y38428894D01*
X52364640Y38424903D02*
Y38430795D01*
X52367180Y38428290D02*
Y38434914D01*
X52369720Y38430355D02*
Y38436818D01*
X52372260Y38432249D02*
Y38438187D01*
X52374800Y38432826D02*
Y38438822D01*
X52377340Y38433334D02*
Y38439362D01*
X52379880Y38433317D02*
Y38439870D01*
X52382420Y38432809D02*
Y38439847D01*
X52384960Y38432195D02*
Y38439484D01*
X52387500Y38428917D02*
Y38439121D01*
X52390040Y38423294D02*
Y38437981D01*
X52392580Y38382528D02*
Y38436457D01*
X52395120Y38382528D02*
Y38432625D01*
X52397660Y38382528D02*
Y38422325D01*
*
G04 PC Custom Flashes*
G04 Layer Name ESP32-WROVER-V4.pcb - flashes*
%LPD*%
*
*
G04 PC Circuitry*
G04 Layer Name ESP32-WROVER-V4.pcb - circuitry*
%LPD*%
*
G54D10*
X50000000Y40000000D02*
X50000067D01*
X51799996D02*
X51800063D01*
X51808988Y36857766D02*
X51809055D01*
X51799996Y40000000D02*
X51800063D01*
G54D44*
X50000000D02*
X51799996D01*
Y36859290*
X50000000*
Y40000000*
G54D45*
X50526898Y37764800D03*
X50383286D03*
X50876300D03*
X50242316Y38936248D03*
X50317500D03*
X50390652D03*
X51025906Y38787150D03*
X50876300Y38836680D03*
G54D46*
X50390982Y38456010D03*
X51143000Y38495990D03*
X51133018Y38256011D03*
X51143000Y38616005D03*
G54D47*
X50133191Y37161563D03*
X50132233Y37042877D03*
X50131276Y36921319D03*
X50649094Y36906961D03*
X50545722D03*
X50204977Y36918447D03*
X50450007Y36904090D03*
X50301812Y37162258D03*
X50280592Y36917490D03*
X50367692Y36912704D03*
X51176117Y36911404D03*
X50987657Y37111998D03*
X50945580Y37057900D03*
X50888477Y37002299D03*
X50951591Y36973747D03*
X50725495Y36911404D03*
X51004187Y37023337D03*
X51025123Y36901967D03*
X50892985Y37152571D03*
X51095902Y36911404D03*
X50711103Y37158502D03*
X50819866Y36911404D03*
X50899746Y36927795D03*
X50971133Y37163261D03*
X50828888Y37097580D03*
X50835319Y37155810D03*
X51535168Y36984875D03*
X51480464Y36909044D03*
X51577194D03*
X51652691Y36911404D03*
X51282285D03*
X51403510Y36975139D03*
X51364859Y36913763D03*
X50134148Y37338636D03*
X50133191Y37279292D03*
X50131984Y37419676D03*
X50129545Y37536729D03*
X50132919Y37590322D03*
X50131962Y37666894D03*
X50637286Y37206000D03*
X50510286Y37459078D03*
X50212634Y37394150D03*
X50269106Y37433393D03*
X50305477Y37502308D03*
Y37571223D03*
X50302606Y37644923D03*
X50236234Y37518439D03*
X50511293Y37380985D03*
X50443670Y37191642D03*
X50452687Y37256259D03*
X50191120Y37466619D03*
X50494763Y37203664D03*
X50614981Y37460630D03*
X50494763Y37307352D03*
X50583424Y37344920D03*
X50548861Y37274292D03*
X50645035Y37298335D03*
X50646538Y37364455D03*
X50184605Y37595107D03*
X50199919Y37654451D03*
X50764286Y37474910D03*
X51056464Y37419336D03*
X51129208Y37418379D03*
X51035038Y37305468D03*
X50843395Y37528252D03*
X51095339Y37305468D03*
X50832491Y37616509D03*
X51157553Y37304511D03*
X50885135Y37576308D03*
X51156596Y37367683D03*
X50885135Y37410721D03*
X51087681Y37365769D03*
X51023552Y37369598D03*
X50920034Y37302844D03*
X50918531Y37365958D03*
X50958466Y37661528D03*
X50873450Y37331395D03*
X51051310Y37568685D03*
X50813341Y37368963D03*
X51049395Y37520827D03*
X50813341Y37293827D03*
X51118310Y37524656D03*
X50775773Y37331395D03*
X51147025Y37562942D03*
X51108739Y37606971D03*
X51333500Y37206000D03*
X51206500Y37255450D03*
X51460500Y37474898D03*
X51416874Y37209908D03*
X51670952Y37364150D03*
X51630639Y37410152D03*
X51450423Y37406071D03*
X51578953Y37448438D03*
X51505901Y37347545D03*
X51669038Y37545052D03*
X51533967Y37488639D03*
X51561380Y37294505D03*
X51668080Y37175592D03*
X51496786Y37194003D03*
X51624173Y37231711D03*
X51288257Y37406681D03*
X51363244Y37342667D03*
X51405485Y37300748D03*
X51318430Y37299823D03*
X51273348Y37343402D03*
X51327446Y37374959D03*
X51254225Y37561027D03*
X51287726Y37521784D03*
X50127176Y37791323D03*
X50126219Y37919581D03*
X50662000Y38056900D03*
X50305663Y38056935D03*
X50306435Y37712881D03*
X50392233Y38049009D03*
X50302606Y37777967D03*
X50344071Y38012430D03*
X50303224Y37854531D03*
X50395891Y37851483D03*
X50341632Y37813685D03*
X50201834Y37721451D03*
X50406400Y38141990D03*
X50355600Y38101985D03*
X50702000Y38031500D03*
X50822000Y38056900D03*
X50862000Y38031500D03*
X50808069Y37902021D03*
X51008607Y37687338D03*
X50742000Y38056900D03*
X50812946Y37831911D03*
X50870253Y37848981D03*
X51059086Y38174547D03*
X51557032Y38122876D03*
X51616069Y37883708D03*
X51503182Y38126232D03*
X51615856Y37973339D03*
X51601813Y38175547D03*
X51612240Y37812879D03*
X51527798Y37981953D03*
X51553854Y37851165D03*
X51452702Y38125455D03*
X51561511Y37921994D03*
X51667889Y37914090D03*
X51547154Y37787993D03*
X51665209Y37856125D03*
X51664252Y37788168D03*
X51398113Y38177173D03*
X51672327Y37977168D03*
X51397625Y37982911D03*
X51346200Y38049839D03*
X51320800Y38092638D03*
X50176378Y38603635D03*
X50262731Y38305328D03*
X50211430Y38651717D03*
X50686738Y38398702D03*
Y38627302D03*
Y38551102D03*
Y38474902D03*
Y38322502D03*
X50610538Y38474902D03*
Y38398702D03*
Y38627302D03*
Y38551102D03*
Y38322502D03*
X50406400Y38222000D03*
X50355600Y38181995D03*
X50363550Y38390707D03*
X50350520Y38501400D03*
X50366903Y38577600D03*
X50393700Y38616000D03*
X50368300Y38656000D03*
X50393700Y38536000D03*
X51194546Y38212347D03*
X50762938Y38474902D03*
X50839138Y38551102D03*
X50762938D03*
Y38398702D03*
X50839138Y38322502D03*
X50762938D03*
X50915338Y38551102D03*
X50839138Y38474902D03*
X50915338D03*
Y38322502D03*
X50839138Y38398702D03*
Y38627302D03*
X50915338D03*
X50762938D03*
X50915338Y38398702D03*
X51186180Y38456000D03*
X51112520Y38416000D03*
X51176122Y38295990D03*
X51168400Y38376000D03*
X51133018Y38335995D03*
X51014832Y38210951D03*
X51228810Y38426081D03*
X51600482Y38277968D03*
X51292881Y38355020D03*
X51273429Y38604281D03*
X51293269Y38307646D03*
X51589508Y38232245D03*
X51371667Y38586613D03*
X51327441Y38243963D03*
X51380202Y38633556D03*
X51391512Y38235808D03*
X51362000Y38207850D03*
X51601193Y38322241D03*
X51597535Y38369184D03*
Y38413688D03*
X51516936Y38410769D03*
X51596316Y38463679D03*
X51549373Y38590486D03*
X51276289Y38557170D03*
X51493285Y38581951D03*
X51596316Y38514890D03*
X51598145Y38561833D03*
X51422268Y38656113D03*
X51319041Y38589889D03*
X50123086Y38802169D03*
X50173579Y38913407D03*
X50166879Y38854064D03*
X50539087Y39185082D03*
X50593645Y39146796D03*
X50649159Y39164981D03*
X50390993Y38696000D03*
X50368300Y38735994D03*
X50515874Y38964696D03*
X50390982Y38775999D03*
X50368300Y38816004D03*
X50578866Y38907800D03*
X50515874Y39053596D03*
X51000796Y38864545D03*
X50840057Y39136873D03*
X51153452Y38862216D03*
X51173553Y38926345D03*
X51151538Y38996217D03*
X51074966Y39006745D03*
X51147710Y39063217D03*
X51066352Y39076617D03*
X51141010Y39135003D03*
X50711374Y39163067D03*
X51066352Y39137875D03*
X51095932Y38863380D03*
X51091660Y38938324D03*
X51016328Y38964729D03*
X51012445Y39010938D03*
X51008950Y39061419D03*
X51012057Y39109958D03*
X51011280Y39160438D03*
X51040403Y39195386D03*
X50768649Y39177713D03*
X50778483Y39117973D03*
X50823597Y39083223D03*
X50872369Y39100294D03*
X50871192Y39052089D03*
X50869639Y38990347D03*
Y38934818D03*
X51308482Y38714286D03*
X51213282Y39183544D03*
X51255348Y39141478D03*
X51302901Y39103070D03*
X51369962Y39092096D03*
X51438852Y39090267D03*
X51229667Y38863561D03*
X51223324Y39003874D03*
X51616572Y38882202D03*
X51251082Y38935916D03*
X51208010Y39096717D03*
X51669070Y38930564D03*
X51285539Y38877530D03*
X51257782Y39053646D03*
X51683427Y38811878D03*
X51312339Y39044074D03*
X51289368Y38994302D03*
X51353497Y38991431D03*
X51374554Y39041203D03*
X51437726Y39012488D03*
X51336268Y38930173D03*
X51411883Y38938788D03*
X51474098Y38932088D03*
X51536312Y38936873D03*
X51603631Y38704491D03*
X51384980Y38696423D03*
X50128566Y39293575D03*
X50134891Y39224639D03*
X50156373Y39361817D03*
X50665277Y39298314D03*
X50265314Y39298083D03*
X50202199D03*
X50326925Y39301088D03*
X50390040Y39299585D03*
X50450149Y39298083D03*
X50515158Y39302811D03*
X50588859Y39299940D03*
X50252697Y39358768D03*
X50509415Y39242511D03*
X50336219Y39359988D03*
X50416693Y39356939D03*
X50561102Y39244425D03*
X50484974Y39356939D03*
X50597473Y39202310D03*
X50634802Y39245382D03*
X50567277Y39358159D03*
X50686488Y39209010D03*
X50652018Y39361207D03*
X50753335Y39299271D03*
X51096320Y39197328D03*
X51151849Y39198104D03*
X51190115Y39306083D03*
X51124273Y39306693D03*
X50733388Y39242511D03*
X51169869Y39359376D03*
X50970782Y39365118D03*
X51091383Y39363204D03*
X50728224Y39354501D03*
X51033954Y39365118D03*
X50889781Y39362426D03*
X50808088D03*
X51053554Y39309131D03*
X50985883Y39305473D03*
X50902650Y39303100D03*
X50816507Y39304057D03*
X50848093Y39252371D03*
X50779178Y39237056D03*
X51352282Y39242070D03*
X51427792Y39247383D03*
X51408980Y39294500D03*
X51399835Y39363390D03*
X51251080Y39346930D03*
X51684670Y39375248D03*
X51441554Y39329305D03*
G54D109*
X51496061Y37474898D02*
G75*
G03X51496061I-35561J0D01*
G01X51369061Y37206000D02*
G03X51369061I-35561J0D01*
G01X51242061Y37255450D02*
G03X51242061I-35561J0D01*
G01X51182371Y38616005D02*
G03X51182371I-39371J0D01*
G01X51006693Y37163261D02*
G03X51006693I-35560J0D01*
G01X51050392Y38210951D02*
G03X51050392I-35560J0D01*
G01X51071627Y38787150D02*
G03X51071627I-45721J0D01*
G01X50922021Y37764800D02*
G03X50922021I-45721J0D01*
G01X50799847Y37474910D02*
G03X50799847I-35561J0D01*
G01X50922021Y38836680D02*
G03X50922021I-45721J0D01*
G01X50672847Y37206000D02*
G03X50672847I-35561J0D01*
G01X50545847Y37459078D02*
G03X50545847I-35561J0D01*
G01X50572618Y37764800D02*
G03X50572618I-45720J0D01*
G01X50614427Y38907800D02*
G03X50614427I-35561J0D01*
G01X50551435Y38964696D02*
G03X50551435I-35561J0D01*
G01Y39053596D02*
G03X50551435I-35561J0D01*
G01X50429007Y37764800D02*
G03X50429007I-45721J0D01*
G01X51778405Y39199901D02*
Y39400636D01*
X51778405D02*
G03X51774595Y39404446I-3810J0D01*
G01X51774595D02*
X50025401D01*
X50025401D02*
G03X50021591Y39400636I-0J-3810D01*
G01X50021591D02*
Y39198927D01*
X50021591D02*
G03X50025401Y39195117I3810J-0D01*
G01X50025401D02*
X50045000D01*
X50051849Y39194001D02*
G03X50045000Y39195117I-6849J-20475D01*
G01X50051849Y39194001D02*
G03X50053058Y39193805I1209J3614D01*
G01X50053058D02*
X50059182D01*
X50065533Y39187454D02*
G03X50059182Y39193805I-6351J0D01*
G01X50065533Y39187454D02*
Y39180781D01*
X50065533D02*
G03X50065691Y39179692I3810J-0D01*
G01X50066590Y39173526D02*
G03X50065691Y39179692I-21590J0D01*
G01X50066591Y39173526D02*
Y39083526D01*
X50065691Y39077360D02*
G03X50066591Y39083526I-20691J6166D01*
G01X50065691Y39077360D02*
G03X50065533Y39076271I3652J-1089D01*
G01X50065533D02*
Y39053781D01*
X50065533D02*
G03X50065691Y39052692I3810J-0D01*
G01X50066590Y39046526D02*
G03X50065691Y39052692I-21590J0D01*
G01X50066591Y39046526D02*
Y38956526D01*
X50065691Y38950360D02*
G03X50066591Y38956526I-20691J6166D01*
G01X50065691Y38950360D02*
G03X50065533Y38949271I3652J-1089D01*
G01X50065533D02*
Y38926781D01*
X50065533D02*
G03X50065691Y38925692I3810J-0D01*
G01X50066590Y38919526D02*
G03X50065691Y38925692I-21590J0D01*
G01X50066591Y38919526D02*
Y38829526D01*
X50065691Y38823360D02*
G03X50066591Y38829526I-20691J6166D01*
G01X50065691Y38823360D02*
G03X50065533Y38822271I3652J-1089D01*
G01X50065533D02*
Y38799781D01*
X50065533D02*
G03X50065691Y38798692I3810J-0D01*
G01X50066590Y38792526D02*
G03X50065691Y38798692I-21590J0D01*
G01X50066591Y38792526D02*
Y38702526D01*
X50065691Y38696360D02*
G03X50066591Y38702526I-20691J6166D01*
G01X50065691Y38696360D02*
G03X50065533Y38695271I3652J-1089D01*
G01X50065533D02*
Y38672781D01*
X50065533D02*
G03X50065691Y38671692I3810J-0D01*
G01X50066590Y38665526D02*
G03X50065691Y38671692I-21590J0D01*
G01X50066591Y38665526D02*
Y38575526D01*
X50065691Y38569360D02*
G03X50066591Y38575526I-20691J6166D01*
G01X50065691Y38569360D02*
G03X50065533Y38568271I3652J-1089D01*
G01X50065533D02*
Y38545781D01*
X50065533D02*
G03X50065691Y38544692I3810J-0D01*
G01X50066590Y38538526D02*
G03X50065691Y38544692I-21590J0D01*
G01X50066591Y38538526D02*
Y38448526D01*
X50065691Y38442360D02*
G03X50066591Y38448526I-20691J6166D01*
G01X50065691Y38442360D02*
G03X50065533Y38441271I3652J-1089D01*
G01X50065533D02*
Y38418781D01*
X50065533D02*
G03X50065691Y38417692I3810J-0D01*
G01X50066590Y38411526D02*
G03X50065691Y38417692I-21590J0D01*
G01X50066591Y38411526D02*
Y38321526D01*
X50065691Y38315360D02*
G03X50066591Y38321526I-20691J6166D01*
G01X50065691Y38315360D02*
G03X50065533Y38314271I3652J-1089D01*
G01X50065533D02*
Y38291781D01*
X50065533D02*
G03X50065691Y38290692I3810J-0D01*
G01X50066590Y38284526D02*
G03X50065691Y38290692I-21590J0D01*
G01X50066591Y38284526D02*
Y38194526D01*
X50065691Y38188360D02*
G03X50066591Y38194526I-20691J6166D01*
G01X50065691Y38188360D02*
G03X50065533Y38187271I3652J-1089D01*
G01X50065533D02*
Y38164781D01*
X50065533D02*
G03X50065691Y38163692I3810J-0D01*
G01X50066590Y38157526D02*
G03X50065691Y38163692I-21590J0D01*
G01X50066591Y38157526D02*
Y38067526D01*
X50065691Y38061360D02*
G03X50066591Y38067526I-20691J6166D01*
G01X50065691Y38061360D02*
G03X50065533Y38060271I3652J-1089D01*
G01X50065533D02*
Y38037781D01*
X50065533D02*
G03X50065691Y38036692I3810J-0D01*
G01X50066590Y38030526D02*
G03X50065691Y38036692I-21590J0D01*
G01X50066591Y38030526D02*
Y37940526D01*
X50065691Y37934360D02*
G03X50066591Y37940526I-20691J6166D01*
G01X50065691Y37934360D02*
G03X50065533Y37933271I3652J-1089D01*
G01X50065533D02*
Y37910781D01*
X50065533D02*
G03X50065691Y37909692I3810J-0D01*
G01X50066590Y37903526D02*
G03X50065691Y37909692I-21590J0D01*
G01X50066591Y37903526D02*
Y37813526D01*
X50065691Y37807360D02*
G03X50066591Y37813526I-20691J6166D01*
G01X50065691Y37807360D02*
G03X50065533Y37806271I3652J-1089D01*
G01X50065533D02*
Y37783781D01*
X50065533D02*
G03X50065691Y37782692I3810J-0D01*
G01X50066590Y37776526D02*
G03X50065691Y37782692I-21590J0D01*
G01X50066591Y37776526D02*
Y37686526D01*
X50065691Y37680360D02*
G03X50066591Y37686526I-20691J6166D01*
G01X50065691Y37680360D02*
G03X50065533Y37679271I3652J-1089D01*
G01X50065533D02*
Y37656781D01*
X50065533D02*
G03X50065691Y37655692I3810J-0D01*
G01X50066590Y37649526D02*
G03X50065691Y37655692I-21590J0D01*
G01X50066591Y37649526D02*
Y37559526D01*
X50065691Y37553360D02*
G03X50066591Y37559526I-20691J6166D01*
G01X50065691Y37553360D02*
G03X50065533Y37552271I3652J-1089D01*
G01X50065533D02*
Y37549662D01*
X50060187Y37543392D02*
G03X50065533Y37549662I-1005J6270D01*
G01X50060187Y37543391D02*
G03X50058421Y37542614I603J-3762D01*
G01X50045000Y37537935D02*
G03X50058421Y37542614I0J21591D01*
G01X50045000Y37537935D02*
X50025401D01*
X50025401D02*
G03X50021591Y37534125I-0J-3810D01*
G01X50021591D02*
Y37420927D01*
X50021591D02*
G03X50025401Y37417117I3810J-0D01*
G01X50025401D02*
X50045000D01*
X50050389Y37416433D02*
G03X50045000Y37417117I-5389J-20907D01*
G01X50050389Y37416433D02*
G03X50051340Y37416313I951J3690D01*
G01X50051340D02*
X50059182D01*
X50065533Y37409962D02*
G03X50059182Y37416313I-6351J0D01*
G01X50065533Y37409962D02*
Y37402781D01*
X50065533D02*
G03X50065691Y37401692I3810J-0D01*
G01X50066590Y37395526D02*
G03X50065691Y37401692I-21590J0D01*
G01X50066591Y37395526D02*
Y37305526D01*
X50065691Y37299360D02*
G03X50066591Y37305526I-20691J6166D01*
G01X50065691Y37299360D02*
G03X50065533Y37298271I3652J-1089D01*
G01X50065533D02*
Y37275781D01*
X50065533D02*
G03X50065691Y37274692I3810J-0D01*
G01X50066590Y37268526D02*
G03X50065691Y37274692I-21590J0D01*
G01X50066591Y37268526D02*
Y37178526D01*
X50065691Y37172360D02*
G03X50066591Y37178526I-20691J6166D01*
G01X50065691Y37172360D02*
G03X50065533Y37171271I3652J-1089D01*
G01X50065533D02*
Y37148781D01*
X50065533D02*
G03X50065691Y37147692I3810J-0D01*
G01X50066590Y37141526D02*
G03X50065691Y37147692I-21590J0D01*
G01X50066591Y37141526D02*
Y37051526D01*
X50065691Y37045360D02*
G03X50066591Y37051526I-20691J6166D01*
G01X50065691Y37045360D02*
G03X50065533Y37044271I3652J-1089D01*
G01X50065533D02*
Y37021781D01*
X50065533D02*
G03X50065691Y37020692I3810J-0D01*
G01X50066590Y37014526D02*
G03X50065691Y37020692I-21590J0D01*
G01X50066591Y37014526D02*
Y36924526D01*
X50065691Y36918360D02*
G03X50066591Y36924526I-20691J6166D01*
G01X50065691Y36918360D02*
G03X50065533Y36917271I3652J-1089D01*
G01X50065533D02*
Y36913646D01*
X50059212Y36907296D02*
G03X50065533Y36913646I-30J6350D01*
G01X50059212Y36907295D02*
G03X50057095Y36906642I18J-3809D01*
G01X50045000Y36902936D02*
G03X50057095Y36906642I0J21590D01*
G01X50045000Y36902935D02*
X50025401D01*
X50025401D02*
G03X50021591Y36899125I-0J-3810D01*
G01X50021591D02*
Y36884691D01*
X50021591D02*
G03X50025401Y36880881I3810J-0D01*
G01X50025401D02*
X51774595D01*
X51774595D02*
G03X51778405Y36884691I0J3810D01*
G01X51778405D02*
Y36899125D01*
X51778405D02*
G03X51774595Y36902935I-3810J0D01*
G01X51774595D02*
X51755352D01*
X51743236Y36906656D02*
G03X51755352Y36902935I12116J17870D01*
G01X51743236Y36906656D02*
G03X51741315Y36907306I-2138J-3154D01*
G01X51735328Y36913646D02*
G03X51741315Y36907306I6350J0D01*
G01X51735327Y36913646D02*
Y36915745D01*
X51735327D02*
G03X51735093Y36917062I-3810J0D01*
G01X51733762Y36924526D02*
G03X51735093Y36917062I21590J0D01*
G01X51733761Y36924526D02*
Y37014526D01*
X51735093Y37021990D02*
G03X51733761Y37014526I20259J-7464D01*
G01X51735093Y37021990D02*
G03X51735327Y37023307I-3576J1317D01*
G01X51735327D02*
Y37042745D01*
X51735327D02*
G03X51735093Y37044062I-3810J0D01*
G01X51733762Y37051526D02*
G03X51735093Y37044062I21590J0D01*
G01X51733761Y37051526D02*
Y37141526D01*
X51735093Y37148990D02*
G03X51733761Y37141526I20259J-7464D01*
G01X51735093Y37148990D02*
G03X51735327Y37150307I-3576J1317D01*
G01X51735327D02*
Y37169745D01*
X51735327D02*
G03X51735093Y37171062I-3810J0D01*
G01X51733762Y37178526D02*
G03X51735093Y37171062I21590J0D01*
G01X51733761Y37178526D02*
Y37268526D01*
X51735093Y37275990D02*
G03X51733761Y37268526I20259J-7464D01*
G01X51735093Y37275990D02*
G03X51735327Y37277307I-3576J1317D01*
G01X51735327D02*
Y37296745D01*
X51735327D02*
G03X51735093Y37298062I-3810J0D01*
G01X51733762Y37305526D02*
G03X51735093Y37298062I21590J0D01*
G01X51733761Y37305526D02*
Y37395526D01*
X51735093Y37402990D02*
G03X51733761Y37395526I20259J-7464D01*
G01X51735093Y37402990D02*
G03X51735327Y37404307I-3576J1317D01*
G01X51735327D02*
Y37423745D01*
X51735327D02*
G03X51735093Y37425062I-3810J0D01*
G01X51733762Y37432526D02*
G03X51735093Y37425062I21590J0D01*
G01X51733761Y37432526D02*
Y37522526D01*
X51735093Y37529990D02*
G03X51733761Y37522526I20259J-7464D01*
G01X51735093Y37529990D02*
G03X51735327Y37531307I-3576J1317D01*
G01X51735327D02*
Y37550745D01*
X51735327D02*
G03X51735093Y37552062I-3810J0D01*
G01X51733762Y37559526D02*
G03X51735093Y37552062I21590J0D01*
G01X51733761Y37559526D02*
Y37649526D01*
X51735093Y37656990D02*
G03X51733761Y37649526I20259J-7464D01*
G01X51735093Y37656990D02*
G03X51735327Y37658307I-3576J1317D01*
G01X51735327D02*
Y37676834D01*
X51735327D02*
G03X51735039Y37678288I-3810J0D01*
G01X51733406Y37686526D02*
G03X51735039Y37678288I21590J0D01*
G01X51733406Y37686526D02*
Y37776526D01*
X51735039Y37784764D02*
G03X51733406Y37776526I19957J-8238D01*
G01X51735039Y37784764D02*
G03X51735327Y37786218I-3522J1454D01*
G01X51735327D02*
Y37803833D01*
X51735327D02*
G03X51735039Y37805287I-3810J0D01*
G01X51733406Y37813526D02*
G03X51735039Y37805287I21590J0D01*
G01X51733405Y37813526D02*
Y37903526D01*
X51735039Y37911765D02*
G03X51733405Y37903526I19957J-8239D01*
G01X51735039Y37911765D02*
G03X51735327Y37913219I-3522J1454D01*
G01X51735327D02*
Y37930833D01*
X51735327D02*
G03X51735039Y37932287I-3810J0D01*
G01X51733406Y37940526D02*
G03X51735039Y37932287I21590J0D01*
G01X51733405Y37940526D02*
Y38030526D01*
X51735039Y38038765D02*
G03X51733405Y38030526I19957J-8239D01*
G01X51735039Y38038765D02*
G03X51735327Y38040219I-3522J1454D01*
G01X51735327D02*
Y38057833D01*
X51735327D02*
G03X51735039Y38059287I-3810J0D01*
G01X51733406Y38067526D02*
G03X51735039Y38059287I21590J0D01*
G01X51733405Y38067526D02*
Y38157526D01*
X51735039Y38165765D02*
G03X51733405Y38157526I19957J-8239D01*
G01X51735039Y38165765D02*
G03X51735327Y38167219I-3522J1454D01*
G01X51735327D02*
Y38184834D01*
X51735327D02*
G03X51735039Y38186288I-3810J0D01*
G01X51733406Y38194526D02*
G03X51735039Y38186288I21590J0D01*
G01X51733406Y38194526D02*
Y38284526D01*
X51735039Y38292764D02*
G03X51733406Y38284526I19957J-8238D01*
G01X51735039Y38292764D02*
G03X51735327Y38294218I-3522J1454D01*
G01X51735327D02*
Y38311834D01*
X51735327D02*
G03X51735039Y38313288I-3810J0D01*
G01X51733406Y38321526D02*
G03X51735039Y38313288I21590J0D01*
G01X51733406Y38321526D02*
Y38411526D01*
X51735039Y38419764D02*
G03X51733406Y38411526I19957J-8238D01*
G01X51735039Y38419764D02*
G03X51735327Y38421218I-3522J1454D01*
G01X51735327D02*
Y38438834D01*
X51735327D02*
G03X51735039Y38440288I-3810J0D01*
G01X51733406Y38448526D02*
G03X51735039Y38440288I21590J0D01*
G01X51733406Y38448526D02*
Y38538526D01*
X51735039Y38546764D02*
G03X51733406Y38538526I19957J-8238D01*
G01X51735039Y38546764D02*
G03X51735327Y38548218I-3522J1454D01*
G01X51735327D02*
Y38565834D01*
X51735327D02*
G03X51735039Y38567288I-3810J0D01*
G01X51733406Y38575526D02*
G03X51735039Y38567288I21590J0D01*
G01X51733406Y38575526D02*
Y38665526D01*
X51735039Y38673764D02*
G03X51733406Y38665526I19957J-8238D01*
G01X51735039Y38673764D02*
G03X51735327Y38675218I-3522J1454D01*
G01X51735327D02*
Y38692834D01*
X51735327D02*
G03X51735039Y38694288I-3810J0D01*
G01X51733406Y38702526D02*
G03X51735039Y38694288I21590J0D01*
G01X51733406Y38702526D02*
Y38792526D01*
X51735039Y38800764D02*
G03X51733406Y38792526I19957J-8238D01*
G01X51735039Y38800764D02*
G03X51735327Y38802218I-3522J1454D01*
G01X51735327D02*
Y38819834D01*
X51735327D02*
G03X51735039Y38821288I-3810J0D01*
G01X51733406Y38829526D02*
G03X51735039Y38821288I21590J0D01*
G01X51733406Y38829526D02*
Y38919526D01*
X51735039Y38927764D02*
G03X51733406Y38919526I19957J-8238D01*
G01X51735039Y38927764D02*
G03X51735327Y38929218I-3522J1454D01*
G01X51735327D02*
Y38946834D01*
X51735327D02*
G03X51735039Y38948288I-3810J0D01*
G01X51733406Y38956526D02*
G03X51735039Y38948288I21590J0D01*
G01X51733406Y38956526D02*
Y39046526D01*
X51735039Y39054764D02*
G03X51733406Y39046526I19957J-8238D01*
G01X51735039Y39054764D02*
G03X51735327Y39056218I-3522J1454D01*
G01X51735327D02*
Y39073834D01*
X51735327D02*
G03X51735039Y39075288I-3810J0D01*
G01X51733406Y39083526D02*
G03X51735039Y39075288I21590J0D01*
G01X51733406Y39083526D02*
Y39173526D01*
X51735039Y39181764D02*
G03X51733406Y39173526I19957J-8238D01*
G01X51735039Y39181764D02*
G03X51735327Y39183218I-3522J1454D01*
G01X51735327D02*
Y39189740D01*
X51741678Y39196091D02*
G03X51735327Y39189740I0J-6351D01*
G01X51741678Y39196091D02*
X51774595D01*
X51774595D02*
G03X51778405Y39199901I0J3810D01*
G01X51496061Y37474898D02*
G03X51496061I-35561J0D01*
G01X51369061Y37206000D02*
G03X51369061I-35561J0D01*
G01X51311031Y38055103D02*
G03X51358427Y38083231I35169J-5264D01*
G01X51311031Y38055104D02*
G03X51308573Y38059245I-3768J564D01*
G01X51355969Y38087373D02*
G03X51308573Y38059245I-35169J5265D01*
G01X51355969Y38087373D02*
G03X51358427Y38083231I3768J-564D01*
G01X51242061Y37255450D02*
G03X51242061I-35561J0D01*
G01X51176187Y38260430D02*
G03X51172742Y38331390I-65J35560D01*
G01X51176187Y38260430D02*
G03X51172384Y38256566I7J-3810D01*
G01X51123717Y38294267D02*
G03X51172384Y38256566I9301J-38256D01*
G01X51123717Y38294267D02*
G03X51123804Y38301649I-900J3702D01*
G01X51129424Y38371374D02*
G03X51123805Y38301649I3594J-35379D01*
G01X51129423Y38371374D02*
G03X51132847Y38375245I-385J3790D01*
G01X51133059Y38379949D02*
G03X51132848Y38375245I35341J-3949D01*
G01X51133059Y38379949D02*
G03X51127652Y38383820I-3786J423D01*
G01X51147861Y38412051D02*
G03X51127652Y38383820I-35341J3949D01*
G01X51147861Y38412051D02*
G03X51153268Y38408180I3786J-423D01*
G01X51171994Y38340622D02*
G03X51153268Y38408180I-3594J35378D01*
G01X51171994Y38340621D02*
G03X51168570Y38336750I385J-3790D01*
G01X51168571Y38335261D02*
G03X51168570Y38336750I-35553J734D01*
G01X51168571Y38335261D02*
G03X51172742Y38331390I3809J-78D01*
G01X51150724Y38453279D02*
G03X51186177Y38491560I35456J2721D01*
G01X51150724Y38453279D02*
G03X51146579Y38456782I-3799J-291D01*
G01X51182366Y38495425D02*
G03X51146578Y38456782I-39366J565D01*
G01X51182367Y38495425D02*
G03X51186176Y38491561I3809J-54D01*
G01X51182371Y38616005D02*
G03X51182371I-39371J0D01*
G01X51006693Y37163261D02*
G03X51006693I-35560J0D01*
G01X51050392Y38210951D02*
G03X51050392I-35560J0D01*
G01X51071627Y38787150D02*
G03X51071627I-45721J0D01*
G01X50922021Y37764800D02*
G03X50922021I-45721J0D01*
G01X50799847Y37474910D02*
G03X50799847I-35561J0D01*
G01X50828711Y38018995D02*
G03X50859160Y38066947I33289J12505D01*
G01X50828711Y38018995D02*
G03X50824840Y38021453I-3567J-1340D01*
G01X50855289Y38069405D02*
G03X50824840Y38021453I-33289J-12505D01*
G01X50855289Y38069405D02*
G03X50859160Y38066947I3567J1340D01*
G01X50922021Y38836680D02*
G03X50922021I-45721J0D01*
G01X50672847Y37206000D02*
G03X50672847I-35561J0D01*
G01X50739160Y38021453D02*
G03X50708711Y38069405I2840J35447D01*
G01X50739160Y38021453D02*
G03X50735289Y38018995I-304J-3798D01*
G01X50668711D02*
G03X50735289I33289J12505D01*
G01X50668711D02*
G03X50664840Y38021453I-3567J-1340D01*
G01X50695289Y38069405D02*
G03X50664840Y38021453I-33289J-12505D01*
G01X50695289Y38069405D02*
G03X50699160Y38066947I3567J1340D01*
G01X50704840D02*
G03X50699160I-2840J-35447D01*
G01X50704840D02*
G03X50708711Y38069405I304J3798D01*
G01X50545847Y37459078D02*
G03X50545847I-35561J0D01*
G01X50572618Y37764800D02*
G03X50572618I-45720J0D01*
G01X50614427Y38907800D02*
G03X50614427I-35561J0D01*
G01X50551435Y38964696D02*
G03X50551435I-35561J0D01*
G01Y39053596D02*
G03X50551435I-35561J0D01*
G01X50429007Y37764800D02*
G03X50429007I-45721J0D01*
G01X50396013Y38187990D02*
G03X50370903Y38219876I10387J34010D01*
G01X50396013Y38187990D02*
G03X50391097Y38184119I-1113J-3644D01*
G01Y38179871D02*
G03Y38184119I-35497J2124D01*
G01Y38179871D02*
G03X50396013Y38176000I3803J-227D01*
G01Y38107980D02*
G03Y38176000I10387J34010D01*
G01Y38107980D02*
G03X50391097Y38104109I-1113J-3644D01*
G01X50365987Y38135995D02*
G03X50391097Y38104109I-10387J-34010D01*
G01X50365987Y38135995D02*
G03X50370903Y38139866I1113J3644D01*
G01Y38144114D02*
G03Y38139866I35497J-2124D01*
G01Y38144114D02*
G03X50365987Y38147985I-3803J227D01*
G01Y38216005D02*
G03Y38147985I-10387J-34010D01*
G01Y38216005D02*
G03X50370903Y38219876I1113J3644D01*
G01X50395487Y38416898D02*
G03X50401485Y38493954I-4505J39112D01*
G01X50395487Y38416898D02*
G03X50392790Y38410945I436J-3785D01*
G01X50357534Y38425755D02*
G03X50392790Y38410945I6016J-35048D01*
G01X50357534Y38425755D02*
G03X50359898Y38431848I-644J3755D01*
G01X50352005Y38461559D02*
G03X50359898Y38431848I38977J-5549D01*
G01X50352005Y38461559D02*
G03X50348454Y38465899I-3772J537D01*
G01X50352976Y38536876D02*
G03X50348454Y38465900I-2456J-35476D01*
G01X50352976Y38536876D02*
G03X50354562Y38544250I263J3801D01*
G01X50355560Y38611303D02*
G03X50354562Y38544250I11343J-33703D01*
G01X50355560Y38611303D02*
G03X50358153Y38615019I-1216J3611D01*
G01X50358253Y38618840D02*
G03X50358153Y38615019I35447J-2840D01*
G01X50358253Y38618840D02*
G03X50355795Y38622711I-3798J304D01*
G01X50353442Y38688308D02*
G03X50355795Y38622711I14858J-32308D01*
G01X50353442Y38688308D02*
G03X50355638Y38692179I-1592J3461D01*
G01Y38699816D02*
G03Y38692179I35355J-3816D01*
G01Y38699817D02*
G03X50353442Y38703687I-3788J408D01*
G01X50353434Y38768298D02*
G03X50353442Y38703687I14866J-32304D01*
G01X50353433Y38768298D02*
G03X50355628Y38772170I-1592J3461D01*
G01X50355629Y38779829D02*
G03Y38772170I35353J-3830D01*
G01X50355628Y38779829D02*
G03X50353433Y38783701I-3787J410D01*
G01X50403654Y38812175D02*
G03X50353434Y38783701I-35354J3829D01*
G01X50403654Y38812175D02*
G03X50405849Y38808303I3788J-411D01*
G01Y38743696D02*
G03Y38808303I-14867J32303D01*
G01Y38743695D02*
G03X50403654Y38739824I1593J-3461D01*
G01X50403655Y38732178D02*
G03X50403654Y38739824I-35355J3816D01*
G01X50403655Y38732178D02*
G03X50405851Y38728308I3788J-409D01*
G01Y38663692D02*
G03Y38728308I-14858J32308D01*
G01Y38663692D02*
G03X50403655Y38659821I1592J-3461D01*
G01X50403747Y38653160D02*
G03X50403655Y38659821I-35447J2840D01*
G01X50403747Y38653160D02*
G03X50406205Y38649289I3798J-304D01*
G01X50405043Y38582297D02*
G03X50406205Y38649289I-11343J33703D01*
G01X50405043Y38582297D02*
G03X50402450Y38578581I1216J-3611D01*
G01X50402259Y38573792D02*
G03X50402450Y38578581I-35356J3808D01*
G01X50402259Y38573792D02*
G03X50404852Y38569767I3788J-408D01*
G01X50401650Y38501339D02*
G03X50404852Y38569766I-7950J34661D01*
G01X50401650Y38501339D02*
G03X50401485Y38493954I851J-3713D01*
G01X50356890Y38905419D02*
G03Y38967077I33762J30829D01*
G01X50356889Y38905418D02*
G03X50351263I-2813J-2569D01*
G01X50282800Y38906478D02*
G03X50351262Y38905419I34700J29770D01*
G01X50282800Y38906478D02*
G03X50277016I-2892J-2481D01*
G01Y38966018D02*
G03Y38906478I-34700J-29770D01*
G01Y38966018D02*
G03X50282800I2892J2481D01*
G01X50351262Y38967077D02*
G03X50282800Y38966018I-33762J-30829D01*
G01X50351263Y38967078D02*
G03X50356889I2813J2569D01*
G01X50021591Y39389592D02*
X51778405D01*
X50021591Y39378162D02*
X51778405D01*
X50021591Y39366732D02*
X51778405D01*
X50021591Y39355302D02*
X51778405D01*
X50021591Y39343872D02*
X51778405D01*
X50021591Y39332442D02*
X51778405D01*
X50021591Y39321012D02*
X51778405D01*
X50021591Y39309582D02*
X51778405D01*
X50021591Y39298152D02*
X51778405D01*
X50021591Y39286722D02*
X51778405D01*
X50021591Y39275292D02*
X51778405D01*
X50021591Y39263862D02*
X51778405D01*
X50021591Y39252432D02*
X51778405D01*
X50021591Y39241002D02*
X51778405D01*
X50021591Y39229572D02*
X51778405D01*
X50021591Y39218142D02*
X51778405D01*
X50021591Y39206712D02*
X51778405D01*
X50021591Y36897852D02*
X51778405D01*
X50021591Y36886422D02*
X51778405D01*
X50021610Y39401022D02*
X51778386D01*
X50024288Y39195282D02*
X51738578D01*
X50063796Y36909282D02*
X51737064D01*
X50065533Y39183852D02*
X51735327D01*
X50547654Y39069552D02*
X51735327D01*
X50551145Y39058122D02*
X51735327D01*
X50544664Y38943822D02*
X51735327D01*
X50604552Y38932392D02*
X51735327D01*
X51059565Y38818092D02*
X51735327D01*
X51067254Y38806662D02*
X51735327D01*
X50426367Y38692362D02*
X51735327D01*
X50423203Y38680932D02*
X51735327D01*
X50423630Y38555202D02*
X51735327D01*
X51209862Y38429472D02*
X51735327D01*
X51210827Y38303742D02*
X51735327D01*
X51028233Y38178012D02*
X51735327D01*
X51381676Y38052282D02*
X51735327D01*
X51380606Y38040852D02*
X51735327D01*
X50065533Y37926552D02*
X51735327D01*
X50065533Y37915122D02*
X51735327D01*
X50904456Y37800822D02*
X51735327D01*
X50914843Y37789392D02*
X51735327D01*
X50065533Y37675092D02*
X51735327D01*
X50065533Y37663662D02*
X51735327D01*
X50065525Y37549362D02*
X51735327D01*
X50025249Y37537932D02*
X51735327D01*
X50513139Y37423632D02*
X51735327D01*
X50065124Y37412202D02*
X51735327D01*
X51223883Y37286472D02*
X51735327D01*
X51006604Y37160742D02*
X51735327D01*
X50065533Y37035012D02*
X51735327D01*
X50065533Y37023582D02*
X51735327D01*
X50432086Y38166582D02*
X51735274D01*
X50411761Y38566632D02*
X51735243D01*
X51003843Y37149312D02*
X51735195D01*
X50065533Y37297902D02*
X51735147D01*
X51211491Y38292312D02*
X51734859D01*
X51218377Y38440902D02*
X51734797D01*
X51236176Y37275042D02*
X51734768D01*
X51344466Y37172172D02*
X51734717D01*
X51148022Y38418042D02*
X51734413D01*
X50065943Y37400772D02*
X51734409D01*
X50065984Y37046442D02*
X51734368D01*
X51206065Y38315172D02*
X51734362D01*
X50021591Y37526502D02*
X51734131D01*
X50066251Y36920712D02*
X51734101D01*
X50428401Y38543772D02*
X51734053D01*
X51043150Y38189442D02*
X51734013D01*
X50066420Y37652232D02*
X51733932D01*
X50414708Y38669502D02*
X51733775D01*
X50066591Y37640802D02*
X51733761D01*
X50066591Y37629372D02*
X51733761D01*
X50066591Y37617942D02*
X51733761D01*
X50066591Y37606512D02*
X51733761D01*
X50066591Y37595082D02*
X51733761D01*
X50066591Y37583652D02*
X51733761D01*
X50066591Y37572222D02*
X51733761D01*
X50066591Y37560792D02*
X51733761D01*
X50021591Y37515072D02*
X51733761D01*
X51481435Y37503642D02*
X51733761D01*
X51491560Y37492212D02*
X51733761D01*
X51495570Y37480782D02*
X51733761D01*
X51495626Y37469352D02*
X51733761D01*
X51491747Y37457922D02*
X51733761D01*
X51481894Y37446492D02*
X51733761D01*
X50536512Y37435062D02*
X51733761D01*
X50066591Y37389342D02*
X51733761D01*
X50066591Y37377912D02*
X51733761D01*
X50066591Y37366482D02*
X51733761D01*
X50066591Y37355052D02*
X51733761D01*
X50066591Y37343622D02*
X51733761D01*
X50066591Y37332192D02*
X51733761D01*
X50066591Y37320762D02*
X51733761D01*
X50066591Y37309332D02*
X51733761D01*
X51241111Y37263612D02*
X51733761D01*
X51241910Y37252182D02*
X51733761D01*
X51341038Y37240752D02*
X51733761D01*
X51360344Y37229322D02*
X51733761D01*
X51367013Y37217892D02*
X51733761D01*
X51369058Y37206462D02*
X51733761D01*
X51367327Y37195032D02*
X51733761D01*
X51361121Y37183602D02*
X51733761D01*
X50996042Y37137882D02*
X51733761D01*
X50066591Y37126452D02*
X51733761D01*
X50066591Y37115022D02*
X51733761D01*
X50066591Y37103592D02*
X51733761D01*
X50066591Y37092162D02*
X51733761D01*
X50066591Y37080732D02*
X51733761D01*
X50066591Y37069302D02*
X51733761D01*
X50066591Y37057872D02*
X51733761D01*
X50066591Y37012152D02*
X51733761D01*
X50066591Y37000722D02*
X51733761D01*
X50066591Y36989292D02*
X51733761D01*
X50066591Y36977862D02*
X51733761D01*
X50066591Y36966432D02*
X51733761D01*
X50066591Y36955002D02*
X51733761D01*
X50066591Y36943572D02*
X51733761D01*
X50066591Y36932142D02*
X51733761D01*
X51378943Y38063712D02*
X51733745D01*
X51070906Y38795232D02*
X51733576D01*
X50538557Y39080982D02*
X51733556D01*
X50066440Y37937982D02*
X51733556D01*
X50611901Y38920962D02*
X51733454D01*
X50920085Y37777962D02*
X51733454D01*
X50550158Y38955252D02*
X51733443D01*
X50066553Y37812252D02*
X51733443D01*
X50550758Y39046692D02*
X51733407D01*
X50066590Y37903692D02*
X51733406D01*
X50066591Y39172422D02*
X51733406D01*
X50066591Y39160992D02*
X51733406D01*
X50066591Y39149562D02*
X51733406D01*
X50066591Y39138132D02*
X51733406D01*
X50066591Y39126702D02*
X51733406D01*
X50066591Y39115272D02*
X51733406D01*
X50066591Y39103842D02*
X51733406D01*
X50066591Y39092412D02*
X51733406D01*
X50546344Y39035262D02*
X51733406D01*
X50535334Y39023832D02*
X51733406D01*
X50066591Y39012402D02*
X51733406D01*
X50066591Y39000972D02*
X51733406D01*
X50541314Y38989542D02*
X51733406D01*
X50548807Y38978112D02*
X51733406D01*
X50551379Y38966682D02*
X51733406D01*
X50614384Y38909532D02*
X51733406D01*
X50613079Y38898102D02*
X51733406D01*
X50607470Y38886672D02*
X51733406D01*
X50900862Y38875242D02*
X51733406D01*
X50913099Y38863812D02*
X51733406D01*
X50919239Y38852382D02*
X51733406D01*
X50921820Y38840952D02*
X51733406D01*
X51043080Y38829522D02*
X51733406D01*
X51071504Y38783802D02*
X51733406D01*
X51069173Y38772372D02*
X51733406D01*
X51063370Y38760942D02*
X51733406D01*
X51051863Y38749512D02*
X51733406D01*
X50403799Y38738082D02*
X51733406D01*
X50409020Y38726652D02*
X51733406D01*
X50420910Y38715222D02*
X51733406D01*
X50425689Y38703792D02*
X51733406D01*
X50403800Y38658072D02*
X51733406D01*
X51167726Y38646642D02*
X51733406D01*
X51177367Y38635212D02*
X51733406D01*
X51181595Y38623782D02*
X51733406D01*
X51182201Y38612352D02*
X51733406D01*
X51179367Y38600922D02*
X51733406D01*
X51172106Y38589492D02*
X51733406D01*
X51153508Y38578062D02*
X51733406D01*
X51158117Y38532342D02*
X51733406D01*
X51173478Y38520912D02*
X51733406D01*
X51179986Y38509482D02*
X51733406D01*
X51182316Y38498052D02*
X51733406D01*
X51204258Y38486622D02*
X51733406D01*
X51216117Y38475192D02*
X51733406D01*
X51220883Y38463762D02*
X51733406D01*
X51221551Y38452332D02*
X51733406D01*
X51186495Y38406612D02*
X51733406D01*
X51198343Y38395182D02*
X51733406D01*
X51203105Y38383752D02*
X51733406D01*
X51203770Y38372322D02*
X51733406D01*
X51200592Y38360892D02*
X51733406D01*
X51192071Y38349462D02*
X51733406D01*
X51168764Y38338032D02*
X51733406D01*
X51194217Y38326602D02*
X51733406D01*
X51208313Y38280882D02*
X51733406D01*
X51199792Y38269452D02*
X51733406D01*
X51172652Y38258022D02*
X51733406D01*
X51171245Y38246592D02*
X51733406D01*
X51166415Y38235162D02*
X51733406D01*
X51155560Y38223732D02*
X51733406D01*
X51050366Y38212302D02*
X51733406D01*
X51048934Y38200872D02*
X51733406D01*
X50921988Y37766532D02*
X51733406D01*
X50920980Y37755102D02*
X51733406D01*
X50916846Y37743672D02*
X51733406D01*
X50908399Y37732242D02*
X51733406D01*
X50888769Y37720812D02*
X51733406D01*
X50066591Y37709382D02*
X51733406D01*
X50066591Y37697952D02*
X51733406D01*
X50066591Y37686522D02*
X51733406D01*
X50439435Y38155152D02*
X51733405D01*
X50441918Y38143722D02*
X51733405D01*
X50440613Y38132292D02*
X51733405D01*
X51342431Y38120862D02*
X51733405D01*
X51352145Y38109432D02*
X51733405D01*
X51355954Y38098002D02*
X51733405D01*
X51355934Y38086572D02*
X51733405D01*
X51371186Y38075142D02*
X51733405D01*
X51375316Y38029422D02*
X51733405D01*
X51362023Y38017992D02*
X51733405D01*
X50887351Y38006562D02*
X51733405D01*
X50066591Y37995132D02*
X51733405D01*
X50066591Y37983702D02*
X51733405D01*
X50066591Y37972272D02*
X51733405D01*
X50066591Y37960842D02*
X51733405D01*
X50066591Y37949412D02*
X51733405D01*
X50066591Y37892262D02*
X51733405D01*
X50066591Y37880832D02*
X51733405D01*
X50066591Y37869402D02*
X51733405D01*
X50066591Y37857972D02*
X51733405D01*
X50066591Y37846542D02*
X51733405D01*
X50066591Y37835112D02*
X51733405D01*
X50066591Y37823682D02*
X51733405D01*
X50785238Y37503642D02*
X51439565D01*
X50785664Y37446492D02*
X51439106D01*
X50795353Y37492212D02*
X51429440D01*
X50795527Y37457922D02*
X51429253D01*
X50799358Y37480782D02*
X51425430D01*
X50799410Y37469352D02*
X51425374D01*
X50894895Y38017992D02*
X51330377D01*
X51238881Y37240752D02*
X51325962D01*
X51005558Y37172172D02*
X51322534D01*
X50897500Y38029422D02*
X51317084D01*
X50896309Y38040852D02*
X51311794D01*
X50890856Y38052282D02*
X51310724D01*
X51230623Y37229322D02*
X51306656D01*
X51000301Y37183602D02*
X51305879D01*
X50877063Y38063712D02*
X51300115D01*
X50670799Y37217892D02*
X51299987D01*
X50987105Y37195032D02*
X51299673D01*
X50435004Y38120862D02*
X51299169D01*
X50672844Y37206462D02*
X51297942D01*
X50852525Y38075142D02*
X51289841D01*
X50420702Y38109432D02*
X51289455D01*
X50841598Y38086572D02*
X51285761D01*
X50390937Y38098002D02*
X51285646D01*
X50065533Y37286472D02*
X51189117D01*
X50664130Y37229322D02*
X51182377D01*
X50065605Y37275042D02*
X51176824D01*
X50644824Y37240752D02*
X51174119D01*
X50066591Y37263612D02*
X51171889D01*
X50066591Y37252182D02*
X51171090D01*
X51145430Y38429472D02*
X51162498D01*
X51137905Y38440902D02*
X51153983D01*
X50430181Y38452332D02*
X51150809D01*
X50402461Y38578062D02*
X51132492D01*
X50393990Y38372322D02*
X51131576D01*
X51127508Y38383752D02*
X51131030D01*
X50429072Y38532342D02*
X51127883D01*
X50429582Y38463762D02*
X51120385D01*
X50411744Y38646642D02*
X51118274D01*
X50065533Y38303742D02*
X51118041D01*
X50065533Y38292312D02*
X51117779D01*
X50417404Y38589492D02*
X51113894D01*
X50425901Y38520912D02*
X51112522D01*
X51048016Y38223732D02*
X51110475D01*
X50425364Y38475192D02*
X51109571D01*
X50423624Y38635212D02*
X51108633D01*
X50382932Y38360892D02*
X51107627D01*
X50425906Y38600922D02*
X51106633D01*
X50417393Y38509482D02*
X51106014D01*
X50415740Y38486622D02*
X51104760D01*
X50428398Y38623782D02*
X51104405D01*
X50065641Y38315172D02*
X51104191D01*
X50429073Y38612352D02*
X51103799D01*
X50398715Y38498052D02*
X51103684D01*
X50066591Y38280882D02*
X51102498D01*
X50066591Y38349462D02*
X51100106D01*
X51040877Y38235162D02*
X51099620D01*
X50066591Y38326602D02*
X51098720D01*
X50398424Y38383752D02*
X51097532D01*
X50066591Y38338032D02*
X51097516D01*
X50066591Y38269452D02*
X51096013D01*
X50432086Y38246592D02*
X51094790D01*
X50066591Y38258022D02*
X51093699D01*
X50427339Y38440902D02*
X51087135D01*
X50398828Y38395182D02*
X51083690D01*
X50420065Y38429472D02*
X51079610D01*
X50395355Y38406612D02*
X51078221D01*
X50401398Y38418042D02*
X51077018D01*
X50921457Y38829522D02*
X51008732D01*
X50391457Y38178012D02*
X51001430D01*
X50414710Y38749512D02*
X50999949D01*
X50918072Y38818092D02*
X50992247D01*
X50439435Y38235162D02*
X50988786D01*
X50423198Y38760942D02*
X50988442D01*
X50420702Y38189442D02*
X50986513D01*
X50910786Y38806662D02*
X50984558D01*
X50426357Y38772372D02*
X50982639D01*
X50441918Y38223732D02*
X50981647D01*
X50895599Y38795232D02*
X50980906D01*
X50435004Y38200872D02*
X50980729D01*
X50425676Y38783802D02*
X50980308D01*
X50440613Y38212302D02*
X50979297D01*
X50671113Y37195032D02*
X50955161D01*
X50066591Y37137882D02*
X50946223D01*
X50664907Y37183602D02*
X50941965D01*
X50065533Y37149312D02*
X50938422D01*
X50648252Y37172172D02*
X50936707D01*
X50065533Y37160742D02*
X50935661D01*
X50539366Y37720812D02*
X50863831D01*
X50420893Y38795232D02*
X50857001D01*
X50593168Y38875242D02*
X50851738D01*
X50555053Y37800822D02*
X50848144D01*
X50558997Y37732242D02*
X50844201D01*
X50408991Y38806662D02*
X50841814D01*
X50066591Y38863812D02*
X50839501D01*
X50565441Y37789392D02*
X50837757D01*
X50727351Y38006562D02*
X50836649D01*
X50567444Y37743672D02*
X50835754D01*
X50403799Y38818092D02*
X50834528D01*
X50066591Y38852382D02*
X50833361D01*
X50570682Y37777962D02*
X50832515D01*
X50571578Y37755102D02*
X50831620D01*
X50401191Y38829522D02*
X50831143D01*
X50393641Y38840952D02*
X50830780D01*
X50572585Y37766532D02*
X50830612D01*
X50734895Y38017992D02*
X50829105D01*
X50761598Y38086572D02*
X50802402D01*
X50764573Y38029422D02*
X50799427D01*
X50772525Y38075142D02*
X50791475D01*
X50773734Y38040852D02*
X50790266D01*
X50776902Y38063712D02*
X50787098D01*
X50777259Y38052282D02*
X50786741D01*
X50021591Y37503642D02*
X50743334D01*
X50543545Y37446492D02*
X50742908D01*
X50523197Y37492212D02*
X50733219D01*
X50545828Y37457922D02*
X50733045D01*
X50538455Y37480782D02*
X50729214D01*
X50544330Y37469352D02*
X50729162D01*
X50681598Y38086572D02*
X50722402D01*
X50692525Y38075142D02*
X50711475D01*
X50066591Y38006562D02*
X50676649D01*
X50066591Y38017992D02*
X50669105D01*
X50387647Y38086572D02*
X50642402D01*
X50066591Y38029422D02*
X50639427D01*
X50378924Y38075142D02*
X50631475D01*
X50065533Y38040852D02*
X50630266D01*
X50066591Y37240752D02*
X50629748D01*
X50066251Y38063712D02*
X50627098D01*
X50065533Y38052282D02*
X50626741D01*
X50065641Y37172172D02*
X50626320D01*
X50066591Y37229322D02*
X50610442D01*
X50066591Y37183602D02*
X50609665D01*
X50066591Y37217892D02*
X50603773D01*
X50066591Y37195032D02*
X50603459D01*
X50066591Y37206462D02*
X50601728D01*
X50066591Y38875242D02*
X50564564D01*
X50530741Y38932392D02*
X50553180D01*
X50066591Y38886672D02*
X50550262D01*
X50433742Y38920962D02*
X50545831D01*
X50415857Y38898102D02*
X50544653D01*
X50427755Y38909532D02*
X50543348D01*
X50395755Y37720812D02*
X50514429D01*
X50021591Y37423632D02*
X50507433D01*
X50436210Y38932392D02*
X50501007D01*
X50411442Y37800822D02*
X50498742D01*
X50021591Y37492212D02*
X50497375D01*
X50066591Y39023832D02*
X50496414D01*
X50415385Y37732242D02*
X50494798D01*
X50066440Y39080982D02*
X50493191D01*
X50066591Y38989542D02*
X50490434D01*
X50421829Y37789392D02*
X50488354D01*
X50435741Y38943822D02*
X50487084D01*
X50423832Y37743672D02*
X50486351D01*
X50066591Y39035262D02*
X50485404D01*
X50065533Y39069552D02*
X50484094D01*
X50021591Y37435062D02*
X50484060D01*
X50427071Y37777962D02*
X50483113D01*
X50409030Y38978112D02*
X50482941D01*
X50427966Y37755102D02*
X50482217D01*
X50021591Y37480782D02*
X50482117D01*
X50432236Y38955252D02*
X50481590D01*
X50428974Y37766532D02*
X50481210D01*
X50066590Y39046692D02*
X50480990D01*
X50065533Y39058122D02*
X50480603D01*
X50424771Y38966682D02*
X50480369D01*
X50021591Y37446492D02*
X50477027D01*
X50021591Y37469352D02*
X50476242D01*
X50021591Y37457922D02*
X50474744D01*
X50066591Y38246592D02*
X50380714D01*
X50066591Y38235162D02*
X50373365D01*
X50335878Y38978112D02*
X50372274D01*
X50066591Y38223732D02*
X50370882D01*
X50066591Y38143722D02*
X50370882D01*
X50066591Y37720812D02*
X50370817D01*
X50342705Y38898102D02*
X50365447D01*
X50065533Y38429472D02*
X50360700D01*
X50066591Y38612352D02*
X50357165D01*
X50351682Y38966682D02*
X50356470D01*
X50065533Y38692362D02*
X50355619D01*
X50066591Y38772372D02*
X50355607D01*
X50065943Y38543772D02*
X50355460D01*
X50065533Y37800822D02*
X50355130D01*
X50065533Y38440902D02*
X50354626D01*
X50066591Y38623782D02*
X50353247D01*
X50066591Y38783802D02*
X50353214D01*
X50066591Y38703792D02*
X50353214D01*
X50066591Y38452332D02*
X50351784D01*
X50066591Y38463762D02*
X50351659D01*
X50066591Y37732242D02*
X50351187D01*
X50065533Y37789392D02*
X50344743D01*
X50066591Y38360892D02*
X50344168D01*
X50066591Y38840952D02*
X50342959D01*
X50066591Y38760942D02*
X50342959D01*
X50065533Y38680932D02*
X50342944D01*
X50066591Y37743672D02*
X50342740D01*
X50065605Y38418042D02*
X50340806D01*
X50066591Y38600922D02*
X50340059D01*
X50066543Y37777962D02*
X50339501D01*
X50066591Y38635212D02*
X50339448D01*
X50066420Y38795232D02*
X50339437D01*
X50066591Y38715222D02*
X50339437D01*
X50065533Y38555202D02*
X50339282D01*
X50066591Y37755102D02*
X50338606D01*
X50066591Y37766532D02*
X50337598D01*
X50066591Y38212302D02*
X50336999D01*
X50066591Y38132292D02*
X50336999D01*
X50066591Y38829522D02*
X50335409D01*
X50066591Y38749512D02*
X50335409D01*
X50066221Y38669502D02*
X50335403D01*
X50066591Y38646642D02*
X50333993D01*
X50065533Y38806662D02*
X50333988D01*
X50066591Y38726652D02*
X50333988D01*
X50066591Y38589492D02*
X50333390D01*
X50066591Y38372322D02*
X50333111D01*
X50065533Y38566632D02*
X50333076D01*
X50066591Y38532342D02*
X50332995D01*
X50065533Y38818092D02*
X50332801D01*
X50066591Y38738082D02*
X50332801D01*
X50066591Y38658072D02*
X50332800D01*
X50066591Y38155152D02*
X50332276D01*
X50066591Y38075142D02*
X50332276D01*
X50066591Y38406612D02*
X50331745D01*
X50066591Y38578062D02*
X50331345D01*
X50066591Y38383752D02*
X50328676D01*
X50066591Y38395182D02*
X50328272D01*
X50066591Y38475192D02*
X50326484D01*
X50066591Y38200872D02*
X50325464D01*
X50066591Y38120862D02*
X50325464D01*
X50065533Y38166582D02*
X50323553D01*
X50066591Y38086572D02*
X50323553D01*
X50065984Y38189442D02*
X50320828D01*
X50066591Y38109432D02*
X50320828D01*
X50066591Y38520912D02*
X50320791D01*
X50065533Y38178012D02*
X50320263D01*
X50066591Y38098002D02*
X50320263D01*
X50066591Y38486622D02*
X50318175D01*
X50066591Y38509482D02*
X50315890D01*
X50066591Y38498052D02*
X50315117D01*
X50260694Y38978112D02*
X50299122D01*
X50267521Y38898102D02*
X50292295D01*
X50276435Y38966682D02*
X50283381D01*
X50066591Y38978112D02*
X50223938D01*
X50066591Y38898102D02*
X50217111D01*
X50066591Y38966682D02*
X50208197D01*
X50066591Y38909532D02*
X50205213D01*
X50066553Y38955252D02*
X50200732D01*
X50066543Y38920962D02*
X50199226D01*
X50065533Y38943822D02*
X50197227D01*
X50065533Y38932392D02*
X50196758D01*
X50000000Y40276098D02*
X50639071D01*
X50000000D02*
X50127000Y40301498D01*
Y40250698*
X50000000Y40276098*
X51799996D02*
X51160925D01*
X51799996D02*
X51672996Y40250698D01*
Y40301498*
X51799996Y40276098*
X50000000Y40050800D02*
Y40326898D01*
X51799996Y40050800D02*
Y40326898D01*
X52180336Y36857766D02*
Y38305058D01*
Y36857766D02*
X52154936Y36984766D01*
X52205736*
X52180336Y36857766*
Y40000000D02*
Y38552708D01*
Y40000000D02*
X52205736Y39873000D01*
X52154936*
X52180336Y40000000*
X51859788Y36857766D02*
X52231136D01*
X51850796Y40000000D02*
X52231136D01*
G54D115*
X50000000Y39255526D03*
Y37223526D03*
Y38747526D03*
X51799996Y38620526D03*
X50000000Y37096526D03*
Y38620526D03*
X51799996Y38493526D03*
X50000000Y36969526D03*
Y38493526D03*
X51799996Y38366526D03*
X51800352Y36969526D03*
X51799996Y39128526D03*
X50000000Y38366526D03*
X51799996Y38239526D03*
X51800352Y37096526D03*
X50000000Y38239526D03*
X51799996Y37858526D03*
X51800352Y37223526D03*
X50000000Y38112526D03*
X51799996D03*
Y39255526D03*
X50000000Y37985526D03*
Y39128526D03*
X51799996Y37985526D03*
X50000000Y37858526D03*
X51799996Y37731526D03*
X50000000D03*
X51800352Y37604526D03*
X50000000D03*
X51800352Y37477526D03*
X50000000Y37350526D03*
X51800352D03*
X51799996Y39001526D03*
X50000000Y37477526D03*
Y39001526D03*
X51799996Y38874526D03*
X50000000D03*
X51799996Y38747526D03*
G54D120*
X51602232Y39382272D03*
X51489964Y39385574D03*
X51544320Y39379986D03*
G74*
X0Y0D02*
M02*
