%
T1C.007F0S0
X198622Y145292
X198999Y145303
X198298Y145326
X197955Y145344
X197657Y145348
X197367Y14536
X197371Y145838
X197375Y146305
X198039Y146308
X198597Y146424
X198798Y146471
X198633Y146678
X199011Y146749
X197375Y146769
X198798Y146879
X197379Y147003
X199147Y147027
X198863Y147169
X197688Y147221
X19737Y147322
X19791Y147376
X198859Y147477
X199272Y147483
X197603Y147506
X198053Y147647
X19778Y14771
X19736Y147782
X198053Y147918
X197374Y147993
X197577Y148012
X198042Y148208
X197637Y148246
X19737Y148295
X198057Y148476
X197645Y14851
X198042Y148732
X197351Y148785
X198195Y148873
X198409Y149022
X198044Y149034
X197347Y14929
X198205Y149655
X198395Y149799
X198054Y14983
X19825Y150008
X19845Y150165
X19825Y150323
X19845Y15048
X197885Y150808
X199254Y150876
X198282Y151145
X199254Y151176
X199254Y151476
X19823Y15158
X1984Y151717
X199254Y151776
X198295Y15188
X197545Y151983
X1984Y152031
X199254Y152076
X197683Y152172
X1983Y152189
X19839Y152346
X1983Y152504
X19839Y152661
X197335Y152764
X1983Y152819
X197507Y152969
X199129Y15318
X197534Y153202
X198881Y153404
X198881Y153754
X199188Y154121
X198973Y154272
X199203Y15434
X197381Y154428
X198856Y154498
X199059Y154506
X19935Y154509
X197357Y154699
X198623Y154717
X197895Y154717
X197646Y154717
X198386Y154723
X199169Y154724
X198138Y154729
X198879Y154735
X198491Y154949
X19876Y154949
X199084Y154953
X197845Y154956
X198174Y154961
X197466Y154968
X200672Y154981
X200921Y154981
X201147Y154973
X200353Y15497
X200032Y15497
X199417Y154965
X201456Y154958
X199717Y154939
X201776Y154909
X200998Y15476
X201277Y154751
X201536Y154748
X200732Y154746
X200065Y15474
X200404Y154737
X199816Y154722
X19947Y154718
X200189Y154537
X199738Y154498
X199918Y154477
X199553Y154366
X201385Y154323
X201167Y15432
X200946Y154313
X201627Y154266
X199877Y154243
X199406Y154193
X199651Y154185
X200832Y154175
X201793Y1541
X201049Y154086
X200158Y154082
X201343Y154075
X199915Y154008
X200835Y153976
X200285Y153938
X201606Y153924
X200093Y153871
X201049Y153845
X201369Y153792
X200823Y153785
X201802Y153755
X20028Y153748
X200836Y153586
X201083Y15357
X201667Y153559
X201384Y153528
X200274Y153505
X200852Y153404
X201148Y1533
X201776Y153291
X200274Y153287
X201471Y153253
X200791Y15301
X201692Y153006
X201165Y153005
X201392Y153001
X199854Y152076
X199554Y152076
X200454Y152076
X200154Y152076
X200154Y151776
X199554Y151776
X200454Y151776
X199854Y151776
X200154Y151476
X199854Y151476
X199554Y151476
X200454Y151476
X20152Y151402
X201688Y151284
X20123Y151244
X200454Y151176
X199554Y151176
X200154Y151176
X199854Y151176
X20145Y151087
X201311Y150929
X199854Y150876
X200454Y150876
X200154Y150876
X199554Y150876
X201481Y150772
X201553Y150442
X200846Y150437
X20102Y150293
X200087Y14983
X199772Y14983
X199457Y14983
X199614Y14973
X200244Y14973
X200032Y149221
X200277Y149012
X200051Y148945
X200821Y148375
X200624Y148274
X200128Y148096
X201216Y148059
X200335Y147938
X200989Y147908
X201366Y147886
X201788Y147878
X200171Y147749
X201253Y147735
X200982Y14772
X199859Y147539
X20101Y14732
X201296Y147316
X200335Y147286
X20088Y147124
X200053Y147122
X201404Y147117
X200467Y14711
X201133Y147109
X199396Y147104
X199905Y146974
X200289Y146974
X201163Y146872
X200925Y146872
X201408Y146868
X200473Y146862
X19939Y146844
X200053Y146826
X2016Y146675
X199359Y14648
X200674Y146312
X19965Y146293
X200139Y146283
X200366Y14627
X200739Y14611
X200114Y146053
X200573Y145897
X200804Y145761
X200348Y145678
X200597Y145566
X200393Y145385
X201165Y14532
X200078Y14532
X201481Y14532
X199707Y14532
X199406Y145303
X200886Y145283
X202679Y145311
X20306Y145311
X203357Y14532
X201899Y14532
X202224Y14533
X202376Y145571
X202894Y14561
X203418Y146361
X202743Y146433
X2021Y14648
X202429Y146496
X203245Y146582
X202998Y146829
X202041Y14685
X202384Y146853
X202217Y147018
X201864Y147021
X202779Y147038
X203429Y147103
X202077Y147146
X202561Y147268
X201922Y14727
X20327Y147284
X203067Y147435
X2026Y147539
X20289Y147593
X20192Y147724
X203421Y147815
X202942Y148772
X203403Y148772
X203198Y14887
X202968Y14902
X203406Y14904
X203213Y149148
X203417Y149268
X202998Y149299
X203212Y149501
X203434Y149516
X202865Y149535
X202353Y149539
X20215Y149803
X20205Y149971
X20298Y15009
X20257Y1501
X202768Y150103
X203157Y150297
X202355Y150304
X202213Y150425
X203108Y150521
X202329Y150535
X202077Y150567
X203152Y150701
X201942Y150818
X203154Y150875
X20194Y151004
X20314Y15106
X202823Y151224
X20314Y151235
X203135Y151432
X203135Y151633
X201875Y1518
X203142Y151818
X202729Y151897
X202251Y151916
X202043Y151929
X20295Y151931
X201864Y151985
X202284Y152101
X20245Y152189
X202303Y152348
X203164Y15238
X202002Y152418
X203478Y152803
X201912Y153061
X203215Y15308
X202111Y153268
X203422Y15327
X202654Y153276
X202899Y153295
X202409Y153302
X202179Y15351
X201927Y153521
X202511Y153592
X202262Y153706
X202017Y153717
X202515Y153899
X202244Y153906
X20198Y153949
X202174Y154496
X202472Y154517
X202398Y154703
X202526Y15484
X202362Y154974
X203483Y155021
T2C.008F0S0
X201311Y150614
X19839Y151402
X20135Y151559
X20135Y152032
T3C.00984F0S0
X20293Y155039
X203158Y155048
X202716Y155061
T4C.01F095S3
X198925Y14868
X198359Y14868
X197804Y153292
X1981Y153292
X198388Y153292
X2003Y1529
X200889Y152705
X2003Y14868
T5C.02F197S55
X19685Y152049
T6C.02165F197S55
X19685Y145549
X19685Y146049
X19685Y146549
X19685Y147049
X19685Y147549
X19685Y148049
X19685Y148549
X19685Y149049
X19685Y149549
X19685Y150049
X19685Y150549
X19685Y151049
X19685Y151549
X19685Y152549
X19685Y153049
X19685Y153549
X19685Y154549
X203937Y154549
X203937Y154049
X203937Y153549
X203937Y153049
X203937Y152549
X203937Y152049
X203937Y151549
X203937Y151049
X203937Y150549
X203937Y150049
X203937Y149549
X203937Y149049
X203937Y148549
X203938Y148049
X203938Y147549
X203938Y147049
X203938Y146549
X203938Y146049
X203938Y145549
T7C.02756F197S55
X19685Y154049
M30
