*
*
G04 PADS 9.5 Build Number: 522968 generated Gerber (RS-274-X) file*
G04 PC Version=2.1*
*
%IN "ESP32-WROVER-V4.pcb"*%
*
%MOMM*%
*
%FSLAX35Y35*%
*
*
*
*
G04 PC Standard Apertures*
*
*
G04 Thermal Relief Aperture macro.*
%AMTER*
1,1,$1,0,0*
1,0,$1-$2,0,0*
21,0,$3,$4,0,0,45*
21,0,$3,$4,0,0,135*
%
*
*
G04 Annular Aperture macro.*
%AMANN*
1,1,$1,0,0*
1,0,$2,0,0*
%
*
*
G04 Odd Aperture macro.*
%AMODD*
1,1,$1,0,0*
1,0,$1-0.005,0,0*
%
*
*
G04 PC Custom Aperture Macros*
*
*
*
*
*
*
G04 PC Aperture Table*
*
%ADD010C,0.0254*%
%ADD043C,0.2032*%
%ADD044C,0.254*%
%ADD048C,0.1524*%
%ADD109C,0.127*%
%ADD110C,0.1999*%
%ADD111C,0.2*%
%ADD112C,0.15*%
%ADD172C,0.05*%
%ADD173C,0.1*%
%ADD174C,0.5*%
%ADD175C,0.25*%
%ADD202C,0.10211*%
*
*
*
*
G04 PC Circuitry*
G04 Layer Name ESP32-WROVER-V4.pcb - circuitry*
%LPD*%
*
*
G04 PC Custom Flashes*
G04 Layer Name ESP32-WROVER-V4.pcb - flashes*
%LPD*%
*
*
G04 PC Circuitry*
G04 Layer Name ESP32-WROVER-V4.pcb - circuitry*
%LPD*%
*
G54D10*
G01X50156550Y39094659D02*
Y39147159D01*
X50199050*
Y39094659*
X50156550*
Y39187159D02*
Y39239659D01*
X50199050*
Y39187159*
X50156550*
X50156540Y39147170D02*
X50177800Y39167159D01*
X50199060Y39147170*
X50156540*
X50199060Y39187149D02*
X50177800Y39167159D01*
X50156540Y39187149*
X50199060*
X50762000Y38539500D02*
Y38412500D01*
X50825500Y38476000D02*
X50698500D01*
X50462000Y38776000D02*
X51012000D01*
X51062000Y38726000*
Y38176000*
X50462000*
Y38776000*
G54D43*
X51535328Y38660709D02*
Y38635309D01*
X51275904Y39293411D02*
X51293865Y39275451D01*
X50623824Y39066296D02*
Y39040896D01*
Y38951996D02*
Y38977396D01*
X51492758Y38166171D02*
Y38191571D01*
X51374902Y38796040D02*
X51349502D01*
X50929310Y39050548D02*
X50954710D01*
X50992810Y38918468D02*
Y38893068D01*
X51531620Y38796294D02*
X51557020D01*
X51270000Y38660709D02*
Y38635309D01*
X50786130Y38975618D02*
X50811530D01*
X51183818Y38184357D02*
Y38158957D01*
X51441450Y38796294D02*
X51466850D01*
X50891210Y39208028D02*
Y39182628D01*
X50297840Y38405210D02*
X50272440D01*
X51152398Y38799850D02*
Y38774450D01*
X50731190Y37955535D02*
Y37980935D01*
X50924560D02*
Y37955535D01*
X50693090Y37828535D02*
X50667690D01*
X50260604Y38559820D02*
Y38534420D01*
X50952500Y37815600D02*
X50927100D01*
X50226492Y37113798D02*
X50201092D01*
X51275904Y39203620D02*
X51293865Y39221580D01*
G54D44*
X51031520Y38809020D02*
G75*
G03X51031520I-12700J0D01*
G01X50000000Y40000000D02*
X51799996D01*
Y36859290*
X50000000*
Y40000000*
G54D48*
X50367436Y39064797D02*
Y38967007D01*
X50494436*
Y39064797*
Y39153697D02*
Y39251487D01*
X50367436*
Y39153697*
X50221640Y39064797D02*
Y38967007D01*
X50348640*
Y39064797*
Y39153697D02*
Y39251487D01*
X50221640*
Y39153697*
X51008500Y37230994D02*
X51531500D01*
Y37738994*
X51008500*
Y37523094*
Y37446894D02*
G03Y37523094I0J38100D01*
G01Y37446894D02*
Y37230994D01*
X51099820Y37281794D02*
G03X51099820I-20320J0D01*
G01X51021080Y37083674D02*
X50957580Y37103994D01*
Y37063354*
X51018540Y37083674*
X50348640Y38806606D02*
Y38904396D01*
X50221640*
Y38806606*
Y38717706D02*
Y38619916D01*
X50348640*
Y38717706*
X50485064Y37868080D02*
X50582854D01*
Y37995080*
X50485064*
X50396164D02*
X50298374D01*
Y37868080*
X50396164*
G54D109*
X51443888Y38685220D02*
X51626768D01*
Y38610442*
X51443888*
Y38685220*
X51193914Y39246086D02*
X51323230Y39375401D01*
X51376106Y39322525*
X51246790Y39193210*
X51193914Y39246086*
X50532384Y39090807D02*
X50715264D01*
Y39016029*
X50532384*
Y39090807*
X50715264Y38927485D02*
X50532384D01*
Y39002263*
X50715264*
Y38927485*
X51584198Y38141660D02*
X51401318D01*
Y38216437*
X51584198*
Y38141660*
X51399413Y38887480D02*
Y38704600D01*
X51324635*
Y38887480*
X51399413*
X50904799Y38959108D02*
Y39141988D01*
X50979576*
Y38959108*
X50904799*
X50901370Y38942979D02*
X51084250D01*
Y38868201*
X50901370*
Y38942979*
X51507109Y38704854D02*
Y38887734D01*
X51581887*
Y38704854*
X51507109*
X51178560Y38685220D02*
X51361440D01*
Y38610442*
X51178560*
Y38685220*
X50761619Y38884178D02*
Y39067058D01*
X50836397*
Y38884178*
X50761619*
X51092378Y38208868D02*
X51275258D01*
Y38134091*
X51092378*
Y38208868*
X51416939Y38704854D02*
Y38887734D01*
X51491717*
Y38704854*
X51416939*
X50799770Y39232539D02*
X50982650D01*
Y39157761*
X50799770*
Y39232539*
X50309016Y38496396D02*
X50323190Y38482223D01*
Y38328197*
X50309016Y38314024*
X50261264*
X50247091Y38328197*
Y38482223*
X50261264Y38496396*
X50309016*
X51061212Y38811026D02*
X51075385Y38825199D01*
X51229411*
X51243584Y38811026*
Y38763274*
X51229411Y38749101*
X51075385*
X51061212Y38763274*
Y38811026*
X50822376Y38006284D02*
Y37930185D01*
X50822376D02*
X50640004D01*
X50640004D02*
Y38006284D01*
X50822376*
X50833374Y37930185D02*
Y38006284D01*
X51015746*
Y37930185*
X51015746D02*
X50833374D01*
X50642341Y37919721D02*
X50718439D01*
Y37737349*
X50642341*
Y37919721*
X50169418Y38509071D02*
Y38585169D01*
X50351790*
Y38509071*
X50169418*
X50963676Y37906786D02*
X50977849Y37892613D01*
Y37738587*
X50963676Y37724414*
X50915924*
X50901751Y37738587*
Y37892613*
X50915924Y37906786*
X50963676*
X50251003Y37205238D02*
Y37022358D01*
X50176225*
Y37205238*
X50251003*
X51323230Y39121630D02*
X51193914Y39250946D01*
X51193914D02*
X51246790Y39303821D01*
X51376106Y39174506*
X51323230Y39121630*
X51389952Y38647203D02*
X51385190Y38645182D01*
X51385190D02*
X51380427Y38641142D01*
X51378046Y38637101*
Y38629019*
X51380427Y38624978*
X51385190Y38620937*
X51389952Y38618917*
X51397096Y38616896*
X51409002*
X51416146Y38618917*
X51420908Y38620937*
X51420908D02*
X51425671Y38624978D01*
X51428052Y38629019*
Y38637101*
X51425671Y38641142*
X51420908Y38645182*
X51420908D02*
X51416146Y38647203D01*
X51387571Y38665387D02*
X51385190Y38669428D01*
X51378046Y38675489*
X51428052*
X51216325Y39261503D02*
X51257578Y39220250D01*
X51216325Y39261503D02*
X51231020Y39276198D01*
X51237883Y39279132*
X51241480Y39278800*
X51241480D02*
X51247042Y39276504D01*
X51250971Y39272575*
X51250971D02*
X51253267Y39267014D01*
X51253598Y39263417*
X51250664Y39256554*
X51235969Y39241859*
X51247399Y39253288D02*
X51280437Y39243109D01*
X51261737Y39291199D02*
X51263038Y39296429D01*
X51262043Y39307221*
X51303296Y39265968*
X51297964Y39343142D02*
X51281636Y39326814D01*
X51297683Y39307502*
X51297683D02*
X51297352Y39311099D01*
X51297352D02*
X51300285Y39317961D01*
X51300285D02*
X51305184Y39322860D01*
X51312047Y39325794*
X51312047D02*
X51319241Y39325130D01*
X51326767Y39320870*
X51329063Y39315308*
X51333324Y39307782*
X51333324D02*
X51333987Y39300588D01*
X51331053Y39293725*
X51326155Y39288827*
X51319292Y39285893*
X51315695Y39286224*
X51315695D02*
X51310133Y39288521D01*
X50609517Y39232961D02*
X50607208Y39238517D01*
X50602590Y39244073*
X50597972Y39246851*
X50597972D02*
X50588735D01*
X50584117Y39244073*
X50579499Y39238517*
X50577190Y39232961*
X50577190D02*
X50574881Y39224626D01*
Y39210736*
X50574881D02*
X50577190Y39202401D01*
X50579499Y39196845*
X50584117Y39191289*
X50588735Y39188511*
X50588735D02*
X50597972D01*
X50597972D02*
X50602590Y39191289D01*
X50607208Y39196845*
X50609517Y39202401*
X50630299Y39235739D02*
X50634917Y39238517D01*
X50641844Y39246851*
Y39188511*
X50690335Y39238517D02*
X50688026Y39244073D01*
X50681099Y39246851*
X50676481*
X50669553Y39244073*
X50664935Y39235739*
X50662626Y39221848*
Y39207957*
X50664935Y39196845*
X50669553Y39191289*
X50676481Y39188511*
X50676481D02*
X50678790D01*
X50678790D02*
X50685717Y39191289D01*
X50690335Y39196845*
X50692644Y39205179*
Y39207957*
X50690335Y39216292*
X50685717Y39221848*
X50678790Y39224626*
X50676481*
X50669553Y39221848*
X50664935Y39216292*
X50662626Y39207957*
X50605180Y39153684D02*
X50602871Y39159240D01*
X50598253Y39164797*
X50593635Y39167575*
X50584398*
X50579780Y39164797*
X50575162Y39159240*
X50572853Y39153684*
X50570544Y39145350*
Y39131459*
X50572853Y39123125*
X50575162Y39117569*
X50575162D02*
X50579780Y39112012D01*
X50584398Y39109234*
X50593635*
X50598253Y39112012*
X50602871Y39117569*
X50602871D02*
X50605180Y39123125D01*
X50625962Y39156462D02*
X50630580Y39159240D01*
X50637507Y39167575*
Y39109234*
X50690616Y39167575D02*
X50667526Y39109234D01*
X50658289Y39167575D02*
X50690616D01*
X51478426Y38103303D02*
X51476117Y38108860D01*
X51476117D02*
X51471499Y38114416D01*
X51466880Y38117194*
X51466880D02*
X51457644D01*
X51453026Y38114416*
X51448408Y38108860*
X51448408D02*
X51446099Y38103303D01*
X51443790Y38094969*
X51443790D02*
Y38081078D01*
X51443790D02*
X51446099Y38072744D01*
X51448408Y38067188*
X51453026Y38061631*
X51457644Y38058853*
X51466880*
X51466880D02*
X51471499Y38061631D01*
X51476117Y38067188*
X51478426Y38072744*
X51501517Y38103303D02*
Y38106081D01*
X51503826Y38111638*
X51506135Y38114416*
X51510753Y38117194*
X51519990*
X51519990D02*
X51524608Y38114416D01*
X51526917Y38111638*
X51529226Y38106081*
Y38100525*
X51526917Y38094969*
X51522299Y38086635*
X51522299D02*
X51499208Y38058853D01*
X51531535*
X51207231Y39019968D02*
X51201674Y39017659D01*
X51196118Y39013041*
X51193340Y39008423*
Y38999186*
X51196118Y38994568*
X51201674Y38989950*
X51207231Y38987641*
X51215565Y38985332*
X51229456*
X51237790Y38987641*
X51243346Y38989950*
X51248903Y38994568*
X51248903D02*
X51251681Y38999186D01*
Y39008423*
X51248903Y39013041*
X51248903D02*
X51243346Y39017659D01*
X51237790Y39019968*
X51201674Y39068459D02*
X51196118Y39066150D01*
X51193340Y39059223*
Y39054605*
X51193340D02*
X51196118Y39047677D01*
X51204453Y39043059*
X51204453D02*
X51218343Y39040750D01*
X51232234*
X51243346Y39043059*
X51248903Y39047677*
X51248903D02*
X51251681Y39054605D01*
X51251681D02*
Y39056914D01*
X51248903Y39063841*
X51248903D02*
X51243346Y39068459D01*
X51235012Y39070768*
X51232234*
X51223899Y39068459*
X51218343Y39063841*
X51215565Y39056914*
Y39054605*
X51215565D02*
X51218343Y39047677D01*
X51223899Y39043059*
X51232234Y39040750*
X51042029Y39075722D02*
X51036473Y39073413D01*
X51030917Y39068795*
X51028139Y39064176*
X51028139D02*
Y39054940D01*
X51030917Y39050322*
X51036473Y39045704*
X51042029Y39043395*
X51050364Y39041086*
X51050364D02*
X51064254D01*
X51064254D02*
X51072589Y39043395D01*
X51078145Y39045704*
X51083701Y39050322*
X51086479Y39054940*
Y39064176*
X51086479D02*
X51083701Y39068795D01*
X51078145Y39073413*
X51072589Y39075722*
X51039251Y39096504D02*
X51036473Y39101122D01*
X51028139Y39108049*
X51086479*
X51028139Y39151922D02*
X51067032Y39128831D01*
Y39163467*
X51028139Y39151922D02*
X51086479D01*
X51017911Y39023044D02*
Y38964703D01*
X51045620*
X51089493Y39023044D02*
X51066402Y38984150D01*
X51101039*
X51089493Y39023044D02*
Y38964703D01*
X51388608Y39019334D02*
X51383052Y39017025D01*
X51377495Y39012407*
X51377495D02*
X51374717Y39007788D01*
Y38998552*
X51377495Y38993934*
X51383052Y38989316*
X51388608Y38987007*
X51388608D02*
X51396942Y38984697D01*
X51396942D02*
X51410833D01*
X51410833D02*
X51419167Y38987007D01*
X51419167D02*
X51424724Y38989316D01*
X51424724D02*
X51430280Y38993934D01*
X51433058Y38998552*
Y39007788*
X51430280Y39012407*
X51430280D02*
X51424724Y39017025D01*
X51424724D02*
X51419167Y39019334D01*
X51374717Y39070134D02*
Y39047043D01*
X51399720Y39044734*
X51396942Y39047043*
X51394164Y39053970*
Y39060897*
X51394164D02*
X51396942Y39067825D01*
X51402499Y39072443*
X51402499D02*
X51410833Y39074752D01*
X51416389Y39072443*
X51424724Y39070134*
X51424724D02*
X51430280Y39065516D01*
X51433058Y39058588*
Y39051661*
X51430280Y39044734*
X51427502Y39042425*
X51421945Y39040116*
X51204909Y38386613D02*
X51246581D01*
X51254916Y38388922*
X51260472Y38393540*
X51263250Y38400467*
X51263250D02*
Y38405086D01*
X51260472Y38412013*
X51254916Y38416631*
X51246581Y38418940*
X51204909*
X51216022Y38439722D02*
X51213244Y38444340D01*
X51204909Y38451267*
X51204909D02*
X51263250D01*
X51216877Y38574595D02*
X51214568Y38580151D01*
X51209950Y38585708*
X51209950D02*
X51205332Y38588486D01*
X51196095*
X51191477Y38585708*
X51191477D02*
X51186859Y38580151D01*
X51184550Y38574595*
X51182241Y38566261*
Y38552370*
X51184550Y38544036*
X51186859Y38538479*
X51191477Y38532923*
X51196095Y38530145*
X51205332*
X51209950Y38532923*
X51214568Y38538479*
X51216877Y38544036*
X51242277Y38588486D02*
X51267677D01*
X51253822Y38566261*
X51253822D02*
X51260750D01*
X51265368Y38563483*
X51265368D02*
X51267677Y38560704D01*
X51269986Y38552370*
Y38546814*
X51267677Y38538479*
X51263059Y38532923*
X51256132Y38530145*
X51249204*
X51242277Y38532923*
X51239968Y38535701*
X51237659Y38541258*
X50419138Y38884120D02*
X50413582Y38881811D01*
X50408026Y38877193*
X50408026D02*
X50405247Y38872574D01*
X50405247D02*
Y38863338D01*
X50405247D02*
X50408026Y38858720D01*
X50413582Y38854102*
X50419138Y38851793*
X50419138D02*
X50427472Y38849483D01*
X50427472D02*
X50441363D01*
X50441363D02*
X50449697Y38851793D01*
X50449697D02*
X50455254Y38854102D01*
X50460810Y38858720*
X50463588Y38863338*
Y38872574*
X50460810Y38877193*
X50460810D02*
X50455254Y38881811D01*
X50449697Y38884120*
X50416360Y38904902D02*
X50413582Y38909520D01*
X50405247Y38916447*
X50405247D02*
X50463588D01*
X50416360Y38937229D02*
X50413582Y38941847D01*
X50405247Y38948774*
X50405247D02*
X50463588D01*
X50778695Y39129034D02*
X50776386Y39134590D01*
X50771767Y39140146*
X50771767D02*
X50767149Y39142924D01*
X50757913*
X50753295Y39140146*
X50748677Y39134590*
X50746367Y39129034*
X50746367D02*
X50744058Y39120699D01*
Y39106809*
X50744058D02*
X50746367Y39098474D01*
X50746367D02*
X50748677Y39092918D01*
X50753295Y39087362*
X50757913Y39084584*
X50757913D02*
X50767149D01*
X50767149D02*
X50771767Y39087362D01*
X50771767D02*
X50776386Y39092918D01*
X50778695Y39098474*
X50799477Y39131812D02*
X50804095Y39134590D01*
X50811022Y39142924*
Y39084584*
X50845658Y39142924D02*
X50838731Y39140146D01*
X50834113Y39131812*
X50831804Y39117921*
Y39109587*
X50834113Y39095696*
X50838731Y39087362*
X50845658Y39084584*
X50845658D02*
X50850277D01*
X50850277D02*
X50857204Y39087362D01*
X50861822Y39095696*
X50864131Y39109587*
Y39117921*
X50861822Y39131812*
X50857204Y39140146*
X50850277Y39142924*
X50845658*
X51180886Y38274614D02*
X51178577Y38280170D01*
X51173959Y38285726*
X51173959D02*
X51169341Y38288505D01*
X51169341D02*
X51160104D01*
X51160104D02*
X51155486Y38285726D01*
X51155486D02*
X51150868Y38280170D01*
X51148559Y38274614*
X51146250Y38266280*
X51146250D02*
Y38252389D01*
X51148559Y38244055*
X51148559D02*
X51150868Y38238498D01*
X51155486Y38232942*
X51160104Y38230164*
X51160104D02*
X51169341D01*
X51173959Y38232942*
X51178577Y38238498*
X51180886Y38244055*
X51224759Y38288505D02*
X51201668Y38249611D01*
X51236304*
X51224759Y38288505D02*
Y38230164D01*
X51286558Y38985078D02*
X51344899D01*
X51286558D02*
Y39005860D01*
X51289336Y39012787*
X51292114Y39015096*
X51297671Y39017405*
X51297671D02*
X51303227D01*
X51308783Y39015096*
X51311561Y39012787*
X51314339Y39005860*
Y38985078*
Y39001242D02*
X51344899Y39017405D01*
X51297671Y39038187D02*
X51294892Y39042805D01*
X51286558Y39049732*
X51344899*
X50141133Y38988937D02*
X50134783Y38986628D01*
X50128433Y38982010*
X50128433D02*
X50125258Y38977391D01*
Y38968155*
X50128433Y38963537*
X50134783Y38958919*
X50141133Y38956610*
X50141133D02*
X50150658Y38954300D01*
X50150658D02*
X50166533D01*
X50166533D02*
X50176058Y38956610D01*
X50176058D02*
X50182408Y38958919D01*
X50188758Y38963537*
X50191933Y38968155*
Y38977391*
X50188758Y38982010*
X50188758D02*
X50182408Y38986628D01*
X50176058Y38988937*
X50137958Y39009719D02*
X50134783Y39014337D01*
X50125258Y39021264*
X50191933*
X50125258Y39046664D02*
Y39072064D01*
X50150658Y39058210*
X50150658D02*
Y39065137D01*
X50153833Y39069755*
X50157008Y39072064*
X50166533Y39074373*
X50172883*
X50182408Y39072064*
X50188758Y39067446*
X50191933Y39060519*
Y39053591*
X50188758Y39046664*
X50185583Y39044355*
X50179233Y39042046*
X50070612Y39244502D02*
Y39177827D01*
Y39244502D02*
X50086776D01*
X50093703Y39241327*
X50098321Y39234977*
X50100630Y39228627*
X50102939Y39219102*
Y39203227*
X50100630Y39193702*
X50098321Y39187352*
X50093703Y39181002*
X50086776Y39177827*
X50070612*
X50123721Y39231802D02*
X50128339Y39234977D01*
X50135267Y39244502*
X50135267D02*
Y39177827D01*
X50615563Y38901368D02*
Y38859696D01*
X50617872Y38851362*
X50622490Y38845806*
X50622490D02*
X50629417Y38843027D01*
X50634035*
X50640963Y38845806*
X50640963D02*
X50645581Y38851362D01*
X50647890Y38859696*
Y38901368*
X50670981Y38887477D02*
Y38890256D01*
X50670981D02*
X50673290Y38895812D01*
X50675599Y38898590*
X50680217Y38901368*
X50689454*
X50689454D02*
X50694072Y38898590D01*
X50696381Y38895812*
X50698690Y38890256*
X50698690D02*
Y38884699D01*
X50696381Y38879143*
X50691763Y38870809*
X50668672Y38843027*
X50700999*
X51559976Y37287882D02*
Y37246210D01*
X51562285Y37237875*
X51566903Y37232319*
X51573830Y37229541*
X51578448*
X51585376Y37232319*
X51589994Y37237875*
X51592303Y37246210*
Y37287882*
X51617703D02*
X51643103D01*
X51629248Y37265657*
X51636176*
X51640794Y37262879*
X51640794D02*
X51643103Y37260100D01*
X51645412Y37251766*
Y37246210*
X51643103Y37237875*
X51638485Y37232319*
X51631557Y37229541*
X51631557D02*
X51624630D01*
X51617703Y37232319*
X51615394Y37235097*
X51613085Y37240654*
X50139218Y38825007D02*
X50132868Y38822698D01*
X50126518Y38818080*
X50123343Y38813462*
Y38804226*
X50123343D02*
X50126518Y38799607D01*
X50132868Y38794989*
X50139218Y38792680*
X50148743Y38790371*
X50164618*
X50174143Y38792680*
X50180493Y38794989*
X50186843Y38799607*
X50190018Y38804226*
X50190018D02*
Y38813462D01*
X50186843Y38818080*
X50180493Y38822698*
X50174143Y38825007*
X50136043Y38845789D02*
X50132868Y38850407D01*
X50123343Y38857335*
X50190018*
X50139218Y38880426D02*
X50136043D01*
X50136043D02*
X50129693Y38882735D01*
X50126518Y38885044*
X50123343Y38889662*
Y38898898*
X50126518Y38903516*
X50126518D02*
X50129693Y38905826D01*
X50129693D02*
X50136043Y38908135D01*
X50142393*
X50148743Y38905826*
X50148743D02*
X50158268Y38901207D01*
X50190018Y38878116*
X50190018D02*
Y38910444D01*
X51037306Y39248136D02*
X51034997Y39253692D01*
X51030379Y39259249*
X51030379D02*
X51025761Y39262027D01*
X51016525*
X51011906Y39259249*
X51011906D02*
X51007288Y39253692D01*
X51004979Y39248136*
X51002670Y39239802*
Y39225911*
X51004979Y39217577*
X51007288Y39212020*
X51011906Y39206464*
X51011906D02*
X51016525Y39203686D01*
X51025761*
X51030379Y39206464*
X51034997Y39212020*
X51037306Y39217577*
X51058088Y39250914D02*
X51062706Y39253692D01*
X51062706D02*
X51069634Y39262027D01*
Y39203686*
X51120434Y39262027D02*
X51097343D01*
X51095034Y39237024*
X51095034D02*
X51097343Y39239802D01*
X51104270Y39242580*
X51111197*
X51118125Y39239802*
X51122743Y39234245*
X51125052Y39225911*
X51122743Y39220355*
X51120434Y39212020*
X51115816Y39206464*
X51108888Y39203686*
X51101961*
X51095034Y39206464*
X51092725Y39209242*
X51090416Y39214799*
X50267634Y38206201D02*
X50262078Y38203892D01*
X50256522Y38199274*
X50253744Y38194656*
Y38185419*
X50253744D02*
X50256522Y38180801D01*
X50262078Y38176183*
X50267634Y38173874*
X50275969Y38171565*
X50289859*
X50298194Y38173874*
X50303750Y38176183*
X50309306Y38180801*
X50312084Y38185419*
X50312084D02*
Y38194656D01*
X50309306Y38199274*
X50303750Y38203892*
X50298194Y38206201*
X50264856Y38226983D02*
X50262078Y38231601D01*
X50253744Y38238529*
X50312084*
X50273191Y38289329D02*
X50281525Y38287019D01*
X50281525D02*
X50287081Y38282401D01*
X50289859Y38275474*
Y38273165*
X50287081Y38266238*
X50281525Y38261619*
X50281525D02*
X50273191Y38259310D01*
X50270413*
X50270413D02*
X50262078Y38261619D01*
X50262078D02*
X50256522Y38266238D01*
X50253744Y38273165*
Y38275474*
X50256522Y38282401*
X50262078Y38287019*
X50262078D02*
X50273191Y38289329D01*
X50287081*
X50300972Y38287019*
X50300972D02*
X50309306Y38282401D01*
X50312084Y38275474*
Y38270856*
X50309306Y38263929*
X50303750Y38261619*
X51147770Y38882820D02*
X51145461Y38888377D01*
X51140843Y38893933*
X51136225Y38896711*
X51126989*
X51122370Y38893933*
X51122370D02*
X51117752Y38888377D01*
X51115443Y38882820*
X51113134Y38874486*
Y38860595*
X51115443Y38852261*
X51117752Y38846705*
X51122370Y38841149*
X51122370D02*
X51126989Y38838370D01*
X51136225*
X51140843Y38841149*
X51140843D02*
X51145461Y38846705D01*
X51147770Y38852261*
X51198570Y38877264D02*
X51196261Y38868930D01*
X51191643Y38863374*
X51191643D02*
X51184716Y38860595D01*
X51182407*
X51175480Y38863374*
X51175480D02*
X51170861Y38868930D01*
X51168552Y38877264*
Y38880042*
X51170861Y38888377*
X51175480Y38893933*
X51182407Y38896711*
X51184716*
X51191643Y38893933*
X51196261Y38888377*
X51198570Y38877264*
X51198570D02*
Y38863374D01*
X51198570D02*
X51196261Y38849483D01*
X51191643Y38841149*
X51191643D02*
X51184716Y38838370D01*
X51180098*
X51173170Y38841149*
X51173170D02*
X51170861Y38846705D01*
X50678563Y38096637D02*
Y38029962D01*
Y38096637D02*
X50699345D01*
X50706272Y38093462*
X50708582Y38090287*
X50708582D02*
X50710891Y38083937D01*
Y38077587*
X50708582Y38071237*
X50708582D02*
X50706272Y38068062D01*
X50699345Y38064887*
X50678563*
X50694727D02*
X50710891Y38029962D01*
X50731672Y38083937D02*
X50736291Y38087112D01*
X50743218Y38096637*
Y38029962*
X50764000Y38083937D02*
X50768618Y38087112D01*
X50775545Y38096637*
Y38029962*
X50855885Y38095135D02*
Y38028460D01*
Y38095135D02*
X50876667D01*
X50883594Y38091960*
X50885903Y38088785*
X50888212Y38082435*
Y38076085*
X50885903Y38069735*
X50883594Y38066560*
X50876667Y38063385*
X50855885*
X50872049D02*
X50888212Y38028460D01*
X50908994Y38082435D02*
X50913612Y38085610D01*
X50920539Y38095135*
Y38028460*
X50943630Y38079260D02*
Y38082435D01*
X50945939Y38088785*
X50948249Y38091960*
X50948249D02*
X50952867Y38095135D01*
X50962103*
X50966721Y38091960*
X50969030Y38088785*
X50971339Y38082435*
Y38076085*
X50969030Y38069735*
X50964412Y38060210*
X50941321Y38028460*
X50973649*
X50744849Y37771216D02*
X50811524D01*
X50744849D02*
Y37791997D01*
X50744849D02*
X50748024Y37798925D01*
X50748024D02*
X50751199Y37801234D01*
X50751199D02*
X50757549Y37803543D01*
X50757549D02*
X50763899D01*
X50763899D02*
X50770249Y37801234D01*
X50770249D02*
X50773424Y37798925D01*
X50773424D02*
X50776599Y37791997D01*
X50776599D02*
Y37771216D01*
Y37787379D02*
X50811524Y37803543D01*
X50757549Y37824325D02*
X50754374Y37828943D01*
X50754374D02*
X50744849Y37835870D01*
X50744849D02*
X50811524D01*
X50744849Y37861270D02*
Y37886670D01*
X50744849D02*
X50770249Y37872816D01*
X50770249D02*
Y37879743D01*
X50770249D02*
X50773424Y37884361D01*
X50773424D02*
X50776599Y37886670D01*
X50776599D02*
X50786124Y37888979D01*
X50786124D02*
X50792474D01*
X50792474D02*
X50801999Y37886670D01*
X50801999D02*
X50808349Y37882052D01*
X50808349D02*
X50811524Y37875125D01*
X50811524D02*
Y37868197D01*
X50811524D02*
X50808349Y37861270D01*
X50808349D02*
X50805174Y37858961D01*
X50805174D02*
X50798824Y37856652D01*
X50162107Y38398783D02*
X50228782D01*
X50162107D02*
Y38419565D01*
X50165282Y38426493*
X50165282D02*
X50168457Y38428802D01*
X50174807Y38431111*
X50181157*
X50187507Y38428802*
X50190682Y38426493*
X50190682D02*
X50193857Y38419565D01*
Y38398783*
Y38414947D02*
X50228782Y38431111D01*
X50184332Y38481911D02*
X50193857Y38479602D01*
X50200207Y38474983*
X50200207D02*
X50203382Y38468056D01*
Y38465747*
X50200207Y38458820*
X50193857Y38454202*
X50184332Y38451893*
X50184332D02*
X50181157D01*
X50181157D02*
X50171632Y38454202D01*
X50165282Y38458820*
X50162107Y38465747*
Y38468056*
X50165282Y38474983*
X50165282D02*
X50171632Y38479602D01*
X50184332Y38481911*
X50200207*
X50216082Y38479602*
X50225607Y38474983*
X50225607D02*
X50228782Y38468056D01*
Y38463438*
X50225607Y38456511*
X50219257Y38454202*
X50417163Y38070243D02*
X50414854Y38076593D01*
X50410236Y38082943*
X50405617Y38086118*
X50405617D02*
X50396381D01*
X50391763Y38082943*
X50387145Y38076593*
X50384836Y38070243*
X50382527Y38060718*
X50382527D02*
Y38044843D01*
X50382527D02*
X50384836Y38035318D01*
X50387145Y38028968*
X50391763Y38022618*
X50396381Y38019443*
X50405617*
X50405617D02*
X50410236Y38022618D01*
X50414854Y38028968*
X50417163Y38035318*
X50437945Y38073418D02*
X50442563Y38076593D01*
X50449490Y38086118*
Y38019443*
X50481817Y38086118D02*
X50474890Y38082943D01*
X50472581Y38076593*
Y38070243*
X50474890Y38063893*
X50479508Y38060718*
X50488745Y38057543*
X50495672Y38054368*
X50500290Y38048018*
X50502599Y38041668*
Y38032143*
X50500290Y38025793*
X50497981Y38022618*
X50491054Y38019443*
X50481817*
X50481817D02*
X50474890Y38022618D01*
X50472581Y38025793*
X50470272Y38032143*
Y38041668*
X50472581Y38048018*
X50477199Y38054368*
X50484127Y38057543*
X50484127D02*
X50493363Y38060718D01*
X50497981Y38063893*
X50500290Y38070243*
Y38076593*
X50497981Y38082943*
X50491054Y38086118*
X50481817*
X50913656Y37577754D02*
X50907306Y37575445D01*
X50900956Y37570827*
X50897781Y37566209*
Y37556973*
X50900956Y37552354*
X50907306Y37547736*
X50913656Y37545427*
X50923181Y37543118*
X50939056*
X50939056D02*
X50948581Y37545427D01*
X50948581D02*
X50954931Y37547736D01*
X50954931D02*
X50961281Y37552354D01*
X50961281D02*
X50964456Y37556973D01*
X50964456D02*
Y37566209D01*
X50964456D02*
X50961281Y37570827D01*
X50961281D02*
X50954931Y37575445D01*
X50954931D02*
X50948581Y37577754D01*
X50913656Y37600845D02*
X50910481D01*
X50904131Y37603154*
X50900956Y37605464*
X50900956D02*
X50897781Y37610082D01*
Y37619318*
X50900956Y37623936*
X50904131Y37626245*
X50910481Y37628554*
X50916831*
X50923181Y37626245*
X50932706Y37621627*
X50932706D02*
X50964456Y37598536D01*
X50964456D02*
Y37630864D01*
X50897781Y37674736D02*
X50942231Y37651645D01*
X50942231D02*
Y37686282D01*
X50897781Y37674736D02*
X50964456D01*
X50180981Y37233300D02*
X50247656D01*
X50180981D02*
Y37254082D01*
X50184156Y37261009*
X50187331Y37263318*
X50193681Y37265627*
X50200031*
X50206381Y37263318*
X50209556Y37261009*
X50212731Y37254082*
Y37233300*
Y37249464D02*
X50247656Y37265627D01*
X50193681Y37286409D02*
X50190506Y37291027D01*
X50180981Y37297955*
X50180981D02*
X50247656D01*
X50180981Y37332591D02*
X50184156Y37325664D01*
X50193681Y37321045*
X50193681D02*
X50209556Y37318736D01*
X50219081*
X50234956Y37321045*
X50234956D02*
X50244481Y37325664D01*
X50247656Y37332591*
Y37337209*
X50244481Y37344136*
X50234956Y37348755*
X50234956D02*
X50219081Y37351064D01*
X50209556*
X50193681Y37348755*
X50193681D02*
X50184156Y37344136D01*
X50180981Y37337209*
Y37332591*
X51265654Y39271941D02*
X51218507Y39224794D01*
X51265654Y39271941D02*
X51280349Y39257246D01*
X51283002Y39250102*
X51282390Y39246224*
X51282390D02*
X51279532Y39240102D01*
X51279532D02*
X51275042Y39235611D01*
X51268919Y39232754*
X51265041Y39232142*
X51265041D02*
X51257898Y39234795D01*
X51243203Y39249490*
X51254633Y39238061D02*
X51241366Y39201935D01*
X51294227Y39225407D02*
X51299738Y39224386D01*
X51311371Y39226223*
X51311371D02*
X51264225Y39179077D01*
X51342394Y39195200D02*
X51294635Y39180097D01*
X51294635D02*
X51319127Y39155606D01*
X51342394Y39195200D02*
X51295248Y39148054D01*
X51534164Y39201141D02*
Y39150341D01*
X51534164D02*
X51531855Y39140816D01*
X51531855D02*
X51529546Y39137641D01*
X51529546D02*
X51524928Y39134466D01*
X51524928D02*
X51520309D01*
X51520309D02*
X51515691Y39137641D01*
X51515691D02*
X51513382Y39140816D01*
X51513382D02*
X51511073Y39150341D01*
X51511073D02*
Y39156691D01*
X51559564Y39201141D02*
X51584964D01*
X51584964D02*
X51571109Y39175741D01*
X51571109D02*
X51578037D01*
X51578037D02*
X51582655Y39172566D01*
X51582655D02*
X51584964Y39169391D01*
X51584964D02*
X51587273Y39159866D01*
X51587273D02*
Y39153516D01*
X51587273D02*
X51584964Y39143991D01*
X51584964D02*
X51580346Y39137641D01*
X51580346D02*
X51573418Y39134466D01*
X51573418D02*
X51566491D01*
X51566491D02*
X51559564Y39137641D01*
X51559564D02*
X51557255Y39140816D01*
X51557255D02*
X51554946Y39147166D01*
X51638073Y39178916D02*
X51635764Y39169391D01*
X51635764D02*
X51631146Y39163041D01*
X51631146D02*
X51624218Y39159866D01*
X51624218D02*
X51621909D01*
X51621909D02*
X51614982Y39163041D01*
X51614982D02*
X51610364Y39169391D01*
X51610364D02*
X51608055Y39178916D01*
X51608055D02*
Y39182091D01*
X51608055D02*
X51610364Y39191616D01*
X51610364D02*
X51614982Y39197966D01*
X51614982D02*
X51621909Y39201141D01*
X51621909D02*
X51624218D01*
X51624218D02*
X51631146Y39197966D01*
X51631146D02*
X51635764Y39191616D01*
X51635764D02*
X51638073Y39178916D01*
X51638073D02*
Y39163041D01*
X51638073D02*
X51635764Y39147166D01*
X51635764D02*
X51631146Y39137641D01*
X51631146D02*
X51624218Y39134466D01*
X51624218D02*
X51619600D01*
X51619600D02*
X51612673Y39137641D01*
X51612673D02*
X51610364Y39143991D01*
G54D110*
X51586008Y38572671D02*
Y38239571D01*
X51294108*
Y38572671*
X51586008*
G54D111*
X50818786Y37173000D02*
Y37493000D01*
X50328786*
Y37173000*
X50818786*
G54D112*
X50370970Y37815140D02*
Y37767515D01*
X50373279Y37757990*
X50377898Y37751640*
X50384825Y37748465*
X50389443*
X50396370Y37751640*
X50400989Y37757990*
X50400989D02*
X50403298Y37767515D01*
Y37815140*
X50447170D02*
X50424079Y37770690D01*
X50458716*
X50447170Y37815140D02*
Y37748465D01*
G54D172*
X50848786Y36958000D02*
Y37708000D01*
X50298786*
Y36958000*
X50848786*
G54D173*
X50818786Y37138000D02*
Y37528000D01*
X50328786*
Y37138000*
X50818786*
G54D174*
X50453786Y37238000D02*
G03X50453786I-25000J0D01*
G54D175*
G01X50311286Y37013000D02*
G03X50311286I-12500J0D01*
G54D202*
G01X51680000Y39257856D02*
Y39072856D01*
X51495000*
Y39257856*
X51680000*
G74*
X0Y0D02*
M02*
