*
*
G04 PADS 9.5 Build Number: 522968 generated Gerber (RS-274-X) file*
G04 PC Version=2.1*
*
%IN "ESP32-WROVER-V4.pcb"*%
*
%MOMM*%
*
%FSLAX35Y35*%
*
*
*
*
G04 PC Standard Apertures*
*
*
G04 Thermal Relief Aperture macro.*
%AMTER*
1,1,$1,0,0*
1,0,$1-$2,0,0*
21,0,$3,$4,0,0,45*
21,0,$3,$4,0,0,135*
%
*
*
G04 Annular Aperture macro.*
%AMANN*
1,1,$1,0,0*
1,0,$2,0,0*
%
*
*
G04 Odd Aperture macro.*
%AMODD*
1,1,$1,0,0*
1,0,$1-0.005,0,0*
%
*
*
G04 PC Custom Aperture Macros*
*
*
*
*
*
*
G04 PC Aperture Table*
*
%ADD010C,0.0254*%
%ADD011R,0.8128X0.9144*%
%ADD012R,0.9144X0.8128*%
%ADD014R,0.508X0.508*%
%ADD032R,0.6096X1.8796*%
%ADD033O,0.6096X1.8796*%
%ADD036R,1X1.1*%
%ADD037R,0.24X0.8*%
%ADD038R,0.8X0.24*%
%ADD044C,0.254*%
%ADD109C,0.127*%
%ADD117R,4X4*%
%ADD118O,0.5X0.5*%
%ADD163R,0.308X0.379*%
%ADD166R,0.6X1.55*%
%ADD203R,0.95X0.95*%
%ADD204R,2.2X0.95*%
*
*
*
*
G04 PC Circuitry*
G04 Layer Name ESP32-WROVER-V4.pcb - circuitry*
%LPD*%
*
G54D10*
G01X52397708Y38421989D02*
X52396616Y38429633D01*
X52393472Y38435922*
X52388339Y38439001*
X52380871Y38440068*
X52375444Y38438983*
X52371187Y38437918*
X52371187D02*
X52367055Y38434820D01*
X52363781Y38429364*
X52363781D02*
X52361556Y38429449D01*
X52359381Y38433800*
X52356309Y38436872*
X52350990Y38439000*
X52345714Y38440055*
X52341539Y38439011*
X52336192Y38436872*
X52329572Y38430253*
X52329572D02*
X52327404Y38431151D01*
X52327404D02*
Y38438952D01*
X52327404D02*
X52319739D01*
Y38382528*
X52327404*
X52327404D02*
Y38418678D01*
X52327404D02*
X52327442Y38418986D01*
X52328576Y38423521*
X52328833Y38424026*
X52334502Y38430830*
X52335129Y38431238*
X52343067Y38433506*
X52343724Y38433517*
X52343724D02*
X52348259Y38432383D01*
X52348656Y38432208*
X52352058Y38429940*
X52352058D02*
X52352489Y38429451D01*
X52354757Y38424915*
X52354891Y38424347*
Y38382528*
X52362556*
Y38415276*
X52362569Y38415455*
X52362569D02*
X52363703Y38423393D01*
X52363944Y38423975*
X52367346Y38428511*
X52367600Y38428765*
X52372136Y38432167*
X52372649Y38432396*
X52378318Y38433530*
X52378816*
X52384486Y38432396*
X52385253Y38431913*
X52388655Y38427377*
X52388844Y38427017*
X52388844D02*
X52389977Y38423615D01*
X52389977D02*
X52390043Y38423213D01*
Y38382528*
X52397708*
Y38421989*
X52302458D02*
X52301366Y38429633D01*
X52298222Y38435922*
X52293089Y38439001*
X52285621Y38440068*
X52280194Y38438983*
X52275937Y38437918*
X52275937D02*
X52271805Y38434820D01*
X52268531Y38429364*
X52268531D02*
X52266306Y38429449D01*
X52264131Y38433800*
X52261059Y38436872*
X52255740Y38439000*
X52250464Y38440055*
X52246289Y38439011*
X52240942Y38436872*
X52234322Y38430253*
X52234322D02*
X52232154Y38431151D01*
X52232154D02*
Y38438952D01*
X52232154D02*
X52224489D01*
Y38382528*
X52232154*
X52232154D02*
Y38418678D01*
X52232154D02*
X52232192Y38418986D01*
X52233326Y38423521*
X52233583Y38424026*
X52239252Y38430830*
X52239879Y38431238*
X52247817Y38433506*
X52248474Y38433517*
X52248474D02*
X52253009Y38432383D01*
X52253406Y38432208*
X52256808Y38429940*
X52256808D02*
X52257239Y38429451D01*
X52259507Y38424915*
X52259641Y38424347*
Y38382528*
X52267306*
Y38415276*
X52267319Y38415455*
X52267319D02*
X52268453Y38423393D01*
X52268694Y38423975*
X52272096Y38428511*
X52272350Y38428765*
X52276886Y38432167*
X52277399Y38432396*
X52283068Y38433530*
X52283566*
X52289236Y38432396*
X52290003Y38431913*
X52293405Y38427377*
X52293594Y38427017*
X52293594D02*
X52294727Y38423615D01*
X52294727D02*
X52294793Y38423213D01*
Y38382528*
X52302458*
Y38421989*
X52209476Y38409470D02*
X52200541D01*
X52200541D02*
X52199271Y38410740D01*
X52199271D02*
Y38460497D01*
X52199271D02*
X52193235D01*
X52155319Y38410314*
X52155319D02*
Y38401805D01*
X52155319D02*
X52190335D01*
X52191605Y38400535*
Y38382528*
X52199271*
X52199271D02*
Y38400535D01*
X52199271D02*
X52200541Y38401805D01*
X52200541D02*
X52209476D01*
Y38409470*
X52191605Y38442490D02*
Y38410740D01*
X52190335Y38409470*
X52166523*
X52165507Y38411502*
X52189319Y38443252*
X52191605Y38442490*
X52140306Y38390193D02*
X52132641D01*
Y38382528*
X52140306*
Y38390193*
X52099485Y38461631D02*
X52094670D01*
X52091638Y38456578*
X52091638D02*
X52091447Y38456333D01*
X52091447D02*
X52085778Y38450664D01*
X52085584Y38450505*
X52078781Y38445969*
X52078706Y38445923*
X52071409Y38441753*
Y38434340*
X52080808Y38439039*
X52089787Y38445774*
X52089787D02*
X52091819Y38444758D01*
X52091819D02*
Y38382528D01*
X52091819D02*
X52099485D01*
Y38461631*
X52050703Y38405137D02*
X52049641Y38412575D01*
X52046452Y38417890*
X52042238Y38422103*
X52042238D02*
X52035719Y38424276D01*
X52035359Y38426497*
X52044070Y38433030*
X52046159Y38441387*
X52044042Y38451971*
X52035493Y38458382*
X52030088Y38460544*
X52030088D02*
X52024735Y38461615D01*
X52016165Y38460544*
X52009822Y38456315*
X52005509Y38449845*
X52002731Y38442438*
X52010354Y38441591*
X52012263Y38446364*
X52012306Y38446460*
X52014574Y38450996*
X52015142Y38451564*
X52019678Y38453831*
X52019678D02*
X52019938Y38453928D01*
X52024474Y38455061*
X52024474D02*
X52025031Y38455075D01*
X52030700Y38453941*
X52031156Y38453752*
X52034558Y38451484*
X52034558D02*
X52034989Y38450996D01*
X52037257Y38446460*
X52037353Y38446200*
X52038487Y38441664*
X52038500Y38441107*
X52037366Y38435438*
X52037366D02*
X52037019Y38434789D01*
X52033617Y38431387*
X52033481Y38431269*
X52028945Y38427867*
X52028183Y38427613*
X52021367*
X52020583Y38421344*
X52025707Y38422198*
X52026124*
X52032928Y38421064*
X52033481Y38420828*
X52038017Y38417426*
X52038271Y38417172*
X52041673Y38412636*
X52041909Y38412083*
X52043043Y38405279*
X52043061Y38405071*
X52043061D02*
X52043036Y38404821D01*
X52043036D02*
X52041902Y38399152D01*
X52041746Y38398747*
X52041746D02*
X52038344Y38393078D01*
X52038017Y38392715*
X52033481Y38389313*
X52032928Y38389077*
X52026124Y38387943*
X52025666Y38387950*
X52025666D02*
X52019997Y38389084D01*
X52019678Y38389193*
X52019678D02*
X52015142Y38391461D01*
X52014694Y38391835*
X52011292Y38396371*
X52011104Y38396731*
X52009160Y38402561*
X52001420Y38401701*
X52003277Y38394273*
X52008644Y38386758*
X52008644D02*
X52016120Y38382487D01*
X52024735Y38381410*
X52035670Y38383597*
X52043151Y38387872*
X52048545Y38396502*
X52050703Y38405137*
X51118813Y40269204D02*
X51117721Y40276848D01*
X51114577Y40283137*
X51109444Y40286216*
X51109444D02*
X51101976Y40287283D01*
X51096549Y40286198*
X51092292Y40285133*
X51092292D02*
X51088160Y40282035D01*
X51084887Y40276579*
X51084887D02*
X51082662Y40276664D01*
X51080486Y40281015*
X51077414Y40284087*
X51072095Y40286215*
X51066820Y40287270*
X51066820D02*
X51062644Y40286226D01*
X51057297Y40284087*
X51050678Y40277468*
X51048510Y40278366*
Y40286167*
X51040844*
Y40229743*
X51048510*
Y40265893*
X51048548Y40266201*
X51049682Y40270736*
X51049682D02*
X51049938Y40271241D01*
X51055608Y40278045*
X51056234Y40278453*
X51064172Y40280721*
X51064829Y40280732*
X51069364Y40279598*
X51069364D02*
X51069761Y40279423D01*
X51073163Y40277155*
X51073594Y40276666*
X51075862Y40272130*
X51075996Y40271562*
Y40229743*
X51083661*
X51083661D02*
Y40262491D01*
X51083661D02*
X51083674Y40262670D01*
X51083674D02*
X51084808Y40270608D01*
X51085049Y40271190*
X51088451Y40275726*
X51088705Y40275980*
X51093241Y40279382*
X51093754Y40279611*
X51099423Y40280745*
X51099423D02*
X51099922D01*
X51105591Y40279611*
X51106358Y40279128*
X51109760Y40274592*
X51109949Y40274232*
X51111083Y40270830*
X51111148Y40270428*
Y40229743*
X51118813*
Y40269204*
X51023563D02*
X51022471Y40276848D01*
X51019327Y40283137*
X51014194Y40286216*
X51014194D02*
X51006726Y40287283D01*
X51001299Y40286198*
X50997042Y40285133*
X50997042D02*
X50992910Y40282035D01*
X50989637Y40276579*
X50989637D02*
X50987412Y40276664D01*
X50985236Y40281015*
X50982164Y40284087*
X50976845Y40286215*
X50971570Y40287270*
X50971570D02*
X50967394Y40286226D01*
X50962047Y40284087*
X50955428Y40277468*
X50953260Y40278366*
Y40286167*
X50945594*
Y40229743*
X50953260*
Y40265893*
X50953298Y40266201*
X50954432Y40270736*
X50954432D02*
X50954688Y40271241D01*
X50960358Y40278045*
X50960984Y40278453*
X50968922Y40280721*
X50969579Y40280732*
X50974114Y40279598*
X50974114D02*
X50974511Y40279423D01*
X50977913Y40277155*
X50978344Y40276666*
X50980612Y40272130*
X50980746Y40271562*
Y40229743*
X50988411*
X50988411D02*
Y40262491D01*
X50988411D02*
X50988424Y40262670D01*
X50988424D02*
X50989558Y40270608D01*
X50989799Y40271190*
X50993201Y40275726*
X50993455Y40275980*
X50997991Y40279382*
X50998504Y40279611*
X51004173Y40280745*
X51004173D02*
X51004672D01*
X51010341Y40279611*
X51011108Y40279128*
X51014510Y40274592*
X51014699Y40274232*
X51015833Y40270830*
X51015898Y40270428*
Y40229743*
X51023563*
Y40269204*
X50930581Y40279322D02*
X50928374Y40287045D01*
X50928374D02*
X50923918Y40299299D01*
X50923918D02*
X50920739Y40303539D01*
X50916578Y40306659*
X50916578D02*
X50905735Y40308828D01*
X50898217Y40307754*
X50891847Y40304569*
X50887593Y40299252*
X50884306Y40291582*
X50884306D02*
X50882083Y40281576D01*
X50882083D02*
X50880960Y40268108D01*
Y40258111*
X50883185Y40249213*
X50883185D02*
X50885401Y40241456D01*
X50888581Y40236157*
X50896093Y40230791*
X50905820Y40228629*
X50913325Y40229701*
X50919694Y40232886*
X50923948Y40238203*
X50927235Y40245873*
X50929460Y40255883*
X50930581Y40268218*
Y40279322*
X50922916Y40277232D02*
Y40259089D01*
X50922898Y40258880*
X50922898D02*
X50921765Y40252077D01*
X50921765D02*
X50921757Y40252036D01*
X50921757D02*
X50920623Y40246367D01*
X50920514Y40246048*
X50918246Y40241512*
X50917903Y40241088*
X50917903D02*
X50912234Y40236553D01*
X50911689Y40236299*
X50911689D02*
X50906020Y40235165D01*
X50905522*
X50899852Y40236299*
X50899308Y40236553*
X50893638Y40241088*
X50893638D02*
X50893296Y40241512D01*
X50893296D02*
X50891028Y40246048D01*
X50890918Y40246367*
X50889784Y40252036*
X50889784D02*
X50889777Y40252077D01*
X50888643Y40258880*
X50888626Y40259089*
Y40277232*
X50888638Y40277412*
X50888638D02*
X50889772Y40285349D01*
X50889784Y40285418*
X50889784D02*
X50890918Y40291088D01*
X50891028Y40291407*
X50893296Y40295943*
X50893296D02*
X50893638Y40296366D01*
X50893638D02*
X50899308Y40300902D01*
X50899852Y40301156*
X50905522Y40302290*
X50905980Y40302297*
X50905980D02*
X50912783Y40301163D01*
X50913566Y40300704*
X50918102Y40295034*
X50918167Y40294945*
X50920435Y40291544*
X50920435D02*
X50920623Y40291088D01*
X50921757Y40285418*
X50921757D02*
X50921769Y40285349D01*
X50922903Y40277412*
X50922903D02*
X50922916Y40277232D01*
X50861411Y40237408D02*
X50853746D01*
Y40229743*
X50861411*
X50861411D02*
Y40237408D01*
X50835308Y40252320D02*
X50834237Y40258745D01*
X50832117Y40264045*
X50827911Y40268251*
X50821292Y40271560*
X50821207Y40273785*
X50826742Y40277107*
X50829888Y40280252*
X50832001Y40284479*
X50833044Y40288649*
X50831985Y40297116*
X50826672Y40303492*
X50820279Y40307754*
X50810521Y40308838*
X50800763Y40307754*
X50794370Y40303492*
X50789048Y40297106*
X50789048D02*
X50787996Y40289741D01*
X50789054Y40284451*
X50791154Y40280252*
X50794299Y40277107*
X50799835Y40273785*
X50799583Y40271491*
X50793064Y40269318*
X50788952Y40265207*
X50786811Y40258782*
X50785734Y40252320*
X50787906Y40242543*
X50792188Y40235050*
X50800743Y40229703*
X50810521Y40228617*
X50820298Y40229703*
X50828853Y40235050*
X50833135Y40242543*
X50833135D02*
X50835308Y40252320D01*
X50825360Y40288263D02*
X50824226Y40283728D01*
X50824226D02*
X50824051Y40283331D01*
X50821783Y40279929*
X50821294Y40279498*
X50816758Y40277230*
X50816439Y40277121*
X50816439D02*
X50810770Y40275987D01*
X50810272*
X50804602Y40277121*
X50804602D02*
X50804283Y40277230D01*
X50799747Y40279498*
X50799259Y40279929*
X50796991Y40283331*
X50796802Y40283786*
X50796802D02*
X50795668Y40289456D01*
X50795682Y40290013*
X50795682D02*
X50796815Y40294549D01*
X50796815D02*
X50796991Y40294945D01*
X50799259Y40298347*
X50799747Y40298779*
X50804283Y40301046*
X50804283D02*
X50804602Y40301156D01*
X50810272Y40302290*
X50810770*
X50816439Y40301156*
X50816439D02*
X50816758Y40301046D01*
X50816758D02*
X50821294Y40298779D01*
X50821862Y40298211*
X50824130Y40293675*
X50824226Y40293415*
X50825360Y40288879*
Y40288263*
X50827666Y40252286D02*
X50827648Y40252077D01*
X50827648D02*
X50826515Y40245273D01*
X50826515D02*
X50826278Y40244720D01*
X50822876Y40240184*
X50822622Y40239930*
X50818086Y40236528*
X50817533Y40236292*
X50810730Y40235158*
X50810730D02*
X50810521Y40235141D01*
X50810521D02*
X50805985D01*
X50805985D02*
X50805281Y40235354D01*
X50805281D02*
X50801944Y40237578D01*
X50797480Y40239810*
X50796991Y40240242*
X50794723Y40243644*
X50794723D02*
X50794522Y40244168D01*
X50793388Y40252106*
X50793388D02*
X50793376Y40252286D01*
X50793376D02*
X50793400Y40252535D01*
X50794534Y40258204*
X50794691Y40258609*
X50794691D02*
X50798092Y40264278D01*
X50798092D02*
X50798419Y40264641D01*
X50798419D02*
X50802955Y40268043D01*
X50803508Y40268279*
X50810312Y40269413*
X50810730*
X50810730D02*
X50817533Y40268279D01*
X50818086Y40268043*
X50822622Y40264641*
X50822949Y40264278*
X50826351Y40258609*
X50826351D02*
X50826507Y40258204D01*
X50827641Y40252535*
X50827666Y40252286*
X50757090Y40308846D02*
X50752276D01*
X50752276D02*
X50749244Y40303793D01*
X50749053Y40303548*
X50743383Y40297879*
X50743189Y40297720*
X50743189D02*
X50736386Y40293184D01*
X50736312Y40293138*
X50736312D02*
X50729014Y40288968D01*
Y40281555*
X50738413Y40286254*
X50747393Y40292989*
X50749425Y40291973*
Y40229743*
X50757090*
Y40308846*
X50731420Y40282758D02*
Y40290343D01*
X50733960Y40284028D02*
Y40291794D01*
X50736500Y40285298D02*
Y40293260D01*
X50739040Y40286724D02*
Y40294954D01*
X50741580Y40288629D02*
Y40296647D01*
X50744120Y40290534D02*
Y40298616D01*
X50746660Y40292439D02*
Y40301156D01*
X50749200Y40292694D02*
Y40303725D01*
X50751740Y40229743D02*
Y40307953D01*
X50754280Y40229743D02*
Y40308846D01*
X50756820Y40229743D02*
Y40308846D01*
X50787300Y40245272D02*
Y40260250D01*
X50789840Y40239159D02*
Y40266095D01*
Y40282880D02*
Y40298056D01*
X50792380Y40234930D02*
Y40268634D01*
Y40279026D02*
Y40301104D01*
X50794920Y40233343D02*
Y40243348D01*
Y40258991D02*
Y40269937D01*
Y40276734D02*
Y40303859D01*
X50797460Y40231755D02*
Y40239820D01*
Y40263224D02*
Y40270784D01*
Y40275210D02*
Y40282627D01*
Y40295649D02*
Y40305552D01*
X50800000Y40230168D02*
Y40238550D01*
Y40265826D02*
Y40271725D01*
Y40273667D02*
Y40279371D01*
Y40298905D02*
Y40307245D01*
X50802540Y40229504D02*
Y40237181D01*
Y40267731D02*
Y40278101D01*
Y40300175D02*
Y40307951D01*
X50805080Y40229221D02*
Y40235487D01*
Y40268541D02*
Y40277025D01*
Y40301251D02*
Y40308234D01*
X50807620Y40228939D02*
Y40235141D01*
Y40268965D02*
Y40276517D01*
Y40301759D02*
Y40308516D01*
X50810160Y40228657D02*
Y40235141D01*
Y40269388D02*
Y40276009D01*
Y40302267D02*
Y40308798D01*
X50812700Y40228859D02*
Y40235486D01*
Y40269085D02*
Y40276373D01*
Y40301904D02*
Y40308596D01*
X50815240Y40229141D02*
Y40235910D01*
Y40268662D02*
Y40276881D01*
Y40301396D02*
Y40308314D01*
X50817780Y40229423D02*
Y40236359D01*
Y40268212D02*
Y40277741D01*
Y40300536D02*
Y40308031D01*
X50820320Y40229717D02*
Y40238204D01*
Y40266367D02*
Y40279011D01*
Y40299266D02*
Y40307726D01*
X50822860Y40231304D02*
Y40240163D01*
Y40264407D02*
Y40270776D01*
Y40274777D02*
Y40281545D01*
Y40296215D02*
Y40306033D01*
X50825400Y40232892D02*
Y40243550D01*
Y40260193D02*
Y40269506D01*
Y40276301D02*
Y40304340D01*
X50827940Y40234479D02*
Y40268222D01*
Y40278304D02*
Y40301970D01*
X50830480Y40237897D02*
Y40265682D01*
Y40281437D02*
Y40298922D01*
X50833020Y40242342D02*
Y40261787D01*
Y40288554D02*
Y40288838D01*
X50855880Y40229743D02*
Y40237408D01*
X50858420Y40229743D02*
Y40237408D01*
X50860960Y40229743D02*
Y40237408D01*
X50881280Y40256833D02*
Y40271943D01*
X50883820Y40246990D02*
Y40289394D01*
X50886360Y40239858D02*
Y40296374D01*
X50888900Y40235929D02*
Y40257338D01*
Y40279242D02*
Y40300885D01*
X50891440Y40234114D02*
Y40245223D01*
Y40292232D02*
Y40304060D01*
X50893980Y40232300D02*
Y40240815D01*
Y40296640D02*
Y40305635D01*
X50896520Y40230696D02*
Y40238783D01*
Y40298672D02*
Y40306905D01*
X50899060Y40230131D02*
Y40236751D01*
Y40300704D02*
Y40307874D01*
X50901600Y40229567D02*
Y40235949D01*
Y40301505D02*
Y40308237D01*
X50904140Y40229002D02*
Y40235442D01*
Y40302013D02*
Y40308600D01*
X50906680Y40228752D02*
Y40235297D01*
Y40302180D02*
Y40308639D01*
X50909220Y40229115D02*
Y40235805D01*
Y40301757D02*
Y40308131D01*
X50911760Y40229478D02*
Y40236315D01*
Y40301334D02*
Y40307623D01*
X50914300Y40230189D02*
Y40238206D01*
Y40299786D02*
Y40307115D01*
X50916840Y40231459D02*
Y40240238D01*
Y40296611D02*
Y40306463D01*
X50919380Y40232729D02*
Y40243780D01*
Y40293125D02*
Y40304558D01*
X50921920Y40235668D02*
Y40253010D01*
Y40284292D02*
Y40301964D01*
X50924460Y40239398D02*
Y40297810D01*
X50927000Y40245324D02*
Y40290825D01*
X50929540Y40256767D02*
Y40282966D01*
X50947320Y40229743D02*
Y40286167D01*
X50949860Y40229743D02*
Y40286167D01*
X50952400Y40229743D02*
Y40286167D01*
X50954940Y40271544D02*
Y40277164D01*
X50957480Y40274592D02*
Y40279520D01*
X50960020Y40277640D02*
Y40282060D01*
X50962560Y40278903D02*
Y40284292D01*
X50965100Y40279629D02*
Y40285308D01*
X50967640Y40280355D02*
Y40286287D01*
X50970180Y40280582D02*
Y40286922D01*
X50972720Y40279947D02*
Y40287040D01*
X50975260Y40278923D02*
Y40286532D01*
X50977800Y40277230D02*
Y40285833D01*
X50980340Y40272674D02*
Y40284817D01*
X50982880Y40229743D02*
Y40283371D01*
X50985420Y40229743D02*
Y40280647D01*
X50987960Y40229743D02*
Y40276106D01*
X50990500Y40272124D02*
Y40278018D01*
X50993040Y40275511D02*
Y40282132D01*
X50995580Y40277574D02*
Y40284037D01*
X50998120Y40279467D02*
Y40285403D01*
X51000660Y40280042D02*
Y40286038D01*
X51003200Y40280550D02*
Y40286578D01*
X51005740Y40280531D02*
Y40287086D01*
X51008280Y40280023D02*
Y40287061D01*
X51010820Y40279406D02*
Y40286698D01*
X51013360Y40276125D02*
Y40286335D01*
X51015900Y40229743D02*
Y40285193D01*
X51018440Y40229743D02*
Y40283669D01*
X51020980Y40229743D02*
Y40279831D01*
X51023520Y40229743D02*
Y40269507D01*
X51041300Y40229743D02*
Y40286167D01*
X51043840Y40229743D02*
Y40286167D01*
X51046380Y40229743D02*
Y40286167D01*
X51048920Y40267690D02*
Y40277431D01*
X51051460Y40273068D02*
Y40278250D01*
X51054000Y40276116D02*
Y40280790D01*
X51056540Y40278540D02*
Y40283330D01*
X51059080Y40279266D02*
Y40284800D01*
X51061620Y40279992D02*
Y40285816D01*
X51064160Y40280718D02*
Y40286605D01*
X51066700Y40280264D02*
Y40287240D01*
X51069240Y40279629D02*
Y40286786D01*
X51071780Y40278077D02*
Y40286278D01*
X51074320Y40275214D02*
Y40285325D01*
X51076860Y40229743D02*
Y40284309D01*
X51079400Y40229743D02*
Y40282101D01*
X51081940Y40229743D02*
Y40278107D01*
X51084480Y40268311D02*
Y40276161D01*
X51087020Y40273818D02*
Y40280134D01*
X51089560Y40276621D02*
Y40283085D01*
X51092100Y40278526D02*
Y40284990D01*
X51094640Y40279788D02*
Y40285721D01*
X51097180Y40280296D02*
Y40286324D01*
X51099720Y40280769D02*
Y40286832D01*
X51102260Y40280277D02*
Y40287243D01*
X51104800Y40279769D02*
Y40286880D01*
X51107340Y40277819D02*
Y40286517D01*
X51109880Y40274398D02*
Y40285955D01*
X51112420Y40229743D02*
Y40284431D01*
X51114960Y40229743D02*
Y40282371D01*
X51117500Y40229743D02*
Y40277291D01*
X52001420Y38401700D02*
Y38401701D01*
X52003960Y38393317D02*
Y38401983D01*
Y38442302D02*
Y38445715D01*
X52006500Y38389761D02*
Y38402265D01*
Y38442019D02*
Y38451332D01*
X52009040Y38386532D02*
Y38402548D01*
Y38441737D02*
Y38455142D01*
X52011580Y38385081D02*
Y38395988D01*
Y38444656D02*
Y38457487D01*
X52014120Y38383629D02*
Y38392601D01*
Y38450087D02*
Y38459180D01*
X52016660Y38382419D02*
Y38390702D01*
Y38452323D02*
Y38460606D01*
X52019200Y38382102D02*
Y38389432D01*
Y38453593D02*
Y38460923D01*
X52021740Y38381784D02*
Y38388735D01*
Y38421537D02*
Y38427613D01*
Y38454378D02*
Y38461241D01*
X52024280Y38381467D02*
Y38388227D01*
Y38421960D02*
Y38427613D01*
Y38455013D02*
Y38461558D01*
X52026820Y38381827D02*
Y38388059D01*
Y38422082D02*
Y38427613D01*
Y38454717D02*
Y38461198D01*
X52029360Y38382335D02*
Y38388482D01*
Y38421659D02*
Y38428178D01*
Y38454209D02*
Y38460690D01*
X52031900Y38382843D02*
Y38388905D01*
Y38421236D02*
Y38430083D01*
Y38453256D02*
Y38459820D01*
X52034440Y38383351D02*
Y38390033D01*
Y38420108D02*
Y38432210D01*
Y38451563D02*
Y38458804D01*
X52036980Y38384346D02*
Y38391938D01*
Y38418203D02*
Y38423856D01*
Y38427713D02*
Y38434750D01*
Y38447013D02*
Y38457267D01*
X52039520Y38385797D02*
Y38395038D01*
Y38415506D02*
Y38423009D01*
Y38429618D02*
Y38455362D01*
X52042060Y38387248D02*
Y38399942D01*
Y38411179D02*
Y38422163D01*
Y38431523D02*
Y38453457D01*
X52044600Y38390190D02*
Y38419742D01*
Y38435152D02*
Y38449181D01*
X52047140Y38394254D02*
Y38416743D01*
X52049680Y38401043D02*
Y38412301D01*
X52072540Y38434905D02*
Y38442400D01*
X52075080Y38436175D02*
Y38443851D01*
X52077620Y38437445D02*
Y38445302D01*
X52080160Y38438715D02*
Y38446889D01*
X52082700Y38440458D02*
Y38448582D01*
X52085240Y38442363D02*
Y38450275D01*
X52087780Y38444268D02*
Y38452666D01*
X52090320Y38446007D02*
Y38455206D01*
X52092860Y38382528D02*
Y38458614D01*
X52095400Y38382528D02*
Y38461631D01*
X52097940Y38382528D02*
Y38461631D01*
X52133500Y38382528D02*
Y38390193D01*
X52136040Y38382528D02*
Y38390193D01*
X52138580Y38382528D02*
Y38390193D01*
X52156360Y38401805D02*
Y38411692D01*
X52158900Y38401805D02*
Y38415053D01*
X52161440Y38401805D02*
Y38418415D01*
X52163980Y38401805D02*
Y38421777D01*
X52166520Y38401805D02*
Y38409470D01*
Y38412853D02*
Y38425139D01*
X52169060Y38401805D02*
Y38409470D01*
Y38416240D02*
Y38428500D01*
X52171600Y38401805D02*
Y38409470D01*
Y38419627D02*
Y38431862D01*
X52174140Y38401805D02*
Y38409470D01*
Y38423013D02*
Y38435224D01*
X52176680Y38401805D02*
Y38409470D01*
Y38426400D02*
Y38438586D01*
X52179220Y38401805D02*
Y38409470D01*
Y38429787D02*
Y38441947D01*
X52181760Y38401805D02*
Y38409470D01*
Y38433173D02*
Y38445309D01*
X52184300Y38401805D02*
Y38409470D01*
Y38436560D02*
Y38448671D01*
X52186840Y38401805D02*
Y38409470D01*
Y38439947D02*
Y38452033D01*
X52189380Y38401805D02*
Y38409470D01*
Y38443327D02*
Y38455394D01*
X52191920Y38382528D02*
Y38458756D01*
X52194460Y38382528D02*
Y38460497D01*
X52197000Y38382528D02*
Y38460497D01*
X52199540Y38401317D02*
Y38409958D01*
X52202080Y38401805D02*
Y38409470D01*
X52204620Y38401805D02*
Y38409470D01*
X52207160Y38401805D02*
Y38409470D01*
X52224940Y38382528D02*
Y38438952D01*
X52227480Y38382528D02*
Y38438952D01*
X52230020Y38382528D02*
Y38438952D01*
X52232560Y38420456D02*
Y38430221D01*
X52235100Y38425847D02*
Y38431030D01*
X52237640Y38428895D02*
Y38433570D01*
X52240180Y38431324D02*
Y38436110D01*
X52242720Y38432050D02*
Y38437583D01*
X52245260Y38432775D02*
Y38438599D01*
X52247800Y38433501D02*
Y38439389D01*
X52250340Y38433050D02*
Y38440024D01*
X52252880Y38432415D02*
Y38439572D01*
X52255420Y38430865D02*
Y38439064D01*
X52257960Y38428009D02*
Y38438112D01*
X52260500Y38382528D02*
Y38437096D01*
X52263040Y38382528D02*
Y38434891D01*
X52265580Y38382528D02*
Y38430902D01*
X52268120Y38421062D02*
Y38428943D01*
X52270660Y38426596D02*
Y38432911D01*
X52273200Y38429403D02*
Y38435866D01*
X52275740Y38431308D02*
Y38437771D01*
X52278280Y38432572D02*
Y38438504D01*
X52280820Y38433080D02*
Y38439108D01*
X52283360Y38433554D02*
Y38439616D01*
X52285900Y38433063D02*
Y38440028D01*
X52288440Y38432555D02*
Y38439665D01*
X52290980Y38430610D02*
Y38439303D01*
X52293520Y38427192D02*
Y38438743D01*
X52296060Y38382528D02*
Y38437219D01*
X52298600Y38382528D02*
Y38435165D01*
X52301140Y38382528D02*
Y38430085D01*
X52321460Y38382528D02*
Y38438952D01*
X52324000Y38382528D02*
Y38438952D01*
X52326540Y38382528D02*
Y38438952D01*
X52329080Y38424323D02*
Y38429947D01*
X52331620Y38427371D02*
Y38432300D01*
X52334160Y38430419D02*
Y38434840D01*
X52336700Y38431687D02*
Y38437075D01*
X52339240Y38432413D02*
Y38438091D01*
X52341780Y38433138D02*
Y38439071D01*
X52344320Y38433368D02*
Y38439706D01*
X52346860Y38432733D02*
Y38439826D01*
X52349400Y38431711D02*
Y38439318D01*
X52351940Y38430018D02*
Y38438620D01*
X52354480Y38425469D02*
Y38437604D01*
X52357020Y38382528D02*
Y38436161D01*
X52359560Y38382528D02*
Y38433442D01*
X52362100Y38382528D02*
Y38428894D01*
X52364640Y38424903D02*
Y38430795D01*
X52367180Y38428290D02*
Y38434914D01*
X52369720Y38430355D02*
Y38436818D01*
X52372260Y38432249D02*
Y38438187D01*
X52374800Y38432826D02*
Y38438822D01*
X52377340Y38433334D02*
Y38439362D01*
X52379880Y38433317D02*
Y38439870D01*
X52382420Y38432809D02*
Y38439847D01*
X52384960Y38432195D02*
Y38439484D01*
X52387500Y38428917D02*
Y38439121D01*
X52390040Y38423294D02*
Y38437981D01*
X52392580Y38382528D02*
Y38436457D01*
X52395120Y38382528D02*
Y38432625D01*
X52397660Y38382528D02*
Y38422325D01*
*
G04 PC Custom Flashes*
G04 Layer Name ESP32-WROVER-V4.pcb - flashes*
%LPD*%
*
*
G04 PC Circuitry*
G04 Layer Name ESP32-WROVER-V4.pcb - circuitry*
%LPD*%
*
G54D10*
X50000000Y40000000D02*
X50000067D01*
X51799996D02*
X51800063D01*
X51808988Y36857766D02*
X51809055D01*
X51799996Y40000000D02*
X51800063D01*
G54D11*
X50523164Y37931580D03*
X50358064D03*
G54D12*
X50430936Y39026697D03*
Y39191797D03*
X50285140Y39026697D03*
Y39191797D03*
Y38844706D03*
Y38679606D03*
G54D14*
X51484528Y38648009D03*
X51586128D03*
X50573024Y39053596D03*
X50674624D03*
Y38964696D03*
X50573024D03*
X51543558Y38178871D03*
X51441958D03*
X51362202Y38846840D03*
Y38745240D03*
X50942010Y38999748D03*
Y39101348D03*
Y38905768D03*
X51043610D03*
X51544320Y38745494D03*
Y38847094D03*
X51219200Y38648009D03*
X51320800D03*
X50798830Y38924818D03*
Y39026418D03*
X51133018Y38171657D03*
X51234618D03*
X51454150Y38745494D03*
Y38847094D03*
X50840410Y39195328D03*
X50942010D03*
X50285140Y38456010D03*
Y38354410D03*
X51101598Y38787150D03*
X51203198D03*
X50781990Y37968235D03*
X50680390D03*
X50873760D03*
X50975360D03*
X50680390Y37879335D03*
Y37777735D03*
X50209804Y38547120D03*
X50311404D03*
X50939800Y37866400D03*
Y37764800D03*
X50213792Y37164598D03*
Y37062998D03*
G54D32*
X51079500Y37078594D03*
G54D33*
X51206500D03*
X51333500D03*
X51460500D03*
Y37891394D03*
X51333500D03*
X51206500D03*
X51079500D03*
G54D36*
X51362608Y38496371D03*
Y38316371D03*
X51512608D03*
Y38496371D03*
G54D37*
X50982000Y38771000D03*
X50942000D03*
X50902000D03*
X50862000D03*
X50822000D03*
X50782000D03*
X50742000D03*
X50702000D03*
X50662000D03*
X50622000D03*
X50582000D03*
X50542000D03*
Y38181000D03*
X50582000D03*
X50622000D03*
X50662000D03*
X50702000D03*
X50742000D03*
X50782000D03*
X50822000D03*
X50862000D03*
X50902000D03*
X50942000D03*
X50982000D03*
G54D38*
X50467000Y38696000D03*
Y38656000D03*
Y38616000D03*
Y38576000D03*
Y38536000D03*
Y38496000D03*
Y38456000D03*
Y38416000D03*
Y38376000D03*
Y38336000D03*
Y38296000D03*
Y38256000D03*
X51057000D03*
Y38296000D03*
Y38336000D03*
Y38376000D03*
Y38416000D03*
Y38456000D03*
Y38496000D03*
Y38536000D03*
Y38576000D03*
Y38616000D03*
Y38656000D03*
Y38696000D03*
G54D44*
X51248963Y39266471D02*
X51231003Y39248510D01*
X51248963Y39230550*
X51266924Y39248510*
X51248963Y39266471*
Y39230550D02*
X51248963D01*
X51238442Y39255950D02*
X51259484D01*
X51244600Y39234913D02*
Y39262107D01*
X51320805Y39338313D02*
X51302845Y39320352D01*
X51320805Y39302392*
X51338766Y39320352*
X51320805Y39338313*
Y39302392D02*
X51320805D01*
X51310284Y39327792D02*
X51331326D01*
X51320800Y39302397D02*
Y39338307D01*
X51320805Y39194639D02*
X51302845Y39176679D01*
X51320805Y39158719*
X51320805D02*
X51338766Y39176679D01*
X51320805Y39194639*
Y39158719D02*
X51320805D01*
X51310284Y39184119D02*
X51331326D01*
X51320800Y39158724D02*
Y39194634D01*
X51248963Y39266481D02*
X51231003Y39248521D01*
X51248963Y39230561*
X51248963D02*
X51266924Y39248521D01*
X51248963Y39266481*
Y39230561D02*
X51248963D01*
X51238442Y39255961D02*
X51259484D01*
X51244600Y39234924D02*
Y39262118D01*
X50000000Y40000000D02*
X51799996D01*
Y36859290*
X50000000*
Y40000000*
G54D109*
Y40276098D02*
X50639071D01*
X50000000D02*
X50127000Y40301498D01*
Y40250698*
X50000000Y40276098*
X51799996D02*
X51160925D01*
X51799996D02*
X51672996Y40250698D01*
Y40301498*
X51799996Y40276098*
X50000000Y40050800D02*
Y40326898D01*
X51799996Y40050800D02*
Y40326898D01*
X52180336Y36857766D02*
Y38305058D01*
Y36857766D02*
X52154936Y36984766D01*
X52205736*
X52180336Y36857766*
Y40000000D02*
Y38552708D01*
Y40000000D02*
X52205736Y39873000D01*
X52154936*
X52180336Y40000000*
X51859788Y36857766D02*
X52231136D01*
X51850796Y40000000D02*
X52231136D01*
G54D117*
X50762000Y38476000D03*
G54D118*
X51320800Y39440056D03*
X51544400D03*
G54D163*
X50177800Y39120909D03*
Y39213409D03*
G54D166*
X50383286Y37063000D03*
X50510286D03*
X50637286D03*
X50764286D03*
Y37603000D03*
X50637286D03*
X50510286D03*
X50383286D03*
G54D203*
X51430000Y39165356D03*
G54D204*
X51587500Y39022856D03*
Y39307856D03*
X0Y0D02*
M02*
